<svg width="47" height="27" viewBox="0 0 47 27" fill="none" xmlns="http://www.w3.org/2000/svg">
<path d="M0.865866 4.96448L21.271 25.3694C21.8474 25.9465 22.5305 26.2347 23.3205 26.2347C24.1105 26.2347 24.7934 25.9465 25.3705 25.3694L45.7756 4.96448C46.3526 4.38746 46.6409 3.70435 46.6409 2.91499C46.6409 2.12563 46.3526 1.44204 45.7756 0.865493C45.1979 0.28847 44.515 3.7038e-05 43.7256 3.6969e-05L2.91552 3.34013e-05C2.126 3.33322e-05 1.44257 0.288466 0.865866 0.865489C0.289481 1.44187 9.16832e-05 2.12546 9.16142e-05 2.91498C9.15451e-05 3.7045 0.289481 4.38745 0.865866 4.96448Z" fill="#CDCDCD"/>
</svg>
