<svg width="50" height="50" viewBox="0 0 50 50" fill="none" xmlns="http://www.w3.org/2000/svg">
<path d="M24.9995 12.5C18.0995 12.5 12.4995 18.1 12.4995 25C12.4995 31.9 18.0995 37.4999 24.9995 37.4999C31.8995 37.4999 37.4996 31.8999 37.4996 24.9999C37.4996 18.0999 31.8995 12.5 24.9995 12.5Z" fill="#D25F33" fill-opacity="0.5"/>
<path d="M24.9999 0C11.1875 0 0 11.1875 0 24.9999C0 38.8124 11.1875 49.9999 24.9999 49.9999C38.8124 49.9999 50 38.8125 50 24.9999C50 11.1874 38.8125 0 24.9999 0ZM24.9999 45C13.95 45 4.99992 36.05 4.99992 24.9999C4.99992 13.9499 13.95 5.00004 24.9999 5.00004C36.0499 5.00004 45 13.95 45 24.9999C45 36.0499 36.05 45 24.9999 45Z" fill="#D25F33" fill-opacity="0.5"/>
</svg>
