<svg width="50" height="50" viewBox="0 0 50 50" fill="none" xmlns="http://www.w3.org/2000/svg">
<path d="M24.9996 12.5C18.0996 12.5 12.4995 18.1 12.4995 25.0001C12.4995 31.9001 18.0996 37.5 24.9996 37.5C31.8996 37.5 37.4996 31.9 37.4996 24.9999C37.4996 18.0999 31.8996 12.5 24.9996 12.5Z" fill="#DD2D4A"/>
<path d="M25 0C11.1876 0 0 11.1876 0 25C0 38.8124 11.1876 50 25 50C38.8124 50 50.0001 38.8126 50.0001 25C50.0001 11.1874 38.8126 0 25 0ZM25 45.0001C13.95 45.0001 4.99993 36.0501 4.99993 25C4.99993 13.9499 13.95 5.00005 25 5.00005C36.05 5.00005 45.0001 13.95 45.0001 25C45.0001 36.05 36.0501 45.0001 25 45.0001Z" fill="#DD2D4A"/>
</svg>
