<svg width="52" height="52" viewBox="0 0 52 52" fill="none" xmlns="http://www.w3.org/2000/svg">
<path d="M50.7621 1.23805L50.762 1.23802C49.778 0.253992 48.1826 0.253992 47.1986 1.23802L1.23802 47.1985C0.253991 48.1825 0.253993 49.7779 1.23802 50.762C1.72998 51.2541 2.37585 51.5 3.0198 51.5C3.66387 51.5 4.3096 51.2539 4.80158 50.7619C4.80159 50.7618 4.80161 50.7618 4.80162 50.7618L50.762 4.80138C51.746 3.81744 51.746 2.22206 50.7621 1.23805Z" fill="#43454B" stroke="#43454B"/>
<path d="M50.762 47.1989L50.762 47.1989C51.7459 48.1829 51.7459 49.7782 50.7621 50.7624L50.4085 50.4089L50.7621 50.7624C50.2703 51.2543 49.6244 51.5004 48.9804 51.5004C48.3363 51.5004 47.6905 51.2543 47.1986 50.7623C47.1986 50.7623 47.1986 50.7623 47.1986 50.7623L1.23802 4.80175C0.254019 3.81774 0.253973 2.22237 1.238 1.23841C1.23802 1.2384 1.23803 1.23838 1.23805 1.23837M50.762 47.1989L4.44783 1.59194C3.65916 0.803174 2.38025 0.803174 1.59158 1.59194L1.23805 1.23837M50.762 47.1989L4.8014 1.23841L4.44795 1.59183L4.80138 1.23839M50.762 47.1989L4.80138 1.23839M1.23805 1.23837C2.22198 0.254358 3.81746 0.254365 4.80138 1.23839M1.23805 1.23837L4.80138 1.23839" fill="#43454B" stroke="#43454B"/>
</svg>
