<svg width="51" height="50" viewBox="0 0 51 50" fill="none" xmlns="http://www.w3.org/2000/svg">
<path d="M49.5198 0.591577C48.7311 -0.197192 47.4522 -0.197192 46.6635 0.591577L0.702906 46.552C-0.0858643 47.3408 -0.0858643 48.6196 0.702906 49.4084C1.09724 49.8029 1.61423 50 2.13113 50C2.64802 50 3.16492 49.8028 3.55935 49.4083L49.5198 3.44783C50.3085 2.65916 50.3085 1.38035 49.5198 0.591577Z" fill="#3E3E3F"/>
<path d="M49.5197 46.5524L3.55916 0.591944C2.77048 -0.196826 1.49158 -0.196826 0.702906 0.591944C-0.0858643 1.38062 -0.0858643 2.65943 0.702906 3.44819L46.6635 49.4088C47.0578 49.8032 47.5748 50.0004 48.0917 50.0004C48.6086 50.0004 49.1256 49.8032 49.5198 49.4089C50.3084 48.62 50.3084 47.3412 49.5197 46.5524Z" fill="#3E3E3F"/>
</svg>
