<svg width="73" height="52" viewBox="0 0 73 52" fill="none" xmlns="http://www.w3.org/2000/svg">
<path d="M69.3334 22.9722H3.77778C2.10554 22.9722 0.75 24.3277 0.75 25.9999C0.75 27.6722 2.10554 29.0277 3.77778 29.0277H69.3334C71.0056 29.0277 72.3612 27.6722 72.3612 25.9999C72.3612 24.3277 71.0056 22.9722 69.3334 22.9722Z" fill="#43454B" stroke="#43454B" stroke-width="0.5"/>
<path d="M69.3336 0.75H3.77802C2.10578 0.75 0.750244 2.10554 0.750244 3.77778C0.750244 5.45002 2.10578 6.80556 3.77802 6.80556H69.3336C71.0059 6.80556 72.3614 5.45002 72.3614 3.77778C72.3614 2.10554 71.0059 0.75 69.3336 0.75Z" fill="#43454B" stroke="#43454B" stroke-width="0.5"/>
<path d="M69.3334 45.1945H3.77778C2.10554 45.1945 0.75 46.55 0.75 48.2222C0.75 49.8945 2.10554 51.25 3.77778 51.25H69.3334C71.0056 51.25 72.3612 49.8945 72.3612 48.2222C72.3612 46.55 71.0056 45.1945 69.3334 45.1945Z" fill="#43454B" stroke="#43454B" stroke-width="0.5"/>
</svg>
