<svg width="72" height="50" viewBox="0 0 72 50" fill="none" xmlns="http://www.w3.org/2000/svg">
<path d="M68.3334 22.2222H2.77778C1.24361 22.2222 0 23.4658 0 24.9999C0 26.5341 1.24361 27.7777 2.77778 27.7777H68.3334C69.8675 27.7777 71.1112 26.5341 71.1112 24.9999C71.1112 23.4658 69.8675 22.2222 68.3334 22.2222Z" fill="#3E3E3F"/>
<path d="M68.3336 0H2.77802C1.24386 0 0.000244141 1.24361 0.000244141 2.77778C0.000244141 4.31195 1.24386 5.55556 2.77802 5.55556H68.3336C69.8678 5.55556 71.1114 4.31195 71.1114 2.77778C71.1114 1.24361 69.8678 0 68.3336 0Z" fill="#3E3E3F"/>
<path d="M68.3334 44.4445H2.77778C1.24361 44.4445 0 45.6881 0 47.2222C0 48.7564 1.24361 50 2.77778 50H68.3334C69.8675 50 71.1112 48.7564 71.1112 47.2222C71.1112 45.6881 69.8675 44.4445 68.3334 44.4445Z" fill="#3E3E3F"/>
</svg>
