<svg width="51" height="50" viewBox="0 0 51 50" fill="none" xmlns="http://www.w3.org/2000/svg">
<path d="M48.0277 22.9165H27.1946V2.08336C27.1946 0.932735 26.2618 0 25.1112 0C23.9606 0 23.0278 0.932735 23.0278 2.08336V22.9166H2.19469C1.04406 22.9165 0.111328 23.8493 0.111328 24.9999C0.111328 26.1505 1.04406 27.0832 2.19469 27.0832H23.028V47.9165C23.028 49.0672 23.9607 49.9999 25.1113 49.9999C26.262 49.9999 27.1947 49.0672 27.1947 47.9165V27.0832H48.028C49.1786 27.0832 50.1113 26.1505 50.1113 24.9999C50.1113 23.8493 49.1783 22.9165 48.0277 22.9165Z" fill="#3E3E3F"/>
</svg>
