<svg width="52" height="52" viewBox="0 0 52 52" fill="none" xmlns="http://www.w3.org/2000/svg">
<path d="M48.9164 23.4165H28.5832V3.08336C28.5832 1.65659 27.4266 0.5 25.9999 0.5C24.5731 0.5 23.4165 1.65659 23.4165 3.08336V23.4166H3.08342C3.0834 23.4166 3.08338 23.4166 3.08336 23.4166C1.65656 23.4165 0.5 24.5731 0.5 25.9999C0.5 27.4267 1.65659 28.5832 3.08336 28.5832H23.4166V48.9165C23.4166 50.3433 24.5732 51.4999 26 51.4999C27.4268 51.4999 28.5834 50.3433 28.5834 48.9165V28.5832H48.9166C50.3434 28.5832 51.5 27.4267 51.5 25.9999C51.5 24.573 50.3431 23.4165 48.9164 23.4165Z" fill="white" stroke="white"/>
</svg>
