<svg width="46" height="50" viewBox="0 0 46 50" fill="none" xmlns="http://www.w3.org/2000/svg">
<path d="M42.4606 17.885H41.2602V12.0912C41.2602 12.0551 41.2543 12.0187 41.2496 11.9821C41.2477 11.7521 41.1745 11.5262 41.017 11.3472L31.3767 0.335315C31.3739 0.332488 31.3709 0.331485 31.369 0.328475C31.3116 0.264276 31.2446 0.210837 31.1737 0.164694C31.1527 0.15065 31.1316 0.138886 31.1096 0.126575C31.0483 0.0931987 30.9832 0.065385 30.9161 0.0452315C30.898 0.0402159 30.8818 0.0330117 30.8636 0.0280873C30.7907 0.0107607 30.7151 0 30.6386 0H6.94638C5.86447 0 4.98565 0.879916 4.98565 1.96082V17.8845H3.78528C2.23757 17.8845 0.982666 19.1387 0.982666 20.6868V35.2605C0.982666 36.8072 2.23757 38.0629 3.78528 38.0629H4.98565V48.0393C4.98565 49.1203 5.86447 50 6.94638 50H39.2994C40.3803 50 41.2602 49.1203 41.2602 48.0393V38.063H42.4606C44.0078 38.063 45.2629 36.8078 45.2629 35.2606V20.6874C45.263 19.1387 44.0078 17.885 42.4606 17.885ZM6.94638 1.96082H29.6581V11.9925C29.6581 12.5345 30.0975 12.9729 30.6385 12.9729H39.2994V17.8849H6.94638V1.96082ZM30.4724 27.1772C30.4724 31.6344 27.77 34.3362 23.7964 34.3362C19.763 34.3362 17.4032 31.2911 17.4032 27.4194C17.4032 23.3452 20.0048 20.3001 24.0181 20.3001C28.1923 20.3001 30.4724 23.4255 30.4724 27.1772ZM3.99065 34.0542V20.7041C5.11998 20.5221 6.59191 20.4212 8.14556 20.4212C10.7268 20.4212 12.4003 20.8853 13.7113 21.8731C15.123 22.922 16.0108 24.5962 16.0108 26.9957C16.0108 29.5974 15.0631 31.3921 13.7525 32.5013C12.3204 33.6913 10.1421 34.2556 7.47976 34.2556C5.88563 34.2557 4.75676 34.1549 3.99065 34.0542ZM39.2994 47.5078H6.94638V38.063H39.2994V47.5078ZM39.4476 31.7757C40.3754 31.7757 41.4042 31.573 42.0088 31.3319L42.4732 33.7316C41.9082 34.0151 40.6378 34.3161 38.9844 34.3161C34.2854 34.3161 31.8651 31.3922 31.8651 27.5199C31.8651 22.8825 35.1724 20.3001 39.2859 20.3001C40.879 20.3001 42.0901 20.6227 42.635 20.9054L42.0093 23.3452C41.3846 23.0833 40.5172 22.8408 39.4278 22.8408C36.9876 22.8408 35.0916 24.3133 35.0916 27.338C35.0911 30.0609 36.7048 31.7757 39.4476 31.7757Z" fill="#00B9F2"/>
<path d="M12.7431 27.0966C12.7632 24.2726 11.1092 22.7804 8.46798 22.7804C7.78221 22.7804 7.33756 22.8407 7.07593 22.9016V31.7958C7.33747 31.8564 7.76169 31.8564 8.14507 31.8564C10.9279 31.8761 12.7431 30.3433 12.7431 27.0966Z" fill="#00B9F2"/>
<path d="M20.6504 27.3581C20.6504 30.0211 21.901 31.8963 23.9578 31.8963C26.0354 31.8963 27.225 29.9192 27.225 27.2777C27.225 24.8367 26.0555 22.7402 23.9377 22.7402C21.8613 22.7407 20.6504 24.717 20.6504 27.3581Z" fill="#00B9F2"/>
</svg>
