<svg width="45" height="50" viewBox="0 0 45 50" fill="none" xmlns="http://www.w3.org/2000/svg">
<path d="M42.1805 17.8848H40.9798V12.0918C40.9798 12.0554 40.9742 12.0193 40.9693 11.9823C40.9674 11.7523 40.8941 11.5264 40.7366 11.3476L31.0966 0.335132C31.0936 0.332305 31.0907 0.331302 31.0888 0.328475C31.0314 0.264276 30.9644 0.210655 30.8934 0.164694C30.8725 0.150376 30.8513 0.138613 30.8294 0.126484C30.7681 0.0931987 30.7029 0.0652026 30.6359 0.0450491C30.6177 0.0403071 30.6014 0.0328293 30.5833 0.0279049C30.5105 0.0107607 30.4349 0 30.3584 0H6.66611C5.58429 0 4.70538 0.879916 4.70538 1.96082V17.8842H3.50492C1.95729 17.8842 0.702393 19.1387 0.702393 20.6866V35.26C0.702393 36.8072 1.95729 38.0629 3.50492 38.0629H4.70538V48.0393C4.70538 49.1203 5.58429 50 6.66611 50H39.019C40.0999 50 40.9797 49.1203 40.9797 48.0393V38.063H42.1804C43.7275 38.063 44.9826 36.8078 44.9826 35.2606V20.6871C44.9827 19.1392 43.7276 17.8848 42.1805 17.8848ZM6.66611 1.96128H29.3779V11.993C29.3779 12.5347 29.8172 12.9734 30.3584 12.9734H39.0191V17.8851H6.66611V1.96128ZM31.3601 30.6267C32.0753 30.6267 32.8691 30.4716 33.3359 30.2839L33.693 32.1352C33.2582 32.3519 32.2787 32.5865 31.0035 32.5865C27.3787 32.5865 25.5133 30.3313 25.5133 27.3455C25.5133 23.7684 28.0639 21.7778 31.2367 21.7778C32.4646 21.7778 33.3984 22.0274 33.8184 22.2446L33.3364 24.1268C32.8543 23.9238 32.186 23.738 31.3455 23.738C29.4632 23.738 28.0021 24.8728 28.0021 27.2058C28.0016 29.3035 29.2458 30.6267 31.3601 30.6267ZM24.4386 27.0814C24.4386 30.518 22.3545 32.6019 19.2913 32.6019C16.1805 32.6019 14.3609 30.2529 14.3609 27.2676C14.3609 24.1263 16.3667 21.7773 19.4622 21.7773C22.6825 21.7773 24.4386 24.1886 24.4386 27.0814ZM4.01815 32.3846V22.0887C4.88922 21.949 6.02429 21.8721 7.22174 21.8721C9.21247 21.8721 10.5029 22.2293 11.5128 22.9916C12.6021 23.7999 13.287 25.091 13.287 26.9413C13.287 28.9469 12.5559 30.3319 11.5447 31.1868C10.4403 32.104 8.7608 32.5402 6.70742 32.5402C5.47987 32.5397 4.60889 32.4616 4.01815 32.3846ZM39.0191 47.5083H6.66611V38.063H39.019V47.5083H39.0191ZM40.8166 32.4305L39.8674 30.5333C39.4786 29.8027 39.2297 29.2575 38.9344 28.6515H38.9032C38.6854 29.2585 38.4217 29.8027 38.0951 30.5333L37.2241 32.4305H34.5179L37.5504 27.1269L34.6274 21.9485H37.3494L38.2666 23.8621C38.5778 24.4985 38.8104 25.0124 39.0594 25.6031H39.0899C39.3388 24.9345 39.5418 24.4681 39.8052 23.8621L40.6917 21.9485H43.3985L40.4433 27.0646L43.5534 32.4305H40.8166Z" fill="#00B9F2"/>
<path d="M10.7673 27.0182C10.7824 24.8416 9.50761 23.6902 7.47073 23.6902C6.94118 23.6902 6.59966 23.7371 6.39722 23.7839V30.6416C6.60021 30.688 6.92668 30.688 7.22223 30.688C9.36836 30.7043 10.7673 29.5229 10.7673 27.0182Z" fill="#00B9F2"/>
<path d="M16.8657 27.2203C16.8657 29.2735 17.8301 30.7195 19.4163 30.7195C21.0183 30.7195 21.9347 29.1964 21.9347 27.1589C21.9347 25.2766 21.0333 23.6592 19.3995 23.6592C17.798 23.6597 16.8657 25.1839 16.8657 27.2203Z" fill="#00B9F2"/>
</svg>
