<svg width="62" height="50" viewBox="0 0 62 50" fill="none" xmlns="http://www.w3.org/2000/svg">
<path d="M49.281 50H1.66505C0.569304 50 -0.227504 48.9596 0.058666 47.9011L10.8736 18.2511C11.0693 17.5256 11.7278 17.0213 12.4799 17.0213H60.0959C61.1916 17.0213 61.7023 18.0681 61.7023 19.1202L50.8874 48.7702C50.6916 49.4958 50.0331 50 49.281 50Z" fill="#FDCA40"/>
<path d="M53.4768 7.44681H26.596L21.2768 0H1.8428C0.825776 0 0.000244141 0.824468 0.000244141 1.84255V47.2979C0.0736484 47.3 0.147053 47.3043 0.218329 47.3085L10.8726 18.2511C11.0683 17.5245 11.7268 17.0213 12.479 17.0213H55.3194V9.28936C55.3194 8.27128 54.4939 7.44681 53.4768 7.44681Z" fill="#E8B838"/>
</svg>
