<svg width="45" height="50" viewBox="0 0 45 50" fill="none" xmlns="http://www.w3.org/2000/svg">
<path d="M20.4575 22.7432C19.785 22.7432 19.3285 22.8085 19.0894 22.8741V27.1963C19.3723 27.2615 19.7198 27.2835 20.1971 27.2835C21.9571 27.2835 23.0435 26.3921 23.0435 24.8942C23.0435 23.5472 22.1088 22.7432 20.4575 22.7432Z" fill="#43454B"/>
<path d="M41.8625 17.8848H40.6619V12.0918C40.6619 12.0556 40.6561 12.0192 40.6513 11.9826C40.6494 11.7526 40.5763 11.5267 40.4188 11.3477L30.7785 0.33533C30.7756 0.332516 30.7728 0.331517 30.7708 0.328431C30.7133 0.264252 30.6464 0.210875 30.5755 0.164669C30.5546 0.150599 30.5334 0.138798 30.5115 0.126634C30.4501 0.0931371 30.385 0.0653594 30.318 0.0452977C30.2999 0.0402142 30.2835 0.0327705 30.2654 0.0280501C30.1926 0.0108024 30.1169 0 30.0403 0H6.3482C5.26632 0 4.38742 0.8799 4.38742 1.96087V17.8843H3.18708C1.63942 17.8843 0.384521 19.1387 0.384521 20.6869V35.2606C0.384521 36.8078 1.63942 38.0629 3.18708 38.0629H4.38751V48.0391C4.38751 49.12 5.26641 50 6.34829 50H38.7012C39.7821 50 40.6619 49.1201 40.6619 48.0391V38.0629H41.8626C43.4098 38.0629 44.6649 36.8078 44.6649 35.2606V20.6873C44.6648 19.1392 43.4097 17.8848 41.8625 17.8848ZM6.3482 1.96123H29.0599V11.9933C29.0599 12.5349 29.4994 12.9737 30.0403 12.9737H38.7011V17.8854H6.3482V1.96123ZM26.3227 24.8068C26.3227 26.2402 25.8449 27.4566 24.9766 28.2829C23.8464 29.3471 22.1738 29.8243 20.2197 29.8243C19.7851 29.8243 19.3935 29.8033 19.0895 29.7597V34.9943H15.8096V20.5502C16.8311 20.3754 18.2644 20.2457 20.2845 20.2457C22.3262 20.2457 23.7816 20.6363 24.7602 21.4187C25.6933 22.1569 26.3227 23.3736 26.3227 24.8068ZM5.42527 34.8857L5.79528 32.2141C6.2517 32.3663 6.8374 32.4754 7.48899 32.4754C8.88015 32.4754 9.74825 31.8445 9.74825 29.564V20.3539H13.0496V29.6072C13.0496 33.7781 11.0507 35.2329 7.83649 35.2329C7.07687 35.2333 6.07732 35.1041 5.42527 34.8857ZM38.7012 47.5084H6.3482V38.0629H38.7011V47.5084H38.7012ZM40.6609 34.3214C39.6403 34.6689 37.7073 35.1466 35.7723 35.1466C33.1021 35.1466 31.168 34.4732 29.822 33.1701C28.4749 31.9106 27.7353 29.9991 27.7578 27.8484C27.7788 22.9825 31.3194 20.2022 36.1208 20.2022C38.0107 20.2022 39.467 20.5709 40.1831 20.9188L39.488 23.5687C38.6838 23.2211 37.6843 22.9387 36.0768 22.9387C33.3185 22.9387 31.2342 24.5031 31.2342 27.6745C31.2342 30.6938 33.1232 32.475 35.8389 32.475C36.599 32.475 37.2075 32.3878 37.4679 32.2572V29.1945H35.2083V26.6099H40.6608V34.3214H40.6609Z" fill="#43454B"/>
</svg>
