<svg width="46" height="50" viewBox="0 0 46 50" fill="none" xmlns="http://www.w3.org/2000/svg">
<path d="M12.5227 25.6195C12.5227 24.2731 11.5878 23.4695 9.93792 23.4695C9.2649 23.4695 8.80893 23.5344 8.56982 23.5995V27.923C8.8525 27.9871 9.2 28.0091 9.67658 28.0091C11.4368 28.0091 12.5227 27.1187 12.5227 25.6195Z" fill="#DD2D4A"/>
<path d="M22.7347 23.5129C21.9953 23.5129 21.5185 23.578 21.2351 23.6432V33.2223C21.518 33.2884 21.9742 33.2884 22.3871 33.2884C25.3842 33.3094 27.3393 31.6593 27.3393 28.1619C27.3613 25.1197 25.5796 23.5129 22.7347 23.5129Z" fill="#DD2D4A"/>
<path d="M42.3017 17.8848H41.1011V12.0918C41.1011 12.0556 41.0953 12.0192 41.0905 11.9826C41.0886 11.7526 41.0155 11.5267 40.858 11.3477L31.2177 0.33533C31.2148 0.332516 31.212 0.331517 31.21 0.328431C31.1526 0.264252 31.0856 0.210875 31.0148 0.164669C30.9938 0.150599 30.9726 0.138798 30.9507 0.126634C30.8893 0.0931371 30.8242 0.0653594 30.7572 0.0452977C30.7391 0.0402142 30.7227 0.0327705 30.7046 0.0280501C30.6318 0.0108024 30.5562 0 30.4795 0H6.78741C5.70553 0 4.82663 0.8799 4.82663 1.96087V17.8843H3.62628C2.07863 17.8843 0.82373 19.1387 0.82373 20.6869V35.2606C0.82373 36.8078 2.07863 38.0629 3.62628 38.0629H4.82672V48.0391C4.82672 49.12 5.70562 50 6.7875 50H39.1404C40.2213 50 41.1012 49.1201 41.1012 48.0391V38.0629H42.3018C43.849 38.0629 45.1041 36.8078 45.1041 35.2606V20.6873C45.1041 19.1392 43.8489 17.8848 42.3017 17.8848ZM6.78741 1.96123H29.4991V11.9933C29.4991 12.5349 29.9386 12.9737 30.4795 12.9737H39.1403V17.8854H6.78741V1.96123ZM30.8577 28.0521C30.8577 30.855 29.8371 32.7875 28.4231 33.9829C26.8825 35.2644 24.536 35.8723 21.6696 35.8723C19.954 35.8723 18.7378 35.7636 17.9114 35.6554V21.2749C19.1277 21.0798 20.7144 20.9712 22.3871 20.9712C25.1659 20.9712 26.9693 21.4712 28.3819 22.5349C29.9017 23.6646 30.8577 25.4672 30.8577 28.0521ZM5.28959 35.7206V21.2749C6.31001 21.1021 7.74438 20.9712 9.76453 20.9712C11.8062 20.9712 13.2619 21.3623 14.239 22.1447C15.1733 22.8829 15.8017 24.0995 15.8017 25.5333C15.8017 26.9675 15.3252 28.1838 14.4556 29.0087C13.3262 30.0733 11.6538 30.5515 9.69826 30.5515C9.26453 30.5515 8.87219 30.5294 8.56945 30.4859V35.721H5.28959V35.7206ZM39.1404 47.5084H6.78741V38.0629H39.1403V47.5084H39.1404ZM41.9814 23.7951H36.3543V27.1403H41.6114V29.834H36.3543V35.7207H33.0325V21.0798H41.9814V23.7951Z" fill="#DD2D4A"/>
</svg>
