<svg width="45" height="50" viewBox="0 0 45 50" fill="none" xmlns="http://www.w3.org/2000/svg">
<path d="M10.5653 25.1187C10.5653 23.848 9.68378 23.0897 8.1246 23.0897C7.49007 23.0897 7.06015 23.1509 6.83521 23.2127V27.291C7.10136 27.3524 7.4288 27.3723 7.88096 27.3723C9.53972 27.3734 10.5653 26.5323 10.5653 25.1187Z" fill="#43454B"/>
<path d="M41.582 17.8848H40.3813V12.0918C40.3813 12.0556 40.3756 12.0192 40.3708 11.9826C40.3689 11.7526 40.2957 11.5267 40.1382 11.3477L30.498 0.33533C30.4951 0.332516 30.4923 0.331517 30.4903 0.328431C30.4328 0.264252 30.3658 0.210875 30.295 0.164669C30.2741 0.150599 30.2529 0.138798 30.2309 0.126634C30.1696 0.0931371 30.1045 0.0653594 30.0375 0.0452977C30.0193 0.0402142 30.003 0.0327705 29.9848 0.0280501C29.912 0.0108024 29.8364 0 29.7598 0H6.06768C4.9858 0 4.1069 0.8799 4.1069 1.96087V17.8843H2.90656C1.3589 17.8843 0.104004 19.1387 0.104004 20.6869V35.2606C0.104004 36.8078 1.3589 38.0629 2.90656 38.0629H4.10699V48.0391C4.10699 49.12 4.98589 50 6.06777 50H38.4207C39.5015 50 40.3814 49.1201 40.3814 48.0391V38.0629H41.582C43.1292 38.0629 44.3844 36.8078 44.3844 35.2606V20.6873C44.3843 19.1392 43.1292 17.8848 41.582 17.8848ZM6.06768 1.96123H28.7794V11.9933C28.7794 12.5349 29.2189 12.9737 29.7598 12.9737H38.4206V17.8854H6.06768V1.96123ZM18.5172 30.4883V34.6487H15.6485V20.8355H19.2963L22.1659 25.8971C22.9851 27.3523 23.8057 29.0728 24.4194 30.6315H24.4807C24.2758 28.8066 24.2144 26.942 24.2144 24.8726V20.8355H27.0843V34.6487H23.8057L20.854 29.3198C20.0325 27.8444 19.1318 26.0617 18.454 24.4427L18.3936 24.4628C18.4774 26.2872 18.5172 28.2341 18.5172 30.4883ZM3.7398 34.6487V21.0203C4.70321 20.8565 6.05606 20.7335 7.96147 20.7335C9.8873 20.7335 11.2615 21.1022 12.1834 21.8403C13.0638 22.5368 13.659 23.6842 13.659 25.0374C13.659 26.3897 13.2088 27.5382 12.3882 28.3165C11.3227 29.3208 9.74451 29.7717 7.9001 29.7717C7.48961 29.7717 7.12006 29.7508 6.83475 29.7105V34.6497H3.7398V34.6487ZM38.4207 47.5084H6.06768V38.0629H38.4206V47.5084H38.4207ZM41.3301 34.013C40.367 34.3404 38.5421 34.7923 36.7182 34.7923C34.1983 34.7923 32.3726 34.1566 31.103 32.9273C29.8326 31.7381 29.1346 29.9344 29.1557 27.9057C29.1758 23.3152 32.5172 20.6923 37.0457 20.6923C38.829 20.6923 40.2032 21.0399 40.8783 21.3682L40.2234 23.8685C39.4637 23.5402 38.5211 23.2739 37.0046 23.2739C34.4033 23.2739 32.4348 24.7496 32.4348 27.742C32.4348 30.5907 34.2185 32.271 36.7805 32.271C37.4972 32.271 38.0712 32.1892 38.3177 32.0661V29.1762H36.1851V26.7372H41.3302V34.013H41.3301Z" fill="#43454B"/>
</svg>
