<svg width="45" height="50" viewBox="0 0 45 50" fill="none" xmlns="http://www.w3.org/2000/svg">
<path d="M22.8953 22.9045C22.2222 22.9045 21.766 22.9691 21.5266 23.0339V27.3572C21.8096 27.4223 22.1571 27.4442 22.6346 27.4442C24.3946 27.4442 25.4803 26.5534 25.4803 25.0546C25.4803 23.7079 24.5464 22.9045 22.8953 22.9045Z" fill="#DD2D4A"/>
<path d="M12.8574 25.0546C12.8574 23.7079 11.9242 22.9045 10.2732 22.9045C9.60035 22.9045 9.14392 22.9691 8.90454 23.0339V27.3572C9.1874 27.4223 9.53544 27.4442 10.0125 27.4442C11.7723 27.4442 12.8574 26.5534 12.8574 25.0546Z" fill="#DD2D4A"/>
<path d="M41.7409 17.8848H40.5403V12.0918C40.5403 12.0556 40.5346 12.0192 40.5297 11.9826C40.5278 11.7526 40.4547 11.5267 40.2972 11.3477L30.6569 0.33533C30.654 0.332516 30.6512 0.331517 30.6492 0.328431C30.5918 0.264252 30.5248 0.210875 30.454 0.164669C30.433 0.150599 30.4118 0.138798 30.3899 0.126634C30.3285 0.0931371 30.2634 0.0653594 30.1964 0.0452977C30.1783 0.0402142 30.1619 0.0327705 30.1438 0.0280501C30.071 0.0108024 29.9954 0 29.9187 0H6.22662C5.14474 0 4.26584 0.8799 4.26584 1.96087V17.8843H3.06549C1.51784 17.8843 0.262939 19.1387 0.262939 20.6869V35.2606C0.262939 36.8078 1.51784 38.0629 3.06549 38.0629H4.26593V48.0391C4.26593 49.12 5.14483 50 6.22671 50H38.5796C39.6605 50 40.5404 49.1201 40.5404 48.0391V38.0629H41.741C43.2882 38.0629 44.5434 36.8078 44.5434 35.2606V20.6873C44.5433 19.1392 43.2881 17.8848 41.7409 17.8848ZM6.22662 1.96123H28.9384V11.9933C28.9384 12.5349 29.3778 12.9737 29.9187 12.9737H38.5795V17.8854H6.22662V1.96123ZM28.7603 24.9676C28.7603 26.4015 28.2826 27.6175 27.4142 28.4428C26.2835 29.5066 24.6109 29.9852 22.6556 29.9852C22.2217 29.9852 21.8306 29.9627 21.5266 29.9201V35.1553H18.2463V20.7098C19.2674 20.5364 20.7018 20.4054 22.7218 20.4054C24.7632 20.4054 26.2189 20.7967 27.196 21.5789C28.1304 22.3179 28.7603 23.5339 28.7603 24.9676ZM5.62413 35.1553V20.7098C6.64528 20.5364 8.07965 20.4054 10.0996 20.4054C12.1413 20.4054 13.5968 20.7967 14.5738 21.5789C15.5085 22.3179 16.138 23.534 16.138 24.9677C16.138 26.4016 15.6605 27.6176 14.7919 28.4429C13.6613 29.5071 11.9888 29.9853 10.0335 29.9853C9.59952 29.9853 9.20846 29.9628 8.90399 29.9202V35.1553H5.62413V35.1553ZM38.5796 47.5084H6.22662V38.0629H38.5795V47.5084H38.5796ZM41.0132 23.2951H37.016V35.1553H33.693V23.2951H29.7609V20.5148H41.0132V23.2951Z" fill="#DD2D4A"/>
</svg>
