<svg width="45" height="50" viewBox="0 0 45 50" fill="none" xmlns="http://www.w3.org/2000/svg">
<path d="M17.9813 23.9233C17.4794 23.9233 17.1397 23.9724 16.9622 24.0201V27.2385C17.173 27.2878 17.4313 27.3037 17.7871 27.3037C19.0979 27.3037 19.9061 26.6401 19.9061 25.5237C19.9061 24.522 19.2097 23.9233 17.9813 23.9233Z" fill="#DD2D4A"/>
<path d="M42.0215 17.8843H40.8209V12.0912C40.8209 12.0548 40.8152 12.0187 40.8104 11.9818C40.8085 11.7518 40.7352 11.5258 40.5777 11.3471L30.9376 0.335315C30.9346 0.332214 30.9318 0.331302 30.9299 0.328475C30.8724 0.264276 30.8055 0.210655 30.7344 0.164694C30.7136 0.150376 30.6924 0.138613 30.6704 0.126484C30.6092 0.0931987 30.5439 0.0652026 30.477 0.0450491C30.4588 0.0403071 30.4425 0.0328293 30.4244 0.0279049C30.3515 0.0107607 30.2759 0 30.1994 0H6.50717C5.42535 0 4.54644 0.879916 4.54644 1.96082V17.8842H3.34598C1.79836 17.8842 0.543457 19.1387 0.543457 20.6866V35.26C0.543457 36.8072 1.79836 38.0629 3.34598 38.0629H4.54644V48.0393C4.54644 49.1203 5.42535 50 6.50717 50H38.8601C39.941 50 40.8208 49.1203 40.8208 48.0393V38.063H42.0214C43.5686 38.063 44.8237 36.8078 44.8237 35.2606V20.6874C44.8238 19.1387 43.5687 17.8843 42.0215 17.8843ZM6.50717 1.96082H29.219V11.9925C29.219 12.5342 29.6583 12.9729 30.1994 12.9729H38.8602V17.8847H6.50717V1.96082ZM23.0934 24.2156V22.1445H31.4706V24.2156H28.495V33.045H26.0212V24.2156H23.0934ZM22.3468 25.4605C22.3468 26.5271 21.9921 27.4322 21.3449 28.047C20.5034 28.8396 19.2578 29.1964 17.8033 29.1964C17.479 29.1964 17.1877 29.18 16.9617 29.1471V33.0447H14.5196V22.2901C15.2798 22.1609 16.3476 22.0632 17.8514 22.0632C19.3725 22.0632 20.4554 22.3545 21.184 22.9364C21.8794 23.4868 22.3468 24.3925 22.3468 25.4605ZM5.12296 33.0447V22.2901C5.88314 22.1609 6.94991 22.0632 8.45385 22.0632C9.97449 22.0632 11.0573 22.3545 11.7857 22.9364C12.4812 23.4869 12.9498 24.3925 12.9498 25.4596C12.9498 26.5261 12.5939 27.4318 11.9469 28.0465C11.1053 28.8392 9.86077 29.1954 8.40479 29.1954C8.08234 29.1954 7.78961 29.179 7.56318 29.1466V33.0441H5.12296V33.0447ZM38.8602 47.5078H6.50717V38.063H38.8601V47.5078H38.8602ZM38.8152 33.0447L37.8281 31.0715C37.4246 30.3113 37.1646 29.7454 36.8573 29.115H36.8257C36.5998 29.7454 36.3239 30.3113 35.985 31.0715L35.0789 33.0447H32.2654L35.4182 27.5286L32.3788 22.1445H35.2084L36.162 24.1343C36.4862 24.7971 36.7288 25.3309 36.9873 25.9454H37.0198C37.2783 25.2494 37.489 24.7642 37.7638 24.1343L38.6857 22.1445H41.5005L38.4272 27.4653L41.6614 33.0447H38.8152Z" fill="#DD2D4A"/>
<path d="M10.5078 25.5236C10.5078 24.5215 9.81222 23.9229 8.58286 23.9229C8.08248 23.9229 7.74106 23.9719 7.56323 24.0196V27.2384C7.77434 27.2872 8.03242 27.3036 8.3888 27.3036C9.69951 27.3036 10.5078 26.6405 10.5078 25.5236Z" fill="#DD2D4A"/>
</svg>
