<svg width="587" height="90" viewBox="0 0 587 90" fill="none" xmlns="http://www.w3.org/2000/svg">
<g clip-path="url(#clip0)">
<path d="M268.657 80.0514L261.904 44.8154H271.669L274.506 63.8292C274.672 64.9691 274.794 65.9603 274.869 66.802C274.945 67.6445 274.999 68.4422 275.033 69.1971C275.334 68.041 275.626 66.9864 275.911 66.0316C276.196 65.0769 276.446 64.278 276.665 63.6365L283.191 44.8154H292.253L294.914 63.8292C295.08 64.9362 295.202 65.9159 295.278 66.7659C295.353 67.6171 295.407 68.4268 295.441 69.1971C295.575 68.539 295.771 67.8047 296.031 66.9947C296.29 66.1851 296.688 65.0642 297.223 63.6365L304.628 44.8154H314.82L299.432 80.0514H289.366L286.856 63.6611C286.688 62.5534 286.562 61.5709 286.479 60.7125C286.396 59.8545 286.345 59.0394 286.328 58.269C286.045 59.3292 285.764 60.3275 285.488 61.266C285.211 62.2045 284.948 63.0597 284.697 63.8292L279.125 80.0514H268.657Z" fill="#404041"/>
<path d="M335.876 53.0443C332.88 53.0443 330.37 54.0327 328.345 56.0103C326.321 57.9875 325.308 60.4394 325.308 63.3661C325.308 65.9559 326.115 68.0251 327.731 69.5734C329.346 71.1204 331.5 71.8935 334.195 71.8935C337.139 71.8935 339.641 70.8714 341.699 68.826C343.758 66.779 344.788 64.2852 344.788 61.3433C344.788 58.9216 343.95 56.9329 342.278 55.3779C340.603 53.823 338.47 53.0443 335.876 53.0443ZM333.617 80.124C330.989 80.124 328.6 79.7945 326.45 79.1348C324.3 78.4762 322.388 77.4878 320.714 76.1703C318.958 74.7601 317.585 73.0207 316.597 70.9515C315.61 68.8831 315.117 66.6846 315.117 64.3549C315.117 61.8417 315.539 59.4918 316.385 57.3088C317.229 55.1254 318.488 53.1442 320.162 51.3664C322.12 49.2512 324.509 47.6308 327.329 46.5044C330.148 45.378 333.206 44.8154 336.503 44.8154C342.026 44.8154 346.49 46.2709 349.895 49.183C353.301 52.0943 355.004 55.8799 355.004 60.5385C355.004 63.0371 354.573 65.3858 353.711 67.5846C352.849 69.7839 351.59 71.7647 349.934 73.5266C347.909 75.6878 345.516 77.3276 342.754 78.4461C339.993 79.5645 336.947 80.124 333.617 80.124Z" fill="#404041"/>
<path d="M368.201 60.9171H371.289C373.23 60.9171 374.72 60.4921 375.757 59.6408C376.795 58.7912 377.314 57.5637 377.314 55.9596C377.314 54.4518 376.828 53.3559 375.857 52.6728C374.887 51.9916 373.33 51.6507 371.188 51.6507H369.733L368.201 60.9171ZM365.064 80.0514H355.298L361.098 44.8154H370.888C373.833 44.8154 376.025 44.9157 377.464 45.116C378.903 45.3166 380.15 45.6579 381.203 46.1389C383.061 46.973 384.467 48.149 385.421 49.6651C386.376 51.1816 386.852 52.9987 386.852 55.1163C386.852 58.0375 385.944 60.4798 384.129 62.4459C382.313 64.4109 379.815 65.6423 376.636 66.1399L385.572 80.0514H374.377L367.273 66.597L365.064 80.0514Z" fill="#404041"/>
<path d="M388.812 80.0514L394.611 44.8154H404.449L401.965 59.5453L415.948 44.8154H428.651L410.552 62.2171L423.051 80.0514H411.429L401.135 64.5278L398.577 80.0514H388.812Z" fill="#404041"/>
<path d="M432.168 67.6112C433.708 69.121 435.176 70.2184 436.575 70.9039C437.971 71.589 439.415 71.9328 440.903 71.9328C442.143 71.9328 443.128 71.6584 443.866 71.1097C444.604 70.5602 444.971 69.8366 444.971 68.9374C444.971 67.7182 443.483 66.4 440.504 64.9818C440.217 64.8442 439.993 64.7375 439.826 64.6618C436.93 63.2896 434.948 61.9721 433.875 60.7062C432.802 59.441 432.268 57.9023 432.268 56.0868C432.268 52.7798 433.496 50.0743 435.945 47.9706C438.398 45.8669 441.557 44.8154 445.422 44.8154C447.464 44.8154 449.426 45.1437 451.308 45.7979C453.191 46.4545 454.97 47.4219 456.645 48.7017L452.425 55.3097C451.105 54.2741 449.901 53.5034 448.812 53.0003C447.723 52.4979 446.718 52.247 445.8 52.247C444.795 52.247 443.958 52.509 443.288 53.0356C442.618 53.5609 442.283 54.2048 442.283 54.9672C442.283 55.9124 443.539 56.9718 446.052 58.1453C446.937 58.5565 447.623 58.8923 448.11 59.1512C450.686 60.4477 452.477 61.7691 453.482 63.1183C454.483 64.4679 454.986 66.1557 454.986 68.1825C454.986 71.7647 453.622 74.6272 450.898 76.769C448.166 78.9108 444.46 79.9804 439.774 79.9804C437.313 79.9804 435.012 79.5047 432.87 78.5515C430.729 77.6 428.798 76.1862 427.071 74.3104L432.168 67.6112Z" fill="#404041"/>
<path d="M456.489 80.0514L462.288 44.8154H472.179L469.894 58.4142H482.744L484.978 44.8154H494.897L489.07 80.0514H479.155L481.516 65.6578H468.713L466.352 80.0514H456.489Z" fill="#404041"/>
<path d="M515.975 53.0665C512.98 53.0665 510.467 54.0486 508.445 56.0139C506.419 57.9788 505.406 60.416 505.406 63.3257C505.406 65.8988 506.212 67.9554 507.831 69.4941C509.442 71.032 511.6 71.8012 514.292 71.8012C517.236 71.8012 519.74 70.785 521.798 68.7519C523.856 66.718 524.885 64.2384 524.885 61.3152C524.885 58.9078 524.048 56.9317 522.377 55.3859C520.702 53.8404 518.568 53.0665 515.975 53.0665ZM513.714 79.9809C511.086 79.9809 508.701 79.6534 506.547 78.9984C504.397 78.343 502.487 77.3609 500.812 76.051C499.057 74.6498 497.685 72.9212 496.696 70.8643C495.711 68.8082 495.216 66.6236 495.216 64.3078C495.216 61.81 495.639 59.4751 496.484 57.3048C497.326 55.1345 498.586 53.1652 500.261 51.3989C502.22 49.2968 504.609 47.6855 507.428 46.5663C510.248 45.4466 513.303 44.8872 516.602 44.8872C522.125 44.8872 526.588 46.3347 529.994 49.2286C533.4 52.1221 535.103 55.8847 535.103 60.5147C535.103 62.9978 534.673 65.3319 533.811 67.518C532.946 69.7042 531.689 71.6723 530.03 73.4239C528.008 75.5713 525.615 77.2012 522.851 78.3133C520.091 79.425 517.044 79.9809 513.714 79.9809Z" fill="#404041"/>
<path d="M548.436 60.2907H549.366C552.548 60.2907 554.698 59.9707 555.819 59.3292C556.94 58.6873 557.498 57.5958 557.498 56.0547C557.498 54.7547 557.019 53.8043 556.054 53.2029C555.093 52.601 553.585 52.3005 551.527 52.3005H549.768L548.436 60.2907ZM535.383 80.0514L541.233 44.8154H551.324C554.12 44.8154 556.222 44.9233 557.626 45.1401C559.029 45.3566 560.254 45.7214 561.291 46.2348C563.165 47.1499 564.565 48.4012 565.495 49.9898C566.424 51.5789 566.886 53.4796 566.886 55.6947C566.886 57.8928 566.388 59.9303 565.395 61.8068C564.398 63.6849 563.05 65.1293 561.339 66.1395C560.338 66.7338 559.149 67.1545 557.777 67.4034C556.405 67.6528 554.251 67.7765 551.324 67.7765H549.82H547.208L545.15 80.0514H535.383Z" fill="#404041"/>
<path d="M322.233 17.7535C322.233 12.7928 325.811 9.40527 330.348 9.40527C332.893 9.40527 334.814 10.5424 336.182 12.2604L335.03 13.0105C334.022 11.607 332.269 10.6634 330.348 10.6634C326.579 10.6634 323.674 13.5429 323.674 17.7535C323.674 21.9159 326.579 24.8435 330.348 24.8435C332.269 24.8435 334.022 23.8999 335.03 22.4964L336.182 23.2222C334.766 24.9889 332.893 26.1022 330.348 26.1022C325.811 26.1022 322.233 22.7142 322.233 17.7535Z" fill="#404041"/>
<path d="M358.119 17.7535C358.119 13.6396 355.623 10.6634 351.781 10.6634C347.892 10.6634 345.443 13.6396 345.443 17.7535C345.443 21.8186 347.892 24.8435 351.781 24.8435C355.623 24.8435 358.119 21.8186 358.119 17.7535ZM344.002 17.7535C344.002 13.0343 347.075 9.40527 351.781 9.40527C356.462 9.40527 359.56 13.0343 359.56 17.7535C359.56 22.472 356.462 26.1022 351.781 26.1022C347.075 26.1022 344.002 22.472 344.002 17.7535Z" fill="#404041"/>
<path d="M382.169 25.8116V11.5591L376.335 25.8116H375.807L369.949 11.5591V25.8116H368.58V9.67139H370.622L376.072 22.9803L381.497 9.67139H383.561V25.8116H382.169Z" fill="#404041"/>
<path d="M402.567 14.3905C402.567 12.3574 401.151 10.93 399.041 10.93H394.55V17.8504H399.041C401.151 17.8504 402.567 16.4231 402.567 14.3905ZM393.182 25.8116V9.67139H399.185C402.256 9.67139 404.011 11.8493 404.011 14.3905C404.011 16.9311 402.232 19.1091 399.185 19.1091H394.55V25.8116H393.182Z" fill="#404041"/>
<path d="M416.39 11.1473L412.621 20.5851H420.187L416.39 11.1473ZM422.225 25.8117L420.642 21.8427H412.167L410.583 25.8117H408.996L415.553 9.67139H417.256L423.809 25.8117H422.225Z" fill="#404041"/>
<path d="M443.252 25.8116L433.169 11.9461V25.8116H431.797V9.67139H433.193L443.228 23.3434V9.67139H444.596V25.8116H443.252Z" fill="#404041"/>
<path d="M458.946 25.8116V18.9151L452.585 9.67139H454.24L459.644 17.6083L465.044 9.67139H466.699L460.338 18.9151V25.8116H458.946Z" fill="#404041"/>
<path d="M485.947 17.7535C485.947 12.7684 489.568 9.40527 494.059 9.40527C496.7 9.40527 498.622 10.4699 500.086 12.1637L499.053 12.9138C497.924 11.5589 496.101 10.6634 494.059 10.6634C490.29 10.6634 487.387 13.5429 487.387 17.7535C487.387 21.9159 490.29 24.8678 494.059 24.8678C496.197 24.8678 497.876 23.8031 498.766 22.9077V19.0359H492.715V17.8021H500.134V23.44C498.718 25.037 496.58 26.126 494.059 26.126C489.568 26.126 485.947 22.738 485.947 17.7535Z" fill="#404041"/>
<path d="M518.659 14.3905C518.659 12.3574 517.22 10.93 515.11 10.93H510.619V17.8747H515.11C517.22 17.8747 518.659 16.4231 518.659 14.3905ZM518.64 25.8116L514.149 19.1334H510.619V25.8116H509.251V9.67139H515.23C517.989 9.67139 520.103 11.4386 520.103 14.3905C520.103 17.3181 518.037 18.9394 515.66 19.0367L520.295 25.8116H518.64Z" fill="#404041"/>
<path d="M542.665 17.7535C542.665 13.6396 540.168 10.6634 536.328 10.6634C532.439 10.6634 529.986 13.6396 529.986 17.7535C529.986 21.8186 532.439 24.8435 536.328 24.8435C540.168 24.8435 542.665 21.8186 542.665 17.7535ZM528.546 17.7535C528.546 13.0343 531.621 9.40527 536.328 9.40527C541.006 9.40527 544.105 13.0343 544.105 17.7535C544.105 22.472 541.006 26.1022 536.328 26.1022C531.621 26.1022 528.546 22.472 528.546 17.7535Z" fill="#404041"/>
<path d="M553.127 19.6171V9.67139H554.519V19.5933C554.519 22.8598 556.222 24.8437 559.368 24.8437C562.535 24.8437 564.218 22.8598 564.218 19.5933V9.67139H565.61V19.6171C565.61 23.6093 563.496 26.1024 559.368 26.1024C555.264 26.1024 553.127 23.5855 553.127 19.6171Z" fill="#404041"/>
<path d="M584.619 14.3905C584.619 12.3574 583.199 10.93 581.089 10.93H576.598V17.8504H581.089C583.199 17.8504 584.619 16.4231 584.619 14.3905ZM575.23 25.8116V9.67139H581.232C584.303 9.67139 586.058 11.8493 586.058 14.3905C586.058 16.9311 584.28 19.1091 581.232 19.1091H576.598V25.8116H575.23Z" fill="#404041"/>
<path d="M109.534 4.09854L103.413 20.6004L96.4492 39.3685L118.774 19.6689L119.138 18.6857L119.33 18.1713L110.66 1.06152L109.534 4.09854Z" fill="url(#paint0_linear)"/>
<path d="M41.0104 30.7143L38.9255 36.5599L37.9412 39.3199L59.7612 19.5347L60.0731 18.6583L60.2246 18.2348L51.562 1.13721L41.0104 30.7143Z" fill="url(#paint1_linear)"/>
<path d="M293.833 0.729254L293.775 0.783171L293.687 0.86509C293.371 1.16271 293.097 1.41859 292.805 1.65595L292.598 1.82457L292.39 1.99321L289.517 4.33082L287.537 5.94265L286.455 6.82176L285.583 7.53066C284.24 8.62334 282.896 9.71338 281.552 10.8045C278.66 13.1505 275.226 15.9317 271.68 18.7689C271.598 18.8339 271.509 18.8968 271.415 18.9587L271.413 18.9608L271.388 18.9777C271.379 18.9825 271.372 18.9877 271.365 18.992L271.364 18.993H271.363C271.304 19.0311 271.265 19.0528 271.227 19.075L271.183 19.0998C270.396 19.5597 269.398 19.8695 268.703 19.8695C260.237 19.8859 251.548 19.8923 242.801 19.8949L228.939 19.8965C218.964 19.897 209.031 19.8975 199.39 19.9081C199.257 19.9081 199.111 19.9145 198.961 19.924L198.915 19.9277L198.856 19.9319C198.676 19.9457 198.489 19.9668 198.3 19.9974L198.17 20.0202C198.09 20.035 198.016 20.0498 197.942 20.0667C197.879 20.0805 197.818 20.0947 197.757 20.1116L197.658 20.138C197.57 20.1634 197.483 20.192 197.4 20.2237C197.288 20.2686 197.21 20.303 197.138 20.3416C197.063 20.3812 197.004 20.4182 196.951 20.4574L196.929 20.4748C196.793 20.5689 196.685 20.6524 196.582 20.7381L196.543 20.7735L196.541 20.7756L196.509 20.8036C196.444 20.8612 196.381 20.9189 196.321 20.9791L196.26 21.0468L196.209 21.1034L196.174 21.1419C196.147 21.1705 196.119 21.2001 196.094 21.2302L196.058 21.2704C196.014 21.3243 195.992 21.3592 195.969 21.3941L195.922 21.4644L195.876 21.5305C195.856 21.558 195.836 21.5855 195.819 21.613C195.778 21.6822 195.746 21.7525 195.714 21.8223L195.673 21.9085L195.646 21.9634C195.638 21.983 195.626 22.0195 195.614 22.0554C195.598 22.103 195.58 22.1638 195.565 22.224C195.557 22.2532 195.549 22.2806 195.54 22.3081C195.535 22.3366 195.529 22.361 195.525 22.3853C195.52 22.4186 195.516 22.4503 195.512 22.482C195.506 22.536 195.502 22.5883 195.502 22.6401V22.6876C195.504 22.7749 195.509 22.8447 195.521 22.9113C195.537 22.9927 195.555 23.0535 195.577 23.1137C195.763 23.598 196.184 23.9025 196.804 24.0262C198.851 24.4607 200.895 24.8894 202.938 25.3187C208.599 26.5071 214.453 27.7361 220.148 29.0429C224.393 30.014 227.918 31.5745 230.626 33.6811C231.891 34.6649 232.856 35.8438 233.497 37.1876H237.951C251.196 37.1865 264.891 37.186 277.878 37.1606C277.922 37.1606 277.968 37.1585 278.016 37.1553C278.096 37.1495 278.182 37.139 278.271 37.1236C278.36 37.1093 278.451 37.0903 278.543 37.0681C278.635 37.0459 278.731 37.0195 278.827 36.9904C278.923 36.9608 279.02 36.928 279.117 36.8921L279.162 36.8741L279.221 36.8503L279.296 36.8207L279.397 36.7805L279.461 36.7509L279.516 36.7245L280.113 36.401L280.17 36.3624L280.234 36.3196C280.269 36.2942 280.305 36.2667 280.34 36.2397C282.11 34.824 283.876 33.4026 285.638 31.9805C288.977 29.2861 292.271 26.6091 296.19 23.4193L298.614 21.4464L301.459 19.131L301.501 19.0966C301.541 19.0639 301.58 19.0295 301.619 18.9957L301.661 18.9587L301.714 18.9138L301.782 18.8545C301.849 18.7948 301.918 18.7308 301.987 18.6679L302.034 18.624L302.103 18.5616L302.3 18.3772L302.438 18.2482C302.503 18.1874 302.569 18.1255 302.639 18.0605L293.85 0.713379L293.833 0.729254Z" fill="url(#paint2_linear)"/>
<path d="M32.0825 70.7068C31.9778 70.8024 31.8725 70.8928 31.7688 70.9768L31.7039 71.0264L31.6715 71.0514L31.6694 71.0534L31.6289 71.0831C30.8674 71.6623 30.1128 71.9097 29.1067 71.9097C26.4654 71.8998 23.8394 71.8963 21.213 71.8919L19.649 71.8887L17.732 71.8844C16.7966 71.882 15.8596 71.8792 14.9258 71.8792C12.9715 71.8792 11.0146 71.8871 9.0576 71.8951L6.89644 71.9042L4.89378 71.909C3.78183 71.9109 2.67042 71.9125 1.5574 71.9208H1.55687C1.33937 71.9208 1.14634 71.9113 0.963404 71.8923C0.962339 71.8919 0.96127 71.8919 0.960205 71.8919L9.6133 88.9705C9.65853 89.0601 9.86325 89.2112 10.7252 89.2112C14.8657 89.183 19.2406 89.1703 24.1005 89.1703C28.8206 89.1703 33.5385 89.1826 38.2836 89.2005C38.4001 89.2005 38.5133 89.1961 38.6229 89.189C38.6883 89.183 38.7404 89.1763 38.7925 89.1691L38.8356 89.1636L38.9031 89.1564L38.959 89.1493H38.9606L38.9999 89.1414C39.0526 89.1319 39.1132 89.1208 39.1717 89.1069L39.2094 89.0962L39.2121 89.0958L39.2493 89.0851L39.336 89.0613C39.3854 89.0466 39.4323 89.0304 39.4791 89.0133L39.4812 89.0121L39.5424 88.9879L39.6051 88.9626C39.6556 88.9408 39.6997 88.9209 39.7439 88.8991L39.797 88.8718L39.7981 88.871L39.8513 88.8424C39.9312 88.7992 39.9814 88.7687 40.0333 88.7362L40.0373 88.7338L40.0879 88.6989L40.1453 88.6597L40.1473 88.6585L40.1824 88.6347C40.2391 88.5958 40.2654 88.5744 40.2925 88.553L40.3384 88.5165L40.3404 88.5153L40.3747 88.4896L40.4249 88.4507L40.4289 88.4475L40.4584 88.4245C40.5334 88.3631 40.6172 88.2901 40.7009 88.2124L59.2252 71.4181C58.7984 70.9023 59.0848 70.105 59.2395 69.6752C62.4501 60.7735 65.6755 51.7236 68.794 42.9718L71.6385 34.9927L71.7154 34.7754L32.0825 70.7068Z" fill="url(#paint3_linear)"/>
<path d="M176.927 0.81215L176.732 0.999287L176.674 1.05427L176.628 1.09709L176.587 1.13619C176.529 1.19064 176.473 1.24457 176.416 1.29533L176.339 1.36247L176.293 1.40212L176.257 1.43384C176.198 1.48564 176.14 1.5369 176.08 1.58606L172.48 4.51049C145.757 26.2321 118.123 48.6921 90.9042 70.7516C90.8144 70.8242 90.7147 70.8947 90.6094 70.9629C90.4858 71.0434 90.3829 71.1025 90.2768 71.1596L90.1922 71.2048C90.1037 71.25 90.0128 71.2928 89.9202 71.3352L89.8221 71.3808C89.7109 71.4316 89.5964 71.4775 89.4807 71.516L89.4145 71.5394C89.2973 71.5794 89.2023 71.6112 89.1074 71.6397C89.0659 71.652 89.0237 71.6631 88.9822 71.6734C88.8873 71.6996 88.8075 71.7206 88.7297 71.7376C88.6799 71.7491 88.6292 71.759 88.5782 71.7694C88.5052 71.7828 88.4342 71.7951 88.3644 71.8058C88.309 71.8138 88.2531 71.8201 88.1989 71.8253C88.0968 71.836 87.9971 71.8447 87.9049 71.8447C83.2509 71.8823 78.5312 71.8843 73.9677 71.8859C69.6914 71.8871 65.2707 71.8891 60.9131 71.9208C60.7073 71.9208 60.5222 71.9125 60.3567 71.897L69.0178 88.9923C69.0445 89.0438 69.198 89.2111 70.0846 89.2111C74.4423 89.181 78.8654 89.1782 83.1417 89.177C87.7043 89.1754 92.4225 89.1735 97.0745 89.1358C97.118 89.1354 97.1631 89.1338 97.2093 89.1306L97.2169 89.129L97.2907 89.1207C97.3306 89.1164 97.376 89.1104 97.4215 89.1049L97.4291 89.1033L97.4726 89.0985L97.5455 89.0858L97.5483 89.085L97.5906 89.0763C97.6393 89.0668 97.6808 89.0581 97.7238 89.0486L97.7306 89.047L97.7685 89.0402L97.865 89.0149L97.9236 88.9978L97.9687 88.9863L98.0465 88.9645L98.0533 88.9625L98.0868 88.9534C98.155 88.9328 98.2224 88.9086 98.2906 88.8848L98.3404 88.8678L98.3464 88.8658L98.3827 88.8535C98.4784 88.8186 98.5701 88.7821 98.6611 88.7425L98.7261 88.7127L98.7887 88.6846C98.8294 88.666 98.8709 88.6473 98.9108 88.6279L98.9431 88.6109L98.9881 88.5867L99.0579 88.5502L99.0627 88.5482L99.095 88.5304C99.1824 88.4824 99.2414 88.4475 99.2988 88.411L99.5601 88.2255C101.614 86.5611 103.67 84.8935 105.728 83.2251L99.9413 71.8027L113.509 60.762C117.28 57.6984 121.088 54.663 124.803 51.5578C125.918 50.6297 126.847 50.2649 128.231 50.2649C134.258 50.2772 140.283 50.2843 146.307 50.2891C151.739 45.8767 157.156 41.475 162.549 37.0913L160.058 32.1718C160.062 32.1813 160.068 32.1893 160.073 32.1988C158.461 29.0418 158.666 25.0543 160.997 21.0366C162.511 18.4225 165.176 15.8396 167.817 13.6109C171.434 10.5581 175.591 8.24525 179.988 6.55468L177.029 0.714355L176.927 0.81215Z" fill="url(#paint4_linear)"/>
<path d="M41.0104 30.7143L38.9255 36.5599L37.9412 39.3194L59.7612 19.5347L60.0731 18.6583L60.2246 18.2349L51.562 1.13721L41.0104 30.7143Z" fill="url(#paint5_linear)"/>
<path d="M32.0825 70.7068C31.9778 70.8024 31.8725 70.8928 31.7688 70.9768L31.7039 71.0264L31.6715 71.0514L31.6694 71.0534L31.6289 71.0831C30.8674 71.6623 30.1128 71.9097 29.1067 71.9097C26.4654 71.8998 23.8394 71.8963 21.213 71.8919L19.649 71.8887L17.732 71.8844C16.7966 71.882 15.8596 71.8792 14.9258 71.8792C12.971 71.8792 11.0146 71.8871 9.0576 71.8951L6.89644 71.9042L4.89378 71.909C3.78236 71.9109 2.67042 71.9125 1.5574 71.9205H1.55687C1.33937 71.9205 1.14634 71.9113 0.963404 71.8923C0.962339 71.8919 0.96127 71.8919 0.960205 71.8919L9.6133 88.9705C9.65853 89.0601 9.86325 89.2112 10.7252 89.2112C14.8657 89.183 19.2401 89.1703 24.1005 89.1703C28.8206 89.1703 33.5385 89.1826 38.2836 89.2005C38.4001 89.2005 38.5133 89.1961 38.6229 89.189C38.6883 89.183 38.7404 89.1763 38.7931 89.1691L38.8356 89.1636L38.9031 89.156L38.959 89.1493H38.9606L38.9999 89.1414C39.0526 89.1319 39.1132 89.1208 39.1717 89.1069L39.2094 89.0962L39.2121 89.0958L39.2493 89.0851L39.336 89.0613C39.3854 89.0466 39.4323 89.0304 39.4791 89.0133L39.4812 89.0121L39.5424 88.9879L39.6051 88.9626C39.6556 88.9408 39.6997 88.9209 39.7439 88.8991L39.797 88.8718L39.7981 88.871L39.8513 88.8424C39.9304 88.7992 39.9814 88.7687 40.0333 88.7362L40.0373 88.7338L40.0879 88.6989L40.1453 88.6597L40.1473 88.6585L40.1824 88.6347C40.2383 88.5958 40.2654 88.5744 40.2925 88.553L40.3384 88.5165L40.3404 88.5153L40.3747 88.4896L40.4249 88.4507L40.4289 88.4475L40.4584 88.4245C40.5334 88.3631 40.6172 88.2901 40.7009 88.2124L59.2252 71.4181C58.7984 70.9023 59.0848 70.105 59.2395 69.6752C62.4501 60.7735 65.6755 51.7236 68.794 42.9718L71.6385 34.9927L71.7154 34.7754L32.0825 70.7068Z" fill="url(#paint6_linear)"/>
<path d="M109.534 4.09854L103.413 20.6004L96.4492 39.3685L118.774 19.6689L119.138 18.6857L119.33 18.1713L110.661 1.06152L109.534 4.09854Z" fill="url(#paint7_linear)"/>
<path d="M293.833 0.729254L293.775 0.783171L293.687 0.86509C293.371 1.16271 293.097 1.41859 292.805 1.65595L292.598 1.82405L292.39 1.99321L289.517 4.33082L287.537 5.94265L286.455 6.82176L285.583 7.53066C284.24 8.62279 282.896 9.71338 281.553 10.8045C278.66 13.1505 275.225 15.9317 271.68 18.7689C271.598 18.8339 271.509 18.8968 271.415 18.9587L271.413 18.9608L271.388 18.9777C271.379 18.9825 271.372 18.9877 271.365 18.992L271.364 18.993H271.363C271.304 19.0311 271.265 19.0528 271.227 19.075L271.183 19.0998C270.396 19.5597 269.398 19.8695 268.703 19.8695C260.237 19.8859 251.548 19.8923 242.802 19.8949L228.94 19.8965C218.964 19.897 209.031 19.8975 199.39 19.9081C199.257 19.9081 199.111 19.9145 198.961 19.924L198.915 19.9277L198.857 19.9319C198.677 19.9457 198.489 19.9668 198.3 19.9974L198.17 20.0202C198.09 20.035 198.017 20.0498 197.942 20.0667C197.879 20.0805 197.818 20.0947 197.757 20.1111L197.658 20.138C197.57 20.1634 197.483 20.192 197.4 20.2237C197.288 20.2681 197.21 20.303 197.138 20.3416C197.063 20.3812 197.004 20.4182 196.951 20.4574L196.929 20.4748C196.793 20.5689 196.685 20.6524 196.582 20.7381L196.543 20.7735L196.541 20.7756L196.51 20.8036C196.444 20.8612 196.381 20.9189 196.322 20.9786L196.26 21.0468L196.209 21.1034L196.174 21.1419C196.147 21.1705 196.12 21.2001 196.094 21.2302L196.058 21.2704C196.014 21.3243 195.992 21.3592 195.969 21.3941L195.922 21.4644L195.876 21.5305C195.856 21.558 195.836 21.5849 195.819 21.613C195.778 21.6822 195.746 21.7525 195.714 21.8223L195.673 21.9085L195.646 21.9634C195.638 21.983 195.626 22.0195 195.614 22.0554C195.598 22.103 195.58 22.1638 195.565 22.224C195.557 22.2532 195.549 22.2806 195.54 22.3081C195.535 22.3361 195.528 22.361 195.525 22.3853C195.52 22.4186 195.516 22.4503 195.512 22.482C195.507 22.536 195.502 22.5883 195.502 22.6401V22.6876C195.504 22.7749 195.508 22.8447 195.521 22.9113C195.537 22.9927 195.555 23.0535 195.577 23.1137C195.763 23.598 196.184 23.9025 196.804 24.0262C198.851 24.4607 200.895 24.8894 202.938 25.3187C208.599 26.5071 214.453 27.7356 220.148 29.0429C224.393 30.014 227.918 31.5745 230.626 33.6811C231.891 34.6649 232.856 35.8438 233.497 37.1876H237.951C251.196 37.1865 264.891 37.186 277.878 37.1606C277.922 37.1606 277.968 37.1585 278.016 37.1553C278.096 37.1495 278.183 37.139 278.271 37.1236C278.36 37.1093 278.451 37.0903 278.543 37.0681C278.635 37.0459 278.731 37.0195 278.827 36.9904C278.924 36.9608 279.02 36.928 279.117 36.8921L279.162 36.8741L279.221 36.8503L279.296 36.8207L279.397 36.7805L279.461 36.7509L279.517 36.7245L280.113 36.401L280.17 36.3624L280.234 36.3196C280.269 36.2942 280.305 36.2667 280.34 36.2397C282.11 34.824 283.876 33.4026 285.638 31.9805C288.977 29.2861 292.271 26.6091 296.19 23.4193L298.614 21.4464L301.459 19.131L301.501 19.0966C301.541 19.0639 301.58 19.0295 301.619 18.9957L301.661 18.9587L301.714 18.9138L301.782 18.8545C301.849 18.7948 301.918 18.7308 301.987 18.6679L302.035 18.624L302.103 18.5611L302.3 18.3772L302.438 18.2482C302.503 18.1874 302.569 18.1255 302.639 18.0605L293.85 0.713379L293.833 0.729254Z" fill="url(#paint8_linear)"/>
<path d="M176.927 0.81215L176.732 0.999287L176.674 1.05427L176.628 1.09709L176.586 1.13619C176.529 1.19064 176.473 1.24459 176.416 1.2948L176.339 1.36247L176.293 1.40212L176.256 1.43384C176.198 1.48564 176.14 1.5369 176.079 1.58606L172.481 4.51049C145.757 26.2321 118.123 48.6921 90.9041 70.7516C90.8143 70.8242 90.7146 70.8947 90.6093 70.9629C90.4857 71.0434 90.3828 71.1025 90.2767 71.1596L90.1922 71.2048C90.1036 71.25 90.0127 71.2928 89.9201 71.3352L89.822 71.3808C89.7108 71.4316 89.5963 71.4775 89.4806 71.516L89.4144 71.5394C89.2972 71.5794 89.2022 71.6112 89.1073 71.6397C89.0658 71.652 89.0236 71.6631 88.9821 71.6734C88.8872 71.6996 88.8074 71.7206 88.7296 71.7376C88.6798 71.7491 88.6291 71.759 88.5781 71.7694C88.5051 71.7828 88.4341 71.7951 88.3643 71.8058C88.3089 71.8138 88.253 71.8201 88.1988 71.8253C88.0967 71.836 87.997 71.8447 87.9048 71.8447C83.2509 71.8823 78.5311 71.8843 73.9676 71.8859C69.6913 71.8871 65.2706 71.8891 60.913 71.9204C60.7076 71.9204 60.5221 71.9125 60.3562 71.897L69.0177 88.9923C69.0444 89.0438 69.1979 89.2111 70.0846 89.2111C74.4422 89.181 78.8653 89.1782 83.1416 89.177C87.7042 89.1754 92.4224 89.1735 97.0744 89.1358C97.1179 89.1354 97.163 89.1338 97.2092 89.1306L97.2168 89.129L97.2906 89.1207C97.3305 89.1164 97.3759 89.1104 97.4214 89.1049L97.429 89.1033L97.4725 89.0985L97.5454 89.0858L97.5482 89.085L97.5905 89.0763C97.6392 89.0668 97.6807 89.0581 97.7237 89.0486L97.7305 89.047L97.7684 89.0398L97.8649 89.0149L97.9235 88.9978L97.9686 88.9863L98.0464 88.9645L98.0532 88.9625L98.0867 88.9534C98.1549 88.9328 98.2223 88.9086 98.2905 88.8848L98.3403 88.8678L98.3463 88.8658L98.3818 88.8535C98.4783 88.8186 98.5701 88.7821 98.661 88.7425L98.726 88.7127L98.7886 88.6846C98.8293 88.666 98.8708 88.6473 98.9107 88.6279L98.943 88.6109L98.988 88.5867L99.0578 88.5502L99.0626 88.5482L99.0949 88.5304C99.1823 88.4824 99.2413 88.4475 99.2987 88.411L99.56 88.2255C101.614 86.5611 103.67 84.8935 105.728 83.2251L99.9412 71.8027L113.509 60.762C117.28 57.6984 121.087 54.663 124.803 51.5578C125.917 50.6297 126.847 50.2649 128.231 50.2649C134.258 50.2772 140.282 50.2843 146.307 50.2891C151.739 45.8767 157.156 41.475 162.549 37.0913L160.057 32.1718C160.062 32.1813 160.068 32.1893 160.073 32.1988C158.461 29.0418 158.666 25.0543 160.997 21.0366C162.511 18.4225 165.176 15.8396 167.817 13.6109C171.434 10.5581 175.591 8.24525 179.988 6.55468L177.029 0.714355L176.927 0.81215Z" fill="url(#paint9_linear)"/>
<path d="M234.304 40.7447C234.395 41.2205 234.435 41.7058 234.406 42.1895C234.406 42.1923 234.406 42.1942 234.406 42.1974C234.402 42.2561 234.396 42.314 234.39 42.3734L234.38 42.4749C234.363 42.6795 234.345 42.8833 234.319 43.0891C234.308 43.168 234.295 43.2473 234.282 43.327L234.263 43.4392C234.23 43.6473 234.202 43.8253 234.166 44.0037L234.134 44.156L234.118 44.2262C234.071 44.4422 234.02 44.6591 233.962 44.876L233.945 44.941L233.903 45.1012C233.825 45.3787 233.741 45.6574 233.647 45.9354L233.625 45.9992L233.609 46.0432C233.523 46.2922 233.431 46.5412 233.332 46.7894L233.249 46.9971C233.139 47.2652 233.026 47.5328 232.902 47.7996L232.883 47.8611L232.862 47.8845C232.742 48.1406 232.613 48.3963 232.48 48.6516L232.372 48.8558C232.227 49.1286 232.076 49.4014 231.916 49.671C231.755 49.9445 231.587 50.2114 231.414 50.4778L231.284 50.6776C231.108 50.9441 230.927 51.2101 230.739 51.4718C230.456 51.8643 230.145 52.2742 229.786 52.7238C229.533 53.0426 229.277 53.3574 229.012 53.6651L228.958 53.7257L228.919 53.7701C228.673 54.0556 228.422 54.3351 228.167 54.6103L227.949 54.8422L227.902 54.8926C227.688 55.1178 227.471 55.3402 227.251 55.5606L227.179 55.6336L226.992 55.8191C226.868 55.9396 226.742 56.0586 226.616 56.1763L226.49 56.2949L226.433 56.3492C226.265 56.5078 226.096 56.6672 225.923 56.8222C225.789 56.9435 225.652 57.0621 225.515 57.181L225.423 57.2607L225.36 57.3146C225.188 57.4645 225.014 57.6144 224.838 57.7615C224.633 57.9331 224.423 58.1008 224.213 58.2678L224.085 58.3708C223.993 58.445 223.901 58.5183 223.807 58.5913C223.565 58.7788 223.318 58.962 223.07 59.1448L222.934 59.2463C222.865 59.2986 222.796 59.3497 222.726 59.4001C222.368 59.6586 222.006 59.9119 221.638 60.1581L221.51 60.2426L221.404 60.312C221.109 60.507 220.814 60.6993 220.514 60.8877C220.424 60.9444 220.332 61.0003 220.241 61.0554L220.115 61.1331C219.863 61.2869 219.611 61.4396 219.355 61.589C219.208 61.6759 219.06 61.7615 218.911 61.8467C218.665 61.9863 218.418 62.1247 218.169 62.2615C218.007 62.3495 217.845 62.4383 217.682 62.5247C217.426 62.6611 217.168 62.7951 216.908 62.9275L216.778 62.9941C216.666 63.0512 216.555 63.1091 216.443 63.1646C216.215 63.2772 215.985 63.3871 215.755 63.4977L215.682 63.5318L215.503 63.6182C215.38 63.6773 215.256 63.7371 215.13 63.795C214.9 63.9021 214.667 64.0056 214.433 64.109L214.319 64.1606L214.136 64.2419C214.024 64.293 213.912 64.343 213.798 64.3921C213.36 64.5812 212.917 64.768 212.47 64.9476C211.806 65.2156 211.103 65.4868 210.258 65.802C210.085 65.8662 209.911 65.9289 209.738 65.9923L209.589 66.0462C209.068 66.2353 208.546 66.4197 208.024 66.5985L207.927 66.6318C207.734 66.698 207.541 66.7638 207.348 66.8289C206.709 67.0426 206.07 67.2483 205.432 67.4458L205.312 67.4838L205.162 67.531L205.023 67.5726L204.924 67.6028C204.447 67.7471 203.971 67.8867 203.495 68.023L203.107 68.1325L202.98 68.1681C202.573 68.2815 202.166 68.3926 201.759 68.5004L201.659 68.527L201.277 68.6285C200.725 68.7716 200.174 68.9111 199.622 69.0428L199.365 69.103L199.172 69.1471C198.72 69.2537 198.268 69.3607 197.816 69.4599C197.675 69.4908 197.536 69.5197 197.396 69.5495L197.134 69.6038L196.935 69.6466C196.627 69.7128 196.32 69.7786 196.012 69.8405C195.846 69.8734 195.681 69.9047 195.515 69.9368L195.249 69.988L194.99 70.0379C194.729 70.0891 194.467 70.1394 194.207 70.1874C194.035 70.2179 193.864 70.2477 193.693 70.2774L193.412 70.3266L193.201 70.3634C192.943 70.4078 192.685 70.4538 192.427 70.4963C191.713 70.6136 191 70.725 190.287 70.8281L190.022 70.8646L189.808 70.8935C189.246 70.9728 188.685 71.0474 188.123 71.1179L187.536 71.1893L187.42 71.2028C186.909 71.2642 186.397 71.3213 185.886 71.3752L185.76 71.3883L185.234 71.4438C184.522 71.5152 183.81 71.5826 183.098 71.6413C182.521 71.6889 181.946 71.7301 181.371 71.7705C181.139 71.7872 180.908 71.8015 180.677 71.8157L180.541 71.8244C180.171 71.8478 179.802 71.8704 179.432 71.8911C179.153 71.9065 178.874 71.9212 178.595 71.9351C178.228 71.9537 177.863 71.9711 177.496 71.987L176.666 72.0207C176.296 72.0346 175.928 72.0481 175.56 72.0588C175.288 72.0687 175.015 72.0778 174.743 72.0857C174.368 72.0964 173.994 72.1052 173.621 72.1131L173.421 72.1178L172.834 72.1313C172.441 72.1393 172.05 72.1456 171.657 72.1511L171.384 72.1551L170.927 72.1618C170.501 72.167 170.076 72.1714 169.65 72.1749L169.341 72.1777L169.032 72.1805C168.404 72.1844 167.777 72.1876 167.152 72.1892C158.671 72.2106 149.342 72.2209 137.792 72.2209C131.923 72.2209 126.054 72.2189 120.186 72.2158H119.908H119.301C113.727 72.2138 108.154 72.2114 102.58 72.2114H100.609L106.055 82.9603L106.232 83.3111L109.222 89.2107H111.607C117.476 89.2107 123.345 89.2135 129.213 89.2163C135.082 89.2186 140.95 89.2214 146.819 89.2214C158.367 89.2214 167.695 89.2107 176.177 89.1893C176.802 89.1877 177.427 89.1837 178.054 89.1806L178.461 89.1766L178.67 89.1742C179.105 89.1707 179.525 89.1675 179.944 89.1623L180.383 89.1552L180.673 89.1512C181.063 89.1449 181.454 89.1385 181.845 89.1314L182.429 89.1187L182.628 89.1136C183.001 89.1052 183.373 89.0961 183.747 89.0854L184.391 89.066L184.563 89.06C184.927 89.0485 185.292 89.0355 185.658 89.0216L186.492 88.9867C186.853 88.9712 187.215 88.9546 187.577 88.9356C187.857 88.9217 188.137 88.9074 188.418 88.8915C188.781 88.8721 189.146 88.8491 189.511 88.8261C189.788 88.8091 190.066 88.7916 190.343 88.7726L190.501 88.7619L190.691 88.7492L191.114 88.7314C194.578 88.5823 198.032 88.2715 201.467 87.7985L201.551 87.785L201.599 87.7778C201.774 87.7485 201.953 87.7164 202.132 87.6847L202.45 87.628L202.675 87.5895C202.86 87.5574 203.045 87.5257 203.23 87.4924C203.513 87.4404 203.795 87.3853 204.077 87.331L204.272 87.2929L204.54 87.2418C204.7 87.2109 204.862 87.18 205.023 87.1474C205.328 87.0864 205.633 87.0214 205.938 86.9556L206.136 86.9135L206.404 86.8572C206.54 86.8287 206.676 86.8009 206.813 86.77C207.26 86.6709 207.709 86.5666 208.157 86.4607L208.357 86.4148L208.603 86.3577C209.162 86.2237 209.703 86.0861 210.243 85.9461L210.557 85.8629L210.721 85.8193C211.125 85.7122 211.529 85.6024 211.933 85.4898L212.441 85.3467C212.915 85.2107 213.39 85.0711 213.865 84.928L213.966 84.897L214.094 84.859L214.149 84.8427L214.257 84.8078L214.366 84.7726C214.998 84.5767 215.629 84.3737 216.259 84.1628L216.768 83.9907L216.933 83.9336C217.449 83.7568 217.966 83.574 218.481 83.3869L218.676 83.3183C218.751 83.2917 218.826 83.2659 218.901 83.239L219.023 83.1914L219.144 83.1442C219.981 82.833 220.679 82.5638 221.336 82.2985C221.752 82.1308 222.164 81.9596 222.571 81.7831H222.575L222.643 81.7518C222.755 81.7038 222.863 81.6551 222.972 81.6063L223.158 81.5219L223.238 81.487C223.479 81.3791 223.719 81.2729 223.958 81.163C224.079 81.1063 224.199 81.0489 224.319 80.9906L224.501 80.9033L224.713 80.803C224.84 80.7428 224.968 80.6825 225.095 80.6199L225.173 80.5802L225.249 80.5414C225.362 80.4859 225.472 80.4292 225.583 80.3717L225.707 80.3086C225.963 80.1782 226.217 80.0466 226.468 79.9133C226.629 79.8277 226.787 79.7409 226.946 79.6537L227.104 79.5684C227.181 79.5272 227.259 79.4855 227.334 79.4427L227.525 79.3333L227.677 79.2457C227.822 79.162 227.968 79.0784 228.112 78.9939C228.363 78.8468 228.611 78.6962 228.858 78.5451L228.974 78.4741C229.066 78.4178 229.159 78.3623 229.25 78.3052L229.327 78.2577L229.395 78.2156C229.623 78.0713 229.848 77.9222 230.073 77.7728L230.121 77.7411L230.237 77.6649L230.353 77.59L231.625 76.694L231.757 76.5948C231.999 76.4168 232.24 76.238 232.476 76.0548C232.569 75.9827 232.66 75.9093 232.752 75.836L232.874 75.7385L233.042 75.6052C233.139 75.5287 233.237 75.4526 233.332 75.3749L233.406 75.3103L233.484 75.2437C233.665 75.0942 233.84 74.9408 234.016 74.7881L234.057 74.7532L234.15 74.6719C234.283 74.557 234.416 74.4424 234.546 74.325C234.714 74.1724 234.881 74.0158 235.047 73.86L235.1 73.8096L235.255 73.6657C235.325 73.603 235.393 73.5396 235.459 73.475L235.524 73.41L235.589 73.3453L235.759 73.1756L235.843 73.0924C236.057 72.8775 236.268 72.6614 236.477 72.4406L236.542 72.3724L236.736 72.165C236.986 71.8958 237.231 71.623 237.471 71.3451L237.52 71.2892L237.56 71.2436C237.791 70.9744 238.018 70.7024 238.24 70.4257L238.27 70.3868L238.316 70.3258C238.664 69.8881 238.968 69.4884 239.245 69.1042C239.427 68.8509 239.601 68.594 239.772 68.337L239.897 68.1444C240.06 67.8938 240.218 67.6408 240.369 67.3879L240.375 67.376L240.395 67.3443C240.535 67.106 240.68 66.8439 240.821 66.5807L240.924 66.384C241.061 66.1211 241.194 65.8591 241.317 65.5934C241.441 65.3278 241.554 65.0633 241.662 64.7981L241.742 64.5987L241.778 64.5119L241.823 64.3989C241.887 64.2288 241.946 64.0591 242.005 63.8886L242.025 63.8323L242.042 63.7847C242.132 63.5191 242.212 63.255 242.284 62.9906L242.323 62.8478L242.342 62.7777C242.395 62.5719 242.445 62.3669 242.488 62.1627L242.504 62.0914L242.534 61.953L242.547 61.8888L242.559 61.836C242.577 61.7445 242.59 61.6541 242.604 61.5629L242.625 61.4205L242.644 61.302C242.657 61.2314 242.668 61.1616 242.677 61.0911C242.703 60.8988 242.719 60.7081 242.735 60.5166L242.746 60.398C242.751 60.3504 242.756 60.3029 242.759 60.2565C242.776 59.9821 242.78 59.7379 242.778 59.4956L242.775 59.3704L242.772 59.2907L242.769 59.1793C242.768 59.1051 242.767 59.0318 242.762 58.958C242.758 58.9037 242.753 58.8486 242.748 58.7943L242.739 58.6956L242.734 58.6424L242.725 58.5322C242.702 58.3157 242.675 58.0996 242.638 57.8863L242.623 57.8154L242.612 57.7611L242.601 57.7048L242.196 56.2802L242.18 56.2382L242.153 56.1664L242.131 56.1078L242.115 56.0637C242.031 55.8615 241.94 55.6621 241.841 55.4659L234.007 39.1836L234.304 40.7447Z" fill="url(#paint10_linear)"/>
<path d="M162.05 21.6391C160.309 24.6396 159.808 27.6237 160.6 30.2696C161.227 32.363 162.64 34.1 164.708 35.3381C164.83 35.4111 164.954 35.483 165.081 35.5527C165.206 35.6209 165.331 35.6886 165.459 35.7536C167.899 36.9842 170.819 38.0378 174.137 38.8847C177.604 39.7679 181.046 40.5648 184.691 41.4089C188.222 42.2268 191.874 43.0725 195.539 44.0014L195.686 44.0387L195.82 44.1113C196.992 44.7472 197.605 45.9029 197.457 47.2018C197.418 47.54 197.316 47.8699 197.187 48.193C196.962 48.7544 196.611 49.2861 196.161 49.7583C195.97 49.9589 195.76 50.1476 195.535 50.3244C194.902 50.8212 194.147 51.2133 193.314 51.4465L193.153 51.492H192.985C185.315 51.4968 177.647 51.4996 169.979 51.5012C167.981 51.5016 165.984 51.5035 163.987 51.5035C157.437 51.5035 151.283 51.5012 145.442 51.4964C145.235 51.4956 145.028 51.4956 144.822 51.4956C139.007 51.4905 133.501 51.4829 128.229 51.4726C127.159 51.4726 126.491 51.7272 125.584 52.4836C122.925 54.7051 120.176 56.9258 117.518 59.0739C116.437 59.9469 115.356 60.8215 114.278 61.6969C111.383 64.0504 108.488 66.4063 105.463 68.8688L103.342 70.5947C108.957 70.5954 114.572 70.5978 120.187 70.6002C120.555 70.6006 120.924 70.6006 121.292 70.6006H121.9C127.196 70.6034 132.494 70.605 137.793 70.605C149.288 70.605 158.616 70.5947 167.147 70.5736C172.115 70.5598 177.469 70.4848 182.963 70.0309C193.609 69.1491 203.061 66.9958 211.86 63.4498C219.688 60.291 225.431 56.0658 229.417 50.531C232.116 46.7803 233.973 41.5913 231.871 37.597C231.364 36.6348 230.635 35.7399 229.624 34.9533C227.106 32.9942 223.794 31.5356 219.783 30.6174C214.106 29.3149 208.263 28.0884 202.614 26.9027C200.565 26.4724 198.516 26.0426 196.47 25.608C196.429 25.5996 196.391 25.5858 196.35 25.5763C195.083 25.284 194.177 24.4329 193.935 23.2752C193.633 21.8267 194.406 20.2599 195.956 19.1794C197.034 18.3568 198.853 18.2918 199.39 18.2918C209.001 18.2812 218.904 18.2807 228.85 18.2801C242.07 18.2796 255.741 18.2786 268.701 18.2532C269.221 18.2532 270.19 17.8842 270.661 17.5088C276.641 12.7247 282.671 7.8158 288.502 3.06814L290.731 1.25439L219.798 1.41404C208.613 1.43995 197.163 2.96823 185.764 5.95819C184.088 6.40066 182.473 6.91132 180.921 7.48752C180.792 7.53617 180.665 7.5864 180.536 7.63608C175.985 9.36998 171.984 11.6775 168.603 14.5316C165.396 17.2382 163.252 19.5626 162.05 21.6391Z" fill="white"/>
<path d="M14.9258 70.2624C19.6469 70.2624 24.3654 70.2751 29.1115 70.2929C29.8959 70.2929 30.3341 70.1113 30.9812 69.517L45.1053 56.712L47.8094 54.2606L71.834 32.4804L75.4195 29.2299L73.7971 33.7761L73.4628 34.7128L73.4086 34.8651L73.1705 35.5327L70.3168 43.5383C67.2007 52.2826 63.9786 61.3246 60.7695 70.22C60.76 70.2485 60.7504 70.2751 60.7412 70.3009C60.7919 70.3024 60.8477 70.3032 60.9087 70.3032C60.9614 70.3032 61.014 70.3032 61.0667 70.3024C65.3753 70.2731 69.7473 70.2715 73.9777 70.2699C78.5352 70.2683 83.2478 70.266 87.8934 70.2291C88.4438 70.2247 89.4266 69.8628 89.8784 69.4976C94.6353 65.6423 99.4062 61.7727 104.181 57.8991C104.585 57.5716 104.989 57.2437 105.393 56.9158C127.754 38.7754 150.224 20.5127 172.091 2.73946L173.929 1.24502L169.366 1.2466L161.725 1.24924C156.758 1.24924 150.212 1.24501 143.632 1.21383C142.489 1.21383 141.824 1.4792 140.9 2.30546L118.234 22.3063L96.3017 41.6591L96.0608 41.8716L92.6794 44.855L94.3561 40.338C98.2918 29.7337 102.225 19.1319 106.188 8.44818L108.86 1.24449H108.466C106.363 1.24449 104.26 1.24766 102.158 1.24978C100.053 1.25348 97.948 1.2556 95.8438 1.2556C91.1292 1.2556 87.4723 1.24131 83.9873 1.20801C82.7505 1.20854 82.0306 1.50828 81.0259 2.44026L59.2524 22.1832L37.8226 41.6146L37.5711 41.8418L34.2373 44.8657L35.8593 40.319L45.1712 14.2161L49.7765 1.30581H23.1998C23.1971 1.31321 23.1944 1.32008 23.1918 1.32749C23.0009 1.84872 22.836 2.29964 22.6919 2.75004L20.4669 9.76238C17.4613 19.2328 14.4557 28.7039 11.4586 38.1743C10.4073 41.4989 9.35914 44.8233 8.31101 48.1486C6.03075 55.3807 3.67337 62.8582 1.32025 70.2148C1.31068 70.2438 1.30217 70.2719 1.29419 70.2973C1.36757 70.3017 1.45319 70.3032 1.5537 70.3032C5.67922 70.2755 10.0558 70.2624 14.9258 70.2624Z" fill="white"/>
<path d="M195.48 45.8729C195.582 45.9811 195.654 46.0795 195.702 46.1726C195.802 46.3681 195.852 46.5897 195.851 46.8264C195.852 46.5897 195.802 46.3681 195.702 46.1726C195.654 46.0795 195.582 45.9811 195.48 45.8729C195.464 45.8558 195.448 45.8396 195.431 45.8237C195.448 45.8396 195.464 45.8558 195.48 45.8729ZM195.655 47.6796C195.556 47.9036 195.427 48.1209 195.271 48.3263C195.427 48.1209 195.556 47.9036 195.655 47.6796C195.785 47.3847 195.85 47.0956 195.851 46.8264C195.85 47.0956 195.785 47.3847 195.655 47.6796Z" fill="url(#paint11_linear)"/>
<path d="M193.276 49.7586C193.276 49.7586 193.154 49.8109 192.969 49.8847C193.154 49.8109 193.276 49.7586 193.276 49.7586C193.549 49.6559 193.809 49.531 194.053 49.3867C193.809 49.531 193.549 49.6559 193.276 49.7586Z" fill="url(#paint12_linear)"/>
<path d="M191.808 50.2844L169.696 50.2939L191.808 50.2844C192.007 50.2353 192.233 50.1607 192.449 50.083C192.233 50.1607 192.007 50.2353 191.808 50.2844Z" fill="url(#paint13_linear)"/>
<path d="M163.455 36.4561L163.479 36.4709L163.455 36.4561C163.433 36.4413 163.411 36.4255 163.388 36.4102C163.411 36.4255 163.433 36.4413 163.455 36.4561Z" fill="url(#paint14_linear)"/>
<path d="M169.428 49.758L169.365 49.6323L169.428 49.758Z" fill="url(#paint15_linear)"/>
<path d="M162.876 36.8262L163.062 37.192L166.213 43.4119L163.062 37.192L162.876 36.8262L162.225 35.541L162.876 36.8262Z" fill="url(#paint16_linear)"/>
<path d="M162.876 36.8262L163.062 37.192L166.213 43.4119L169.364 49.6314L169.365 49.6322L169.428 49.7583H169.428L169.696 50.2935L191.808 50.284C192.007 50.2348 192.233 50.1603 192.449 50.0826C192.559 50.0437 192.669 50.0033 192.768 49.9652C192.84 49.9367 192.909 49.9097 192.969 49.8844C193.154 49.8106 193.276 49.7583 193.276 49.7583C193.549 49.6556 193.809 49.5307 194.053 49.3864C194.539 49.0989 194.958 48.7358 195.271 48.3262C195.427 48.1208 195.557 47.9036 195.656 47.6796C195.899 47.1245 195.916 46.5896 195.702 46.1726C195.654 46.0794 195.582 45.9811 195.48 45.8728C195.465 45.8558 195.448 45.8395 195.431 45.8237C195.423 45.8157 195.415 45.807 195.406 45.7987C195.296 45.696 195.193 45.6167 195.082 45.5533C191.451 44.6342 187.826 43.7941 184.319 42.9821C180.666 42.1364 177.216 41.3375 173.733 40.4498C170.301 39.574 167.27 38.4781 164.724 37.1941L164.717 37.1909C164.409 37.0355 164.09 36.8552 163.741 36.6411C163.74 36.64 163.738 36.639 163.737 36.6379C163.664 36.593 163.595 36.5475 163.526 36.5021L163.479 36.4709L163.455 36.4561C163.433 36.4413 163.411 36.4254 163.388 36.4101C163.187 36.2774 162.991 36.1405 162.802 35.9983L162.745 35.9565C162.675 35.9037 162.605 35.8508 162.536 35.7963C162.428 35.7102 162.325 35.6256 162.225 35.541L162.876 36.8262Z" fill="url(#paint17_linear)"/>
<path d="M80.1975 1.55882L60.1142 19.7687C60.2997 19.248 60.4847 18.7289 60.671 18.2076L51.4962 0.0992588H51.4958H22.3468C22.0378 0.965164 21.7613 1.67511 21.5348 2.38613C17.7873 14.1947 14.0367 26.0045 10.2999 37.8131C6.92364 48.4898 3.57928 59.1705 0.162602 69.8496C-0.0187343 70.4189 -0.0612752 70.8158 0.100917 71.0818C0.0934723 71.0691 0.078051 71.0604 0.071138 71.0461L9.24592 89.1548C9.41128 89.4818 9.86117 89.6202 10.7253 89.6202H10.729C15.1923 89.5909 19.6475 89.5798 24.1006 89.5798C28.8201 89.5798 33.537 89.5925 38.2815 89.6099C38.4103 89.6099 38.5331 89.6059 38.6522 89.5972C38.6559 89.5964 38.6596 89.596 38.6633 89.596C38.741 89.5901 38.8144 89.579 38.8883 89.5695C38.9346 89.5639 38.983 89.5608 39.0282 89.5536C39.0308 89.5532 39.0335 89.552 39.0361 89.5516C39.0468 89.55 39.0564 89.5473 39.0659 89.5457C39.134 89.5338 39.201 89.5203 39.2669 89.5052C39.2973 89.4973 39.3265 89.4882 39.3563 89.4807C39.3733 89.4755 39.3914 89.4719 39.4079 89.4664C39.4153 89.464 39.4222 89.4624 39.4297 89.4608C39.4392 89.4581 39.4488 89.4561 39.4584 89.4533C39.5131 89.4359 39.5685 89.4172 39.6216 89.3966C39.6461 89.3883 39.6706 89.3776 39.6945 89.3689C39.7067 89.3633 39.7184 89.3586 39.7307 89.3538C39.7461 89.3475 39.7604 89.3423 39.7759 89.336C39.8269 89.3141 39.8769 89.2912 39.9269 89.2662C39.9556 89.2519 39.9839 89.2364 40.0114 89.2214C40.023 89.2154 40.0349 89.2095 40.0469 89.2027C40.0581 89.1964 40.0704 89.1904 40.082 89.1841C40.1394 89.152 40.1965 89.1175 40.2535 89.0822C40.2742 89.0683 40.295 89.0541 40.3149 89.0406C40.3365 89.0263 40.3576 89.012 40.3783 88.9978C40.4035 88.9807 40.4282 88.9648 40.4533 88.947C40.4992 88.9141 40.5454 88.8756 40.5921 88.84C40.622 88.8162 40.6527 88.7936 40.6834 88.7694C40.6938 88.7603 40.7038 88.7539 40.7138 88.746C40.8015 88.6734 40.89 88.5965 40.9802 88.5133L59.711 71.5326L68.6509 89.1774C68.8044 89.4815 69.2332 89.6202 70.0847 89.6202C79.0959 89.5576 88.0629 89.6182 97.0778 89.5457C97.1304 89.5453 97.1854 89.5433 97.2413 89.5393C97.2696 89.537 97.3015 89.531 97.3302 89.529C97.3793 89.5235 97.4287 89.5171 97.479 89.5104C97.5073 89.5056 97.5328 89.5052 97.5611 89.5005C97.5978 89.4941 97.6365 89.485 97.6736 89.4775C97.7207 89.468 97.7669 89.4593 97.8148 89.4485C97.8379 89.4434 97.8595 89.4394 97.8826 89.4343C97.932 89.4228 97.9827 89.4069 98.0326 89.393C98.0764 89.3815 98.1199 89.3704 98.1642 89.3578C98.1789 89.3522 98.1945 89.3486 98.2092 89.3451C98.283 89.3221 98.356 89.2963 98.4298 89.2697C98.4577 89.2602 98.4856 89.2519 98.5139 89.242C98.5183 89.2396 98.5231 89.2388 98.5279 89.2372C98.6284 89.2 98.7281 89.1599 98.8254 89.1175C98.8346 89.1151 98.843 89.1104 98.8518 89.106C98.8765 89.0953 98.8996 89.0842 98.924 89.0727C98.981 89.0477 99.0372 89.0223 99.0919 88.9954C99.1214 88.9807 99.1489 88.9649 99.1776 88.9506C99.2035 88.9363 99.2299 88.9236 99.2546 88.9097C99.2777 88.8978 99.3008 88.8867 99.3228 88.8741C99.391 88.836 99.4572 88.7967 99.5206 88.7567C99.5218 88.7559 101.892 86.833 105.906 83.5763L108.969 89.6202H111.607C123.347 89.6202 135.081 89.6309 146.82 89.6309C156.602 89.6309 166.387 89.6242 176.178 89.5992C176.803 89.5972 177.429 89.5945 178.056 89.5901C178.262 89.5885 178.468 89.5861 178.674 89.5837C179.099 89.5806 179.524 89.577 179.95 89.5719C180.192 89.5687 180.436 89.5639 180.679 89.5608C181.071 89.5544 181.461 89.5485 181.853 89.5409C182.114 89.5354 182.376 89.5294 182.638 89.5235C183.011 89.5152 183.384 89.5056 183.757 89.4957C184.031 89.487 184.303 89.4783 184.576 89.4692C184.942 89.4577 185.307 89.4442 185.673 89.4307C185.952 89.42 186.231 89.4085 186.51 89.3962C186.873 89.3808 187.235 89.3633 187.597 89.3455C187.878 89.3316 188.159 89.3165 188.441 89.3011C188.806 89.2804 189.172 89.2582 189.537 89.2348C189.815 89.2174 190.093 89.2 190.372 89.1809C190.488 89.173 190.603 89.1663 190.72 89.1583L191.837 89.1032C194.842 88.9569 197.84 88.6877 200.823 88.2968L201.508 88.2068C201.517 88.2052 201.526 88.204 201.534 88.2024C201.577 88.1953 201.62 88.1889 201.664 88.1826C201.949 88.1342 202.235 88.0827 202.522 88.0319C202.783 87.9867 203.044 87.9423 203.306 87.8948C203.654 87.8309 204.002 87.7627 204.35 87.6949C204.603 87.6466 204.854 87.5998 205.105 87.5498C205.478 87.4741 205.85 87.3936 206.223 87.3139C206.449 87.2652 206.676 87.2204 206.901 87.17C207.352 87.0709 207.802 86.9654 208.252 86.8592C208.401 86.8239 208.551 86.7918 208.701 86.7557C208.706 86.7545 208.712 86.7529 208.718 86.7509C209.262 86.6209 209.805 86.4833 210.347 86.3422C210.508 86.3005 210.668 86.2573 210.827 86.2153C211.234 86.1074 211.639 85.9972 212.044 85.8838C212.214 85.8371 212.385 85.7887 212.554 85.7407C213.031 85.6039 213.509 85.4636 213.986 85.3193C214.062 85.2963 214.138 85.2745 214.215 85.2507C214.234 85.2447 214.252 85.2396 214.27 85.2336C214.343 85.2122 214.416 85.1856 214.489 85.1634C215.123 84.9668 215.757 84.7626 216.391 84.5517C216.617 84.4756 216.842 84.3986 217.067 84.3209C217.585 84.1437 218.104 83.9597 218.623 83.7714C218.764 83.7203 218.904 83.6743 219.045 83.6223C219.126 83.5922 219.207 83.5585 219.288 83.5284C220.023 83.2544 220.757 82.9737 221.491 82.6783C221.91 82.509 222.325 82.3362 222.735 82.1597C222.76 82.149 222.784 82.1375 222.809 82.1268C222.982 82.0519 223.153 81.973 223.326 81.8965C223.595 81.7771 223.865 81.657 224.132 81.5345C224.315 81.4492 224.496 81.3604 224.678 81.2732C224.878 81.1781 225.08 81.0845 225.278 80.9866C225.33 80.9612 225.381 80.9342 225.433 80.9081C225.588 80.8311 225.742 80.7515 225.895 80.6733C226.153 80.5417 226.409 80.4093 226.663 80.2741C226.825 80.1881 226.985 80.1 227.145 80.0128C227.275 79.9415 227.407 79.8725 227.536 79.8003C227.653 79.7349 227.765 79.6667 227.881 79.6005C228.028 79.5164 228.175 79.4324 228.321 79.3467C228.575 79.1985 228.826 79.047 229.075 78.894C229.206 78.8131 229.339 78.733 229.469 78.6517C229.518 78.6212 229.568 78.5919 229.615 78.5625C229.863 78.4055 230.106 78.243 230.349 78.0824C230.427 78.0304 230.506 77.9809 230.583 77.9301L232.002 76.9243C232.247 76.7439 232.49 76.5635 232.73 76.3779C232.865 76.2729 232.998 76.165 233.131 76.0584C233.286 75.9355 233.442 75.8149 233.594 75.6904C233.661 75.6353 233.723 75.5763 233.792 75.5223C233.895 75.4407 234.021 75.332 234.119 75.244C234.352 75.0378 234.591 74.8372 234.821 74.6287C235.011 74.4574 235.197 74.2826 235.383 74.1077C235.503 73.9935 235.628 73.8841 235.747 73.7683C235.791 73.7255 235.834 73.6815 235.878 73.6375C235.972 73.5447 236.065 73.4504 236.159 73.3568C236.335 73.1823 236.509 73.0087 236.676 72.8283C236.797 72.6986 236.919 72.5726 237.039 72.4429C237.291 72.1701 237.54 71.8938 237.783 71.6123C237.813 71.5774 237.844 71.5441 237.874 71.51C238.107 71.2372 238.337 70.9621 238.561 70.6814C238.588 70.6481 238.612 70.6132 238.639 70.5799C238.96 70.1755 239.276 69.7647 239.579 69.3429C239.765 69.0852 239.942 68.8243 240.115 68.5626C240.158 68.4972 240.201 68.4326 240.243 68.3671C240.413 68.1055 240.579 67.8418 240.734 67.5774C240.735 67.5762 240.736 67.5746 240.736 67.5742C240.893 67.3082 241.041 67.0409 241.184 66.7733C241.22 66.7067 241.255 66.6401 241.29 66.5731C241.429 66.3051 241.564 66.0363 241.69 65.7659C241.691 65.7651 241.691 65.7651 241.692 65.7643C241.817 65.4947 241.933 65.2235 242.043 64.9523C242.071 64.8849 242.098 64.8175 242.124 64.7497C242.152 64.6815 242.181 64.6129 242.207 64.5447C242.273 64.3703 242.334 64.1962 242.394 64.0222C242.406 63.9857 242.421 63.9504 242.433 63.9143C242.524 63.6431 242.606 63.3719 242.682 63.1007C242.702 63.0286 242.72 62.9548 242.739 62.8819C242.795 62.671 242.845 62.46 242.891 62.2499C242.907 62.1778 242.923 62.1056 242.938 62.033C242.946 61.9938 242.956 61.9538 242.964 61.9129C242.991 61.7702 243.009 61.6274 243.031 61.4847C243.05 61.3717 243.071 61.2579 243.085 61.1453C243.112 60.9463 243.128 60.7489 243.145 60.5514C243.152 60.4614 243.165 60.371 243.17 60.2822C243.171 60.2723 243.172 60.2616 243.173 60.2521C243.187 59.9971 243.192 59.7446 243.189 59.4936C243.189 59.4222 243.185 59.3513 243.183 59.2799C243.179 59.1657 243.179 59.0484 243.173 58.9338C243.167 58.8426 243.157 58.753 243.149 58.6618C243.144 58.6047 243.139 58.5476 243.134 58.4917C243.11 58.2649 243.082 58.0393 243.042 57.8165C243.038 57.7892 243.031 57.7626 243.027 57.7341C243.021 57.7055 243.016 57.677 243.011 57.6492L242.581 56.1367C242.568 56.1018 242.555 56.0665 242.541 56.0308C242.525 55.9919 242.512 55.9499 242.495 55.9099C242.408 55.6978 242.313 55.4892 242.208 55.2834L233.818 37.5969C248.789 37.5958 263.375 37.5985 277.878 37.5704C277.931 37.5704 277.988 37.5678 278.045 37.5636C278.139 37.5567 278.238 37.5451 278.339 37.5281C278.437 37.5118 278.537 37.4906 278.639 37.4663C278.741 37.442 278.844 37.414 278.948 37.3812C279.052 37.3494 279.157 37.314 279.26 37.276C279.297 37.2623 279.333 37.2469 279.369 37.2326C279.379 37.2289 279.388 37.2247 279.398 37.221C279.452 37.1999 279.507 37.1792 279.561 37.156C279.614 37.1333 279.664 37.1068 279.717 37.0846C279.727 37.0799 279.736 37.0751 279.746 37.0709L280.473 36.6527C280.516 36.6221 280.557 36.5909 280.596 36.5597C282.367 35.143 284.134 33.7215 285.898 32.2989C289.425 29.4517 292.939 26.5949 296.452 23.7355C298.208 22.3072 299.963 20.8772 301.719 19.4483C301.734 19.4362 301.748 19.4245 301.763 19.4124C301.82 19.3659 301.876 19.3156 301.932 19.267C301.973 19.2311 302.015 19.1967 302.057 19.1592C302.125 19.0989 302.196 19.0333 302.267 18.9683C302.306 18.9324 302.344 18.8975 302.384 18.8599C302.489 18.7627 302.601 18.6575 302.72 18.5465C302.85 18.4249 302.99 18.2943 303.146 18.1521L293.971 0.0432142H292.469L219.795 0.207604C208.726 0.23245 197.195 1.71159 185.454 4.7909C183.737 5.24498 182.04 5.78419 180.374 6.40852L177.147 0.0379206C171.955 0.0379206 166.823 0.0426999 161.725 0.0426999C155.672 0.0426999 149.666 0.0368619 143.637 0.0077868C142.197 0.0077868 141.234 0.384172 140.088 1.4092L119.124 19.9077L119.121 19.9093L119.055 19.9674C119.281 19.3907 119.595 18.639 119.777 18.1468L110.602 0.0379206H108.466C104.26 0.0379206 100.05 0.0490218 95.8438 0.0490218C91.9176 0.0490218 87.9939 0.0395238 83.99 0.00146484C82.433 0.00146484 81.4171 0.426476 80.1975 1.55882ZM230.626 33.6818C227.918 31.5752 224.393 30.0147 220.148 29.0436C214.453 27.7363 208.599 26.5077 202.938 25.3193C200.895 24.8901 198.851 24.4614 196.804 24.0268C196.184 23.9031 195.763 23.5986 195.577 23.1144C195.555 23.0542 195.537 22.9933 195.521 22.9119C195.508 22.8453 195.504 22.7756 195.502 22.6883V22.6408C195.502 22.5889 195.506 22.5366 195.512 22.4827C195.516 22.451 195.52 22.4192 195.525 22.3859C195.528 22.3616 195.535 22.3368 195.539 22.3088C195.549 22.2813 195.557 22.2538 195.565 22.2247C195.58 22.1645 195.598 22.1036 195.614 22.0561C195.626 22.0201 195.638 21.9836 195.646 21.9641L195.673 21.9091L195.713 21.8229C195.746 21.7532 195.778 21.6829 195.819 21.6136C195.836 21.5856 195.856 21.5587 195.876 21.5311L195.922 21.4651L195.969 21.3947C195.992 21.3599 196.014 21.325 196.058 21.271L196.094 21.2309C196.119 21.2008 196.147 21.1712 196.174 21.1426L196.209 21.104L196.26 21.0474L196.322 20.9792C196.381 20.9195 196.444 20.8619 196.509 20.8043L196.541 20.7762L196.543 20.7741L196.582 20.7387C196.685 20.6531 196.793 20.5696 196.929 20.4755L196.951 20.458C197.003 20.4189 197.063 20.3819 197.138 20.3422C197.21 20.3036 197.288 20.2688 197.4 20.2244C197.483 20.1927 197.57 20.1641 197.658 20.1387L197.757 20.1118C197.818 20.0954 197.879 20.0811 197.942 20.0674C198.016 20.0505 198.09 20.0356 198.17 20.0208L198.3 19.9981C198.489 19.9674 198.676 19.9463 198.856 19.9325L198.915 19.9283L198.961 19.9246C199.111 19.9151 199.256 19.9088 199.39 19.9088C209.031 19.8982 218.964 19.8977 228.939 19.8971L242.802 19.8956C251.548 19.8929 260.237 19.8866 268.703 19.8702C269.398 19.8702 270.396 19.5604 271.183 19.1005L271.227 19.0756C271.265 19.0534 271.304 19.0318 271.363 18.9937H271.364L271.365 18.9927C271.372 18.9884 271.379 18.9831 271.388 18.9783L271.413 18.9615L271.415 18.9594C271.509 18.8975 271.598 18.8346 271.679 18.7696C275.225 15.9324 278.66 13.1512 281.552 10.8052C282.896 9.71406 284.24 8.62399 285.583 7.5313L286.455 6.8224L287.537 5.94329L289.517 4.3315L292.39 1.99388L292.598 1.82471L292.804 1.65661C293.097 1.41925 293.371 1.16337 293.687 0.865756L293.775 0.783828L293.833 0.729915L293.85 0.71404L302.639 18.0612C302.569 18.1262 302.503 18.1881 302.438 18.2489L302.3 18.3778L302.103 18.5618L302.034 18.6247L301.987 18.6686C301.918 18.7315 301.849 18.7955 301.782 18.8552L301.713 18.9144L301.661 18.9594L301.619 18.9963C301.58 19.0302 301.541 19.0645 301.501 19.0973L301.459 19.1317L298.614 21.4471L296.19 23.4199C292.271 26.6098 288.977 29.2868 285.638 31.9812C283.876 33.4032 282.109 34.8247 280.339 36.2404C280.305 36.2674 280.269 36.2949 280.234 36.3202L280.17 36.3631L280.113 36.4016L279.516 36.7252L279.461 36.7516L279.397 36.7812L279.296 36.8214L279.221 36.851L279.162 36.8748L279.117 36.8927C279.02 36.9287 278.924 36.9615 278.827 36.9911C278.731 37.0201 278.635 37.0465 278.543 37.0687C278.451 37.0909 278.36 37.11 278.271 37.1243C278.182 37.1396 278.096 37.1502 278.016 37.156C277.968 37.1592 277.922 37.1613 277.877 37.1613C264.891 37.1867 251.196 37.1872 237.951 37.1882H233.496C232.856 35.8444 231.891 34.6656 230.626 33.6818ZM73.9677 71.8867C78.5312 71.8851 83.251 71.8831 87.905 71.8454C87.9971 71.8454 88.0964 71.8367 88.1989 71.826C88.2532 71.8208 88.309 71.8145 88.3644 71.8066C88.4334 71.7959 88.5052 71.7836 88.5782 71.7701C88.6292 71.7598 88.6799 71.7499 88.7298 71.7384C88.8075 71.7213 88.8873 71.7003 88.9818 71.6741C89.0237 71.6638 89.066 71.6527 89.1075 71.6404C89.2024 71.6119 89.2973 71.5802 89.4146 71.5401L89.4808 71.5167C89.5964 71.4783 89.7109 71.4323 89.8222 71.3815L89.9203 71.336C90.0128 71.2935 90.1037 71.2507 90.1923 71.2055L90.2768 71.1603C90.3829 71.1032 90.4858 71.0441 90.6095 70.9637C90.7156 70.8955 90.8145 70.8249 90.9042 70.7523C118.123 48.6928 145.757 26.2328 172.48 4.51126L176.08 1.58682C176.14 1.53765 176.198 1.4864 176.257 1.43459L176.293 1.40287L176.339 1.36322L176.416 1.29556C176.473 1.24534 176.529 1.19139 176.586 1.13694L176.628 1.09784L176.674 1.05502L176.732 1.00004L176.927 0.812905L177.029 0.715103L179.988 6.55545C175.591 8.24603 171.434 10.5588 167.817 13.6117C165.176 15.8404 162.511 18.4233 160.997 21.0374C158.666 25.055 158.461 29.0425 160.073 32.1995C160.068 32.19 160.062 32.1821 160.058 32.1725L162.55 37.092C157.156 41.4762 151.739 45.8774 146.307 50.2898C140.283 50.2851 134.257 50.2779 128.231 50.2656C126.847 50.2656 125.918 50.6304 124.803 51.5585C121.088 54.6637 117.28 57.6992 113.509 60.7627L99.9414 71.8034L105.728 83.2259C103.67 84.8942 101.614 86.5618 99.5601 88.2262L99.2989 88.4118C99.2414 88.4482 99.1824 88.4831 99.095 88.5315L99.0623 88.5489L99.058 88.5509L98.9882 88.5874L98.9431 88.6116L98.9108 88.6286C98.8709 88.6481 98.8294 88.6667 98.7887 88.6853L98.7261 88.7139L98.6611 88.7432C98.5702 88.7829 98.4784 88.8193 98.3827 88.8542L98.3464 88.8665L98.3405 88.8685L98.2906 88.8856C98.2224 88.9093 98.1546 88.9335 98.0868 88.9541L98.0533 88.9633L98.0465 88.9652L97.9687 88.9871L97.9237 88.9986L97.865 89.0156L97.7685 89.0406L97.7306 89.0477L97.7239 89.0493C97.6808 89.0588 97.6393 89.0675 97.5906 89.077L97.5484 89.0858L97.5456 89.0866L97.4726 89.0993L97.4295 89.104L97.4215 89.1056C97.3761 89.1112 97.3306 89.1171 97.2907 89.1215L97.2169 89.1298L97.2094 89.1314C97.1631 89.1345 97.118 89.1361 97.0746 89.1365C92.4226 89.1742 87.7044 89.1762 83.1417 89.1778C78.8646 89.1789 74.4423 89.1817 70.0847 89.2119C69.1977 89.2119 69.0445 89.0445 69.0178 88.993L60.3567 71.8978C60.5222 71.9132 60.7073 71.9215 60.9131 71.9215C65.2707 71.8898 69.6914 71.8878 73.9677 71.8867ZM103.413 20.6013L109.534 4.0994L110.66 1.06241L119.329 18.1722L119.138 18.6866L118.774 19.6698L96.4492 39.3694L103.413 20.6013ZM38.9255 36.5607L41.0105 30.7151L51.5616 1.138L60.2243 18.2356L60.0731 18.6591L59.7613 19.5356L37.9412 39.3202L38.9255 36.5607ZM37.5716 41.8433L37.8226 41.6157L59.2523 22.1845L81.0259 2.44111C82.0297 1.50912 82.7504 1.20939 83.9872 1.20886C87.4722 1.24217 91.1291 1.25642 95.8438 1.25642C97.948 1.25642 100.053 1.25431 102.157 1.25061C104.26 1.2485 106.363 1.24587 108.466 1.24587H108.86L106.188 8.44902C102.224 19.1333 98.2918 29.735 94.3561 40.3395L92.6794 44.8561L96.0607 41.8726L96.3016 41.6601L118.234 22.3077L140.9 2.3063C141.824 1.48005 142.489 1.21519 143.631 1.21519C150.212 1.24585 156.758 1.25061 161.725 1.25061L169.366 1.24797L173.929 1.24587L172.091 2.7403C150.224 20.5141 127.755 38.7768 105.393 56.9169C104.989 57.2448 104.585 57.5723 104.181 57.9006C99.4061 61.7733 94.6353 65.643 89.8788 69.4983C89.4265 69.8642 88.443 70.2258 87.8926 70.2302C83.2478 70.2671 78.5352 70.269 73.9777 70.2706C69.7473 70.2722 65.3745 70.2738 61.0666 70.3039C61.014 70.3039 60.9613 70.3039 60.9087 70.3039C60.8469 70.3039 60.7918 70.3039 60.7416 70.3023C60.7504 70.2766 60.7599 70.2496 60.7699 70.2211C63.9785 61.3261 67.2007 52.2841 70.3168 43.5394L73.1704 35.5336L73.4086 34.8659L73.4628 34.7137L73.797 33.7775L75.4195 29.2307L71.834 32.4813L47.8094 54.2621L45.1053 56.7135L30.9813 69.5185C30.3336 70.1128 29.8965 70.294 29.1116 70.294C24.3654 70.2766 19.647 70.2635 14.9253 70.2635C10.0558 70.2635 5.67876 70.277 1.55373 70.3039C1.45323 70.3039 1.36762 70.3031 1.29424 70.2988C1.30222 70.273 1.31071 70.2449 1.31975 70.2163C3.67393 62.8593 6.03077 55.3818 8.31106 48.1497C9.35919 44.8248 10.4073 41.5004 11.4587 38.1752C14.4557 28.7047 17.4613 19.2342 20.467 9.76322L22.6919 2.75088C22.836 2.30049 23.0009 1.85007 23.1918 1.32831C23.1945 1.32143 23.1971 1.31405 23.1998 1.30718H49.7765L45.1711 14.2175L35.8593 40.3204L34.2374 44.8668L37.5716 41.8433ZM169.978 51.5015C177.647 51.4999 185.316 51.4975 192.985 51.4927H193.152L193.314 51.4475C194.148 51.214 194.903 50.8219 195.535 50.3255C195.76 50.1487 195.97 49.96 196.162 49.7593C196.611 49.2871 196.962 48.7555 197.187 48.1941C197.316 47.8705 197.418 47.5407 197.457 47.2021C197.605 45.9032 196.992 44.7479 195.82 44.1123L195.686 44.0394L195.539 44.0017C191.874 43.0732 188.222 42.2271 184.69 41.41C181.046 40.5659 177.604 39.7689 174.137 38.8852C170.819 38.0388 167.899 36.9852 165.459 35.754C165.33 35.6896 165.206 35.6214 165.081 35.5537C164.954 35.4839 164.83 35.4115 164.708 35.3386C162.64 34.101 161.227 32.3639 160.6 30.27C159.807 27.6242 160.309 24.6401 162.05 21.6395C163.252 19.5631 165.396 17.2387 168.603 14.5325C171.984 11.6779 175.985 9.37099 180.536 7.63652C180.665 7.58736 180.792 7.53661 180.921 7.48848C182.474 6.91228 184.088 6.40162 185.764 5.95864C197.162 2.96868 208.613 1.44038 219.798 1.41501L290.731 1.25536L288.503 3.0686C282.67 7.81625 276.641 12.7251 270.661 17.5093C270.191 17.8851 269.221 18.2536 268.701 18.2536C255.741 18.279 242.07 18.28 228.85 18.2811C218.904 18.2816 209.001 18.2821 199.39 18.2927C198.853 18.2927 197.034 18.3572 195.956 19.1803C194.406 20.2608 193.633 21.8272 193.935 23.2756C194.177 24.4339 195.083 25.2845 196.35 25.5768C196.391 25.5863 196.429 25.6006 196.47 25.609C198.516 26.043 200.565 26.4728 202.613 26.9037C208.263 28.0888 214.106 29.3158 219.783 30.6184C223.794 31.5361 227.106 32.9951 229.624 34.9537C230.635 35.7403 231.364 36.6353 231.871 37.5979C233.973 41.5919 232.116 46.7814 229.416 50.5317C225.431 56.0665 219.688 60.2917 211.86 63.4508C203.061 66.9969 193.609 69.1494 182.963 70.0312C177.469 70.4855 172.115 70.5604 167.147 70.5747C158.616 70.5953 149.288 70.606 137.792 70.606C132.493 70.606 127.196 70.6037 121.9 70.6013H121.292C120.924 70.6013 120.555 70.6013 120.187 70.6005C114.572 70.5985 108.957 70.5957 103.342 70.5953L105.462 68.8699C108.488 66.4074 111.383 64.0515 114.278 61.6972C115.355 60.8218 116.437 59.948 117.519 59.0749C120.176 56.9268 122.925 54.7062 125.584 52.4847C126.491 51.7282 127.159 51.4729 128.229 51.4729C133.501 51.4836 139.007 51.4915 144.822 51.4967C145.029 51.4967 145.235 51.4967 145.442 51.4967C151.283 51.5015 157.437 51.5042 163.987 51.5042C165.984 51.5042 167.982 51.5022 169.978 51.5015ZM31.629 71.0838L31.6694 71.0541L31.6716 71.0521L31.704 71.0271L31.7689 70.9775C31.8726 70.8935 31.9773 70.8031 32.0826 70.7075L71.7155 34.7761L71.6385 34.9934L68.7941 42.9725C65.6756 51.7243 62.4502 60.7742 59.2396 69.6759C59.0848 70.1057 58.7985 70.903 59.2252 71.4188L40.701 88.2131C40.6172 88.2908 40.5335 88.3638 40.4585 88.4252L40.429 88.4482L40.425 88.4514L40.3747 88.4903L40.3404 88.516L40.3388 88.5172L40.2922 88.5537C40.2655 88.5751 40.2383 88.5965 40.1825 88.6354L40.1474 88.6592L40.1454 88.6604L40.088 88.6996L40.0373 88.7345L40.0325 88.7369C39.9823 88.7694 39.9312 88.7999 39.8514 88.8431L39.7982 88.8717L39.7971 88.8725L39.7439 88.8998C39.6998 88.9216 39.6557 88.9415 39.6052 88.9633L39.5424 88.9886L39.4812 89.0128L39.4791 89.014C39.4323 89.0311 39.3855 89.0473 39.3361 89.062L39.2494 89.0858L39.2121 89.0965L39.2095 89.0969L39.1717 89.1076C39.1133 89.1215 39.0521 89.1326 39 89.1421L38.9606 89.15H38.959L38.9032 89.1567L38.8356 89.1643L38.7926 89.1698C38.7405 89.177 38.6884 89.1837 38.6229 89.1897C38.5134 89.1968 38.4001 89.2011 38.2831 89.2011C33.5386 89.1833 28.8207 89.171 24.1006 89.171C19.2401 89.171 14.8657 89.1837 10.7253 89.2119C9.86332 89.2119 9.65856 89.0612 9.61337 88.9712L0.960268 71.8926C0.961333 71.8926 0.962402 71.8926 0.963467 71.893C1.1464 71.912 1.33943 71.9215 1.55693 71.9215H1.55747C2.67048 71.9132 3.78189 71.9116 4.89385 71.9096L6.89651 71.9049L9.05712 71.8958C11.0141 71.8878 12.971 71.8799 14.9258 71.8799C15.8602 71.8799 16.7966 71.8827 17.732 71.8851L19.6491 71.8894L21.2131 71.8926C23.8395 71.897 26.4654 71.9005 29.1068 71.9104C30.1129 71.9104 30.8675 71.663 31.629 71.0838ZM169.428 49.7593H169.428L169.365 49.6333L169.364 49.6325L166.213 43.413L163.062 37.193L162.876 36.8272L162.225 35.5421C162.325 35.6266 162.428 35.7113 162.536 35.7974C162.605 35.8518 162.675 35.9047 162.745 35.9576L162.802 35.9994C162.991 36.1415 163.187 36.2785 163.388 36.4112C163.411 36.4265 163.433 36.4423 163.455 36.4571L163.479 36.4719L163.526 36.5031C163.595 36.5486 163.664 36.594 163.736 36.639C163.738 36.64 163.74 36.6411 163.741 36.6421C164.09 36.8562 164.409 37.0365 164.717 37.1919L164.724 37.1951C167.27 38.4792 170.301 39.575 173.733 40.4509C177.216 41.3386 180.666 42.1375 184.319 42.9832C187.826 43.7952 191.451 44.6353 195.082 45.5543C195.192 45.6178 195.296 45.697 195.406 45.7997C195.415 45.8081 195.423 45.8168 195.431 45.8247C195.448 45.8406 195.464 45.8568 195.48 45.8739C195.582 45.9821 195.654 46.0804 195.702 46.1736C195.916 46.5907 195.899 47.1256 195.656 47.6806C195.557 47.9046 195.427 48.1219 195.271 48.3273C194.958 48.7368 194.539 49.1 194.053 49.3874C193.809 49.5318 193.548 49.6567 193.276 49.7593C193.276 49.7593 193.154 49.8117 192.969 49.8854C192.909 49.9108 192.84 49.9378 192.768 49.9663C192.669 50.0044 192.559 50.0448 192.449 50.0837C192.233 50.1614 192.007 50.2359 191.808 50.2851L169.696 50.2946L169.428 49.7593ZM146.928 50.2906C152.229 45.9873 157.576 41.6474 162.736 37.4584L169.221 50.2946C168.72 50.2946 168.218 50.2954 167.716 50.2954C166.474 50.2958 165.23 50.297 163.987 50.297C158.301 50.297 152.615 50.2946 146.928 50.2906ZM167.152 72.1904C167.777 72.1888 168.404 72.1856 169.032 72.1812L169.341 72.1785L169.65 72.1761C170.076 72.1721 170.501 72.1682 170.927 72.1626L171.384 72.1559L171.657 72.1523C172.049 72.1463 172.442 72.14 172.834 72.1321L173.421 72.119L173.621 72.1142C173.994 72.1063 174.369 72.0972 174.742 72.0865C175.015 72.0785 175.288 72.0698 175.56 72.0595C175.928 72.0492 176.297 72.0353 176.666 72.0215L177.496 71.9878C177.863 71.9719 178.228 71.9545 178.595 71.9358C178.875 71.9223 179.153 71.9073 179.433 71.8922C179.801 71.8716 180.171 71.8486 180.541 71.8256L180.678 71.8165C180.909 71.8022 181.14 71.7879 181.371 71.7717C181.946 71.7308 182.521 71.6896 183.099 71.642C183.81 71.5834 184.522 71.5163 185.235 71.445L185.76 71.3895L185.886 71.376C186.397 71.3221 186.909 71.265 187.42 71.2039L187.536 71.19L188.124 71.1187C188.685 71.0485 189.247 70.974 189.809 70.8947L190.022 70.8653L190.287 70.8289C191 70.7258 191.713 70.6144 192.427 70.497C192.685 70.4546 192.943 70.4086 193.201 70.3642L193.412 70.3273L193.693 70.2782C193.864 70.2484 194.035 70.2191 194.207 70.1881C194.467 70.1402 194.729 70.0898 194.99 70.0387L195.249 69.9891L195.515 69.9376C195.681 69.9067 195.847 69.8741 196.012 69.8416C196.32 69.7798 196.627 69.7136 196.935 69.6474L197.134 69.6045L197.396 69.5502C197.536 69.5205 197.676 69.4915 197.816 69.461C198.267 69.3615 198.72 69.2549 199.172 69.1478L199.365 69.1042L199.622 69.0439C200.173 68.9123 200.725 68.7727 201.277 68.6292L201.659 68.5277L201.758 68.5015C202.166 68.3937 202.573 68.2827 202.98 68.1689L203.107 68.1336L203.495 68.0242C203.972 67.8878 204.447 67.7482 204.924 67.6039L205.023 67.5738L205.162 67.5318L205.312 67.485L205.432 67.4469C206.07 67.2491 206.71 67.0433 207.348 66.83C207.541 66.765 207.734 66.6988 207.926 66.6326L208.024 66.5993C208.546 66.4208 209.068 66.2361 209.589 66.047L209.738 65.993C209.911 65.9296 210.084 65.8674 210.258 65.8027C211.103 65.4875 211.806 65.2163 212.47 64.9483C212.917 64.7687 213.36 64.582 213.798 64.3933C213.911 64.3437 214.024 64.2941 214.136 64.2426L214.319 64.1613L214.433 64.1102C214.667 64.0063 214.9 63.9028 215.13 63.7962C215.256 63.7379 215.38 63.678 215.503 63.6189L215.682 63.5329L215.755 63.4984C215.985 63.3878 216.215 63.278 216.443 63.1654C216.556 63.1099 216.666 63.0524 216.778 62.9953L216.909 62.9287C217.167 62.7959 217.427 62.6622 217.682 62.5259C217.845 62.439 218.007 62.3502 218.169 62.2626C218.418 62.1254 218.665 61.987 218.911 61.8475C219.06 61.7622 219.209 61.6766 219.355 61.5902C219.611 61.4403 219.863 61.2877 220.115 61.1338L220.241 61.0561C220.333 61.001 220.424 60.9451 220.514 60.8884C220.814 60.7005 221.109 60.5078 221.404 60.3127L221.51 60.2437L221.638 60.1589C222.006 59.9127 222.368 59.6593 222.726 59.4008C222.796 59.3509 222.865 59.2993 222.934 59.247L223.07 59.1455C223.317 58.9627 223.565 58.78 223.807 58.592C223.901 58.5191 223.993 58.4457 224.086 58.3716L224.214 58.2685C224.423 58.1016 224.633 57.9339 224.839 57.7622C225.014 57.6151 225.188 57.4652 225.361 57.3154L225.423 57.2615L225.515 57.1818C225.652 57.0628 225.789 56.9443 225.923 56.823C226.096 56.6679 226.264 56.5089 226.433 56.3504L226.491 56.2956L226.617 56.1775C226.743 56.0593 226.869 55.9404 226.992 55.8199L227.179 55.6343L227.251 55.5614C227.471 55.3409 227.688 55.1185 227.902 54.8933L227.949 54.843L228.167 54.611C228.422 54.3363 228.673 54.0563 228.919 53.7709L228.959 53.7265L229.012 53.6658C229.277 53.3582 229.533 53.0437 229.786 52.725C230.144 52.275 230.456 51.8654 230.739 51.4725C230.927 51.2108 231.108 50.9448 231.284 50.6784L231.415 50.4785C231.587 50.2121 231.755 49.9453 231.916 49.6721C232.076 49.4025 232.227 49.1297 232.373 48.857L232.48 48.6524C232.613 48.397 232.742 48.1417 232.862 47.8852L232.883 47.8618L232.902 47.8007C233.026 47.5335 233.139 47.2663 233.249 46.9983L233.333 46.7905C233.431 46.5419 233.523 46.2929 233.609 46.044L233.625 46L233.647 45.9361C233.741 45.6582 233.826 45.3795 233.902 45.1019L233.945 44.9418L233.962 44.8767C234.02 44.6599 234.072 44.4434 234.119 44.2269L234.134 44.1567L234.166 44.0045C234.202 43.8265 234.23 43.6481 234.263 43.4399L234.282 43.3277C234.295 43.248 234.308 43.1687 234.318 43.0898C234.346 42.8844 234.363 42.6803 234.379 42.4757L234.39 42.3742C234.396 42.3151 234.402 42.2568 234.406 42.1982C234.406 42.195 234.406 42.193 234.406 42.1902C234.435 41.7065 234.395 41.2212 234.304 40.7455L234.006 39.1843L241.841 55.467C241.94 55.6629 242.032 55.8623 242.114 56.0649L242.131 56.1085L242.153 56.1672L242.181 56.2393L242.196 56.281L242.6 57.7055L242.612 57.7618L242.623 57.8161L242.638 57.8871C242.675 58.1004 242.702 58.3169 242.725 58.533L242.734 58.6436L242.739 58.6963L242.748 58.795C242.753 58.8497 242.758 58.9044 242.762 58.9592C242.767 59.0325 242.768 59.1059 242.769 59.18L242.772 59.2914L242.774 59.3715L242.778 59.4968C242.78 59.7386 242.777 59.9829 242.759 60.2572C242.756 60.304 242.751 60.3516 242.746 60.3992L242.735 60.5173C242.719 60.7088 242.703 60.8995 242.678 61.0922C242.668 61.1624 242.657 61.2322 242.645 61.3031L242.625 61.4213L242.604 61.5636C242.59 61.6552 242.577 61.7456 242.56 61.8368L242.548 61.8899L242.534 61.9537L242.505 62.0921L242.489 62.1635C242.444 62.3677 242.395 62.5726 242.341 62.7784L242.323 62.8486L242.284 62.9913C242.211 63.2558 242.132 63.5202 242.042 63.7855L242.026 63.833L242.005 63.8897C241.946 64.0598 241.887 64.2295 241.823 64.3996L241.777 64.513L241.742 64.5994L241.662 64.7989C241.554 65.0641 241.44 65.3286 241.317 65.5946C241.194 65.8598 241.062 66.1219 240.924 66.3848L240.821 66.5814C240.681 66.8447 240.535 67.1067 240.395 67.3454L240.374 67.3771L240.37 67.3886C240.218 67.642 240.06 67.8945 239.897 68.1451L239.772 68.3382C239.601 68.5951 239.427 68.852 239.245 69.105C238.968 69.4896 238.665 69.8892 238.316 70.3269L238.27 70.3876L238.24 70.4268C238.018 70.7032 237.791 70.9756 237.561 71.2444L237.52 71.29L237.471 71.3459C237.231 71.6242 236.986 71.897 236.736 72.1658L236.542 72.3731L236.477 72.4413C236.268 72.6622 236.057 72.8786 235.842 73.0931L235.759 73.1768L235.59 73.3465L235.525 73.4107L235.46 73.4757C235.393 73.5404 235.325 73.6038 235.255 73.6668L235.1 73.8104L235.047 73.8607C234.881 74.0165 234.714 74.1731 234.545 74.3258C234.415 74.4431 234.283 74.5581 234.151 74.6727L234.057 74.754L234.016 74.7889C233.84 74.9419 233.665 75.0949 233.484 75.2448L233.406 75.3114L233.331 75.3756C233.237 75.4534 233.139 75.5295 233.043 75.6064L232.874 75.7396L232.752 75.8367C232.66 75.9101 232.569 75.9838 232.476 76.0556C232.24 76.2392 231.999 76.4176 231.758 76.596L231.624 76.6947L230.353 77.5908L230.238 77.6657L230.121 77.7418L230.073 77.7743C229.848 77.9234 229.623 78.0725 229.395 78.2168L229.327 78.2584L229.25 78.306C229.159 78.3631 229.067 78.4186 228.974 78.4753L228.858 78.5459C228.611 78.6973 228.363 78.848 228.113 78.9947C227.968 79.0795 227.822 79.1628 227.676 79.2464L227.526 79.3341L227.334 79.4435C227.259 79.4863 227.181 79.5283 227.104 79.5696L226.946 79.6544C226.787 79.7416 226.629 79.8285 226.468 79.9141C226.217 80.0473 225.963 80.1789 225.707 80.3094L225.584 80.3724C225.472 80.4299 225.362 80.4866 225.249 80.5421L225.173 80.5814L225.095 80.621C224.969 80.6833 224.841 80.7435 224.713 80.8038L224.501 80.9041L224.319 80.9913C224.199 81.0496 224.079 81.1071 223.958 81.1638C223.719 81.2736 223.479 81.3799 223.238 81.4877L223.158 81.5226L222.971 81.6075C222.864 81.6558 222.755 81.7046 222.643 81.7526L222.574 81.7839H222.572C222.164 81.9603 221.752 82.1316 221.336 82.2993C220.679 82.5645 219.982 82.8337 219.144 83.145L219.022 83.1922L218.9 83.2397C218.826 83.2667 218.751 83.2925 218.676 83.319L218.482 83.3876C217.965 83.5748 217.449 83.7579 216.933 83.9344L216.768 83.9915L216.26 84.1639C215.629 84.3748 214.998 84.5778 214.366 84.7733L214.258 84.8086L214.149 84.8435L214.094 84.8601L213.966 84.8982L213.865 84.9287C213.39 85.0719 212.915 85.2114 212.442 85.3474L211.933 85.4905C211.529 85.6031 211.125 85.7133 210.721 85.82L210.557 85.864L210.244 85.9469C209.703 86.0868 209.162 86.2244 208.604 86.3588L208.357 86.4159L208.157 86.4619C207.709 86.5674 207.26 86.6716 206.813 86.7711C206.676 86.8017 206.539 86.8298 206.403 86.8584L206.136 86.9143L205.939 86.9567C205.633 87.0221 205.328 87.0871 205.023 87.1486C204.862 87.1807 204.701 87.212 204.54 87.2426L204.272 87.2937L204.077 87.3318C203.795 87.3865 203.513 87.4412 203.231 87.4931C203.046 87.5264 202.86 87.5582 202.675 87.5903L202.45 87.6291L202.131 87.6854C201.953 87.7171 201.774 87.7496 201.599 87.7786L201.551 87.7861L201.467 87.7992C198.033 88.2722 194.578 88.583 191.114 88.7321L190.69 88.7504L190.501 88.763L190.343 88.7734C190.065 88.7924 189.788 88.8098 189.511 88.8269C189.146 88.8503 188.782 88.8729 188.418 88.8923C188.137 88.9081 187.857 88.9224 187.577 88.9363C187.215 88.9553 186.854 88.9724 186.492 88.9874L185.658 89.0223C185.293 89.0362 184.927 89.0493 184.563 89.0612L184.391 89.0667L183.747 89.0866C183.373 89.0969 183.001 89.106 182.628 89.1151L182.429 89.1199L181.845 89.1326C181.454 89.1393 181.063 89.1456 180.673 89.152L180.383 89.1563L179.945 89.1631C179.525 89.1682 179.105 89.1714 178.67 89.1754L178.461 89.1774L178.054 89.1817C177.427 89.1849 176.802 89.1885 176.177 89.19C167.695 89.2119 158.367 89.2222 146.82 89.2222C140.95 89.2222 135.082 89.2198 129.213 89.217C123.345 89.2142 117.477 89.2119 111.607 89.2119H109.222L106.233 83.3123L106.055 82.961L100.609 72.2126H102.58C108.154 72.2126 113.727 72.2145 119.301 72.2165H119.908H120.186C126.054 72.2197 131.923 72.2221 137.792 72.2221C149.342 72.2221 158.671 72.2114 167.152 72.1904Z" fill="url(#paint18_linear)"/>
<path d="M164.724 37.1942L164.717 37.1909L164.724 37.1942Z" fill="url(#paint19_linear)"/>
<path d="M163.525 36.5024C163.595 36.5478 163.664 36.5933 163.736 36.6382C163.664 36.5933 163.595 36.5478 163.526 36.5024L163.479 36.4712L163.525 36.5024Z" fill="url(#paint20_linear)"/>
<path d="M192.449 50.0827C192.559 50.0438 192.668 50.0034 192.767 49.9653C192.668 50.0034 192.559 50.0438 192.449 50.0827Z" fill="url(#paint21_linear)"/>
<path d="M169.364 49.6312L169.365 49.6324L169.364 49.6312L166.213 43.4121L169.364 49.6312Z" fill="url(#paint22_linear)"/>
<path d="M163.741 36.6414C164.09 36.8555 164.409 37.0357 164.717 37.1912C164.409 37.0357 164.09 36.8555 163.741 36.6414C163.74 36.6403 163.738 36.6393 163.736 36.6382C163.738 36.6393 163.74 36.6403 163.741 36.6414Z" fill="url(#paint23_linear)"/>
<path d="M195.082 45.5536C195.192 45.617 195.296 45.6963 195.406 45.799C195.415 45.8073 195.423 45.816 195.431 45.824C195.423 45.816 195.415 45.8073 195.406 45.799C195.296 45.6963 195.192 45.617 195.082 45.5536C191.451 44.6345 187.826 43.7944 184.319 42.9824C187.826 43.7944 191.451 44.6345 195.082 45.5536Z" fill="url(#paint24_linear)"/>
<path d="M162.536 35.7963C162.605 35.8508 162.675 35.9037 162.745 35.9565C162.675 35.9037 162.605 35.8508 162.536 35.7963C162.428 35.7102 162.325 35.6256 162.225 35.541C162.325 35.6256 162.428 35.7102 162.536 35.7963Z" fill="url(#paint25_linear)"/>
</g>
<defs>
<linearGradient id="paint0_linear" x1="96.4492" y1="20.2149" x2="119.33" y2="20.2149" gradientUnits="userSpaceOnUse">
<stop stop-color="#00B4EC"/>
<stop offset="0.00558659" stop-color="#00B4EC"/>
<stop offset="1" stop-color="#007AAE"/>
</linearGradient>
<linearGradient id="paint1_linear" x1="37.941" y1="20.2284" x2="60.2246" y2="20.2284" gradientUnits="userSpaceOnUse">
<stop stop-color="#00B4EC"/>
<stop offset="0.00558659" stop-color="#00B4EC"/>
<stop offset="1" stop-color="#007AAE"/>
</linearGradient>
<linearGradient id="paint2_linear" x1="302.639" y1="18.9504" x2="195.502" y2="18.9504" gradientUnits="userSpaceOnUse">
<stop stop-color="#00B4EC"/>
<stop offset="0.00558659" stop-color="#00B4EC"/>
<stop offset="1" stop-color="#007AAE"/>
</linearGradient>
<linearGradient id="paint3_linear" x1="0.960428" y1="61.9931" x2="71.7154" y2="61.9931" gradientUnits="userSpaceOnUse">
<stop stop-color="#00B4EC"/>
<stop offset="0.00558659" stop-color="#00B4EC"/>
<stop offset="1" stop-color="#007AAE"/>
</linearGradient>
<linearGradient id="paint4_linear" x1="179.988" y1="44.9628" x2="60.3563" y2="44.9628" gradientUnits="userSpaceOnUse">
<stop stop-color="#00B4EC"/>
<stop offset="0.00558659" stop-color="#00B4EC"/>
<stop offset="1" stop-color="#007AAE"/>
</linearGradient>
<linearGradient id="paint5_linear" x1="37.941" y1="20.2285" x2="60.2246" y2="20.2285" gradientUnits="userSpaceOnUse">
<stop stop-color="#00B4EC"/>
<stop offset="0.00558659" stop-color="#00B4EC"/>
<stop offset="1" stop-color="#007AAE"/>
</linearGradient>
<linearGradient id="paint6_linear" x1="0.960412" y1="61.9931" x2="71.7154" y2="61.9931" gradientUnits="userSpaceOnUse">
<stop stop-color="#00B4EC"/>
<stop offset="0.00558659" stop-color="#00B4EC"/>
<stop offset="1" stop-color="#007AAE"/>
</linearGradient>
<linearGradient id="paint7_linear" x1="96.4492" y1="20.2148" x2="119.33" y2="20.2148" gradientUnits="userSpaceOnUse">
<stop stop-color="#00B4EC"/>
<stop offset="0.00558659" stop-color="#00B4EC"/>
<stop offset="1" stop-color="#007AAE"/>
</linearGradient>
<linearGradient id="paint8_linear" x1="195.502" y1="18.9504" x2="302.639" y2="18.9504" gradientUnits="userSpaceOnUse">
<stop stop-color="#00B4EC"/>
<stop offset="0.00558659" stop-color="#00B4EC"/>
<stop offset="1" stop-color="#007AAE"/>
</linearGradient>
<linearGradient id="paint9_linear" x1="60.3562" y1="44.9628" x2="179.988" y2="44.9628" gradientUnits="userSpaceOnUse">
<stop stop-color="#00B4EC"/>
<stop offset="0.00558659" stop-color="#00B4EC"/>
<stop offset="1" stop-color="#007AAE"/>
</linearGradient>
<linearGradient id="paint10_linear" x1="242.778" y1="64.2026" x2="100.609" y2="64.2026" gradientUnits="userSpaceOnUse">
<stop stop-color="#00B4EC"/>
<stop offset="0.00558659" stop-color="#00B4EC"/>
<stop offset="1" stop-color="#007AAE"/>
</linearGradient>
<linearGradient id="paint11_linear" x1="195.271" y1="47.0746" x2="195.851" y2="47.0746" gradientUnits="userSpaceOnUse">
<stop stop-color="#00B4EC"/>
<stop offset="0.00558659" stop-color="#00B4EC"/>
<stop offset="1" stop-color="#007AAE"/>
</linearGradient>
<linearGradient id="paint12_linear" x1="192.97" y1="49.6361" x2="194.053" y2="49.6361" gradientUnits="userSpaceOnUse">
<stop stop-color="#00B4EC"/>
<stop offset="0.00558659" stop-color="#00B4EC"/>
<stop offset="1" stop-color="#007AAE"/>
</linearGradient>
<linearGradient id="paint13_linear" x1="169.696" y1="50.1889" x2="192.449" y2="50.1889" gradientUnits="userSpaceOnUse">
<stop stop-color="#00B4EC"/>
<stop offset="0.00558659" stop-color="#00B4EC"/>
<stop offset="1" stop-color="#007AAE"/>
</linearGradient>
<linearGradient id="paint14_linear" x1="163.388" y1="36.4407" x2="163.479" y2="36.4407" gradientUnits="userSpaceOnUse">
<stop stop-color="#00B4EC"/>
<stop offset="0.00558659" stop-color="#00B4EC"/>
<stop offset="1" stop-color="#007AAE"/>
</linearGradient>
<linearGradient id="paint15_linear" x1="169.365" y1="49.695" x2="169.428" y2="49.695" gradientUnits="userSpaceOnUse">
<stop stop-color="#00B4EC"/>
<stop offset="0.00558659" stop-color="#00B4EC"/>
<stop offset="1" stop-color="#007AAE"/>
</linearGradient>
<linearGradient id="paint16_linear" x1="162.225" y1="39.4763" x2="166.213" y2="39.4763" gradientUnits="userSpaceOnUse">
<stop stop-color="#00B4EC"/>
<stop offset="0.00558659" stop-color="#00B4EC"/>
<stop offset="1" stop-color="#007AAE"/>
</linearGradient>
<linearGradient id="paint17_linear" x1="162.226" y1="42.9171" x2="195.851" y2="42.9171" gradientUnits="userSpaceOnUse">
<stop stop-color="#00B4EC"/>
<stop offset="0.00558659" stop-color="#00B4EC"/>
<stop offset="1" stop-color="#007AAE"/>
</linearGradient>
<linearGradient id="paint18_linear" x1="7.02774e-05" y1="44.8161" x2="303.146" y2="44.8161" gradientUnits="userSpaceOnUse">
<stop stop-color="#00B4EC"/>
<stop offset="0.00558659" stop-color="#00B4EC"/>
<stop offset="1" stop-color="#007AAE"/>
</linearGradient>
<linearGradient id="paint19_linear" x1="164.717" y1="37.1927" x2="164.724" y2="37.1927" gradientUnits="userSpaceOnUse">
<stop stop-color="#00B4EC"/>
<stop offset="0.00558659" stop-color="#00B4EC"/>
<stop offset="1" stop-color="#007AAE"/>
</linearGradient>
<linearGradient id="paint20_linear" x1="163.479" y1="36.555" x2="163.737" y2="36.555" gradientUnits="userSpaceOnUse">
<stop stop-color="#00B4EC"/>
<stop offset="0.00558659" stop-color="#00B4EC"/>
<stop offset="1" stop-color="#007AAE"/>
</linearGradient>
<linearGradient id="paint21_linear" x1="192.449" y1="50.024" x2="192.767" y2="50.024" gradientUnits="userSpaceOnUse">
<stop stop-color="#00B4EC"/>
<stop offset="0.00558659" stop-color="#00B4EC"/>
<stop offset="1" stop-color="#007AAE"/>
</linearGradient>
<linearGradient id="paint22_linear" x1="166.213" y1="46.5221" x2="169.365" y2="46.5221" gradientUnits="userSpaceOnUse">
<stop stop-color="#00B4EC"/>
<stop offset="0.00558659" stop-color="#00B4EC"/>
<stop offset="1" stop-color="#007AAE"/>
</linearGradient>
<linearGradient id="paint23_linear" x1="163.737" y1="36.9148" x2="164.717" y2="36.9148" gradientUnits="userSpaceOnUse">
<stop stop-color="#00B4EC"/>
<stop offset="0.00558659" stop-color="#00B4EC"/>
<stop offset="1" stop-color="#007AAE"/>
</linearGradient>
<linearGradient id="paint24_linear" x1="184.319" y1="44.403" x2="195.431" y2="44.403" gradientUnits="userSpaceOnUse">
<stop stop-color="#00B4EC"/>
<stop offset="0.00558659" stop-color="#00B4EC"/>
<stop offset="1" stop-color="#007AAE"/>
</linearGradient>
<linearGradient id="paint25_linear" x1="162.226" y1="35.7485" x2="162.745" y2="35.7485" gradientUnits="userSpaceOnUse">
<stop stop-color="#00B4EC"/>
<stop offset="0.00558659" stop-color="#00B4EC"/>
<stop offset="1" stop-color="#007AAE"/>
</linearGradient>
<clipPath id="clip0">
<rect width="586.286" height="90" fill="white"/>
</clipPath>
</defs>
</svg>
