<svg width="250" height="50" viewBox="0 0 250 50" fill="none" xmlns="http://www.w3.org/2000/svg">
<path fill-rule="evenodd" clip-rule="evenodd" d="M31.8073 21.4492C31.7213 21.6212 29.1607 27.889 27.9855 30.8605C27.909 31.1662 27.6224 31.4242 27.288 31.4242C24.5936 31.7873 17.2366 32.8383 17.2366 32.8383C17.2939 32.6472 24.8993 11.1207 28.6829 0.486516C28.8549 -0.0198758 28.9314 -0.0485394 29.4377 0.0374516C29.9059 0.123443 30.2977 0.429189 30.5174 0.849589C31.3295 2.235 32.113 3.6013 32.9156 4.99627C40.7695 18.5829 48.6233 32.1694 56.4485 45.7847C56.6109 46.0904 56.8593 46.4057 56.7829 46.9026L31.8073 21.4492Z" fill="#D25F33"/>
<path fill-rule="evenodd" clip-rule="evenodd" d="M3.03833 49.6639L35.7054 43.0043C35.5907 42.861 31.444 37.5774 29.4376 35.0645C29.1892 34.8161 29.1318 34.453 29.2943 34.1186C30.4981 31.1376 33.0301 24.908 33.1065 24.736C33.2499 24.8793 57.3082 48.7657 57.3082 48.7657C57.7286 49.1575 57.7 49.3008 57.2796 49.6639C57.0598 49.8836 56.7254 49.9887 56.4197 49.9887C56.305 49.9887 4.15621 49.9887 4.15621 49.9887C3.79314 50.0174 3.4014 50.0174 3.03833 49.6639Z" fill="#3E3E3F"/>
<path fill-rule="evenodd" clip-rule="evenodd" d="M26.9056 1.82414C22.7781 12.9552 18.6314 24.1245 14.5134 35.2938C15.0389 35.2651 24.087 34.0135 24.7272 33.8988C24.9565 33.8415 25.1763 33.9561 25.2909 34.1186C27.3738 36.7652 31.6065 42.1731 31.6638 42.2495C31.1861 42.3642 0.668819 48.8804 0.668819 48.8804C0.114655 48.995 0 48.8804 0 48.3262C0.0286637 47.9918 0.143318 47.6574 0.305746 47.3803L4.84416 39.4978L22.9501 8.13971C24.0584 6.21924 25.1476 4.29877 26.2655 2.37831C26.3706 2.12989 26.5712 1.90058 26.791 1.73815C26.8483 1.70949 26.877 1.68082 26.9248 1.65216C26.9534 1.68082 26.9056 1.79548 26.9056 1.82414Z" fill="#F2CC50"/>
<path fill-rule="evenodd" clip-rule="evenodd" d="M89.5262 39.192C90.0804 39.5264 90.5295 39.9946 90.8352 40.5583C91.4754 41.7526 91.4754 43.1667 90.8352 44.3706C90.5295 44.9248 90.0804 45.4025 89.5262 45.7369C88.9721 46.0713 88.3319 46.2337 87.6631 46.2337H87.5484V48.9377H86.5739V46.2337H86.4306C85.7617 46.2337 85.1216 46.0713 84.5674 45.7369C84.0132 45.4025 83.5642 44.9534 83.2584 44.3706C82.6183 43.1667 82.6183 41.7526 83.2584 40.5583C83.5642 39.9946 84.0132 39.5264 84.5674 39.192C85.1216 38.8576 85.7617 38.6856 86.4306 38.6856H86.5452V36.5454H87.5484V38.6856H87.6631C88.3032 38.6856 88.9434 38.8576 89.5262 39.192ZM86.5452 45.3738V39.5551H86.4306C85.9337 39.5551 85.456 39.6889 85.0451 39.9373C84.6247 40.1953 84.2903 40.5583 84.0706 40.9978C83.5928 41.9151 83.5928 43.0043 84.0706 43.9215C84.2903 44.3419 84.6247 44.705 85.0451 44.9821C85.456 45.2305 85.9337 45.3738 86.4306 45.3738H86.5452ZM89.0198 44.9821C89.4402 44.7337 89.7746 44.3706 89.9944 43.9215C90.4721 43.0043 90.4721 41.8864 89.9944 40.9692C89.7746 40.5297 89.4402 40.1666 89.0198 39.9182C88.609 39.6602 88.1313 39.5264 87.6344 39.5264H87.5484V45.3452H87.6631C88.1313 45.3738 88.609 45.2305 89.0198 44.9821Z" fill="#3E3E3F"/>
<path fill-rule="evenodd" clip-rule="evenodd" d="M98.2975 41.533V46.0141H97.4567L97.3229 45.0682C97.0171 45.4312 96.6541 45.7083 96.2337 45.9281C95.8419 46.1478 95.4024 46.2625 94.9247 46.2338C94.5139 46.2338 94.1221 46.1478 93.759 45.9854C93.4246 45.8134 93.1762 45.565 92.9756 45.2592C92.7845 44.9248 92.6985 44.5044 92.6985 44.1223C92.6985 43.7019 92.8131 43.3101 93.0329 42.947C93.2527 42.6126 93.5584 42.3642 93.9501 42.2209C94.3705 42.0585 94.8483 41.9725 95.2878 41.9725C95.5935 41.9725 95.8993 42.0011 96.205 42.0298C96.5394 42.0871 96.9025 42.1445 97.3229 42.2209V41.533C97.3516 41.0266 97.2082 40.5297 96.9312 40.1093C96.6827 39.7463 96.1763 39.5552 95.4311 39.5552C95.0107 39.5552 94.5616 39.6029 94.1794 39.7463C93.7304 39.8896 93.31 40.0807 92.9182 40.3291L93.0042 39.4119C93.396 39.1634 93.8164 38.9915 94.2272 38.8577C94.6476 38.743 95.0967 38.657 95.5362 38.657C97.3802 38.7144 98.2975 39.6316 98.2975 41.533ZM96.3483 45.0395C96.7401 44.8102 97.0458 44.4758 97.3229 44.1223V43.0044L97.1031 42.9757C96.7687 42.9184 96.4821 42.8611 96.2337 42.8133C95.9853 42.7846 95.7082 42.756 95.4311 42.756C94.9534 42.7273 94.5139 42.8419 94.0935 43.0617C93.759 43.2815 93.5871 43.6732 93.6157 44.0649C93.5871 44.428 93.7304 44.8102 94.0075 45.0682C94.3419 45.3166 94.7336 45.4312 95.154 45.4026C95.5935 45.3739 95.9853 45.2592 96.3483 45.0395Z" fill="#3E3E3F"/>
<path fill-rule="evenodd" clip-rule="evenodd" d="M101.804 45.737C101.25 45.4026 100.801 44.9535 100.495 44.3993C100.161 43.8165 100.027 43.1477 100.027 42.4789V41.6667C99.9981 40.8641 100.075 40.0807 100.275 39.2972C100.438 38.657 100.829 38.1029 101.336 37.7111C101.861 37.2716 102.645 36.9659 103.696 36.7652L104.002 36.7079C104.67 36.5741 105.234 36.4595 105.674 36.3448C106.008 36.2684 106.342 36.1537 106.648 35.9626L106.705 36.7652C106.371 36.9659 106.008 37.0996 105.645 37.1856C105.282 37.2716 104.814 37.3767 104.173 37.4914C103.954 37.52 103.782 37.5774 103.638 37.606C103.027 37.6825 102.415 37.9404 101.947 38.3226C101.584 38.6093 101.307 38.9914 101.164 39.4405C101.03 39.8609 100.973 40.3004 100.973 40.7208C101.106 40.3577 101.336 39.9947 101.642 39.7176C101.947 39.4118 102.31 39.1921 102.693 39.0201C103.667 38.6284 104.785 38.7144 105.702 39.2685C106.237 39.6029 106.648 40.052 106.925 40.6062C107.231 41.1985 107.374 41.8387 107.374 42.4789C107.374 43.1477 107.212 43.8069 106.897 44.3993C106.591 44.9535 106.123 45.4312 105.568 45.737C104.976 46.0714 104.336 46.2338 103.667 46.2338C103.027 46.2338 102.358 46.0714 101.804 45.737ZM105.091 45.0108C105.511 44.7624 105.846 44.3993 106.065 43.9789C106.314 43.5299 106.428 43.033 106.428 42.5075C106.428 42.0011 106.314 41.5043 106.065 41.0552C105.846 40.6348 105.482 40.2718 105.091 40.0233C104.231 39.5265 103.17 39.5265 102.339 40.0233C101.919 40.2718 101.584 40.6348 101.336 41.0839C101.078 41.533 100.973 42.0011 100.973 42.5075C100.973 43.0044 101.078 43.5299 101.336 43.9789C101.556 44.3993 101.89 44.7624 102.31 45.0108C103.142 45.5077 104.231 45.5077 105.091 45.0108Z" fill="#3E3E3F"/>
<path fill-rule="evenodd" clip-rule="evenodd" d="M114.196 39.1921C114.693 39.5265 115.056 39.9946 115.314 40.5297C115.591 41.1412 115.725 41.81 115.725 42.4788C115.725 43.1476 115.591 43.8165 115.285 44.428C115.008 44.9535 114.617 45.4312 114.11 45.7656C113.642 46.0713 113.059 46.2338 112.467 46.2338C111.636 46.2338 110.852 45.842 110.135 45.0394V48.9377H109.161V38.9627H109.992L110.107 39.8609C110.441 39.5265 110.823 39.2494 111.272 39.0201C111.664 38.829 112.104 38.7143 112.553 38.7143C113.136 38.6857 113.699 38.8576 114.196 39.1921ZM113.556 45.0108C113.948 44.7624 114.253 44.3993 114.445 43.9789C114.674 43.5012 114.779 43.0043 114.779 42.4788C114.779 41.9438 114.674 41.4183 114.473 40.9405C114.282 40.5297 113.976 40.1666 113.613 39.9182C113.25 39.6602 112.801 39.5551 112.362 39.5551C111.941 39.5551 111.55 39.6602 111.186 39.8609C110.795 40.0806 110.441 40.3577 110.155 40.6921V44.1222C110.441 44.4757 110.776 44.791 111.158 45.0394C111.521 45.2592 111.913 45.3739 112.333 45.3739C112.744 45.3739 113.164 45.2592 113.556 45.0108Z" fill="#3E3E3F"/>
<path fill-rule="evenodd" clip-rule="evenodd" d="M123.913 38.7716V45.9853H122.938V40.4724L118.266 46.1478H117.511V38.9341H118.486V44.533L123.187 38.743L123.913 38.7716Z" fill="#3E3E3F"/>
<path fill-rule="evenodd" clip-rule="evenodd" d="M127.811 42.7846H127.257V45.9853H126.283V38.9341H127.257V41.9724H127.84L130.372 38.9341H131.624L128.624 42.3928L132.379 45.9853H131.07L127.811 42.7846Z" fill="#3E3E3F"/>
<path fill-rule="evenodd" clip-rule="evenodd" d="M138.981 41.5329V46.014H138.14L138.006 45.0681C137.7 45.4311 137.337 45.7082 136.917 45.928C136.525 46.1477 136.057 46.2337 135.608 46.2337C135.187 46.2337 134.805 46.1477 134.442 45.9853C134.108 45.8133 133.859 45.5649 133.659 45.2592C133.468 44.9248 133.382 44.5044 133.382 44.1222C133.353 43.2814 133.859 42.5266 134.605 42.1921C135.025 42.0297 135.493 41.9437 135.942 41.9437C136.248 41.9437 136.554 41.9724 136.859 42.0011C137.194 42.0584 137.557 42.1157 137.977 42.1921V41.5042C138.006 40.9978 137.863 40.501 137.586 40.0806C137.337 39.7175 136.831 39.5264 136.085 39.5264C135.665 39.5264 135.216 39.5838 134.834 39.7175C134.385 39.8608 133.964 40.0519 133.573 40.3003L133.659 39.3831C134.05 39.1347 134.471 38.9627 134.882 38.8289C135.302 38.7143 135.751 38.6283 136.191 38.6283C138.063 38.7143 138.981 39.6315 138.981 41.5329ZM137.031 45.0394C137.423 44.8101 137.729 44.4757 138.006 44.1222V43.0043L137.805 42.9756C137.471 42.9183 137.194 42.861 136.945 42.8132C136.697 42.7845 136.42 42.7559 136.162 42.7559C135.694 42.7272 135.245 42.8419 134.834 43.0616C134.499 43.2814 134.327 43.6731 134.356 44.0648C134.327 44.4279 134.471 44.8101 134.748 45.0681C135.082 45.3165 135.474 45.4311 135.885 45.4025C136.277 45.3738 136.697 45.2592 137.031 45.0394Z" fill="#3E3E3F"/>
<path fill-rule="evenodd" clip-rule="evenodd" d="M151.316 38.7716V45.9853H150.341V40.4724L145.631 46.1478H144.914V38.9341H145.889V44.533L150.561 38.743L151.316 38.7716Z" fill="#3E3E3F"/>
<path fill-rule="evenodd" clip-rule="evenodd" d="M153.656 38.9341H154.631V41.9724H158.663V38.9341H159.666V45.9853H158.692V42.8419H154.66V45.9853H153.685L153.656 38.9341Z" fill="#3E3E3F"/>
<path fill-rule="evenodd" clip-rule="evenodd" d="M162.007 38.9341H162.982V41.9724H167.014V38.9341H167.988V45.9853H167.014V42.8419H162.982V45.9853H162.007V38.9341Z" fill="#3E3E3F"/>
<path fill-rule="evenodd" clip-rule="evenodd" d="M171.562 45.7369C170.998 45.4025 170.559 44.9534 170.253 44.3993C169.613 43.1954 169.613 41.7527 170.253 40.5583C170.893 39.4118 172.087 38.6857 173.425 38.7143C174.065 38.7143 174.705 38.8863 175.288 39.2207C175.842 39.5551 176.291 39.9946 176.597 40.5775C177.237 41.7813 177.237 43.2241 176.597 44.4279C176.291 44.9821 175.842 45.4503 175.288 45.7656C174.122 46.4057 172.699 46.4057 171.562 45.7369ZM174.791 44.9821C175.202 44.7337 175.536 44.3706 175.766 43.9502C176.234 43.033 176.234 41.9151 175.766 40.9979C175.536 40.5775 175.202 40.2239 174.791 39.9373C173.95 39.4405 172.89 39.4405 172.059 39.9373C171.638 40.1953 171.304 40.5583 171.084 40.9979C170.836 41.4469 170.721 41.9724 170.721 42.4788C170.721 42.9757 170.836 43.5012 171.084 43.9502C171.304 44.3706 171.638 44.7337 172.059 44.9821C172.89 45.4789 173.95 45.4789 174.791 44.9821Z" fill="#3E3E3F"/>
<path fill-rule="evenodd" clip-rule="evenodd" d="M183.944 42.861C184.202 43.1954 184.336 43.5872 184.336 44.0076C184.365 44.7624 183.916 45.4312 183.256 45.7369C182.893 45.8994 182.473 45.9853 182.081 45.9853H178.88V38.9341H181.775C182.167 38.9341 182.53 39.0201 182.893 39.1634C183.199 39.2972 183.447 39.5265 183.639 39.8035C183.839 40.0806 183.916 40.415 183.916 40.7494C183.916 41.0552 183.839 41.3896 183.667 41.638C183.505 41.8864 183.256 42.1158 182.97 42.2209C183.333 42.3355 183.696 42.5553 183.944 42.861ZM179.826 42.0871H181.584C181.833 42.0871 182.081 42.0298 182.301 41.9438C182.502 41.8673 182.664 41.724 182.807 41.5329C182.922 41.3323 182.97 41.1412 182.97 40.9119C182.97 40.6921 182.922 40.4724 182.807 40.2717C182.693 40.0806 182.53 39.9373 182.301 39.8322C182.081 39.7176 181.833 39.6602 181.584 39.6602H179.855L179.826 42.0871ZM182.664 45.1159C182.893 45.0108 183.084 44.8675 183.228 44.6477C183.361 44.4566 183.419 44.1986 183.419 43.9502C183.419 43.7018 183.361 43.4821 183.228 43.2814C183.084 43.0903 182.922 42.9183 182.693 42.8132C182.444 42.6986 182.167 42.6413 181.919 42.6413H179.826V45.2879H181.861C182.138 45.2879 182.387 45.2305 182.664 45.1159Z" fill="#3E3E3F"/>
<path fill-rule="evenodd" clip-rule="evenodd" d="M191.33 41.5329V46.014H190.489L190.356 45.0681C190.05 45.4311 189.687 45.7082 189.266 45.928C188.875 46.1477 188.406 46.2337 187.957 46.2337C187.537 46.2337 187.155 46.1477 186.792 45.9853C186.457 45.8133 186.199 45.5649 186.008 45.2592C185.817 44.9248 185.731 44.5044 185.731 44.1222C185.702 43.2814 186.199 42.5266 186.954 42.1921C187.375 42.0297 187.843 41.9437 188.292 41.9437C188.598 41.9437 188.903 41.9724 189.209 42.0011C189.543 42.0584 189.907 42.1157 190.327 42.1921V41.5042C190.356 40.9978 190.212 40.501 189.935 40.0806C189.687 39.7175 189.18 39.5264 188.435 39.5264C188.015 39.5264 187.566 39.5838 187.174 39.7175C186.734 39.8608 186.314 40.0519 185.922 40.3003L186.008 39.3831C186.4 39.1347 186.82 38.9627 187.231 38.8289C187.652 38.7143 188.101 38.6283 188.54 38.6283C190.413 38.7143 191.33 39.6315 191.33 41.5329ZM189.381 45.0394C189.763 44.8101 190.078 44.4757 190.356 44.1222V43.0043L190.155 42.9756C189.821 42.9183 189.543 42.861 189.295 42.8132C189.047 42.7845 188.77 42.7559 188.512 42.7559C188.043 42.7272 187.594 42.8419 187.174 43.0616C186.839 43.2814 186.677 43.6731 186.706 44.0648C186.677 44.4279 186.82 44.8101 187.097 45.0681C187.432 45.3165 187.814 45.4311 188.234 45.4025C188.626 45.3738 189.047 45.2592 189.381 45.0394Z" fill="#3E3E3F"/>
<path fill-rule="evenodd" clip-rule="evenodd" d="M199.347 45.9853H193.614V38.9341H194.588V45.0968H198.343V38.9341H199.318V45.0968H200.264V47.7625H199.347V45.9853Z" fill="#3E3E3F"/>
<path fill-rule="evenodd" clip-rule="evenodd" d="M208.261 38.7716V45.9853H207.286V40.4724L202.604 46.1478H201.85V38.9341H202.824V44.533L207.506 38.743L208.261 38.7716Z" fill="#3E3E3F"/>
<path fill-rule="evenodd" clip-rule="evenodd" d="M217.032 38.7717V45.9854H216.057V40.4724L211.347 46.1478H210.621V38.9341H211.595V44.5331L216.277 38.743L217.032 38.7717ZM212.293 37.4627H215.36V38.0742H212.293V37.4627Z" fill="#3E3E3F"/>
<path fill-rule="evenodd" clip-rule="evenodd" d="M110.604 5.21606V29.5038H107.374V13.9107L99.0998 23.9621H98.7941L90.5581 13.9107V29.5038H87.3286V5.21606H87.6057L98.9661 18.8313L110.298 5.21606H110.604Z" fill="#3E3E3F"/>
<path fill-rule="evenodd" clip-rule="evenodd" d="M144.933 15.9936V26.0163C143.347 28.2138 139.65 30.2776 134.834 29.7808C128.175 29.0833 123.665 24.3156 123.665 17.5223C123.665 10.729 128.203 5.69373 134.882 5.24467C138.618 4.99625 142.038 6.21924 144.245 8.00594L142.573 10.4806C141.178 9.34358 138.369 8.31168 135.168 8.5601C130.544 8.86585 126.952 12.5444 126.952 17.5223C126.952 22.5098 130.487 25.9399 135.111 26.5227C138.111 26.9144 140.423 25.9876 141.675 24.8793V16.0222H144.933V15.9936Z" fill="#3E3E3F"/>
<path fill-rule="evenodd" clip-rule="evenodd" d="M191.722 17.4937C191.722 24.2965 186.897 29.7522 180.189 29.7522C173.482 29.7522 168.686 24.2392 168.686 17.4746C168.686 10.7004 173.511 5.21606 180.189 5.21606C186.868 5.21606 191.722 10.7004 191.722 17.4937ZM188.406 17.4937C188.406 12.5157 185.12 8.47417 180.189 8.47417C175.259 8.47417 172.001 12.4584 172.001 17.4459C172.001 22.4238 175.288 26.4654 180.189 26.4654C185.091 26.4654 188.406 22.4525 188.406 17.4937Z" fill="#3E3E3F"/>
<path fill-rule="evenodd" clip-rule="evenodd" d="M209.876 5.44537L209.904 19.9779C209.818 24.7074 207.391 26.4941 204.105 26.4941C200.818 26.4941 198.372 24.6023 198.372 19.7294V15.7739V5.44537H195.114V13.2897V19.8345C195.114 26.3508 198.955 29.7808 204.105 29.7808C208.872 29.7808 212.494 26.8858 213.048 21.3442L213.134 5.44537H209.876Z" fill="#3E3E3F"/>
<path fill-rule="evenodd" clip-rule="evenodd" d="M80.201 16.414C81.5578 15.2961 82.5323 13.796 82.5323 11.9329C82.5323 8.41682 80.3061 5.41669 76.1308 5.41669H67.2259V11.3405L69.2228 8.67479H76.1021C78.2519 8.67479 79.1691 10.1175 79.1691 11.9042C79.1691 13.6814 77.9461 15.2101 75.6053 15.2101H67.1973V29.5037H76.2168C80.7265 29.5037 83.87 26.5514 83.87 22.2041C83.9273 19.395 82.4272 17.4172 80.201 16.414ZM76.2454 26.2456H70.4554V18.3345H76.2454C79.0258 18.3345 80.5832 19.8345 80.5832 22.2327C80.5832 24.6309 78.9971 26.2456 76.2454 26.2456Z" fill="#3E3E3F"/>
<path fill-rule="evenodd" clip-rule="evenodd" d="M161.367 20.2836C164.176 19.0893 165.819 16.3567 165.819 13.1845C165.819 8.89455 162.867 5.41669 158.052 5.41669H149.137L149.166 5.44535V11.3692L151.201 8.70346L158.052 8.67479C160.889 8.67479 162.504 10.815 162.504 13.1845C162.504 15.5445 160.918 17.6656 158.052 17.6656H149.166V29.5037H152.424V20.9237H158.023L162.81 29.5037H166.517L161.367 20.2836Z" fill="#3E3E3F"/>
<path fill-rule="evenodd" clip-rule="evenodd" d="M226.214 5.44537H217.338V11.3692L219.344 8.72259L226.214 8.70348C229.109 8.70348 230.618 10.8437 230.618 13.2132C230.618 15.5732 229.061 17.6943 226.214 17.6943H217.338V29.5229H220.567V20.9524H226.242C231.039 20.9524 234.01 17.4746 234.01 13.2132C234.01 8.9519 231.087 5.44537 226.214 5.44537Z" fill="#3E3E3F"/>
<path fill-rule="evenodd" clip-rule="evenodd" d="M65.2766 41.8386L79.3314 42.2495L79.4747 42.4215L79.3314 42.5552L65.2766 43.0043V41.8386Z" fill="#3E3E3F"/>
<path fill-rule="evenodd" clip-rule="evenodd" d="M234.297 41.6381L221.312 42.0585L221.207 42.2209L221.312 42.3642L234.297 42.8419V41.6381Z" fill="#3E3E3F"/>
<path fill-rule="evenodd" clip-rule="evenodd" d="M245.017 0.314575C247.587 0.314575 249.68 2.40702 249.68 4.9772C249.68 7.54738 247.587 9.63027 245.017 9.63027C242.447 9.63027 240.354 7.54738 240.354 4.9772C240.354 2.40702 242.447 0.314575 245.017 0.314575ZM244.358 7.57604V5.63647H244.998L246.422 7.57604H247.53L245.906 5.45493C246.336 5.31161 246.909 4.86255 246.909 3.97397C246.909 3.07584 246.441 2.36881 245.027 2.36881C244.874 2.36881 243.737 2.38792 243.441 2.38792V7.57604H244.358ZM244.979 3.22872C245.724 3.22872 245.944 3.57268 245.944 3.98353C245.944 4.51858 245.476 4.78611 244.95 4.78611H244.358V3.23827C244.597 3.22872 244.807 3.22872 244.979 3.22872ZM245.017 1.02161C247.205 1.02161 248.973 2.78921 248.973 4.9772C248.973 7.1652 247.205 8.93279 245.017 8.93279C242.829 8.93279 241.062 7.1652 241.062 4.9772C241.062 2.78921 242.829 1.02161 245.017 1.02161Z" fill="#3E3E3F"/>
</svg>
