<svg width="83" height="26" viewBox="0 0 83 26" fill="none" xmlns="http://www.w3.org/2000/svg">
<path d="M26.2581 11.0379L32.3359 5.52584L32.4352 5.25071L32.4872 5.10665L30.1272 0.319336L29.8205 1.16911L28.154 5.78648L26.2581 11.0379Z" fill="#CDCDCD"/>
<path d="M10.5974 10.2518L10.3293 11.024L16.2697 5.48797L16.3548 5.24288L16.396 5.12438L14.0376 0.340332L11.165 8.6161L10.5974 10.2518Z" fill="#CDCDCD"/>
<path d="M79.9955 0.226117L79.9798 0.241352L79.956 0.264132C79.8697 0.347262 79.7952 0.419 79.7155 0.485414L79.6593 0.532453L79.6028 0.579785L78.8207 1.23387L78.2816 1.68486L77.9871 1.93086L77.7493 2.12921C77.3838 2.4348 77.0181 2.7401 76.6521 3.04525C75.8647 3.7017 74.9297 4.47989 73.9644 5.27376C73.9422 5.29195 73.918 5.30956 73.8924 5.32687L73.8919 5.32745L73.8849 5.33219C73.8825 5.33352 73.8805 5.335 73.8786 5.33618L73.8784 5.33647H73.8782C73.8621 5.34712 73.8516 5.35319 73.8411 5.3594L73.8294 5.3662C73.6148 5.49505 73.3434 5.58172 73.154 5.58172C70.8494 5.5863 68.4834 5.58808 66.1024 5.58868L62.3284 5.58926C59.6126 5.58941 56.9084 5.58956 54.2837 5.59252C54.2473 5.59252 54.2077 5.59429 54.167 5.59695L54.1544 5.59784L54.1384 5.59903C54.0893 5.60302 54.0383 5.60909 53.9868 5.61752L53.9514 5.62388C53.9298 5.62802 53.9095 5.63201 53.8895 5.63675C53.8722 5.6406 53.8554 5.64473 53.8391 5.64947L53.8121 5.65686C53.7881 5.66396 53.7643 5.67195 53.7418 5.68068C53.7113 5.69325 53.69 5.70301 53.6704 5.71381C53.65 5.72491 53.6339 5.73526 53.6196 5.74621L53.6136 5.75109C53.5768 5.77727 53.5472 5.80079 53.5193 5.82475L53.5085 5.83466L53.508 5.8351L53.4994 5.84309C53.4816 5.85906 53.4643 5.87534 53.4482 5.89205L53.4315 5.91113L53.4178 5.92681L53.4081 5.93761C53.4007 5.94574 53.3933 5.95403 53.3864 5.96231L53.3766 5.97355C53.3648 5.98864 53.3586 5.99855 53.3523 6.00816L53.3396 6.02799L53.3269 6.04633C53.3214 6.05401 53.3161 6.06186 53.3115 6.06955C53.3004 6.08893 53.2917 6.1086 53.2828 6.12812L53.2715 6.15224L53.2643 6.16747C53.2623 6.17309 53.2588 6.18315 53.2554 6.19321C53.2513 6.20666 53.2463 6.22368 53.2422 6.24054C53.2401 6.24853 53.2379 6.25636 53.2354 6.26406C53.234 6.27205 53.2324 6.27885 53.2313 6.28565C53.2298 6.29497 53.2288 6.30384 53.228 6.31272C53.2263 6.32781 53.2252 6.34261 53.2249 6.35695V6.37026C53.2255 6.39467 53.227 6.41405 53.2301 6.43269C53.2348 6.45546 53.2396 6.47247 53.2453 6.48949C53.2961 6.62497 53.4108 6.71017 53.5798 6.74479C54.1367 6.86637 54.6931 6.98633 55.2496 7.10644C56.7907 7.43895 58.3844 7.78272 59.9349 8.14851C61.0907 8.42008 62.0504 8.85689 62.7876 9.44619C63.132 9.7216 63.3946 10.0515 63.5692 10.4275L64.7818 10.4273C68.3877 10.4272 72.1163 10.427 75.6517 10.4199C75.664 10.4199 75.6765 10.4193 75.6893 10.4184C75.7113 10.4168 75.7347 10.4138 75.7588 10.4096C75.7831 10.4056 75.8078 10.4002 75.8328 10.394C75.858 10.3878 75.8841 10.3804 75.9103 10.3723C75.9363 10.3639 75.9628 10.3548 75.9892 10.3448L76.0016 10.3397L76.0175 10.3331L76.038 10.3247L76.0654 10.3134L76.0828 10.3053L76.098 10.2979L76.2603 10.2074L76.2761 10.1966L76.2933 10.1846C76.3029 10.1773 76.3128 10.1698 76.322 10.1623C76.8038 9.76613 77.2846 9.36853 77.7645 8.97049C78.6735 8.21656 79.5703 7.46751 80.6375 6.57483L81.2971 6.02295L82.0716 5.37508L82.0833 5.36547C82.0939 5.3563 82.1046 5.34668 82.1154 5.33707L82.1268 5.32687L82.1411 5.31414L82.1597 5.29772C82.1779 5.281 82.1967 5.26311 82.2154 5.2455L82.2284 5.23323L82.2471 5.21563L82.3008 5.16401L82.3383 5.12791C82.3558 5.11105 82.374 5.0936 82.393 5.07555L80.0002 0.22168L79.9955 0.226117Z" fill="#CDCDCD"/>
<path d="M19.5034 9.81323L19.5245 9.75244L8.73448 19.8062C8.70582 19.8333 8.67729 19.8583 8.64892 19.8819L8.63141 19.896L8.62257 19.9027L8.62199 19.9032L8.61084 19.9116C8.40367 20.0738 8.19823 20.1428 7.92432 20.1428C7.20522 20.1401 6.49017 20.139 5.77512 20.1378L5.34933 20.137L4.82757 20.1359C4.57276 20.1351 4.31781 20.1344 4.06358 20.1344C3.53138 20.1344 2.99861 20.1366 2.46583 20.1388L1.87746 20.1413L1.33224 20.1427C1.02966 20.1431 0.727075 20.1437 0.423914 20.1459H0.423769C0.3647 20.1459 0.312147 20.1432 0.262199 20.1381C0.26191 20.1379 0.261765 20.1379 0.261475 20.1379L2.61712 24.9166C2.62957 24.9418 2.68531 24.984 2.92 24.984C4.04708 24.9761 5.23815 24.9726 6.5614 24.9726C7.84643 24.9726 9.13073 24.976 10.4226 24.9809C10.4544 24.9809 10.4853 24.98 10.5151 24.9778C10.5329 24.9761 10.5471 24.9742 10.5611 24.9723L10.5729 24.9707L10.5914 24.9686L10.6064 24.9667H10.607L10.6177 24.9645C10.6321 24.9618 10.6484 24.9587 10.6645 24.9548L10.6748 24.9517L10.6754 24.9516L10.6856 24.9488L10.7092 24.9422C10.7227 24.9378 10.7354 24.9334 10.7482 24.9286L10.7488 24.9284L10.7654 24.9215L10.7825 24.9144C10.7962 24.9084 10.8083 24.9028 10.8201 24.8967L10.8348 24.8889L10.8349 24.8887L10.8495 24.8809C10.8711 24.8687 10.885 24.8602 10.899 24.8512L10.9 24.8504L10.9139 24.8406L10.9295 24.8297L10.9302 24.8294L10.9397 24.8226C10.955 24.8118 10.9623 24.8059 10.9697 24.7998L10.9821 24.7897L10.9827 24.7893L10.992 24.7821L11.0058 24.7713L11.0066 24.7704L11.0149 24.7639C11.0353 24.7466 11.0579 24.7263 11.0809 24.7045L16.124 20.0054C16.0077 19.8609 16.0858 19.638 16.1279 19.5178C17.0021 17.027 17.88 14.4946 18.729 12.0459L19.5034 9.81323Z" fill="#CDCDCD"/>
<path d="M30.9026 17.024C31.9292 16.1668 32.9659 15.3175 33.9775 14.4487C34.281 14.1889 34.5339 14.0869 34.9108 14.0869C36.5515 14.0902 38.1917 14.0924 39.8318 14.0936C41.3106 12.8591 42.7854 11.6273 44.254 10.4007L43.5754 9.02422C43.5767 9.02688 43.5783 9.02925 43.5796 9.03176C43.1406 8.14856 43.1966 7.03282 43.8311 5.90851C44.2433 5.17722 44.9689 4.45435 45.6879 3.83088C46.6726 2.97652 47.8042 2.32954 49.0015 1.85634L48.1958 0.222168L48.1682 0.249532L48.115 0.302044L48.0991 0.317428L48.0868 0.32926L48.0754 0.340354C48.0597 0.355441 48.0442 0.370528 48.0289 0.384729L48.0079 0.403515L47.9954 0.41446L47.9856 0.423482C47.9697 0.43798 47.9536 0.452326 47.9372 0.466082L46.9577 1.28435C39.6821 7.36223 32.1589 13.6467 24.7485 19.8192C24.7241 19.8394 24.6969 19.8592 24.6683 19.8783C24.6346 19.9008 24.6066 19.9174 24.5777 19.9333L24.5547 19.9459C24.5306 19.9586 24.5058 19.9707 24.4806 19.9826L24.4539 19.9951C24.4235 20.0095 24.3925 20.0222 24.3608 20.0332L24.3429 20.0395C24.311 20.0509 24.2852 20.0597 24.2593 20.0677C24.2478 20.0712 24.2365 20.0741 24.2251 20.0772C24.1992 20.0843 24.1777 20.0903 24.1564 20.0952C24.1429 20.0983 24.129 20.1012 24.1152 20.1038C24.0954 20.1078 24.0761 20.1112 24.057 20.114C24.0418 20.1163 24.0268 20.118 24.0119 20.1197C23.9841 20.1225 23.9568 20.125 23.932 20.1251C22.6649 20.1356 21.38 20.1361 20.1376 20.1366C18.9736 20.137 17.7698 20.1376 16.5832 20.1462C16.5274 20.1462 16.4771 20.1441 16.4319 20.1396L18.79 24.9229C18.797 24.9375 18.8389 24.9842 19.0804 24.9842C20.2668 24.9758 21.471 24.9752 22.6352 24.9748C23.8773 24.9743 25.1619 24.9738 26.4284 24.9633C26.4402 24.9632 26.4525 24.9628 26.4651 24.9618L26.4671 24.9614L26.4871 24.9591C26.4983 24.9579 26.5105 24.9562 26.5228 24.9545L26.5249 24.954L26.5366 24.9529L26.5566 24.9491L26.5574 24.949L26.5689 24.9465C26.5821 24.9438 26.5934 24.9415 26.6051 24.9388L26.607 24.9384L26.6173 24.9365L26.6436 24.9294L26.6595 24.9246L26.6718 24.9214L26.693 24.9154L26.6948 24.9149L26.7039 24.9122C26.7225 24.9064 26.7409 24.8997 26.7594 24.893L26.7729 24.8883L26.7746 24.8877L26.7843 24.8843C26.8104 24.8745 26.8355 24.8643 26.8603 24.8532L26.878 24.8448L26.8949 24.8369C26.9062 24.8318 26.9174 24.8265 26.9281 24.8211L26.9371 24.8163L26.9493 24.8097L26.9683 24.7994L26.9695 24.7987L26.9784 24.7938C27.0022 24.7804 27.0183 24.7706 27.0339 24.7605L27.1051 24.7085C27.6641 24.2429 28.2241 23.7762 28.7844 23.3094L27.2089 20.1134L30.9026 17.024Z" fill="#CDCDCD"/>
<path d="M10.5974 10.2518L10.3293 11.024L16.2697 5.48797L16.3548 5.24288L16.396 5.12438L14.0376 0.340332L11.165 8.6161L10.5974 10.2518Z" fill="#CDCDCD"/>
<path d="M19.5034 9.81323L19.5245 9.75244L8.73448 19.8062C8.70582 19.8333 8.67729 19.8583 8.64906 19.8819L8.63141 19.896L8.62243 19.9027L8.62199 19.9032L8.61084 19.9116C8.40367 20.0738 8.19823 20.1428 7.92432 20.1428C7.20522 20.1401 6.49017 20.139 5.77512 20.1378L5.34933 20.137L4.82757 20.1359C4.57276 20.1351 4.31781 20.1344 4.06358 20.1344C3.53138 20.1344 2.99861 20.1366 2.46583 20.1388L1.87746 20.1413L1.33224 20.1427C1.02966 20.1431 0.727075 20.1437 0.423914 20.1458H0.423769C0.3647 20.1458 0.312147 20.1432 0.262199 20.1381C0.26191 20.1379 0.261765 20.1379 0.261475 20.1379L2.61712 24.9166C2.62957 24.9418 2.68531 24.984 2.92 24.984C4.04708 24.9761 5.23815 24.9726 6.5614 24.9726C7.84643 24.9726 9.13073 24.976 10.4226 24.9809C10.4543 24.9809 10.4853 24.98 10.5151 24.9778C10.5329 24.9761 10.5469 24.9742 10.5613 24.9723L10.5729 24.9707L10.5914 24.9685L10.6066 24.9667H10.607L10.6177 24.9645C10.6321 24.9618 10.6484 24.9587 10.6645 24.9548L10.6748 24.9517L10.6754 24.9516L10.6856 24.9488L10.7091 24.9422C10.7227 24.9378 10.7354 24.9334 10.7482 24.9286L10.7486 24.9284L10.7654 24.9215L10.7825 24.9144C10.7962 24.9084 10.8083 24.9028 10.8201 24.8967L10.8348 24.8889L10.8349 24.8887L10.8495 24.8809C10.8711 24.8687 10.885 24.8602 10.899 24.8512L10.9 24.8504L10.9139 24.8406L10.9295 24.8297L10.9302 24.8294L10.9397 24.8226C10.955 24.8118 10.9623 24.8059 10.9697 24.7998L10.9821 24.7897L10.9827 24.7893L10.9919 24.7821L11.0058 24.7713L11.0066 24.7704L11.0149 24.7639C11.0351 24.7466 11.0579 24.7263 11.0809 24.7045L16.124 20.0054C16.0077 19.8609 16.0858 19.638 16.1279 19.5178C17.0021 17.0268 17.88 14.4946 18.7291 12.0459L19.5034 9.81323Z" fill="#CDCDCD"/>
<path d="M26.2581 11.0379L32.3359 5.52599L32.4352 5.25071L32.4872 5.10679L30.1272 0.319336L29.8205 1.16911L28.154 5.78661L26.2581 11.0379Z" fill="#CDCDCD"/>
<path d="M79.9955 0.226117L79.9798 0.241352L79.956 0.264132C79.8697 0.347262 79.7952 0.419 79.7155 0.485414L79.6593 0.532453L79.6028 0.579785L78.8207 1.23387L78.2814 1.68486L77.9871 1.93086L77.7493 2.12921C77.3838 2.4348 77.0181 2.7401 76.6522 3.04525C75.8648 3.7017 74.9296 4.47989 73.9644 5.27376C73.9422 5.29195 73.918 5.30956 73.8924 5.32687L73.8919 5.32745L73.8849 5.33219C73.8825 5.33352 73.8805 5.335 73.8786 5.33618L73.8784 5.33647H73.8782C73.862 5.34712 73.8516 5.35319 73.841 5.3594L73.8294 5.3662C73.6148 5.49505 73.3433 5.58172 73.154 5.58172C70.8494 5.5863 68.4834 5.58808 66.1024 5.58868L62.3285 5.58926C59.6126 5.58941 56.9084 5.58956 54.2837 5.59252C54.2473 5.59252 54.2077 5.59429 54.167 5.59695L54.1543 5.59784L54.1384 5.59903C54.0893 5.60302 54.0383 5.60909 53.9868 5.61752L53.9514 5.62388C53.9298 5.62802 53.9097 5.63201 53.8895 5.63675C53.8722 5.6406 53.8556 5.64473 53.8391 5.64932L53.8121 5.65686C53.7881 5.66396 53.7643 5.67195 53.7418 5.68068C53.7113 5.69325 53.69 5.70301 53.6704 5.71381C53.65 5.72491 53.6339 5.73526 53.6196 5.74621L53.6136 5.75109C53.5767 5.77727 53.5472 5.80079 53.5193 5.82475L53.5085 5.83466L53.5078 5.8351L53.4995 5.84309C53.4816 5.85906 53.4646 5.87534 53.4483 5.89205L53.4315 5.91113L53.4178 5.92681L53.4081 5.93761C53.4007 5.94574 53.3933 5.95403 53.3864 5.96231L53.3766 5.97355C53.3647 5.98864 53.3586 5.99855 53.3522 6.00816L53.3396 6.02799L53.3269 6.04633C53.3214 6.05401 53.3161 6.06171 53.3117 6.06955C53.3004 6.08893 53.2915 6.1086 53.2828 6.12812L53.2715 6.15224L53.2643 6.16747C53.2623 6.17309 53.2589 6.18315 53.2554 6.19321C53.2513 6.20666 53.2463 6.22368 53.2422 6.24054C53.2401 6.24853 53.2379 6.25636 53.2354 6.26406C53.234 6.27205 53.2323 6.27885 53.2313 6.28565C53.2298 6.29497 53.2289 6.30384 53.2278 6.31272C53.2263 6.32781 53.225 6.34261 53.2249 6.35695V6.37026C53.2255 6.39467 53.227 6.41405 53.2301 6.43269C53.2348 6.45546 53.2396 6.47247 53.2453 6.48949C53.2961 6.62497 53.4108 6.71017 53.5798 6.74479C54.1369 6.86637 54.6933 6.98633 55.2496 7.10644C56.7907 7.43895 58.3844 7.78257 59.9349 8.14851C61.0907 8.42008 62.0504 8.85673 62.7876 9.44619C63.132 9.7216 63.3947 10.0515 63.5692 10.4275L64.7818 10.4273C68.3877 10.4272 72.1163 10.427 75.6517 10.4199C75.664 10.4199 75.6765 10.4193 75.6893 10.4184C75.7113 10.4168 75.7348 10.4138 75.7588 10.4096C75.7831 10.4056 75.8078 10.4002 75.8328 10.394C75.858 10.3878 75.8841 10.3804 75.9103 10.3723C75.9364 10.3639 75.9628 10.3548 75.9892 10.3448L76.0016 10.3397L76.0175 10.3331L76.038 10.3247L76.0654 10.3134L76.0828 10.3053L76.098 10.2979L76.2603 10.2074L76.2761 10.1966L76.2933 10.1846C76.3029 10.1773 76.3128 10.1698 76.322 10.1623C76.8038 9.76613 77.2846 9.36853 77.7645 8.97049C78.6735 8.21656 79.5703 7.46751 80.6375 6.57483L81.2971 6.02295L82.0716 5.37508L82.0833 5.36547C82.0939 5.3563 82.1046 5.34668 82.1154 5.33707L82.1268 5.32687L82.1411 5.31414L82.1597 5.29772C82.1779 5.281 82.1967 5.26311 82.2154 5.2455L82.2285 5.23323L82.2471 5.21563L82.3006 5.16401L82.3383 5.12791C82.3558 5.11105 82.374 5.0936 82.393 5.07555L80.0002 0.22168L79.9955 0.226117Z" fill="#CDCDCD"/>
<path d="M30.9026 17.024C31.9292 16.1668 32.9659 15.3175 33.9775 14.4487C34.2808 14.1889 34.5339 14.0869 34.9108 14.0869C36.5515 14.0902 38.1917 14.0924 39.8318 14.0936C41.3106 12.8591 42.7854 11.6273 44.254 10.4007L43.5754 9.02422C43.5767 9.02688 43.5783 9.02925 43.5796 9.03176C43.1406 8.14856 43.1966 7.03282 43.8312 5.90851C44.2432 5.17722 44.9689 4.45435 45.6879 3.83088C46.6726 2.97652 47.8042 2.32954 49.0015 1.85634L48.1958 0.222168L48.1682 0.249532L48.115 0.302044L48.0991 0.317428L48.0868 0.32926L48.0754 0.340354C48.0597 0.355441 48.0442 0.37053 48.0289 0.384581L48.0079 0.403515L47.9954 0.41446L47.9856 0.423482C47.9697 0.43798 47.9536 0.452326 47.9372 0.466082L46.9577 1.28435C39.6821 7.36223 32.1589 13.6467 24.7485 19.8192C24.7241 19.8394 24.6969 19.8592 24.6683 19.8783C24.6346 19.9008 24.6066 19.9174 24.5777 19.9333L24.5547 19.9459C24.5306 19.9586 24.5058 19.9707 24.4806 19.9826L24.4539 19.9951C24.4235 20.0095 24.3925 20.0222 24.3608 20.0332L24.3429 20.0395C24.311 20.0509 24.2852 20.0597 24.2593 20.0677C24.2478 20.0712 24.2365 20.0741 24.2251 20.0772C24.1992 20.0843 24.1777 20.0903 24.1565 20.0952C24.1429 20.0983 24.1291 20.1012 24.1152 20.1038C24.0954 20.1078 24.0761 20.1112 24.057 20.114C24.0418 20.1163 24.0268 20.118 24.0119 20.1197C23.9841 20.1225 23.9568 20.125 23.932 20.1251C22.6649 20.1356 21.38 20.1361 20.1376 20.1366C18.9736 20.137 17.7698 20.1376 16.5832 20.146C16.5275 20.146 16.4771 20.1441 16.4319 20.1396L18.79 24.9229C18.797 24.9375 18.8389 24.9842 19.0804 24.9842C20.2668 24.9758 21.471 24.9752 22.6352 24.9748C23.8773 24.9743 25.1619 24.9738 26.4284 24.9633C26.4402 24.9632 26.4525 24.9628 26.4651 24.9618L26.4671 24.9614L26.4871 24.9591C26.4983 24.9579 26.5105 24.9562 26.5228 24.9545L26.5249 24.954L26.5366 24.9529L26.5565 24.9491L26.5574 24.949L26.5689 24.9465C26.5821 24.9438 26.5934 24.9415 26.6051 24.9388L26.607 24.9384L26.6173 24.9363L26.6436 24.9294L26.6595 24.9246L26.6718 24.9214L26.693 24.9154L26.6948 24.9149L26.7039 24.9122C26.7225 24.9064 26.7409 24.8997 26.7594 24.893L26.7729 24.8883L26.7746 24.8877L26.7843 24.8843C26.8104 24.8745 26.8355 24.8643 26.8603 24.8532L26.878 24.8448L26.8949 24.8369C26.9062 24.8318 26.9174 24.8265 26.9281 24.8211L26.9371 24.8163L26.9493 24.8097L26.9683 24.7994L26.9695 24.7987L26.9784 24.7938C27.0022 24.7804 27.0183 24.7706 27.0339 24.7605L27.1051 24.7085C27.6641 24.2429 28.2241 23.7762 28.7844 23.3094L27.2089 20.1134L30.9026 17.024Z" fill="#CDCDCD"/>
<path d="M63.6041 12.8929L63.5997 12.9053C63.5764 12.975 63.5512 13.0445 63.5246 13.1141L63.5018 13.1722C63.4718 13.2472 63.4409 13.322 63.4073 13.3968L63.4021 13.4137L63.3966 13.4203C63.3639 13.4922 63.3287 13.5636 63.2924 13.6352L63.2631 13.6923C63.2234 13.7686 63.1824 13.8449 63.139 13.9204C63.0951 13.9968 63.0492 14.0717 63.0022 14.1463L62.9667 14.2022C62.9188 14.2765 62.8697 14.3508 62.8184 14.4241C62.7415 14.5341 62.6565 14.6487 62.5588 14.7747C62.4901 14.8638 62.4202 14.9518 62.3482 15.0379L62.3338 15.0548L62.323 15.0673C62.2559 15.147 62.1875 15.2254 62.118 15.3023L62.0587 15.3674L62.0459 15.3812C61.9877 15.4443 61.9286 15.5068 61.8689 15.5682L61.849 15.5887L61.7982 15.6406C61.7647 15.6745 61.7305 15.7075 61.6961 15.7406L61.6619 15.7737L61.6461 15.789C61.6002 15.8334 61.5541 15.8779 61.5073 15.9212C61.4708 15.9551 61.4334 15.9884 61.3962 16.0215L61.3712 16.0439L61.354 16.0589C61.307 16.101 61.26 16.1431 61.2119 16.1841C61.1559 16.232 61.099 16.2791 61.0417 16.3257L61.0069 16.3545C60.9818 16.3753 60.9566 16.3961 60.9313 16.4162C60.8653 16.4688 60.7981 16.52 60.7307 16.5711L60.6934 16.5997C60.6747 16.614 60.6559 16.6286 60.6368 16.6428C60.5396 16.7149 60.4408 16.7857 60.3407 16.8547L60.3058 16.8784L60.2768 16.8977C60.1968 16.9523 60.1162 17.0062 60.0348 17.0588C60.0101 17.0747 59.9852 17.0903 59.9605 17.1057L59.9262 17.1275C59.8577 17.1705 59.7887 17.2132 59.7192 17.2552C59.6791 17.2793 59.6388 17.3032 59.5983 17.3272C59.5314 17.3662 59.464 17.4049 59.3963 17.4433C59.3521 17.4679 59.3081 17.4927 59.2636 17.5171C59.1941 17.5551 59.1238 17.5924 59.053 17.6295L59.0173 17.6481C58.9872 17.6643 58.9569 17.6803 58.9261 17.6959C58.8643 17.7275 58.8017 17.7584 58.7389 17.7891L58.7192 17.7987L58.6705 17.8228C58.6368 17.8393 58.6032 17.8561 58.569 17.8724C58.5064 17.9023 58.4427 17.9314 58.3791 17.9604L58.348 17.9745L58.2983 17.9975C58.2677 18.0115 58.2372 18.0256 58.206 18.0394C58.0869 18.0923 57.9666 18.1445 57.8449 18.1948C57.6639 18.2698 57.4724 18.3457 57.2426 18.4339C57.1952 18.4519 57.148 18.4694 57.1009 18.4871L57.0605 18.5022C56.9185 18.5551 56.7762 18.6068 56.6342 18.6567L56.6077 18.6661C56.5551 18.6846 56.5028 18.7031 56.4504 18.7211C56.2763 18.781 56.1025 18.8384 55.9284 18.8939L55.896 18.9046L55.855 18.9177L55.8172 18.9295L55.7902 18.9378C55.6606 18.9782 55.5309 19.0173 55.4011 19.0554L55.2955 19.0861L55.2612 19.096C55.1501 19.1278 55.0393 19.1588 54.9285 19.189L54.9014 19.1963L54.7973 19.225C54.6471 19.2649 54.4971 19.3039 54.3469 19.3409L54.2769 19.3576L54.2243 19.3698C54.1014 19.3998 53.9783 19.4295 53.8551 19.4575C53.817 19.466 53.7789 19.4741 53.741 19.4824L53.6695 19.4976L53.6154 19.5096C53.5316 19.528 53.4479 19.5465 53.364 19.564C53.3189 19.5731 53.2738 19.582 53.2288 19.5908L53.1563 19.6052L53.0857 19.6192C53.0147 19.6333 52.9436 19.6475 52.8725 19.6609C52.8258 19.6696 52.7791 19.6778 52.7326 19.6861L52.6562 19.6999L52.5988 19.7102C52.5285 19.7228 52.4581 19.7355 52.388 19.7474C52.1938 19.7803 51.9995 19.8113 51.8053 19.8402L51.7332 19.8504L51.675 19.8587C51.5221 19.8808 51.3692 19.9017 51.2163 19.9214L51.0564 19.9413L51.0251 19.9453C50.8856 19.9622 50.7463 19.9781 50.6072 19.9933L50.5729 19.9971L50.4297 20.0126C50.2359 20.0326 50.042 20.0513 49.8483 20.0677C49.6914 20.0812 49.5346 20.0927 49.3779 20.104C49.3149 20.1085 49.2521 20.1126 49.1893 20.1166L49.1522 20.1191C49.0513 20.1254 48.9508 20.132 48.8504 20.1377C48.7744 20.142 48.6984 20.1462 48.6224 20.1502C48.5226 20.1552 48.4228 20.16 48.3232 20.1645L48.097 20.1739C47.9966 20.1778 47.8963 20.1815 47.7961 20.1848C47.722 20.1874 47.6477 20.1899 47.5735 20.1921C47.4715 20.1951 47.3699 20.1977 47.2681 20.1999L47.2136 20.2012L47.0538 20.205C46.9468 20.207 46.8401 20.2089 46.7336 20.2105L46.6592 20.2116L46.5348 20.2134C46.4188 20.215 46.303 20.2161 46.1871 20.2172L46.1029 20.2178L46.0187 20.2186C45.8479 20.2198 45.6772 20.2207 45.5069 20.2212C43.1978 20.2272 40.6581 20.2302 37.5138 20.2302C35.9158 20.2302 34.3182 20.2294 32.7204 20.2287H32.6449H32.4797C30.9623 20.2279 29.4448 20.2274 27.9272 20.2274H27.3907L28.8733 23.2349L28.9217 23.3332L29.7356 24.9839H30.3849C31.9828 24.9839 33.5805 24.9846 35.1782 24.9854C36.7759 24.9861 38.3735 24.9868 39.9715 24.9868C43.1152 24.9868 45.6548 24.9839 47.9639 24.9778C48.134 24.9774 48.3042 24.9764 48.4748 24.9755L48.5859 24.9743L48.6428 24.9737C48.7611 24.9726 48.8754 24.9716 48.9898 24.9702L49.109 24.9684L49.188 24.9672C49.2944 24.9654 49.4007 24.9636 49.5071 24.9617L49.6662 24.958L49.7204 24.9566C49.8216 24.9543 49.9232 24.9516 50.0248 24.9489L50.2001 24.9433L50.247 24.9418C50.3462 24.9384 50.4457 24.9348 50.5451 24.9309L50.7724 24.9211C50.8705 24.9169 50.969 24.9121 51.0674 24.9069C51.1439 24.9029 51.2201 24.8989 51.2965 24.8947C51.3955 24.8891 51.4948 24.8829 51.5941 24.8763C51.6697 24.8713 51.7452 24.8664 51.8207 24.8611L51.8637 24.8583L51.9152 24.8548L52.0306 24.8497C52.9736 24.8082 53.914 24.721 54.8491 24.5887L54.872 24.585L54.885 24.5829C54.9327 24.5748 54.9814 24.5657 55.0301 24.5568L55.1169 24.5411L55.1779 24.5302C55.2285 24.5212 55.2789 24.5123 55.3294 24.5029C55.4061 24.4885 55.4828 24.4732 55.5597 24.4579L55.6129 24.4472L55.6856 24.433C55.7295 24.4244 55.7734 24.4156 55.8172 24.4066C55.9004 24.3894 55.9835 24.3712 56.0665 24.353L56.1204 24.341L56.1931 24.3254C56.2302 24.3174 56.2674 24.3095 56.3045 24.301C56.4265 24.2733 56.5485 24.244 56.6705 24.2145L56.7247 24.2016L56.7921 24.1856C56.9442 24.148 57.0914 24.1095 57.2386 24.0702L57.3238 24.0472L57.3686 24.0349C57.4785 24.005 57.5886 23.9742 57.6985 23.9426L57.8368 23.9026C57.9661 23.8646 58.0952 23.8255 58.2245 23.7855L58.2521 23.7769L58.2867 23.7663L58.3018 23.7616L58.3313 23.7519L58.3609 23.7421C58.533 23.6874 58.7046 23.6305 58.8765 23.5715L59.0146 23.5231L59.0597 23.5074C59.2002 23.4579 59.3408 23.4066 59.4812 23.3543L59.5344 23.3351C59.5546 23.3279 59.575 23.3204 59.5954 23.3128L59.6287 23.2996L59.6618 23.2866C59.8898 23.1993 60.0795 23.124 60.2585 23.0497C60.3716 23.0028 60.4839 22.9548 60.5948 22.9055L60.5956 22.9054L60.6144 22.8968C60.6448 22.8833 60.6742 22.8696 60.7037 22.8559L60.7544 22.8324L60.7762 22.8226C60.8418 22.7927 60.9074 22.7627 60.9721 22.732C61.0051 22.7161 61.0378 22.7001 61.0706 22.6838L61.1201 22.6593L61.1779 22.6314C61.2127 22.6145 61.2475 22.5976 61.2818 22.5801L61.3031 22.569L61.3236 22.5582C61.3544 22.5425 61.3846 22.5267 61.4147 22.5106L61.4485 22.4928C61.5181 22.4564 61.5873 22.4196 61.6558 22.3822C61.6993 22.3584 61.7425 22.3341 61.7856 22.3097L61.8287 22.2859C61.8499 22.2744 61.8708 22.2626 61.8915 22.2509L61.9436 22.22L61.9846 22.1955C62.0242 22.1721 62.0639 22.1488 62.1032 22.1251C62.1716 22.084 62.2392 22.042 62.3064 21.9995L62.3381 21.9797C62.3632 21.9639 62.3882 21.9484 62.4129 21.9323L62.434 21.9191L62.4523 21.9074C62.5145 21.867 62.5757 21.8253 62.6369 21.7834L62.6503 21.7745L62.6818 21.7532L62.7134 21.7322L63.0595 21.4815L63.0956 21.4539C63.1615 21.404 63.2271 21.3541 63.2913 21.3027C63.3168 21.2826 63.3415 21.262 63.3665 21.2415L63.3996 21.2143L63.4455 21.177C63.472 21.1555 63.4985 21.1342 63.5242 21.1123L63.5446 21.0945L63.5656 21.0758C63.6149 21.0338 63.6627 20.9911 63.7106 20.9483L63.7215 20.9387L63.7471 20.9157C63.7831 20.8837 63.8193 20.8515 63.8547 20.8187C63.9008 20.776 63.946 20.7321 63.9912 20.6885L64.0056 20.6743L64.048 20.6343C64.0667 20.6167 64.0855 20.599 64.1036 20.5808L64.1213 20.5629L64.1388 20.5447L64.1853 20.4972L64.2079 20.4738C64.2662 20.4139 64.3238 20.3532 64.3806 20.2915L64.3981 20.2723L64.4511 20.2143C64.519 20.1389 64.5857 20.0628 64.6512 19.9849L64.6647 19.9692L64.6755 19.9565C64.7383 19.8813 64.8 19.805 64.8606 19.7277L64.8685 19.7167L64.8812 19.6998C64.9761 19.5771 65.0587 19.4655 65.134 19.3579C65.1837 19.2871 65.2312 19.2152 65.2775 19.1433L65.3118 19.0894C65.3559 19.0192 65.3992 18.9485 65.4402 18.8776L65.4417 18.8744L65.4473 18.8655C65.4856 18.7987 65.5249 18.7254 65.5631 18.6517L65.5913 18.5968C65.6286 18.5232 65.6646 18.4497 65.6981 18.3756C65.7319 18.3012 65.7627 18.2272 65.7922 18.153L65.8139 18.0974L65.8236 18.073L65.8358 18.0413C65.8534 17.9937 65.8695 17.9462 65.8856 17.8986L65.891 17.8827L65.8957 17.8695C65.92 17.7953 65.9417 17.7212 65.9617 17.6474L65.9721 17.6073L65.9772 17.5876C65.9918 17.5303 66.0051 17.4728 66.0172 17.4156L66.0215 17.3956L66.0296 17.3569L66.0334 17.339L66.0364 17.3242C66.0412 17.2986 66.0448 17.2733 66.0486 17.2477L66.0543 17.2079L66.0597 17.1748C66.0629 17.155 66.0663 17.1355 66.0687 17.1158C66.0755 17.0621 66.0799 17.0085 66.0842 16.9552L66.0873 16.9219C66.0888 16.9086 66.0901 16.8954 66.0908 16.8822C66.0955 16.8054 66.0964 16.7371 66.0959 16.6694L66.095 16.6343L66.0943 16.6122L66.0936 16.5808C66.0932 16.56 66.0929 16.5394 66.0916 16.519C66.0907 16.5036 66.0893 16.4884 66.0878 16.473L66.0854 16.4455L66.0841 16.4307L66.0815 16.3998C66.0752 16.3393 66.0678 16.2787 66.0577 16.219L66.0538 16.1993L66.0508 16.1839L66.0477 16.1682L65.9377 15.7696L65.9334 15.7579L65.9258 15.7376L65.9199 15.7213L65.9153 15.7091C65.8927 15.6524 65.8679 15.5966 65.8408 15.5418L63.708 10.9858L63.7891 11.4226C63.8138 11.5558 63.8245 11.6915 63.8169 11.8268C63.8167 11.8277 63.8167 11.8283 63.8167 11.8291C63.8156 11.8454 63.8139 11.8619 63.8123 11.8784L63.8096 11.9069C63.8052 11.964 63.8004 12.0211 63.793 12.0785C63.7901 12.1007 63.7865 12.1229 63.7828 12.1452L63.7778 12.1766C63.7688 12.2348 63.7611 12.2847 63.7514 12.3346L63.7426 12.3771L63.7384 12.3968C63.7257 12.4573 63.7114 12.5178 63.6959 12.5786L63.6914 12.5968L63.6797 12.6416C63.6586 12.7193 63.6358 12.7973 63.6102 12.875L63.6041 12.8929Z" fill="#CDCDCD"/>
<path d="M10.5974 10.2518L10.3293 11.024L16.2697 5.48797L16.3548 5.24288L16.396 5.12438L14.0376 0.340332L11.165 8.6161L10.5974 10.2518Z" fill="#CDCDCD"/>
<path d="M19.5034 9.81323L19.5245 9.75244L8.73448 19.8062C8.70568 19.8333 8.67729 19.8583 8.64892 19.8819L8.63141 19.896L8.62243 19.9027L8.62199 19.9032L8.61084 19.9116C8.40353 20.0738 8.19823 20.1428 7.92432 20.1428C7.20522 20.1401 6.49017 20.139 5.77512 20.1378L5.34933 20.137L4.82757 20.1359C4.57276 20.1351 4.31781 20.1344 4.06358 20.1344C3.53138 20.1344 2.99861 20.1366 2.46569 20.1388L1.87746 20.1413L1.33224 20.1427C1.02966 20.1431 0.727075 20.1437 0.423914 20.1459H0.423769C0.3647 20.1459 0.312147 20.1432 0.262199 20.1381C0.26191 20.1379 0.261765 20.1379 0.261475 20.1379L2.61712 24.9166C2.62957 24.9418 2.68531 24.984 2.92 24.984C4.04708 24.9761 5.23815 24.9726 6.5614 24.9726C7.84643 24.9726 9.13073 24.976 10.4226 24.9809C10.4543 24.9809 10.4853 24.98 10.5151 24.9778C10.5329 24.9761 10.5469 24.9742 10.5611 24.9723L10.5729 24.9707L10.5914 24.9685L10.6064 24.9667H10.607L10.6177 24.9645C10.6319 24.9618 10.6484 24.9587 10.6645 24.9548L10.6748 24.9517L10.6754 24.9516L10.6856 24.9488L10.7091 24.9422C10.7227 24.9378 10.7354 24.9334 10.748 24.9286L10.7488 24.9284L10.7654 24.9215L10.7825 24.9144C10.7962 24.9084 10.8083 24.9028 10.8201 24.8967L10.8348 24.8889L10.8349 24.8887L10.8495 24.8809C10.8711 24.8687 10.8851 24.8602 10.8989 24.8512L10.9 24.8504L10.9139 24.8406L10.9295 24.8297L10.9302 24.8294L10.9397 24.8226C10.955 24.8118 10.9621 24.8059 10.9695 24.7998L10.9821 24.7897L10.9827 24.7893L10.9919 24.7821L11.0058 24.7713L11.0066 24.7704L11.0149 24.7639C11.0351 24.7466 11.0579 24.7263 11.0809 24.7045L16.124 20.0054C16.0077 19.8609 16.0858 19.638 16.1279 19.5178C17.0021 17.0268 17.88 14.4946 18.7291 12.0459L19.5034 9.81323Z" fill="#CDCDCD"/>
<path d="M26.2581 11.0379L32.3359 5.52599L32.4352 5.25071L32.4872 5.10679L30.1272 0.319336L29.8205 1.16911L28.1537 5.78661L26.2581 11.0379Z" fill="#CDCDCD"/>
<path d="M30.9026 17.024C31.9292 16.1668 32.9659 15.3175 33.9775 14.4487C34.281 14.1889 34.5339 14.0869 34.9108 14.0869C36.5513 14.0902 38.1917 14.0924 39.8317 14.0936C41.3106 12.8591 42.7854 11.6273 44.254 10.4007L43.5754 9.02422C43.5767 9.02688 43.5783 9.02925 43.5796 9.03176C43.1406 8.14856 43.1965 7.03282 43.8311 5.90851C44.2432 5.17722 44.9689 4.45435 45.6879 3.83088C46.6726 2.97652 47.8042 2.32954 49.0015 1.85634L48.1958 0.222168L48.1682 0.249532L48.115 0.302044L48.0991 0.317428L48.0868 0.32926L48.0754 0.340354C48.0597 0.355441 48.0442 0.37053 48.0289 0.384581L48.0079 0.403515L47.9954 0.41446L47.9856 0.423482C47.9697 0.43798 47.9536 0.452326 47.9372 0.466082L46.9577 1.28435C39.6821 7.36223 32.1589 13.6467 24.7485 19.8192C24.7241 19.8394 24.6969 19.8592 24.6683 19.8783C24.6346 19.9008 24.6066 19.9174 24.5777 19.9333L24.5547 19.9459C24.5306 19.9586 24.5058 19.9707 24.4806 19.9826L24.4537 19.9951C24.4235 20.0095 24.3925 20.0222 24.3608 20.0332L24.3428 20.0395C24.311 20.0509 24.2852 20.0597 24.2593 20.0677C24.2478 20.0712 24.2365 20.0741 24.2251 20.0772C24.1994 20.0843 24.1777 20.0903 24.1564 20.0952C24.1429 20.0983 24.1291 20.1012 24.1152 20.1038C24.0953 20.1078 24.0761 20.1112 24.057 20.114C24.0418 20.1163 24.0268 20.118 24.0119 20.1197C23.9841 20.1225 23.9568 20.125 23.932 20.1251C22.6649 20.1356 21.38 20.1361 20.1376 20.1366C18.9734 20.137 17.7698 20.1376 16.5832 20.1462C16.5274 20.1462 16.4771 20.1441 16.4319 20.1396L18.79 24.9229C18.797 24.9375 18.8389 24.9842 19.0804 24.9842C20.2668 24.9758 21.4707 24.9752 22.6352 24.9748C23.8773 24.9743 25.1619 24.9738 26.4284 24.9633C26.4402 24.9632 26.4525 24.9628 26.4651 24.9618L26.4671 24.9614L26.4871 24.9591C26.4983 24.9579 26.5105 24.9562 26.5228 24.9545L26.525 24.954L26.5366 24.9529L26.5565 24.9491L26.5574 24.949L26.5689 24.9465C26.5821 24.9438 26.5934 24.9415 26.6051 24.9388L26.607 24.9384L26.6173 24.9363L26.6436 24.9294L26.6595 24.9246L26.6718 24.9214L26.693 24.9154L26.6948 24.9149L26.7039 24.9122C26.7224 24.9064 26.7409 24.8997 26.7594 24.893L26.7729 24.8883L26.7746 24.8877L26.7843 24.8843C26.8104 24.8745 26.8355 24.8643 26.8603 24.8532L26.878 24.8448L26.8949 24.8369C26.9061 24.8318 26.9174 24.8265 26.9281 24.8211L26.937 24.8163L26.9493 24.8097L26.9683 24.7994L26.9695 24.7987L26.9784 24.7938C27.0022 24.7804 27.0183 24.7706 27.0339 24.7605L27.1051 24.7085C27.6641 24.2429 28.2241 23.7762 28.7844 23.3094L27.2089 20.1134L30.9026 17.024Z" fill="#CDCDCD"/>
<path d="M79.9955 0.226117L79.9798 0.241352L79.956 0.264132C79.8697 0.347262 79.7952 0.419 79.7154 0.485414L79.6593 0.532453L79.6028 0.579785L78.8207 1.23387L78.2814 1.68486L77.9869 1.93086L77.7493 2.12921C77.3838 2.4348 77.0181 2.7401 76.6521 3.04525C75.8647 3.7017 74.9296 4.47989 73.9642 5.27376C73.9422 5.29195 73.918 5.30956 73.8924 5.32687L73.8919 5.32745L73.8849 5.33219C73.8825 5.33352 73.8805 5.335 73.8786 5.33618L73.8784 5.33647H73.8782C73.862 5.34712 73.8516 5.35319 73.841 5.3594L73.8293 5.3662C73.6148 5.49505 73.3433 5.58172 73.154 5.58172C70.8494 5.5863 68.4834 5.58808 66.1024 5.58868L62.3284 5.58926C59.6126 5.58941 56.9084 5.58956 54.2837 5.59252C54.2472 5.59252 54.2077 5.59429 54.167 5.59695L54.1543 5.59784L54.1384 5.59903C54.0893 5.60302 54.0383 5.60909 53.9868 5.61752L53.9514 5.62388C53.9298 5.62802 53.9095 5.63201 53.8895 5.63675C53.8722 5.6406 53.8554 5.64473 53.8391 5.64932L53.8121 5.65686C53.7881 5.66396 53.7643 5.67195 53.7418 5.68068C53.7113 5.69325 53.69 5.70301 53.6704 5.71381C53.65 5.72491 53.6337 5.73526 53.6196 5.74621L53.6136 5.75109C53.5767 5.77727 53.5472 5.80079 53.5193 5.82475L53.5085 5.83466L53.5078 5.8351L53.4994 5.84309C53.4816 5.85906 53.4643 5.87534 53.4483 5.89205L53.4315 5.91113L53.4178 5.92681L53.4081 5.93761C53.4007 5.94574 53.3933 5.95403 53.3864 5.96231L53.3766 5.97355C53.3647 5.98864 53.3586 5.99855 53.3522 6.00816L53.3395 6.02799L53.3269 6.04633C53.3214 6.05401 53.3161 6.06171 53.3117 6.06955C53.3004 6.08893 53.2915 6.1086 53.2827 6.12812L53.2715 6.15224L53.2643 6.16747C53.2623 6.17309 53.2588 6.18315 53.2554 6.19321C53.2513 6.20666 53.2463 6.22368 53.2422 6.24054C53.2401 6.24853 53.2379 6.25636 53.2354 6.26406C53.234 6.27205 53.2323 6.27885 53.2313 6.28565C53.2298 6.29497 53.2289 6.30384 53.2278 6.31272C53.2263 6.32781 53.225 6.34261 53.2249 6.35695V6.37026C53.2255 6.39467 53.227 6.41405 53.2301 6.43269C53.2348 6.45546 53.2396 6.47247 53.2453 6.48949C53.2961 6.62497 53.4108 6.71017 53.5797 6.74479C54.1369 6.86637 54.6931 6.98633 55.2496 7.10644C56.7907 7.43895 58.3844 7.78257 59.9349 8.14851C61.0906 8.42008 62.0504 8.85673 62.7876 9.44619C63.132 9.7216 63.3946 10.0515 63.569 10.4275L64.7818 10.4273C68.3877 10.4272 72.1163 10.427 75.6517 10.4199C75.664 10.4199 75.6765 10.4193 75.6893 10.4184C75.7113 10.4168 75.7347 10.4138 75.7588 10.4096C75.7831 10.4056 75.8078 10.4002 75.8328 10.394C75.858 10.3878 75.8841 10.3804 75.9103 10.3723C75.9364 10.3639 75.9628 10.3548 75.9892 10.3448L76.0015 10.3397L76.0175 10.3331L76.038 10.3247L76.0653 10.3134L76.0828 10.3053L76.098 10.2979L76.2603 10.2074L76.2761 10.1966L76.2933 10.1846C76.3029 10.1773 76.3126 10.1698 76.3219 10.1623C76.8038 9.76613 77.2846 9.36853 77.7645 8.97049C78.6735 8.21656 79.5703 7.46751 80.6375 6.57483L81.2971 6.02295L82.0716 5.37508L82.0833 5.36547C82.0939 5.3563 82.1046 5.34668 82.1154 5.33707L82.1268 5.32687L82.141 5.31414L82.1597 5.29772C82.1779 5.281 82.1967 5.26311 82.2154 5.2455L82.2284 5.23323L82.2471 5.21563L82.3006 5.16401L82.3383 5.12791C82.3558 5.11105 82.374 5.0936 82.393 5.07555L80.0002 0.22168L79.9955 0.226117Z" fill="#CDCDCD"/>
<path d="M63.6041 12.8929L63.5997 12.9053C63.5763 12.975 63.5512 13.0445 63.5244 13.1141L63.5018 13.1722C63.4718 13.2472 63.4409 13.322 63.4073 13.3968L63.4021 13.4137L63.3966 13.4203C63.3637 13.4922 63.3285 13.5636 63.2924 13.6352L63.2631 13.6923C63.2234 13.7686 63.1823 13.8449 63.139 13.9204C63.095 13.9968 63.0492 14.0717 63.0022 14.1463L62.9667 14.2022C62.9188 14.2765 62.8697 14.3508 62.8184 14.4241C62.7413 14.5341 62.6565 14.6487 62.5588 14.7747C62.4901 14.8638 62.4202 14.9518 62.3482 15.0379L62.3337 15.0548L62.323 15.0673C62.2557 15.147 62.1875 15.2254 62.118 15.3023L62.0587 15.3674L62.0458 15.3812C61.9877 15.4443 61.9286 15.5068 61.8687 15.5682L61.849 15.5887L61.7982 15.6406C61.7647 15.6745 61.7305 15.7075 61.6961 15.7406L61.6619 15.7737L61.6461 15.789C61.6001 15.8334 61.5541 15.8779 61.5073 15.9212C61.4708 15.9551 61.4334 15.9884 61.3962 16.0215L61.3712 16.0439L61.354 16.0589C61.307 16.101 61.26 16.1431 61.2119 16.1841C61.1559 16.232 61.099 16.2791 61.0417 16.3257L61.0069 16.3545C60.9818 16.3753 60.9566 16.3961 60.9313 16.4162C60.8653 16.4688 60.798 16.52 60.7307 16.5711L60.6934 16.5997C60.6747 16.614 60.6559 16.6286 60.6368 16.6428C60.5396 16.7149 60.4409 16.7857 60.3406 16.8547L60.3058 16.8784L60.2768 16.8977C60.1968 16.9523 60.1162 17.0062 60.0348 17.0588C60.0101 17.0747 59.9852 17.0903 59.9605 17.1057L59.926 17.1275C59.8575 17.1705 59.7887 17.2132 59.7192 17.2552C59.6791 17.2793 59.6388 17.3032 59.5983 17.3272C59.5314 17.3662 59.464 17.4049 59.3963 17.4433C59.3521 17.4679 59.3081 17.4927 59.2636 17.5171C59.1941 17.5551 59.1236 17.5924 59.053 17.6295L59.0173 17.6481C58.9872 17.6643 58.9568 17.6803 58.9261 17.6959C58.8642 17.7275 58.8017 17.7584 58.7389 17.7891L58.7192 17.7987L58.6705 17.8228C58.6368 17.8393 58.603 17.8561 58.569 17.8724C58.5061 17.9023 58.4426 17.9314 58.3791 17.9604L58.3479 17.9745L58.2983 17.9975C58.2677 18.0115 58.2371 18.0256 58.206 18.0395C58.0869 18.0923 57.9666 18.1445 57.8449 18.1948C57.6639 18.2698 57.4724 18.3457 57.2426 18.4339C57.1952 18.4519 57.148 18.4694 57.1009 18.4871L57.0605 18.5022C56.9185 18.5551 56.7762 18.6068 56.6342 18.6567L56.6077 18.6661C56.5551 18.6846 56.5028 18.7031 56.4504 18.7211C56.2763 18.781 56.1025 18.8384 55.9284 18.8939L55.896 18.9046L55.855 18.9177L55.8172 18.9295L55.7902 18.9378C55.6606 18.9782 55.5309 19.0173 55.4011 19.0554L55.2955 19.0861L55.2611 19.096C55.1501 19.1278 55.0392 19.1588 54.9285 19.189L54.9014 19.1963L54.7973 19.225C54.6471 19.2649 54.4971 19.3039 54.3469 19.3409L54.2769 19.3576L54.2243 19.3698C54.1012 19.3998 53.9782 19.4295 53.8551 19.4575C53.817 19.466 53.7789 19.4741 53.741 19.4824L53.6695 19.4976L53.6154 19.5096C53.5316 19.528 53.4477 19.5465 53.364 19.564C53.3189 19.5731 53.2738 19.5822 53.2286 19.5908L53.1563 19.6052L53.0857 19.6192C53.0147 19.6333 52.9436 19.6475 52.8725 19.6609C52.8258 19.6696 52.7791 19.6778 52.7326 19.6861L52.6562 19.6999L52.5987 19.7102C52.5285 19.7228 52.4581 19.7355 52.388 19.7474C52.1938 19.7803 51.9995 19.8113 51.8053 19.8402L51.7332 19.8504L51.6752 19.8587C51.5221 19.8808 51.3692 19.9017 51.2163 19.9214L51.0564 19.9413L51.0251 19.9453C50.8856 19.9622 50.7463 19.9781 50.6072 19.9933L50.5729 19.9971L50.4298 20.0126C50.2359 20.0326 50.042 20.0513 49.8483 20.0677C49.6912 20.0812 49.5346 20.0927 49.3779 20.104C49.3149 20.1085 49.2521 20.1126 49.1893 20.1166L49.1522 20.1191C49.0513 20.1254 48.9508 20.132 48.8504 20.1377C48.7744 20.142 48.6982 20.1462 48.6224 20.1502C48.5226 20.1552 48.4228 20.16 48.3232 20.1645L48.097 20.1739C47.9966 20.1778 47.8963 20.1815 47.7961 20.1848C47.722 20.1874 47.6477 20.1899 47.5732 20.1921C47.4715 20.1951 47.3699 20.1977 47.2681 20.1999L47.2136 20.2012L47.0538 20.205C46.9469 20.207 46.8401 20.2089 46.7336 20.2105L46.6592 20.2116L46.5348 20.2134C46.4188 20.215 46.303 20.2161 46.1871 20.2172L46.1029 20.2178L46.0187 20.2186C45.8479 20.2198 45.6772 20.2207 45.5069 20.2212C43.1978 20.2272 40.6581 20.2302 37.5138 20.2302C35.9158 20.2302 34.318 20.2294 32.7204 20.2287H32.6449H32.4797C30.9623 20.2279 29.4448 20.2274 27.9272 20.2274H27.3907L28.8733 23.2349L28.9217 23.3332L29.7356 24.9839H30.3847C31.9828 24.9839 33.5805 24.9846 35.1782 24.9854C36.7759 24.9861 38.3735 24.9868 39.9715 24.9868C43.1152 24.9868 45.6548 24.9839 47.9639 24.9778C48.134 24.9774 48.3042 24.9764 48.4748 24.9755L48.5859 24.9743L48.6428 24.9737C48.7611 24.9726 48.8752 24.9716 48.9898 24.9702L49.109 24.9684L49.188 24.9672C49.2944 24.9654 49.4007 24.9636 49.5069 24.9617L49.6662 24.958L49.7204 24.9569C49.8216 24.9543 49.9232 24.9516 50.0248 24.9489L50.2001 24.9433L50.247 24.9418C50.3462 24.9384 50.4457 24.9348 50.5451 24.9309L50.7724 24.9211C50.8705 24.9169 50.969 24.9121 51.0674 24.9069C51.1439 24.9029 51.2201 24.8989 51.2965 24.8947C51.3955 24.8891 51.4948 24.8829 51.5941 24.8763C51.6697 24.8713 51.7452 24.8664 51.8207 24.8611L51.8637 24.8583L51.9151 24.8548L52.0305 24.8497C52.9736 24.8082 53.914 24.721 54.8491 24.5887L54.872 24.585L54.885 24.5829C54.9327 24.5748 54.9814 24.5657 55.0301 24.5568L55.1169 24.5411L55.1779 24.5302C55.2283 24.5212 55.2789 24.5123 55.3294 24.5029C55.4061 24.4885 55.4828 24.4732 55.5597 24.4579L55.6129 24.4472L55.6856 24.433C55.7295 24.4244 55.7734 24.4156 55.8172 24.4066C55.9004 24.3894 55.9835 24.3712 56.0665 24.353L56.1204 24.341L56.1929 24.3254C56.2302 24.3174 56.2674 24.3095 56.3045 24.301C56.4264 24.2733 56.5485 24.244 56.6705 24.2145L56.7247 24.2016L56.7921 24.1856C56.9442 24.148 57.0913 24.1095 57.2386 24.0702L57.3238 24.0472L57.3686 24.0349C57.4785 24.005 57.5884 23.9742 57.6985 23.9426L57.8368 23.9026C57.9658 23.8646 58.0952 23.8255 58.2245 23.7855L58.2521 23.7769L58.2867 23.7663L58.3018 23.7616L58.3313 23.7519L58.3609 23.7421C58.533 23.6874 58.7046 23.6305 58.8764 23.5715L59.0146 23.5231L59.0597 23.5074C59.2002 23.4579 59.3407 23.4066 59.4812 23.3543L59.5344 23.3351C59.5546 23.3279 59.575 23.3204 59.5953 23.3128L59.6287 23.2996L59.6617 23.2866C59.8898 23.1993 60.0795 23.124 60.2585 23.0497C60.3716 23.0028 60.4839 22.9548 60.5948 22.9055L60.5955 22.9054L60.6143 22.8968C60.6447 22.8833 60.6742 22.8696 60.7036 22.8559L60.7544 22.8324L60.7762 22.8226C60.8418 22.7927 60.9074 22.7627 60.9721 22.732C61.0051 22.7161 61.0378 22.7001 61.0706 22.6838L61.1201 22.6593L61.1777 22.6314C61.2127 22.6145 61.2475 22.5976 61.2818 22.5801L61.303 22.569L61.3236 22.5582C61.3544 22.5425 61.3846 22.5267 61.4147 22.5106L61.4485 22.4928C61.5181 22.4564 61.5873 22.4196 61.6558 22.3822C61.6992 22.3584 61.7425 22.3341 61.7856 22.3097L61.8287 22.2859C61.8498 22.2744 61.8708 22.2626 61.8915 22.2509L61.9436 22.22L61.9845 22.1955C62.0242 22.1721 62.0639 22.1488 62.1032 22.1251C62.1716 22.084 62.2391 22.042 62.3064 21.9995L62.338 21.9797C62.3632 21.9639 62.3882 21.9484 62.4129 21.9323L62.434 21.9191L62.4523 21.9074C62.5145 21.867 62.5757 21.8253 62.6369 21.7836L62.6503 21.7745L62.6818 21.7532L62.7134 21.7322L63.0594 21.4815L63.0956 21.4539C63.1613 21.404 63.2271 21.3541 63.2913 21.3027C63.3166 21.2826 63.3415 21.262 63.3663 21.2415L63.3996 21.2143L63.4455 21.177C63.472 21.1555 63.4983 21.1342 63.5242 21.1123L63.5446 21.0945L63.5656 21.0758C63.6149 21.0338 63.6627 20.9911 63.7106 20.9483L63.7215 20.9387L63.7471 20.9157C63.7831 20.8837 63.8192 20.8515 63.8547 20.8187C63.9008 20.776 63.946 20.7321 63.9912 20.6885L64.0056 20.6743L64.0479 20.6343C64.0667 20.6167 64.0854 20.599 64.1036 20.5808L64.1211 20.5629L64.1388 20.5447L64.1853 20.4972L64.2079 20.4738C64.2662 20.4139 64.3237 20.3532 64.3804 20.2915L64.3981 20.2723L64.4511 20.2143C64.519 20.1389 64.5857 20.0628 64.6512 19.9849L64.6647 19.9692L64.6755 19.9565C64.7383 19.8813 64.8 19.805 64.8606 19.7277L64.8685 19.7167L64.8812 19.6998C64.9761 19.5771 65.0587 19.4655 65.134 19.3579C65.1837 19.2871 65.2312 19.2152 65.2775 19.1433L65.3116 19.0894C65.3559 19.0192 65.3991 18.9485 65.4402 18.8776L65.4415 18.8744L65.4473 18.8655C65.4856 18.7987 65.5249 18.7254 65.5631 18.6517L65.5913 18.5968C65.6286 18.5232 65.6646 18.4497 65.6981 18.3756C65.7318 18.3012 65.7627 18.2272 65.7922 18.153L65.8139 18.0974L65.8235 18.073L65.8358 18.0413C65.8534 17.9937 65.8695 17.9462 65.8856 17.8986L65.891 17.8827L65.8957 17.8695C65.92 17.7953 65.9416 17.7212 65.9617 17.6474L65.972 17.6073L65.977 17.5876C65.9918 17.5303 66.0051 17.4728 66.0172 17.4156L66.0215 17.3956L66.0296 17.3569L66.0334 17.339L66.0364 17.3242C66.0412 17.2986 66.0448 17.2733 66.0486 17.2477L66.0543 17.2079L66.0595 17.1748C66.0629 17.155 66.066 17.1355 66.0685 17.1158C66.0755 17.0621 66.0799 17.0085 66.0842 16.9552L66.0873 16.9219C66.0888 16.9086 66.0899 16.8954 66.0908 16.8822C66.0955 16.8054 66.0964 16.7371 66.0959 16.6694L66.095 16.6343L66.0943 16.6122L66.0936 16.5808C66.0932 16.56 66.0929 16.5394 66.0916 16.519C66.0907 16.5036 66.0893 16.4884 66.0878 16.473L66.0854 16.4455L66.0841 16.4307L66.0815 16.3998C66.0752 16.3393 66.0678 16.2787 66.0577 16.219L66.0538 16.1993L66.0508 16.1839L66.0477 16.1682L65.9377 15.7696L65.9334 15.7579L65.9258 15.7376L65.9199 15.7213L65.9153 15.7091C65.8927 15.6524 65.8679 15.5966 65.8408 15.5418L63.708 10.9858L63.7891 11.4226C63.8138 11.5558 63.8245 11.6915 63.8167 11.8268C63.8167 11.8277 63.8166 11.8283 63.8166 11.8291C63.8156 11.8454 63.8139 11.8619 63.8122 11.8784L63.8096 11.9069C63.8049 11.964 63.8002 12.0211 63.793 12.0785C63.7901 12.1007 63.7865 12.1229 63.7828 12.1452L63.7778 12.1766C63.7688 12.2348 63.7611 12.2847 63.7514 12.3346L63.7426 12.3771L63.7384 12.3968C63.7257 12.4573 63.7114 12.5178 63.6959 12.5786L63.6914 12.5968L63.6796 12.6416C63.6586 12.7193 63.6358 12.7973 63.6102 12.875L63.6041 12.8929Z" fill="#CDCDCD"/>
<path d="M53.2794 12.9419C53.3379 13.0586 53.3333 13.2082 53.2671 13.3635C53.2401 13.4262 53.2046 13.487 53.162 13.5443C53.2046 13.487 53.2401 13.4262 53.2671 13.3635C53.3333 13.2082 53.3379 13.0586 53.2794 12.9419C53.2666 12.9158 53.2467 12.8884 53.2193 12.8581C53.2149 12.8531 53.2103 12.8487 53.2058 12.8442C53.2103 12.8487 53.2149 12.8531 53.2193 12.8581C53.2467 12.8884 53.2666 12.9158 53.2794 12.9419Z" fill="#CDCDCD"/>
<path d="M52.5357 13.9806C52.5858 13.9598 52.6189 13.9451 52.6189 13.9451C52.6932 13.9164 52.7643 13.8816 52.8306 13.8413C52.7643 13.8816 52.6932 13.9164 52.6189 13.9451C52.6189 13.9451 52.5858 13.9598 52.5357 13.9806Z" fill="#CDCDCD"/>
<path d="M46.1994 14.0949L52.2194 14.0923C52.2734 14.0787 52.3352 14.0577 52.3938 14.0361C52.3352 14.0577 52.2735 14.0787 52.2195 14.0923L46.1994 14.0949Z" fill="#CDCDCD"/>
<path d="M44.5067 10.227L44.5004 10.2227C44.4941 10.2185 44.4882 10.2141 44.4819 10.21C44.4882 10.2141 44.4941 10.2185 44.5004 10.2227L44.5067 10.227Z" fill="#CDCDCD"/>
<path d="M46.1093 13.9097L46.1266 13.9447L46.1093 13.9097Z" fill="#CDCDCD"/>
<path d="M44.3428 10.3264L44.3935 10.4289L45.2513 12.1691L44.3935 10.4289L44.3428 10.3264L44.1656 9.9668L44.3428 10.3264Z" fill="#CDCDCD"/>
<path d="M44.3933 10.4289L45.2511 12.1691L46.1091 13.9095L46.1093 13.9098L46.1264 13.9449H46.1263L46.1994 14.0949L52.2195 14.0922C52.2735 14.0785 52.3351 14.0576 52.3938 14.0359C52.4241 14.0248 52.4536 14.0137 52.4805 14.003C52.5004 13.995 52.5191 13.9873 52.5357 13.9804C52.5858 13.9596 52.619 13.9449 52.619 13.9449C52.6932 13.9163 52.7642 13.8812 52.8305 13.841C52.9631 13.7605 53.0769 13.6589 53.162 13.5442C53.2046 13.4867 53.2399 13.4261 53.267 13.3632C53.3332 13.208 53.3378 13.0584 53.2794 12.9417C53.2666 12.9156 53.2467 12.8881 53.2192 12.8578C53.2149 12.8529 53.2102 12.8485 53.2058 12.8441C53.2036 12.8418 53.2012 12.8393 53.1989 12.8371C53.1689 12.8084 53.1407 12.7863 53.1107 12.7685C52.1222 12.5111 51.1351 12.2762 50.1803 12.049C49.186 11.8123 48.2468 11.5888 47.2985 11.3405C46.364 11.0954 45.5388 10.7889 44.8458 10.4295L44.8439 10.4286C44.76 10.3851 44.6731 10.3347 44.578 10.2746C44.5778 10.2745 44.5774 10.2742 44.5771 10.2739C44.5572 10.2613 44.5384 10.2486 44.5194 10.2359L44.5067 10.2271L44.5003 10.2228C44.4941 10.2187 44.4881 10.2143 44.4819 10.2101C44.4272 10.173 44.3739 10.1345 44.3224 10.0947L44.307 10.0831C44.2879 10.0683 44.2687 10.0536 44.2501 10.0384C44.2208 10.0143 44.1926 9.9906 44.1656 9.9668L44.3429 10.3264L44.3933 10.4289Z" fill="#CDCDCD"/>
<path d="M82.3382 5.12808L82.3006 5.16418L82.247 5.2158L82.2283 5.23325L82.2153 5.24568C82.1966 5.26328 82.1779 5.28118 82.1597 5.29775L82.141 5.31431L82.1267 5.32704L82.1153 5.33724C82.1047 5.34685 82.094 5.35647 82.0831 5.36564L82.0715 5.37525L81.2971 6.02312L80.6374 6.575C79.5702 7.46768 78.6733 8.21657 77.7646 8.97066C77.2846 9.36855 76.8038 9.76615 76.3219 10.1624C76.3125 10.17 76.3028 10.1775 76.2932 10.1848L76.2761 10.1967L76.2602 10.2075L76.098 10.2981L76.0828 10.3053L76.0652 10.3136L76.0378 10.3248L76.0174 10.3331L76.0014 10.3399L75.9891 10.3449C75.9627 10.3549 75.9364 10.364 75.9101 10.3725C75.884 10.3806 75.858 10.388 75.8327 10.3942C75.8076 10.4004 75.7831 10.4057 75.7588 10.4097C75.7347 10.4139 75.7112 10.4168 75.6893 10.4186C75.6764 10.4193 75.6639 10.4199 75.6516 10.4199C72.1163 10.4272 68.3876 10.4273 64.7817 10.4275L63.5689 10.4276C63.3946 10.0516 63.132 9.72177 62.7876 9.44636C62.0503 8.8569 61.0907 8.42026 59.9349 8.14854C58.3844 7.78274 56.7908 7.43913 55.2495 7.10647C54.6931 6.98636 54.1368 6.8664 53.5795 6.74496C53.4107 6.71035 53.296 6.62515 53.2454 6.48966C53.2394 6.47264 53.2347 6.45564 53.2302 6.43286C53.2268 6.41422 53.2255 6.39484 53.225 6.37029V6.35712C53.2251 6.34262 53.2263 6.32798 53.2278 6.31289C53.2289 6.30402 53.2298 6.29514 53.2312 6.28582C53.2322 6.27902 53.2339 6.27207 53.2354 6.26424C53.2378 6.25639 53.24 6.24869 53.242 6.24056C53.2464 6.22384 53.2513 6.20684 53.2554 6.19338C53.2589 6.18332 53.2621 6.17311 53.2643 6.16764L53.2715 6.15241L53.2828 6.12829C53.2916 6.10862 53.3002 6.0891 53.3115 6.06972C53.316 6.06189 53.3215 6.05419 53.3268 6.0465L53.3394 6.02801L53.3523 6.00834C53.3584 5.99872 53.3646 5.98881 53.3766 5.97372L53.3862 5.96249C53.3932 5.9542 53.4006 5.94591 53.408 5.93778L53.4176 5.92699L53.4314 5.9113L53.4482 5.89222C53.4644 5.87551 53.4815 5.85924 53.4995 5.84312L53.5079 5.83527L53.5084 5.83469L53.5191 5.82492C53.5473 5.80096 53.5766 5.77744 53.6135 5.75111L53.6195 5.74637C53.6337 5.73543 53.65 5.72508 53.6703 5.71383C53.6899 5.70318 53.7112 5.69342 53.7418 5.68085C53.7644 5.67212 53.7881 5.66413 53.812 5.65703L53.8389 5.64949C53.8554 5.64491 53.8721 5.64077 53.8895 5.63692C53.9096 5.63218 53.9297 5.62819 53.9514 5.62405L53.9868 5.61769C54.0382 5.60911 54.0893 5.60319 54.1384 5.5992L54.1542 5.59801L54.1668 5.59713C54.2076 5.59446 54.2472 5.59269 54.2837 5.59269C56.9085 5.58974 59.6127 5.58958 62.3285 5.58944L66.1024 5.58885C68.4834 5.58825 70.8493 5.58648 73.1539 5.58175C73.3433 5.58175 73.6147 5.49506 73.8293 5.36638L73.841 5.35943C73.8514 5.35336 73.8621 5.34715 73.8781 5.33665H73.8783L73.8786 5.33636C73.8805 5.33503 73.8826 5.33368 73.8848 5.33236L73.8918 5.32763L73.8925 5.32704C73.9179 5.30973 73.9421 5.29198 73.9642 5.27393C74.9296 4.48007 75.8648 3.70173 76.6522 3.04528C77.018 2.74013 77.3838 2.43497 77.7493 2.12938L77.987 1.93103L78.2815 1.68504L78.8206 1.23404L79.6027 0.579808L79.6592 0.532622L79.7155 0.485585C79.7951 0.419171 79.8697 0.347431 79.9559 0.264303L79.9797 0.241377L79.9954 0.22629L80.0002 0.221852L82.3929 5.07572C82.374 5.09377 82.3558 5.11122 82.3382 5.12808ZM63.6797 12.6418L63.6912 12.5972L63.6959 12.579C63.7114 12.5182 63.7255 12.4576 63.7383 12.3971L63.7425 12.3775L63.7514 12.3349C63.7611 12.2849 63.7687 12.2351 63.7776 12.1769L63.7827 12.1455C63.7863 12.1232 63.79 12.1008 63.7928 12.0789C63.8002 12.0214 63.8049 11.9642 63.8096 11.9072L63.8123 11.8785C63.8139 11.8621 63.8156 11.8457 63.8165 11.8293C63.8165 11.8286 63.8166 11.8278 63.8166 11.827C63.8245 11.6919 63.8137 11.5561 63.7889 11.423L63.7079 10.9862L65.8407 15.5421C65.8678 15.597 65.8927 15.6528 65.9153 15.7094L65.9197 15.7217L65.9257 15.738L65.9332 15.7582L65.9375 15.77L66.0477 16.1685L66.0508 16.1842L66.0538 16.1995L66.0576 16.2193C66.0677 16.2789 66.0751 16.3394 66.0813 16.4002L66.0841 16.4309L66.0852 16.4458L66.0877 16.4734C66.0891 16.4885 66.0907 16.5039 66.0915 16.5191C66.0928 16.5396 66.0933 16.5604 66.0935 16.5809L66.0942 16.6123L66.095 16.6346L66.096 16.6697C66.0964 16.7374 66.0954 16.8058 66.0908 16.8824C66.09 16.8955 66.0887 16.9088 66.0873 16.9222L66.0841 16.9553C66.0799 17.0089 66.0754 17.0623 66.0686 17.116C66.066 17.1356 66.063 17.1554 66.0596 17.1751L66.0543 17.2082L66.0485 17.2481C66.0448 17.2736 66.0412 17.2989 66.0364 17.3245L66.0333 17.3392L66.0295 17.357L66.0214 17.396L66.017 17.4159C66.0051 17.4731 65.9917 17.5304 65.977 17.588L65.9721 17.6076L65.9617 17.6476C65.9417 17.7214 65.92 17.7955 65.8956 17.8698L65.891 17.8831L65.8854 17.8987C65.8696 17.9466 65.8533 17.994 65.8358 18.0415L65.8233 18.0731L65.8138 18.0975L65.7921 18.1531C65.7625 18.2274 65.7317 18.3016 65.698 18.3759C65.6647 18.45 65.6286 18.5235 65.5913 18.5971L65.563 18.6519C65.5248 18.7256 65.4854 18.799 65.4474 18.8658L65.4415 18.8745L65.4401 18.878C65.3992 18.9488 65.3559 19.0195 65.3117 19.0897L65.2774 19.1435C65.2311 19.2155 65.1836 19.2872 65.134 19.3582C65.0587 19.4656 64.9759 19.5774 64.8812 19.6999L64.8684 19.7169L64.8604 19.728C64.7999 19.8054 64.7383 19.8815 64.6756 19.9567L64.6645 19.9694L64.6511 19.9852C64.5857 20.0629 64.5189 20.1392 64.4511 20.2147L64.3981 20.2725L64.3804 20.2918C64.3236 20.3534 64.2661 20.414 64.2078 20.4741L64.1852 20.4974L64.1388 20.5449L64.1211 20.563L64.1036 20.5811C64.0854 20.5993 64.0667 20.6168 64.048 20.6346L64.0056 20.6747L63.9911 20.6889C63.9459 20.7325 63.9008 20.7763 63.8545 20.8191C63.8191 20.8518 63.7831 20.884 63.747 20.9161L63.7215 20.9389L63.7105 20.9486C63.6625 20.9913 63.6148 21.0342 63.5656 21.0761L63.5446 21.0947L63.5242 21.1127C63.4983 21.1344 63.4719 21.1559 63.4454 21.1772L63.3996 21.2144L63.3663 21.2418C63.3415 21.2624 63.3166 21.2828 63.2912 21.3031C63.2269 21.3543 63.1613 21.4044 63.0955 21.4542L63.0593 21.4819L62.7133 21.7324L62.6817 21.7536L62.6501 21.7749L62.6369 21.7839C62.5757 21.8255 62.5145 21.8673 62.4524 21.9077L62.4338 21.9194L62.4129 21.9325C62.3881 21.9485 62.363 21.9643 62.3381 21.9799L62.3064 21.9999C62.239 22.0421 62.1715 22.0842 62.1032 22.1254C62.0638 22.1491 62.0241 22.1725 61.9845 22.1957L61.9435 22.2203L61.8916 22.251C61.8707 22.2629 61.8497 22.2745 61.8287 22.2862L61.7856 22.31C61.7424 22.3345 61.6992 22.3587 61.6557 22.3825C61.5872 22.42 61.518 22.4568 61.4483 22.4932L61.4148 22.511C61.3845 22.5269 61.3544 22.5429 61.3236 22.5584L61.3031 22.5693L61.2818 22.5804C61.2475 22.5979 61.2125 22.6148 61.1776 22.6317L61.12 22.6597L61.0705 22.6841C61.0378 22.7002 61.0051 22.7165 60.9721 22.7322C60.9074 22.763 60.8418 22.7928 60.776 22.8229L60.7545 22.8328L60.7035 22.8563C60.6742 22.8699 60.6446 22.8837 60.6142 22.897L60.5953 22.9057L60.5948 22.9059C60.4837 22.9551 60.3715 23.0031 60.2585 23.0501C60.0793 23.1243 59.8898 23.1994 59.6615 23.2867L59.6285 23.2999L59.5953 23.313C59.5751 23.3208 59.5546 23.328 59.5343 23.3352L59.4812 23.3545C59.3405 23.407 59.2001 23.458 59.0595 23.5076L59.0146 23.5234L58.8763 23.5717C58.7046 23.6306 58.5329 23.6876 58.3607 23.7424L58.3312 23.7522L58.3019 23.7619L58.2867 23.7664L58.252 23.7772L58.2243 23.7856C58.0951 23.8259 57.9658 23.8648 57.8368 23.9028L57.6984 23.9429C57.5884 23.9746 57.4786 24.0053 57.3686 24.0352L57.3237 24.0474L57.2384 24.0705C57.0912 24.1099 56.9441 24.1482 56.7919 24.1858L56.7248 24.2019L56.6705 24.2147C56.5485 24.2444 56.4264 24.2735 56.3045 24.3013C56.2672 24.3097 56.2301 24.3177 56.1929 24.3257L56.1203 24.3414L56.0665 24.3532C55.9834 24.3714 55.9002 24.3896 55.8172 24.4068C55.7733 24.416 55.7294 24.4246 55.6856 24.4333L55.6127 24.4476L55.5596 24.4581C55.4827 24.4734 55.4062 24.4887 55.3293 24.5032C55.2787 24.5125 55.2283 24.5216 55.1778 24.5305L55.1167 24.5413L55.0301 24.5572C54.9814 24.5661 54.9326 24.5749 54.8851 24.5833L54.872 24.5853L54.8491 24.589C53.914 24.7213 52.9735 24.8084 52.0304 24.8501L51.9151 24.8551L51.8636 24.8585L51.8206 24.8615C51.745 24.8668 51.6697 24.8717 51.5942 24.8766C51.4947 24.883 51.3954 24.8892 51.2964 24.8949C51.2201 24.8993 51.1438 24.9033 51.0674 24.9072C50.9689 24.9123 50.8705 24.9172 50.7724 24.9215L50.545 24.9312C50.4455 24.9352 50.3461 24.9387 50.2469 24.942L50.2 24.9436L50.0247 24.949C49.923 24.952 49.8216 24.9547 49.7204 24.957L49.6661 24.9583L49.5069 24.9619C49.4005 24.964 49.2943 24.9658 49.1879 24.9673L49.1091 24.9685L48.9897 24.9704C48.8752 24.972 48.7611 24.973 48.6426 24.9739L48.5857 24.9744L48.4748 24.9756C48.3042 24.9766 48.1339 24.9778 47.9638 24.9782C45.6548 24.9842 43.1152 24.9871 39.9715 24.9871C38.3734 24.9871 36.7758 24.9863 35.178 24.9857C33.5805 24.985 31.9829 24.9842 30.3848 24.9842H29.7355L28.9218 23.3334L28.8733 23.2353L27.3905 20.2276H27.9272C29.4448 20.2276 30.9622 20.2281 32.4796 20.2289H32.6448H32.7204C34.318 20.2296 35.9157 20.2303 37.5137 20.2303C40.6579 20.2303 43.1978 20.2275 45.5068 20.2214C45.677 20.221 45.8477 20.2201 46.0186 20.219L46.1029 20.2181L46.1869 20.2173C46.3029 20.2163 46.4188 20.2152 46.5347 20.2138L46.6593 20.2119L46.7335 20.2107C46.8401 20.2092 46.9469 20.2072 47.0537 20.2052L47.2136 20.2015L47.268 20.2001C47.3698 20.1978 47.4715 20.1955 47.5733 20.1924C47.6476 20.1903 47.7219 20.1877 47.796 20.1849C47.8962 20.1818 47.9966 20.1782 48.097 20.1742L48.3232 20.1649C48.4227 20.1602 48.5225 20.1553 48.6222 20.1503C48.6982 20.1464 48.7742 20.1422 48.8502 20.1379C48.9508 20.1322 49.0513 20.1258 49.1521 20.1193L49.1892 20.1169C49.252 20.1127 49.3149 20.1087 49.3778 20.1043C49.5345 20.093 49.6913 20.0814 49.8482 20.0679C50.0419 20.0515 50.2357 20.0327 50.4298 20.0128L50.5728 19.9973L50.6071 19.9937C50.7464 19.9785 50.8857 19.9626 51.0249 19.9454L51.0564 19.9417L51.2162 19.9217C51.3691 19.9018 51.5221 19.8811 51.6751 19.8589L51.7332 19.8508L51.8054 19.8405C51.9994 19.8116 52.1937 19.7806 52.3878 19.7475C52.4581 19.7358 52.5284 19.723 52.5988 19.7105L52.6561 19.7L52.7326 19.6863C52.7792 19.6782 52.8256 19.6699 52.8724 19.6612C52.9436 19.6479 53.0146 19.6337 53.0857 19.6195L53.1564 19.6054L53.2287 19.5912C53.2738 19.5823 53.3189 19.5735 53.364 19.5641C53.4476 19.5468 53.5314 19.5283 53.6152 19.51L53.6694 19.498L53.741 19.4826C53.7789 19.4745 53.817 19.4664 53.855 19.4576C53.9781 19.4298 54.1011 19.4001 54.2244 19.3702L54.2767 19.3579L54.3469 19.341C54.4969 19.3041 54.6471 19.2652 54.7974 19.2251L54.9013 19.1967L54.9284 19.1893C55.0392 19.1591 55.15 19.128 55.2609 19.0963L55.2954 19.0863L55.4011 19.0557C55.5308 19.0175 55.6605 18.9784 55.7901 18.9381L55.8172 18.9297L55.855 18.918L55.8959 18.9047L55.9284 18.8942C56.1024 18.8387 56.2763 18.7812 56.4503 18.7215C56.5027 18.7034 56.5552 18.685 56.6077 18.6664L56.6343 18.657C56.7763 18.607 56.9183 18.5555 57.0603 18.5023L57.1007 18.4875C57.148 18.4697 57.1952 18.4522 57.2425 18.4342C57.4724 18.346 57.6638 18.27 57.8447 18.1951C57.9666 18.1447 58.0869 18.0927 58.206 18.0399C58.2369 18.026 58.2677 18.0119 58.2982 17.9977L58.3479 17.9747L58.3789 17.9605C58.4426 17.9316 58.5061 17.9026 58.569 17.8727C58.603 17.8563 58.6368 17.8397 58.6704 17.8232L58.719 17.799L58.7389 17.7892C58.8015 17.7585 58.8641 17.7278 58.9262 17.6961C58.9568 17.6805 58.987 17.6644 59.0173 17.6485L59.0529 17.6298C59.1236 17.5927 59.1941 17.5553 59.2636 17.5172C59.308 17.4928 59.3521 17.4682 59.3961 17.4435C59.4639 17.4052 59.5312 17.3666 59.5981 17.3273C59.6387 17.3036 59.6791 17.2797 59.7192 17.2554C59.7887 17.2136 59.8574 17.1709 59.9259 17.1278L59.9603 17.1061C59.9853 17.0907 60.0101 17.0748 60.0346 17.0592C60.1161 17.0064 60.1966 16.9527 60.2767 16.8981L60.3056 16.8787L60.3407 16.855C60.4409 16.7859 60.5395 16.7152 60.6369 16.6429C60.6559 16.6287 60.6747 16.6144 60.6934 16.5999L60.7306 16.5715C60.7979 16.5203 60.8653 16.469 60.9313 16.4166C60.9567 16.3962 60.9818 16.3757 61.0068 16.3548L61.0417 16.3261C61.0989 16.2794 61.1558 16.2324 61.2118 16.1844C61.2598 16.1433 61.307 16.1012 61.3541 16.0593L61.371 16.0442L61.3962 16.0218C61.4334 15.9885 61.4707 15.9555 61.5073 15.9214C61.5541 15.878 61.5999 15.8335 61.646 15.7893L61.6618 15.774L61.6959 15.7409C61.7304 15.7078 61.7645 15.6747 61.7982 15.6409L61.849 15.5889L61.8687 15.5685C61.9286 15.5069 61.9877 15.4447 62.0458 15.3815L62.0586 15.3676L62.118 15.3027C62.1875 15.2256 62.2558 15.1474 62.323 15.0676L62.3335 15.0552L62.3482 15.0382C62.4201 14.9521 62.4901 14.8641 62.5588 14.7749C62.6564 14.6491 62.7412 14.5342 62.8182 14.4243C62.8697 14.3511 62.9188 14.2769 62.9666 14.2023L63.0021 14.1464C63.0492 14.0719 63.0951 13.997 63.139 13.9206C63.1824 13.8451 63.2233 13.7689 63.263 13.6926L63.2924 13.6353C63.3284 13.5639 63.3636 13.4923 63.3965 13.4205L63.4022 13.4141L63.4072 13.397C63.4408 13.3224 63.4719 13.2474 63.5017 13.1724L63.5243 13.1144C63.5511 13.0449 63.5761 12.9752 63.5996 12.9057L63.6039 12.8933L63.6102 12.8752C63.6356 12.7974 63.6585 12.7196 63.6797 12.6418ZM27.1051 24.7085L27.0339 24.7604C27.0183 24.7705 27.0021 24.7804 26.9786 24.7938L26.9696 24.7986L26.9683 24.7994L26.9495 24.8096L26.937 24.8162L26.9282 24.8209C26.9173 24.8264 26.9062 24.8318 26.895 24.8369L26.8779 24.8447L26.8604 24.8531C26.8355 24.8642 26.8105 24.8745 26.7844 24.8842L26.7746 24.8875L26.7729 24.8882L26.7594 24.893C26.741 24.8997 26.7224 24.9063 26.7041 24.9121L26.695 24.9147L26.693 24.9153L26.6719 24.9212L26.6596 24.9245L26.6435 24.9294L26.6173 24.9363L26.6069 24.9383L26.6052 24.9387C26.5934 24.9415 26.5821 24.9437 26.569 24.9464L26.5574 24.9489L26.5565 24.949L26.5367 24.9527L26.5249 24.954L26.523 24.9545C26.5104 24.9561 26.4982 24.9578 26.4871 24.9589L26.4672 24.9613L26.465 24.9616C26.4524 24.9627 26.4402 24.9631 26.4283 24.9632C25.1618 24.9735 23.8773 24.9742 22.6353 24.9746C21.4709 24.9751 20.2667 24.9756 19.0803 24.9842C18.839 24.9842 18.7972 24.9374 18.79 24.923L16.4319 20.1396C16.4771 20.144 16.5275 20.1462 16.5834 20.1462C17.7698 20.1375 18.9735 20.1369 20.1375 20.1365C21.3801 20.136 22.665 20.1353 23.9319 20.125C23.957 20.1249 23.9841 20.1225 24.0119 20.1196C24.0267 20.1179 24.0419 20.1163 24.057 20.1139C24.076 20.1109 24.0953 20.1077 24.1153 20.1038C24.1292 20.1011 24.1429 20.0983 24.1564 20.095C24.1777 20.0903 24.1993 20.0843 24.2252 20.0771C24.2365 20.074 24.248 20.071 24.2593 20.0677C24.2851 20.0597 24.3111 20.0508 24.3429 20.0394L24.3609 20.0331C24.3924 20.0221 24.4235 20.0093 24.4538 19.995L24.4805 19.9825C24.506 19.9706 24.5305 19.9585 24.5546 19.9458L24.5777 19.9332C24.6065 19.9172 24.6345 19.9008 24.6684 19.8782C24.6971 19.8591 24.724 19.8394 24.7485 19.8192C32.1589 13.6466 39.682 7.36206 46.9577 1.28433L47.9373 0.465913C47.9537 0.452305 47.9696 0.437957 47.9855 0.423461L47.9955 0.414439L48.008 0.403492L48.0289 0.384559C48.0443 0.370359 48.0598 0.355271 48.0753 0.340183L48.0867 0.329238L48.0991 0.317257L48.1151 0.301873L48.1681 0.249512L48.1957 0.222147L49.0014 1.85632C47.8042 2.32936 46.6725 2.9765 45.6878 3.83072C44.9689 4.45433 44.2432 5.17704 43.8311 5.90835C43.1965 7.03265 43.1406 8.14839 43.5796 9.03174C43.5783 9.02908 43.5768 9.02672 43.5755 9.0242L44.254 10.4007C42.7855 11.6272 41.3106 12.859 39.8317 14.0936C38.1917 14.0923 36.5514 14.09 34.9107 14.0868C34.5339 14.0868 34.281 14.1887 33.9776 14.4486C32.9659 15.3173 31.9292 16.1667 30.9027 17.0238L27.2088 20.1132L28.7843 23.3094C28.224 23.7762 27.6642 24.2427 27.1051 24.7085ZM16.1278 19.518C16.0856 19.6382 16.0077 19.8611 16.124 20.0057L11.0809 24.7049C11.0579 24.7266 11.0351 24.7468 11.0149 24.764L11.0066 24.7705L11.0058 24.7714L10.9919 24.7823L10.9825 24.7894L10.9821 24.7898L10.9695 24.8C10.9621 24.8061 10.9547 24.812 10.9397 24.8229L10.9302 24.8297L10.9295 24.83L10.9139 24.8409L10.9 24.8505L10.8989 24.8513C10.8851 24.8604 10.8711 24.8688 10.8495 24.8811L10.8349 24.889L10.8346 24.8891L10.8201 24.897C10.8082 24.903 10.7962 24.9086 10.7825 24.9147L10.7652 24.9218L10.7487 24.9286L10.748 24.9289C10.7354 24.9336 10.7225 24.938 10.7091 24.9424L10.6856 24.9489L10.6753 24.9518L10.6748 24.952L10.6645 24.9551C10.6484 24.9589 10.6319 24.9619 10.6177 24.9647L10.607 24.9669H10.6064L10.5914 24.9687L10.5728 24.9709L10.5611 24.9725C10.5469 24.9743 10.5327 24.9764 10.5151 24.978C10.4853 24.9801 10.4543 24.9811 10.4226 24.9811C9.13073 24.9762 7.84642 24.9729 6.56139 24.9729C5.23813 24.9729 4.04706 24.9764 2.91998 24.9842C2.68531 24.9842 2.62957 24.942 2.61712 24.917L0.261474 20.1382C0.261763 20.1382 0.2619 20.1382 0.262189 20.1383C0.312137 20.1436 0.364694 20.1462 0.423763 20.1462H0.423905C0.72692 20.144 1.02965 20.1433 1.33223 20.1428L1.87746 20.1416L2.46568 20.1391C2.99846 20.1367 3.53138 20.1347 4.06357 20.1347C4.3178 20.1347 4.57275 20.1353 4.82756 20.136L5.34932 20.1373L5.77511 20.138C6.49017 20.1392 7.20521 20.1405 7.92431 20.1431C8.19823 20.1431 8.40352 20.0739 8.61084 19.9119L8.62199 19.9035L8.62242 19.903L8.6314 19.8961L8.64892 19.8822C8.67729 19.8584 8.70566 19.8335 8.73448 19.8064L19.5243 9.75269L19.5034 9.81348L18.7291 12.0461C17.88 14.4949 17.0021 17.0271 16.1278 19.518ZM0.359337 19.669C1.00011 17.6106 1.64191 15.5184 2.26256 13.4946C2.54792 12.5643 2.83327 11.634 3.11949 10.7038C3.93544 8.05387 4.75372 5.40381 5.57199 2.75388L6.17773 0.791773C6.21698 0.665748 6.26185 0.539575 6.31397 0.393729C6.31469 0.391659 6.31542 0.389735 6.31599 0.387665H13.5516L12.2977 4.00023L9.76267 11.3039L9.3211 12.5761L10.2287 11.7301L10.2972 11.6664L16.1313 6.22932L22.0592 0.705095C22.3326 0.444318 22.5286 0.360449 22.8653 0.3603C23.8142 0.369619 24.8098 0.373611 26.0932 0.373611C26.6661 0.373611 27.2392 0.373021 27.8122 0.371985C28.3847 0.371393 28.9574 0.370507 29.5296 0.370507H29.6369L28.9094 2.38616C27.8304 5.37555 26.7597 8.34216 25.6883 11.3092L25.2318 12.5732L26.1525 11.7383L26.2181 11.6788L32.1889 6.26379L38.3598 0.667374C38.6114 0.436181 38.7924 0.361929 39.1034 0.361929C40.8949 0.370655 42.6769 0.371838 44.0292 0.371838L46.1096 0.371098L47.3518 0.370656L46.8517 0.788814C40.8983 5.76191 34.781 10.8721 28.6931 15.9479C28.5831 16.0395 28.4731 16.1313 28.3632 16.223C27.0633 17.3068 25.7642 18.3895 24.4693 19.4683C24.3462 19.5705 24.0786 19.6719 23.9287 19.673C22.664 19.6834 21.3811 19.6839 20.1402 19.6844C18.9885 19.6848 17.7982 19.6853 16.6252 19.6936C16.6109 19.6937 16.5965 19.6937 16.5822 19.6937C16.5656 19.6937 16.5505 19.6936 16.5367 19.6932C16.5391 19.6858 16.5417 19.6785 16.5444 19.6705C17.4182 17.1815 18.2953 14.6514 19.1435 12.2047L19.9204 9.96466L19.9853 9.77784L20.0002 9.73524L20.091 9.47313L20.5327 8.20104L19.5566 9.11058L13.0159 15.2049L12.2797 15.8908L8.4345 19.4737C8.2583 19.64 8.13916 19.6909 7.92562 19.6909C6.63334 19.6858 5.3489 19.6823 4.06343 19.6823C2.73772 19.6823 1.54607 19.6861 0.422897 19.6937C0.395535 19.6937 0.372371 19.6933 0.352392 19.692C0.354418 19.6849 0.356731 19.6772 0.359337 19.669ZM14.0375 0.340479L16.3959 5.12453L16.3549 5.24301L16.2698 5.48826L10.3293 11.0242L10.5975 10.2519L11.1652 8.61625L14.0375 0.340479ZM30.1271 0.319179L32.4872 5.10664L32.4353 5.2507L32.336 5.52584L26.2581 11.0378L28.1539 5.78646L29.8205 1.16896L30.1271 0.319179ZM46.0703 14.0949C45.9336 14.0949 45.7971 14.095 45.6605 14.095C45.3221 14.0953 44.9836 14.0955 44.6451 14.0955C43.0971 14.0955 41.5491 14.0949 40.0008 14.0937C41.4441 12.8897 42.8998 11.6752 44.3045 10.5031L46.0703 14.0949ZM44.1656 9.96688C44.1927 9.99068 44.2207 10.0143 44.2502 10.0385C44.2687 10.0537 44.2879 10.0683 44.3072 10.0831L44.3224 10.0948C44.3739 10.1346 44.4274 10.1729 44.4821 10.2102C44.4882 10.2143 44.4943 10.2188 44.5003 10.2229L44.5067 10.2272L44.5196 10.2359C44.5384 10.2486 44.5573 10.2614 44.5771 10.2739C44.5775 10.2742 44.5778 10.2744 44.5782 10.2747C44.6731 10.3347 44.7601 10.3852 44.844 10.4285L44.8457 10.4296C45.5388 10.789 46.3641 11.0955 47.2986 11.3406C48.2468 11.589 49.186 11.8123 50.1804 12.0491C51.1352 12.2763 52.1223 12.5112 53.1108 12.7686C53.1407 12.7863 53.1691 12.8085 53.199 12.8372C53.2013 12.8395 53.2035 12.8419 53.2057 12.8441C53.2103 12.8485 53.2148 12.853 53.2191 12.8579C53.2467 12.8883 53.2665 12.9158 53.2794 12.9417C53.3377 13.0584 53.3333 13.208 53.2669 13.3633C53.24 13.4262 53.2047 13.4869 53.1621 13.5442C53.077 13.6591 52.9631 13.7607 52.8306 13.8411C52.7643 13.8814 52.6932 13.9164 52.6189 13.9449C52.6189 13.9449 52.5858 13.9597 52.5357 13.9804C52.519 13.9874 52.5003 13.9951 52.4806 14.0031C52.4536 14.0137 52.4239 14.0248 52.3938 14.0359C52.3352 14.0577 52.2734 14.0785 52.2193 14.0923L46.1994 14.0949L46.1264 13.9449H46.1265L46.1092 13.9099L46.1091 13.9096L45.2513 12.1692L44.3934 10.429L44.3428 10.3265L44.1656 9.96688ZM49.1506 2.15882C49.1855 2.14506 49.2203 2.13086 49.2555 2.1174C49.6781 1.95602 50.1176 1.81313 50.5739 1.68933C53.6771 0.852714 56.7945 0.425089 59.8395 0.417841L79.151 0.37317L78.5443 0.88067C76.9567 2.2091 75.3149 3.58266 73.6871 4.9213C73.5589 5.02646 73.2948 5.12957 73.1534 5.12957C69.6249 5.13666 65.9031 5.13696 62.304 5.13726C59.5963 5.13726 56.9001 5.1374 54.2836 5.14036C54.1373 5.14036 53.6422 5.15856 53.3486 5.38871C52.9268 5.69106 52.7162 6.12948 52.7985 6.53477C52.8643 6.8587 53.111 7.09685 53.4561 7.17865C53.4671 7.18131 53.4773 7.18516 53.4886 7.18752C54.0457 7.30911 54.6033 7.42936 55.1612 7.54978C56.6993 7.88154 58.2899 8.22472 59.8356 8.58918C60.9276 8.84611 61.8291 9.25436 62.5146 9.80239C62.7899 10.0225 62.9887 10.2729 63.1265 10.5421C63.6989 11.6597 63.1932 13.1117 62.4584 14.1612C61.3731 15.7098 59.8095 16.8922 57.6784 17.7759C55.283 18.7682 52.7096 19.3707 49.8116 19.6174C48.3156 19.7444 46.858 19.7655 45.5055 19.7693C43.183 19.7752 40.6435 19.778 37.5137 19.778C36.0712 19.778 34.629 19.7776 33.1869 19.7768H33.0216C32.9213 19.7768 32.8209 19.7768 32.7205 19.7767C31.1921 19.7761 29.6636 19.7754 28.1345 19.7752L28.712 19.2922C29.5359 18.6033 30.3239 17.944 31.1119 17.2855C31.4054 17.0405 31.6998 16.7959 31.9942 16.5515C32.7178 15.9507 33.4659 15.3291 34.1899 14.7076C34.437 14.4961 34.6188 14.4246 34.9099 14.4246C36.3454 14.4276 37.8444 14.4296 39.4275 14.4312C39.4837 14.4312 39.5399 14.4312 39.5962 14.4313C41.1865 14.4326 42.8621 14.4334 44.6451 14.4334C45.1887 14.4334 45.7326 14.4327 46.2763 14.4326C48.3641 14.4322 50.4518 14.4314 52.5398 14.4301H52.5854L52.6293 14.4174C52.8563 14.3522 53.0619 14.2424 53.2341 14.1034C53.2955 14.054 53.3525 14.0012 53.4046 13.9449C53.527 13.8128 53.6228 13.664 53.6839 13.507C53.719 13.4165 53.7467 13.3242 53.7572 13.2296C53.7974 12.8662 53.6309 12.5428 53.3116 12.3649L53.2752 12.3447L53.235 12.3341C52.2373 12.0742 51.2433 11.8376 50.2817 11.6087C49.2896 11.3725 48.3523 11.1497 47.4085 10.9024C46.5052 10.6656 45.7103 10.3707 45.046 10.0263C45.011 10.0081 44.9769 9.98921 44.9432 9.97013C44.9085 9.95074 44.8747 9.93049 44.8414 9.91006C44.2787 9.56365 43.8937 9.07759 43.723 8.49184C43.5074 7.75153 43.6438 6.91655 44.1177 6.07696C44.4452 5.49595 45.0286 4.84557 45.9019 4.08824C46.8226 3.28963 47.9117 2.64398 49.1506 2.15882ZM80.0331 0.0341444H79.6241L59.8386 0.0799981C56.8254 0.0869503 53.6863 0.500822 50.4894 1.36259C50.0223 1.4895 49.5599 1.64037 49.1065 1.81521L48.2278 0.0326666C46.8144 0.0326666 45.4172 0.0339987 44.0292 0.0339987C42.3813 0.0339987 40.7463 0.0322231 39.105 0.0240876C38.7129 0.0240876 38.4506 0.129551 38.1387 0.416361L32.4312 5.59224V5.59239L32.4307 5.59284L32.4126 5.60911C32.4741 5.44774 32.5594 5.2374 32.6092 5.09968L30.1112 0.0326666H29.5296C28.3846 0.0326666 27.2385 0.0357728 26.0932 0.0357728C25.0243 0.0357728 23.9562 0.0331101 22.8662 0.0224609C22.4422 0.0224609 22.1658 0.141383 21.8335 0.458072L16.3659 5.55335C16.4166 5.4078 16.467 5.26254 16.5175 5.1167L14.0197 0.0496772V0.0498245H6.08378C5.99981 0.29211 5.92438 0.490615 5.86271 0.689562C4.84247 3.99372 3.82151 7.29817 2.80417 10.6025C1.88499 13.5899 0.974489 16.5785 0.0441594 19.5665C-0.00506447 19.7258 -0.0166417 19.8369 0.0273701 19.9113C0.0253432 19.9076 0.0211403 19.9053 0.0192583 19.9013L2.51708 24.9682C2.5621 25.0598 2.68458 25.0986 2.91998 25.0986H2.92101C4.13596 25.0902 5.34889 25.0871 6.56139 25.0871C7.84628 25.0871 9.13029 25.0906 10.4221 25.0956C10.457 25.0956 10.4905 25.0945 10.523 25.092C10.5239 25.0919 10.5249 25.0916 10.5261 25.0916C10.5472 25.0901 10.567 25.087 10.5872 25.0844C10.5998 25.0827 10.6131 25.0818 10.6252 25.0798C10.626 25.0796 10.6267 25.0794 10.6274 25.0792C10.6303 25.0787 10.6329 25.0782 10.6355 25.0777C10.6541 25.0742 10.6724 25.0706 10.6904 25.0662C10.6985 25.0641 10.7066 25.0616 10.7147 25.0595C10.7194 25.0581 10.7241 25.0569 10.7288 25.0554C10.7306 25.0547 10.7327 25.0542 10.7346 25.0537C10.7372 25.0532 10.7398 25.0525 10.7424 25.0516C10.7574 25.047 10.7723 25.0417 10.787 25.036C10.7936 25.0337 10.8003 25.0307 10.8068 25.0281C10.81 25.0267 10.8133 25.0253 10.8165 25.024C10.8207 25.0222 10.8247 25.0208 10.8288 25.019C10.8427 25.0128 10.8563 25.0063 10.87 24.9993C10.8777 24.9955 10.8854 24.9912 10.893 24.9869C10.8961 24.9853 10.8995 24.9836 10.9026 24.9818C10.9059 24.98 10.9091 24.9783 10.9124 24.9765C10.928 24.9673 10.9433 24.9579 10.959 24.948C10.9645 24.9441 10.9701 24.94 10.9758 24.9363C10.9815 24.9323 10.9873 24.9283 10.9929 24.9242C10.9998 24.9194 11.0064 24.9152 11.0132 24.9101C11.0257 24.9008 11.0384 24.8901 11.051 24.8802C11.0593 24.8736 11.0676 24.8673 11.0761 24.8604C11.0788 24.8579 11.0814 24.8562 11.0844 24.8539C11.108 24.8336 11.1322 24.812 11.1567 24.7887L16.2561 20.0373L18.69 24.9744C18.732 25.0596 18.8486 25.0986 19.0803 25.0986C21.5339 25.0808 23.975 25.0978 26.4293 25.0777C26.4436 25.0776 26.4585 25.0769 26.4739 25.0758C26.4815 25.0752 26.4901 25.0736 26.4979 25.0728C26.5114 25.0715 26.5248 25.0697 26.5386 25.0676C26.5461 25.0665 26.5532 25.0662 26.5608 25.065C26.5707 25.0632 26.5813 25.0605 26.5914 25.0585C26.6042 25.056 26.6169 25.0534 26.6298 25.0503C26.6361 25.0489 26.6421 25.048 26.6485 25.0465C26.662 25.0431 26.6755 25.0388 26.6891 25.035C26.7012 25.0316 26.7129 25.0286 26.725 25.0249C26.7291 25.0235 26.7332 25.0227 26.7373 25.0215C26.7573 25.0151 26.7773 25.0079 26.7973 25.0005C26.805 24.9978 26.8127 24.9955 26.8202 24.9925C26.8215 24.9921 26.8228 24.9917 26.8241 24.9913C26.8514 24.9809 26.8785 24.9698 26.9052 24.9579C26.9075 24.957 26.9097 24.9557 26.9122 24.9547C26.9189 24.9516 26.9253 24.9486 26.9318 24.9454C26.9473 24.9383 26.9627 24.9312 26.9777 24.9237C26.9856 24.9194 26.993 24.9152 27.0008 24.9112C27.0081 24.9072 27.0151 24.9037 27.022 24.8997C27.0281 24.8963 27.0344 24.8932 27.0404 24.8897C27.059 24.879 27.077 24.8682 27.0942 24.8567C27.0945 24.8566 27.74 24.3186 28.8327 23.4074L29.6664 25.0986H30.3848C33.5808 25.0986 36.7754 25.1016 39.9715 25.1016C42.6345 25.1016 45.2986 25.0995 47.9641 25.0925C48.1344 25.092 48.3047 25.0911 48.4754 25.0901C48.5314 25.0897 48.5877 25.0889 48.6438 25.0884C48.7593 25.0874 48.8752 25.0863 48.9912 25.0848C49.0572 25.084 49.1234 25.0827 49.1897 25.0818C49.2961 25.08 49.4025 25.0783 49.5091 25.0764C49.5802 25.0747 49.6516 25.0729 49.7228 25.0715C49.8244 25.0689 49.9261 25.0663 50.0277 25.0635C50.102 25.0613 50.1762 25.0587 50.2505 25.0563C50.3502 25.053 50.4496 25.0493 50.5493 25.0454C50.6252 25.0423 50.7012 25.0392 50.7771 25.0359C50.8757 25.0314 50.9744 25.0267 51.073 25.0217C51.1496 25.0177 51.226 25.0135 51.3027 25.0093C51.4021 25.0035 51.5016 24.9973 51.6012 24.9907C51.6768 24.9859 51.7526 24.9809 51.8284 24.9755C51.86 24.9734 51.8916 24.9715 51.9233 24.9691L52.2273 24.9539C53.0454 24.9127 53.8615 24.8376 54.6737 24.728L54.8603 24.7029C54.8626 24.7024 54.865 24.7023 54.8673 24.7019C54.879 24.6997 54.8909 24.698 54.9026 24.6962C54.9803 24.6828 55.0583 24.6681 55.1361 24.654C55.2074 24.6414 55.2785 24.629 55.3495 24.6158C55.4444 24.5979 55.5393 24.5788 55.6342 24.5599C55.7026 24.5462 55.7711 24.5332 55.8394 24.519C55.9408 24.4981 56.0423 24.4754 56.1438 24.4532C56.2055 24.4396 56.267 24.4268 56.3287 24.413C56.4512 24.3851 56.5738 24.3557 56.6963 24.326C56.737 24.3161 56.7776 24.307 56.8183 24.297C56.8199 24.2966 56.8214 24.2962 56.8231 24.2957C56.9711 24.2591 57.119 24.2208 57.2668 24.1812C57.3103 24.1697 57.3538 24.1575 57.3974 24.1458C57.5079 24.1157 57.6183 24.0847 57.7288 24.0531C57.775 24.0398 57.8213 24.0264 57.8676 24.0128C57.9975 23.9747 58.1274 23.9355 58.2571 23.895C58.2781 23.8886 58.2988 23.8826 58.3197 23.8759C58.3247 23.8743 58.3298 23.8728 58.3346 23.8712C58.3545 23.8649 58.3745 23.8578 58.3944 23.8515C58.5669 23.7965 58.7394 23.7394 58.9121 23.6802C58.9734 23.659 59.0348 23.6373 59.096 23.6157C59.2372 23.566 59.3786 23.5147 59.5197 23.462C59.5579 23.4477 59.5964 23.4348 59.6346 23.4203C59.6566 23.4119 59.6788 23.4024 59.7009 23.394C59.9008 23.3174 60.1008 23.2388 60.3004 23.1559C60.4145 23.1088 60.5275 23.0604 60.6394 23.0108C60.646 23.008 60.6525 23.0048 60.6592 23.0017C60.7067 22.9809 60.7532 22.9587 60.8001 22.9374C60.8735 22.9038 60.947 22.8704 61.0194 22.8359C61.0695 22.812 61.1187 22.7872 61.1684 22.7628C61.2227 22.7364 61.2779 22.7102 61.3314 22.6828C61.3457 22.6757 61.3596 22.6682 61.3736 22.6607C61.4161 22.6392 61.4577 22.617 61.4996 22.5949C61.5697 22.5581 61.6394 22.5212 61.7085 22.4834C61.7526 22.4591 61.7961 22.4347 61.8397 22.4102C61.8752 22.3904 61.9112 22.371 61.9464 22.3508C61.9781 22.3326 62.0088 22.3135 62.0402 22.295C62.0803 22.2714 62.1205 22.2479 62.1601 22.224C62.2291 22.1822 62.2973 22.14 62.3652 22.097C62.401 22.0745 62.4371 22.0522 62.4727 22.0293C62.4858 22.0208 62.4993 22.0127 62.5123 22.0043C62.5798 21.9604 62.646 21.9151 62.7121 21.87C62.7333 21.8555 62.7548 21.8418 62.7759 21.8274L63.1622 21.546C63.2289 21.4957 63.295 21.4451 63.3601 21.3932C63.3971 21.3636 63.4331 21.3335 63.4696 21.3037C63.5116 21.2695 63.5543 21.2357 63.5957 21.2008C63.6138 21.1853 63.6308 21.1688 63.6495 21.1536C63.6775 21.1309 63.7118 21.1004 63.7384 21.076C63.8019 21.0183 63.867 20.9619 63.9299 20.9038C63.9816 20.8559 64.032 20.807 64.0825 20.7579C64.1154 20.726 64.1493 20.6954 64.1818 20.663C64.1937 20.651 64.2053 20.6386 64.2174 20.6265C64.2431 20.6004 64.2683 20.574 64.2939 20.5479C64.3416 20.4991 64.3891 20.4503 64.4348 20.4C64.4677 20.3637 64.501 20.3283 64.5334 20.292C64.6022 20.2157 64.6697 20.1385 64.736 20.0598C64.7442 20.0499 64.7526 20.0407 64.7607 20.031C64.8243 19.9547 64.8868 19.8778 64.9479 19.7993C64.9551 19.79 64.9618 19.7801 64.9689 19.7709C65.0566 19.6578 65.1425 19.5428 65.225 19.4248C65.2755 19.3526 65.3237 19.2796 65.371 19.2065C65.3827 19.1882 65.3942 19.17 65.4058 19.1516C65.452 19.0783 65.497 19.0047 65.5396 18.9306C65.5397 18.9303 65.5399 18.93 65.54 18.9299C65.5827 18.8555 65.623 18.7806 65.662 18.7056C65.6716 18.6872 65.6812 18.6685 65.6907 18.6497C65.7286 18.5747 65.7656 18.4995 65.7998 18.4238C65.7998 18.4237 65.7999 18.4236 65.8001 18.4233C65.8342 18.3479 65.8657 18.272 65.8959 18.1962C65.9032 18.1773 65.9106 18.1583 65.918 18.1394C65.9254 18.1203 65.9334 18.1012 65.9405 18.0821C65.9586 18.0333 65.9751 17.9845 65.9914 17.9359C65.9948 17.9258 65.9986 17.9159 66.0018 17.9058C66.0268 17.83 66.0491 17.7541 66.0696 17.6782C66.0751 17.6578 66.08 17.6374 66.0852 17.617C66.1004 17.5579 66.1142 17.4988 66.1265 17.44C66.1308 17.4198 66.1354 17.3995 66.1393 17.3794C66.1415 17.3684 66.1443 17.357 66.1464 17.3458C66.1537 17.3059 66.1588 17.266 66.1649 17.226C66.1698 17.1944 66.1756 17.1626 66.1797 17.1309C66.1867 17.0753 66.1912 17.02 66.1958 16.9648C66.1979 16.9397 66.2011 16.9144 66.2025 16.8893C66.2027 16.8867 66.2031 16.8838 66.2032 16.8811C66.2073 16.8097 66.2085 16.7391 66.2077 16.6687C66.2077 16.6487 66.2067 16.6288 66.2062 16.6091C66.2053 16.5769 66.2051 16.5443 66.2032 16.5121C66.2018 16.4867 66.1989 16.4616 66.1967 16.436C66.1954 16.4201 66.1945 16.4042 66.1927 16.3883C66.1863 16.3251 66.1785 16.2619 66.168 16.1996C66.1667 16.1917 66.1647 16.1845 66.1636 16.1766C66.1621 16.1686 66.1607 16.1606 66.1593 16.1527L66.0422 15.7294C66.0387 15.7196 66.0352 15.7098 66.0316 15.6999C66.027 15.6889 66.0234 15.6772 66.0188 15.6661C65.9952 15.6067 65.9691 15.5483 65.9408 15.4906L63.6564 10.542C67.7322 10.5417 71.7032 10.5424 75.6519 10.5344C75.6664 10.5344 75.6816 10.5337 75.6971 10.5326C75.7227 10.5307 75.7498 10.5273 75.7775 10.5226C75.8039 10.518 75.8313 10.5122 75.8591 10.5054C75.8867 10.4986 75.9148 10.4906 75.9434 10.4816C75.9714 10.4727 75.9999 10.4628 76.0282 10.4522C76.0381 10.4483 76.0478 10.4439 76.0577 10.4401C76.0603 10.439 76.0629 10.4378 76.0655 10.4368C76.0803 10.4307 76.0952 10.4251 76.1098 10.4186C76.1245 10.4122 76.1381 10.4049 76.1525 10.3985C76.1551 10.3972 76.1577 10.396 76.1603 10.3946L76.3584 10.2778C76.37 10.2692 76.3812 10.2605 76.3918 10.2518C76.8739 9.8552 77.355 9.4576 77.8351 9.05941C78.7953 8.26272 79.7521 7.46339 80.7084 6.66345C81.1866 6.26364 81.6644 5.86367 82.1425 5.46371C82.1467 5.46045 82.1505 5.4572 82.1544 5.45379C82.17 5.44078 82.1852 5.42673 82.2005 5.41313C82.2117 5.40306 82.2231 5.3933 82.2344 5.38295C82.253 5.36609 82.2724 5.34759 82.2916 5.3294C82.3021 5.31934 82.3126 5.30973 82.3234 5.29923C82.3523 5.27186 82.3827 5.24243 82.4148 5.21136C82.4505 5.17734 82.4887 5.14081 82.5309 5.10117L80.0331 0.0341444Z" fill="#CDCDCD"/>
<path d="M44.846 10.4299L44.8439 10.4287L44.846 10.4299Z" fill="#CDCDCD"/>
<path d="M44.577 10.2738C44.5573 10.2612 44.5384 10.2485 44.5195 10.2358L44.5068 10.2271L44.5195 10.2358C44.5384 10.2485 44.5573 10.2612 44.577 10.2738Z" fill="#CDCDCD"/>
<path d="M52.4806 14.0029C52.4536 14.0136 52.4241 14.0247 52.3938 14.0359C52.424 14.0247 52.4536 14.0136 52.4806 14.0029Z" fill="#CDCDCD"/>
<path d="M45.2512 12.1689L46.109 13.9093L46.1091 13.9097L46.109 13.9093L45.2512 12.1689Z" fill="#CDCDCD"/>
<path d="M44.844 10.4285C44.7602 10.385 44.6731 10.3346 44.5783 10.2745C44.5779 10.2744 44.5775 10.2742 44.577 10.2739C44.5775 10.2742 44.5779 10.2744 44.5782 10.2745C44.6731 10.3346 44.76 10.385 44.844 10.4285Z" fill="#CDCDCD"/>
<path d="M53.199 12.8369C53.2013 12.8393 53.2034 12.8417 53.2057 12.8439C53.2034 12.8417 53.2013 12.8393 53.199 12.8369C53.169 12.8084 53.1408 12.786 53.1108 12.7683C52.1223 12.5109 51.1352 12.276 50.1804 12.0488C51.1352 12.276 52.1223 12.5109 53.1108 12.7683C53.1408 12.786 53.169 12.8084 53.199 12.8369Z" fill="#CDCDCD"/>
<path d="M44.3072 10.0831C44.2881 10.0683 44.2687 10.0536 44.2503 10.0384C44.2207 10.0143 44.1926 9.99062 44.1656 9.9668C44.1926 9.99062 44.2207 10.0143 44.2501 10.0384C44.2687 10.0536 44.2881 10.0683 44.3072 10.0831Z" fill="#CDCDCD"/>
</svg>
