<svg width="323" height="50" viewBox="0 0 323 50" fill="none" xmlns="http://www.w3.org/2000/svg">
<g clip-path="url(#clip0)">
<path d="M147.846 44.5027L144.13 24.9269H149.503L151.064 35.4903C151.156 36.1234 151.223 36.674 151.265 37.1416C151.307 37.6097 151.336 38.0529 151.355 38.4723C151.52 37.83 151.681 37.2441 151.838 36.7137C151.995 36.1833 152.133 35.7397 152.253 35.383L155.844 24.9269H160.831L162.295 35.4903C162.387 36.1053 162.454 36.6493 162.496 37.1216C162.537 37.5945 162.567 38.0445 162.586 38.4723C162.659 38.1066 162.767 37.6987 162.91 37.2489C163.053 36.7989 163.272 36.1762 163.566 35.383L167.641 24.9269H173.25L164.782 44.5027H159.242L157.861 35.3969C157.769 34.7813 157.7 34.2357 157.654 33.7586C157.608 33.2819 157.58 32.8291 157.571 32.4013C157.415 32.9901 157.26 33.5449 157.108 34.0661C156.956 34.5875 156.811 35.0626 156.673 35.4903L153.606 44.5027H147.846Z" fill="#404041" fill-opacity="0.25"/>
<path d="M184.837 29.4985C183.189 29.4985 181.807 30.0476 180.693 31.1463C179.579 32.2447 179.022 33.6068 179.022 35.233C179.022 36.6718 179.466 37.8212 180.355 38.6815C181.244 39.5408 182.429 39.9705 183.912 39.9705C185.533 39.9705 186.91 39.4024 188.042 38.2661C189.175 37.1291 189.742 35.7434 189.742 34.109C189.742 32.7637 189.281 31.6588 188.361 30.7952C187.439 29.9311 186.265 29.4985 184.837 29.4985ZM183.594 44.5427C182.148 44.5427 180.833 44.3599 179.65 43.9934C178.467 43.6273 177.415 43.0782 176.494 42.3463C175.527 41.5628 174.772 40.5965 174.228 39.4471C173.685 38.2978 173.413 37.0764 173.413 35.7822C173.413 34.3859 173.646 33.0806 174.111 31.8676C174.576 30.6546 175.269 29.554 176.19 28.5663C177.267 27.3912 178.582 26.4912 180.134 25.8652C181.686 25.2394 183.368 24.9269 185.183 24.9269C188.222 24.9269 190.679 25.7355 192.553 27.3533C194.427 28.9707 195.364 31.0738 195.364 33.6621C195.364 35.05 195.126 36.3549 194.652 37.5767C194.178 38.7982 193.485 39.8987 192.574 40.8775C191.459 42.0782 190.142 42.9892 188.623 43.6106C187.103 44.2322 185.427 44.5427 183.594 44.5427Z" fill="#404041" fill-opacity="0.25"/>
<path d="M202.626 33.8723H204.326C205.394 33.8723 206.214 33.6361 206.785 33.1632C207.356 32.6912 207.642 32.0093 207.642 31.1181C207.642 30.2804 207.374 29.6716 206.84 29.2921C206.306 28.9137 205.449 28.7242 204.27 28.7242H203.47L202.626 33.8723ZM200.9 44.5024H195.526L198.718 24.9269H204.105C205.726 24.9269 206.932 24.9826 207.724 25.0938C208.516 25.2053 209.202 25.3949 209.782 25.6621C210.804 26.1256 211.578 26.7789 212.103 27.6212C212.628 28.4637 212.89 29.4731 212.89 30.6496C212.89 32.2725 212.391 33.6293 211.392 34.7216C210.392 35.8132 209.018 36.4974 207.269 36.7738L212.186 44.5024H206.025L202.115 37.0278L200.9 44.5024Z" fill="#404041" fill-opacity="0.25"/>
<path d="M213.969 44.5027L217.16 24.9269H222.574L221.207 33.1101L228.902 24.9269H235.893L225.933 34.5945L232.811 44.5027H226.415L220.751 35.8782L219.343 44.5027H213.969Z" fill="#404041" fill-opacity="0.25"/>
<path d="M237.828 37.5912C238.676 38.43 239.483 39.0397 240.254 39.4205C241.022 39.8011 241.816 39.9921 242.635 39.9921C243.318 39.9921 243.86 39.8397 244.266 39.5348C244.672 39.2297 244.874 38.8275 244.874 38.328C244.874 37.6509 244.055 36.9183 242.416 36.1304C242.258 36.054 242.135 35.9947 242.043 35.9527C240.449 35.1903 239.358 34.4584 238.768 33.7551C238.177 33.0522 237.883 32.1974 237.883 31.1888C237.883 29.3516 238.559 27.8485 239.907 26.68C241.257 25.511 242.995 24.9269 245.122 24.9269C246.246 24.9269 247.325 25.1093 248.361 25.4729C249.397 25.8377 250.376 26.3751 251.298 27.0861L248.976 30.7571C248.25 30.1817 247.587 29.7535 246.987 29.474C246.388 29.1949 245.835 29.0555 245.33 29.0555C244.777 29.0555 244.316 29.2011 243.948 29.4936C243.579 29.7857 243.395 30.1434 243.395 30.5667C243.395 31.0919 244.086 31.6804 245.469 32.3324C245.956 32.561 246.333 32.7474 246.601 32.8914C248.019 33.6115 249.005 34.3456 249.558 35.0952C250.109 35.8449 250.385 36.7826 250.385 37.9086C250.385 39.8987 249.634 41.489 248.135 42.6791C246.632 43.8687 244.593 44.4632 242.014 44.4632C240.66 44.4632 239.393 44.1989 238.215 43.6694C237.036 43.1408 235.974 42.3551 235.023 41.313L237.828 37.5912Z" fill="#404041" fill-opacity="0.25"/>
<path d="M251.213 44.5027L254.404 24.9269H259.847L258.589 32.4817H265.661L266.89 24.9269H272.349L269.142 44.5027H263.686L264.985 36.5062H257.94L256.64 44.5027H251.213Z" fill="#404041" fill-opacity="0.25"/>
<path d="M283.949 29.5107C282.3 29.5107 280.918 30.0563 279.805 31.1482C278.69 32.2398 278.132 33.5938 278.132 35.2103C278.132 36.6398 278.578 37.7823 279.467 38.6372C280.356 39.4916 281.541 39.9189 283.023 39.9189C284.645 39.9189 286.021 39.3543 287.153 38.2248C288.286 37.0949 288.852 35.7173 288.852 34.0933C288.852 32.7559 288.391 31.6581 287.472 30.7993C286.55 29.9407 285.375 29.5107 283.949 29.5107ZM282.704 44.4631C281.26 44.4631 279.945 44.2812 278.76 43.9173C277.577 43.5532 276.526 43.0076 275.604 42.2799C274.638 41.5015 273.883 40.5411 273.339 39.3984C272.797 38.2561 272.525 37.0424 272.525 35.7559C272.525 34.3682 272.757 33.0711 273.223 31.8654C273.688 30.6596 274.379 29.5656 275.301 28.5843C276.379 27.4165 277.694 26.5213 279.245 25.8995C280.797 25.2775 282.478 24.9667 284.293 24.9667C287.333 24.9667 289.789 25.7709 291.664 27.3786C293.538 28.9861 294.475 31.0764 294.475 33.6486C294.475 35.0281 294.238 36.3248 293.764 37.5394C293.288 38.7539 292.596 39.8473 291.686 40.8204C290.571 42.0134 289.254 42.9189 287.735 43.5367C286.214 44.1543 284.537 44.4631 282.704 44.4631Z" fill="#404041" fill-opacity="0.25"/>
<path d="M301.812 33.5242H302.324C304.075 33.5242 305.258 33.3467 305.875 32.9901C306.492 32.6335 306.799 32.0271 306.799 31.1709C306.799 30.4489 306.536 29.9207 306.005 29.5866C305.476 29.2524 304.646 29.0852 303.513 29.0852H302.545L301.812 33.5242ZM294.631 44.5027L297.849 24.9269H303.401C304.94 24.9269 306.097 24.9868 306.869 25.1073C307.642 25.2278 308.316 25.4304 308.886 25.7154C309.918 26.2238 310.688 26.919 311.2 27.8015C311.711 28.6844 311.966 29.7405 311.966 30.9709C311.966 32.1921 311.691 33.324 311.145 34.3665C310.596 35.4101 309.854 36.2123 308.913 36.7736C308.362 37.1038 307.708 37.3375 306.953 37.4758C306.198 37.6145 305.012 37.6833 303.401 37.6833H302.574H301.136L300.004 44.5027H294.631Z" fill="#404041" fill-opacity="0.25"/>
<path d="M177.33 9.8924C177.33 7.13645 179.299 5.25452 181.796 5.25452C183.196 5.25452 184.253 5.88623 185.006 6.84071L184.372 7.25745C183.817 6.47771 182.853 5.95348 181.796 5.95348C179.722 5.95348 178.123 7.55319 178.123 9.8924C178.123 12.2049 179.722 13.8313 181.796 13.8313C182.853 13.8313 183.817 13.3071 184.372 12.5274L185.006 12.9306C184.227 13.9121 183.196 14.5306 181.796 14.5306C179.299 14.5306 177.33 12.6483 177.33 9.8924Z" fill="#404041" fill-opacity="0.25"/>
<path d="M197.078 9.8924C197.078 7.60694 195.704 5.95348 193.59 5.95348C191.45 5.95348 190.103 7.60694 190.103 9.8924C190.103 12.1508 191.45 13.8313 193.59 13.8313C195.704 13.8313 197.078 12.1508 197.078 9.8924ZM189.309 9.8924C189.309 7.27066 191 5.25452 193.59 5.25452C196.166 5.25452 197.871 7.27066 197.871 9.8924C197.871 12.5138 196.166 14.5306 193.59 14.5306C191 14.5306 189.309 12.5138 189.309 9.8924Z" fill="#404041" fill-opacity="0.25"/>
<path d="M210.314 14.3691V6.45109L207.103 14.3691H206.812L203.589 6.45109V14.3691H202.835V5.40234H203.959L206.958 12.7962L209.943 5.40234H211.079V14.3691H210.314Z" fill="#404041" fill-opacity="0.25"/>
<path d="M221.538 8.02396C221.538 6.89445 220.759 6.1015 219.598 6.1015H217.127V9.94614H219.598C220.759 9.94614 221.538 9.15319 221.538 8.02396ZM216.374 14.369V5.40222H219.677C221.367 5.40222 222.333 6.61222 222.333 8.02396C222.333 9.43542 221.354 10.6454 219.677 10.6454H217.127V14.369H216.374Z" fill="#404041" fill-opacity="0.25"/>
<path d="M229.146 6.22232L227.072 11.4655H231.235L229.146 6.22232ZM232.357 14.3692L231.485 12.1642H226.821L225.95 14.3692H225.076L228.685 5.40234H229.622L233.228 14.3692H232.357Z" fill="#404041" fill-opacity="0.25"/>
<path d="M243.928 14.3691L238.379 6.66607V14.3691H237.626V5.40234H238.392L243.915 12.9979V5.40234H244.667V14.3691H243.928Z" fill="#404041" fill-opacity="0.25"/>
<path d="M252.565 14.3691V10.5377L249.064 5.40234H249.975L252.949 9.81173L255.921 5.40234H256.831L253.331 10.5377V14.3691H252.565Z" fill="#404041" fill-opacity="0.25"/>
<path d="M267.424 9.89252C267.424 7.12305 269.417 5.25464 271.888 5.25464C273.341 5.25464 274.399 5.84611 275.204 6.78708L274.636 7.20382C274.015 6.45111 273.012 5.9536 271.888 5.9536C269.814 5.9536 268.216 7.55332 268.216 9.89252C268.216 12.205 269.814 13.8449 271.888 13.8449C273.065 13.8449 273.989 13.2534 274.478 12.756V10.605H271.148V9.91953H275.231V13.0517C274.452 13.9389 273.275 14.5439 271.888 14.5439C269.417 14.5439 267.424 12.6617 267.424 9.89252Z" fill="#404041" fill-opacity="0.25"/>
<path d="M285.426 8.02396C285.426 6.89445 284.634 6.1015 283.473 6.1015H281.001V9.95965H283.473C284.634 9.95965 285.426 9.15319 285.426 8.02396ZM285.415 14.369L282.944 10.6589H281.001V14.369H280.248V5.40222H283.538C285.057 5.40222 286.22 6.38403 286.22 8.02396C286.22 9.65039 285.084 10.5511 283.775 10.6052L286.326 14.369H285.415Z" fill="#404041" fill-opacity="0.25"/>
<path d="M298.636 9.8924C298.636 7.60694 297.262 5.95348 295.149 5.95348C293.009 5.95348 291.661 7.60694 291.661 9.8924C291.661 12.1508 293.009 13.8313 295.149 13.8313C297.262 13.8313 298.636 12.1508 298.636 9.8924ZM290.867 9.8924C290.867 7.27066 292.559 5.25452 295.149 5.25452C297.723 5.25452 299.429 7.27066 299.429 9.8924C299.429 12.5138 297.723 14.5306 295.149 14.5306C292.559 14.5306 290.867 12.5138 290.867 9.8924Z" fill="#404041" fill-opacity="0.25"/>
<path d="M304.394 10.9277V5.40234H305.16V10.9145C305.16 12.7292 306.097 13.8314 307.828 13.8314C309.571 13.8314 310.497 12.7292 310.497 10.9145V5.40234H311.263V10.9277C311.263 13.1457 310.1 14.5307 307.828 14.5307C305.57 14.5307 304.394 13.1324 304.394 10.9277Z" fill="#404041" fill-opacity="0.25"/>
<path d="M321.724 8.02396C321.724 6.89445 320.943 6.1015 319.782 6.1015H317.31V9.94614H319.782C320.943 9.94614 321.724 9.15319 321.724 8.02396ZM316.557 14.369V5.40222H319.861C321.551 5.40222 322.516 6.61222 322.516 8.02396C322.516 9.43542 321.537 10.6454 319.861 10.6454H317.31V14.369H316.557Z" fill="#404041" fill-opacity="0.25"/>
<path d="M53.0774 21.9008L65.363 10.9566L65.5638 10.4103L65.6688 10.1243L60.8985 0.619141L60.2782 2.30636L56.9096 11.4741L53.0774 21.9008Z" fill="#404041" fill-opacity="0.25"/>
<path d="M21.4214 20.3403L20.8794 21.8736L32.8872 10.8818L33.0592 10.3952L33.1424 10.1599L28.3755 0.661255L22.5688 17.0927L21.4214 20.3403Z" fill="#404041" fill-opacity="0.25"/>
<path d="M161.701 0.43447L161.668 0.464719L161.621 0.509948C161.446 0.675001 161.295 0.817437 161.134 0.9493L161.021 1.04269L160.906 1.13667L159.326 2.43536L158.236 3.3308L157.64 3.81919L157.16 4.21302C156.421 4.81979 155.682 5.42595 154.942 6.03184C153.351 7.33521 151.46 8.88029 149.509 10.4565C149.464 10.4926 149.416 10.5276 149.364 10.5619L149.363 10.5631L149.348 10.5725C149.344 10.5751 149.34 10.5781 149.336 10.5804L149.335 10.581C149.303 10.6022 149.281 10.6142 149.26 10.6265L149.236 10.6401C148.803 10.8958 148.254 11.068 147.871 11.068C143.212 11.0771 138.43 11.0806 133.617 11.0817L125.989 11.0829C120.499 11.0832 115.033 11.0835 109.727 11.0894C109.654 11.0894 109.573 11.0929 109.491 11.0982L109.466 11.1L109.434 11.1023C109.334 11.1102 109.231 11.1223 109.127 11.139L109.056 11.1517C109.012 11.1599 108.971 11.1678 108.931 11.1772C108.895 11.1848 108.861 11.1931 108.829 11.2025L108.774 11.2171C108.725 11.2312 108.678 11.2471 108.632 11.2644C108.57 11.2894 108.527 11.3088 108.487 11.3302C108.446 11.3522 108.414 11.3728 108.385 11.3945L108.372 11.4042C108.299 11.4562 108.239 11.5029 108.182 11.5505L108.16 11.5702L108.159 11.571L108.142 11.5869C108.106 11.6186 108.071 11.6509 108.039 11.6841L108.005 11.722L107.977 11.7531L107.957 11.7746C107.942 11.7907 107.927 11.8072 107.913 11.8236L107.894 11.8459C107.87 11.8759 107.857 11.8956 107.845 11.9147L107.819 11.954L107.793 11.9904C107.782 12.0057 107.772 12.0213 107.762 12.0365C107.739 12.075 107.722 12.1141 107.704 12.1528L107.681 12.2007L107.667 12.231C107.663 12.2421 107.656 12.2621 107.649 12.2821C107.64 12.3088 107.63 12.3425 107.622 12.376C107.618 12.3919 107.613 12.4075 107.608 12.4227C107.606 12.4386 107.602 12.4521 107.6 12.4656C107.597 12.4841 107.595 12.5017 107.593 12.5193C107.59 12.5493 107.588 12.5787 107.587 12.6072L107.587 12.6336C107.588 12.6821 107.591 12.7205 107.598 12.7575C107.607 12.8028 107.617 12.8365 107.628 12.8703C107.731 13.1393 107.963 13.3085 108.304 13.3772C109.43 13.6186 110.555 13.8568 111.68 14.0953C114.795 14.7555 118.016 15.438 121.151 16.1643C123.487 16.7035 125.427 17.5707 126.917 18.7408C127.613 19.2876 128.144 19.9425 128.496 20.6891L130.948 20.6888C138.236 20.6885 145.773 20.6882 152.92 20.6741C152.945 20.6741 152.97 20.6729 152.996 20.6712C153.041 20.668 153.088 20.6621 153.136 20.6536C153.186 20.6456 153.235 20.6351 153.286 20.6227C153.337 20.6104 153.39 20.5957 153.443 20.5795C153.496 20.5628 153.549 20.5449 153.602 20.5249L153.627 20.5149L153.659 20.5017L153.701 20.485L153.756 20.4627L153.791 20.4465L153.822 20.4318L154.15 20.2521L154.182 20.2306L154.217 20.2069C154.236 20.1925 154.256 20.1775 154.275 20.1625C155.249 19.376 156.221 18.5866 157.191 17.7963C159.028 16.2994 160.841 14.8121 162.998 13.0398L164.331 11.944L165.897 10.6577L165.92 10.6386C165.942 10.6204 165.964 10.6013 165.985 10.5822L166.009 10.5619L166.038 10.5367L166.075 10.5041C166.112 10.4709 166.15 10.4354 166.188 10.4004L166.214 10.376L166.252 10.3411L166.36 10.2386L166.436 10.1669C166.471 10.1334 166.508 10.0988 166.547 10.063L161.71 0.425659L161.701 0.43447Z" fill="#404041" fill-opacity="0.25"/>
<path d="M39.4237 19.4697L39.4665 19.349L17.6556 39.3106C17.5976 39.3643 17.5403 39.4141 17.4829 39.4608L17.4472 39.4888L17.4294 39.5022L17.4282 39.5031L17.406 39.5198C16.9869 39.8419 16.5719 39.9789 16.0182 39.9789C14.5647 39.9736 13.119 39.9714 11.6739 39.969L10.8129 39.9674L9.75855 39.9652C9.2432 39.9637 8.72785 39.9621 8.21426 39.9621C7.1385 39.9621 6.06127 39.9665 4.98433 39.9709L3.79532 39.976L2.69322 39.9786C2.08129 39.9795 1.46996 39.9806 0.857161 39.985H0.856865C0.737465 39.985 0.630943 39.9797 0.530275 39.9696C0.529689 39.9692 0.529103 39.9692 0.528809 39.9692L5.29016 49.4573C5.31531 49.5073 5.42828 49.591 5.90265 49.591C8.1809 49.5753 10.5885 49.5683 13.263 49.5683C15.8605 49.5683 18.4569 49.5751 21.0678 49.5848C21.1322 49.5848 21.1945 49.5831 21.2548 49.5786C21.2908 49.5753 21.3195 49.5716 21.3482 49.5679L21.3716 49.5645L21.4091 49.5604L21.4398 49.5566H21.4407L21.4626 49.5522C21.4913 49.5469 21.5246 49.5408 21.5568 49.5331L21.5779 49.5269L21.5791 49.5267L21.5999 49.5212L21.6473 49.5079C21.6748 49.4993 21.7002 49.4905 21.726 49.4811L21.7272 49.4806L21.7608 49.467L21.7956 49.4529C21.8231 49.441 21.8474 49.4297 21.8717 49.4176L21.901 49.4022L21.9016 49.4018L21.9311 49.3864C21.9745 49.3621 22.0028 49.3452 22.0309 49.3273L22.0333 49.3258L22.061 49.3064L22.0926 49.2846L22.0939 49.2842L22.1134 49.2705C22.1439 49.2491 22.1589 49.2375 22.1738 49.2253L22.1993 49.2053L22.2004 49.2044L22.2188 49.1901L22.2467 49.1687L22.2486 49.167L22.2653 49.154C22.3064 49.1196 22.352 49.0793 22.3985 49.0361L32.5927 39.7062C32.3574 39.4192 32.5154 38.9767 32.6004 38.7379C34.3677 33.7925 36.1422 28.7645 37.8583 23.9027L39.4237 19.4697Z" fill="#404041" fill-opacity="0.25"/>
<path d="M62.4657 33.7859C64.5412 32.084 66.6364 30.3976 68.6813 28.6729C69.2947 28.1569 69.8059 27.9544 70.5678 27.9544C73.8842 27.961 77.1999 27.9655 80.515 27.9677C83.5039 25.5166 86.4852 23.0712 89.4539 20.6355L88.0821 17.9025C88.0848 17.9078 88.0881 17.9125 88.0907 17.9175C87.2031 16.1639 87.3161 13.9486 88.5992 11.7163C89.432 10.2643 90.8986 8.82908 92.3518 7.5912C94.3427 5.89488 96.6299 4.61029 99.0502 3.67078L97.4216 0.426147L97.3659 0.480478L97.2583 0.584738L97.2263 0.615282L97.2013 0.638775L97.1782 0.660804C97.1466 0.69076 97.115 0.720714 97.0843 0.748907L97.0415 0.786207L97.0167 0.80794L96.9967 0.825855C96.9647 0.854636 96.9322 0.883121 96.899 0.910436L94.9191 2.5351C80.2123 14.6027 65.0052 27.0804 50.026 39.3357C49.9766 39.376 49.9218 39.4152 49.8638 39.4531C49.7958 39.4978 49.7392 39.5307 49.6808 39.5624L49.6338 39.5875C49.5853 39.6126 49.5355 39.6368 49.4846 39.6602L49.4301 39.6853C49.3691 39.7137 49.3063 39.739 49.2422 39.7606L49.2063 39.7734C49.1419 39.7958 49.0895 39.8133 49.0373 39.8291C49.014 39.8362 48.9912 39.8421 48.9681 39.8483C48.9157 39.8624 48.8724 39.874 48.8292 39.8837C48.802 39.8899 48.7741 39.8958 48.746 39.9011C48.7056 39.9091 48.6668 39.9155 48.6284 39.9214C48.5976 39.9258 48.5671 39.9293 48.537 39.9324C48.4809 39.9381 48.4258 39.943 48.3755 39.9434C45.8146 39.9639 43.2174 39.965 40.7056 39.9659C38.3528 39.9668 35.9196 39.9681 33.5215 39.9851C33.4082 39.9851 33.3064 39.9809 33.2151 39.9718L37.9816 49.4694C37.9959 49.4981 38.0806 49.591 38.5687 49.591C40.9668 49.5743 43.4009 49.5729 45.7542 49.5721C48.2651 49.5712 50.8616 49.5701 53.4217 49.5496C53.4456 49.5492 53.4704 49.5483 53.4958 49.5463L53.5 49.5456L53.5404 49.541C53.563 49.5386 53.5872 49.5355 53.6126 49.532L53.617 49.5311L53.6405 49.5287L53.6807 49.5214L53.6824 49.521L53.7057 49.5161C53.7325 49.5108 53.7553 49.506 53.779 49.5007L53.7827 49.4998L53.8036 49.4961L53.8565 49.482L53.8889 49.4725L53.9137 49.4661L53.9565 49.4544L53.9607 49.4531L53.9787 49.4478C54.0162 49.4364 54.0533 49.4229 54.0909 49.4097L54.1183 49.4007L54.1216 49.3992L54.1411 49.3928C54.1938 49.3729 54.2447 49.3527 54.2948 49.3307L54.3305 49.3144L54.3648 49.2985C54.3876 49.2881 54.4102 49.2778 54.4317 49.267L54.4497 49.2575L54.4745 49.2443L54.5129 49.2238L54.5156 49.2227L54.534 49.213C54.5816 49.1862 54.6143 49.1668 54.6457 49.1469L54.7895 49.0434C55.9196 48.119 57.0515 47.1923 58.184 46.2655L54.9993 39.9199L62.4657 33.7859Z" fill="#404041" fill-opacity="0.25"/>
<path d="M21.4214 20.3403L20.8794 21.8736L32.8876 10.8818L33.0592 10.3952L33.1424 10.1599L28.3752 0.661255L22.5688 17.0927L21.4214 20.3403Z" fill="#404041" fill-opacity="0.25"/>
<path d="M39.4235 19.4697L39.4661 19.349L17.6556 39.3106C17.5976 39.3643 17.5403 39.4141 17.4829 39.4608L17.4472 39.4888L17.4294 39.5022L17.4282 39.5031L17.406 39.5198C16.9869 39.8419 16.5719 39.9789 16.0179 39.9789C14.5647 39.9736 13.119 39.9714 11.6739 39.969L10.8129 39.9674L9.75855 39.9652C9.2432 39.9637 8.72785 39.9621 8.21397 39.9621C7.1385 39.9621 6.06127 39.9665 4.98433 39.9709L3.79532 39.976L2.69292 39.9786C2.08129 39.9795 1.46996 39.9806 0.857157 39.9848H0.856865C0.737465 39.9848 0.630943 39.9797 0.530275 39.9696C0.529689 39.9692 0.529103 39.9692 0.528809 39.9692L5.29016 49.4573C5.31531 49.5073 5.42828 49.591 5.90265 49.591C8.1809 49.5753 10.5885 49.5683 13.263 49.5683C15.8605 49.5683 18.4566 49.5751 21.0678 49.5848C21.1322 49.5848 21.1945 49.5831 21.2548 49.5786C21.2908 49.5753 21.3195 49.5716 21.3482 49.5679L21.3716 49.5645L21.4091 49.5601L21.4398 49.5566H21.4407L21.4626 49.5522C21.4913 49.5469 21.5246 49.5408 21.5568 49.5331L21.5779 49.5269L21.5788 49.5267L21.5999 49.5212L21.6473 49.5079C21.6745 49.4993 21.7002 49.4905 21.726 49.4811L21.7272 49.4806L21.7608 49.467L21.7956 49.4529C21.8231 49.441 21.8474 49.4297 21.8717 49.4176L21.901 49.4022L21.9016 49.4018L21.9311 49.3864C21.9745 49.3621 22.0028 49.3452 22.0309 49.3273L22.0333 49.3258L22.0614 49.3064L22.0926 49.2846L22.0939 49.2842L22.1134 49.2705C22.1439 49.2491 22.1589 49.2375 22.1738 49.2253L22.1993 49.2053L22.2001 49.2044L22.2188 49.1901L22.2467 49.1687L22.2486 49.167L22.2651 49.154C22.3064 49.1196 22.352 49.0793 22.3985 49.0361L32.5927 39.7062C32.3579 39.4192 32.5154 38.9767 32.6004 38.7379C34.3677 33.7921 36.1422 28.7645 37.8583 23.9027L39.4235 19.4697Z" fill="#404041" fill-opacity="0.25"/>
<path d="M53.0774 21.9007L65.363 10.9568L65.5638 10.4102L65.6688 10.1244L60.8985 0.619019L60.2782 2.30623L56.9096 11.4742L53.0774 21.9007Z" fill="#404041" fill-opacity="0.25"/>
<path d="M161.701 0.43447L161.669 0.464719L161.621 0.509948C161.446 0.675001 161.296 0.817437 161.135 0.9493L161.021 1.04269L160.907 1.13667L159.326 2.43536L158.236 3.3308L157.641 3.81919L157.16 4.21302C156.421 4.81979 155.682 5.42595 154.942 6.03184C153.351 7.33521 151.461 8.88029 149.509 10.4565C149.465 10.4926 149.416 10.5276 149.364 10.5619L149.363 10.5631L149.349 10.5725C149.344 10.5751 149.34 10.5781 149.336 10.5804L149.335 10.581H149.335C149.303 10.6022 149.281 10.6142 149.26 10.6265L149.236 10.6401C148.803 10.8958 148.254 11.068 147.872 11.068C143.213 11.0771 138.43 11.0806 133.618 11.0817L125.989 11.0829C120.499 11.0832 115.033 11.0835 109.727 11.0894C109.654 11.0894 109.574 11.0929 109.492 11.0982L109.466 11.1L109.434 11.1023C109.335 11.1102 109.231 11.1223 109.128 11.139L109.056 11.1517C109.012 11.1599 108.971 11.1678 108.931 11.1772C108.896 11.1848 108.862 11.1931 108.829 11.2022L108.775 11.2171C108.726 11.2312 108.678 11.2471 108.632 11.2644C108.57 11.2894 108.528 11.3088 108.488 11.3302C108.446 11.3522 108.414 11.3728 108.385 11.3945L108.373 11.4042C108.299 11.4562 108.239 11.5029 108.182 11.5505L108.161 11.5702L108.159 11.571L108.142 11.5869C108.106 11.6186 108.071 11.6509 108.039 11.6841L108.005 11.722L107.977 11.7531L107.957 11.7746C107.943 11.7907 107.928 11.8072 107.914 11.8236L107.894 11.8459C107.87 11.8759 107.857 11.8956 107.845 11.9147L107.819 11.954L107.794 11.9904C107.783 12.0057 107.772 12.021 107.763 12.0365C107.74 12.075 107.722 12.1141 107.704 12.1528L107.681 12.2007L107.667 12.231C107.663 12.2421 107.656 12.2621 107.649 12.2821C107.641 12.3088 107.631 12.3425 107.622 12.376C107.618 12.3919 107.614 12.4075 107.609 12.4227C107.606 12.4386 107.603 12.4521 107.6 12.4656C107.597 12.4841 107.595 12.5017 107.593 12.5193C107.59 12.5493 107.588 12.5787 107.588 12.6072V12.6336C107.589 12.6821 107.591 12.7205 107.598 12.7575C107.607 12.8028 107.617 12.8365 107.629 12.8703C107.731 13.1393 107.963 13.3085 108.304 13.3772C109.431 13.6186 110.555 13.8568 111.68 14.0953C114.796 14.7555 118.017 15.4377 121.151 16.1643C123.487 16.7035 125.427 17.5704 126.917 18.7408C127.613 19.2876 128.144 19.9425 128.497 20.6891L130.948 20.6888C138.237 20.6885 145.774 20.6882 152.92 20.6741C152.945 20.6741 152.97 20.6729 152.996 20.6712C153.041 20.668 153.088 20.6621 153.137 20.6536C153.186 20.6456 153.236 20.6351 153.286 20.6227C153.337 20.6104 153.39 20.5957 153.442 20.5795C153.496 20.5628 153.549 20.5449 153.602 20.5249L153.627 20.5149L153.66 20.5017L153.701 20.485L153.757 20.4627L153.792 20.4465L153.822 20.4318L154.151 20.2521L154.182 20.2306L154.217 20.2069C154.237 20.1925 154.256 20.1775 154.275 20.1625C155.249 19.376 156.221 18.5866 157.191 17.7963C159.028 16.2994 160.841 14.8121 162.998 13.0398L164.332 11.944L165.897 10.6577L165.921 10.6386C165.942 10.6204 165.964 10.6013 165.986 10.5822L166.009 10.5619L166.038 10.5367L166.075 10.5041C166.112 10.4709 166.15 10.4354 166.188 10.4004L166.214 10.376L166.252 10.3411L166.36 10.2386L166.436 10.1669C166.472 10.1334 166.509 10.0988 166.547 10.063L161.71 0.425659L161.701 0.43447Z" fill="#404041" fill-opacity="0.25"/>
<path d="M62.4657 33.7859C64.5409 32.084 66.6364 30.3976 68.6813 28.6729C69.2947 28.1569 69.8059 27.9544 70.5678 27.9544C73.8842 27.961 77.1999 27.9655 80.515 27.9677C83.5039 25.5166 86.4852 23.0712 89.4539 20.6355L88.0821 17.9025C88.0848 17.9078 88.0881 17.9125 88.0907 17.9175C87.2031 16.1639 87.3161 13.9486 88.5992 11.7163C89.432 10.2643 90.8986 8.82908 92.3522 7.5912C94.3427 5.89488 96.6299 4.61029 99.0502 3.67078L97.4216 0.426147L97.3659 0.480478L97.2583 0.584738L97.2263 0.615282L97.2013 0.638775L97.1782 0.660804C97.1466 0.69076 97.115 0.720716 97.0843 0.748614L97.0415 0.786207L97.0167 0.80794L96.9967 0.825855C96.9647 0.854636 96.9322 0.883121 96.899 0.910436L94.9191 2.5351C80.2123 14.6027 65.0052 27.0804 50.026 39.3357C49.9766 39.376 49.9218 39.4152 49.8638 39.4531C49.7958 39.4978 49.7392 39.5307 49.6808 39.5624L49.6338 39.5875C49.5853 39.6126 49.5355 39.6368 49.4846 39.6602L49.4301 39.6853C49.3691 39.7137 49.3063 39.739 49.2422 39.7606L49.206 39.7734C49.1419 39.7958 49.0895 39.8133 49.0373 39.8291C49.014 39.8362 48.9912 39.8421 48.9681 39.8483C48.9157 39.8624 48.8724 39.874 48.8292 39.8837C48.802 39.8899 48.7741 39.8958 48.746 39.9011C48.7056 39.9091 48.6668 39.9155 48.6284 39.9214C48.5976 39.9258 48.5671 39.9293 48.537 39.9324C48.4809 39.9381 48.4258 39.943 48.3755 39.9434C45.8146 39.9639 43.2174 39.965 40.7056 39.9659C38.3528 39.9668 35.9196 39.9681 33.5215 39.9848C33.4082 39.9848 33.3064 39.9809 33.2151 39.9718L37.9816 49.4694C37.9959 49.4981 38.0806 49.591 38.5687 49.591C40.9668 49.5743 43.4009 49.5729 45.7546 49.5721C48.2651 49.5712 50.8616 49.5701 53.4217 49.5496C53.4458 49.5492 53.4704 49.5483 53.4958 49.5463L53.5 49.5456L53.5404 49.541C53.563 49.5386 53.5872 49.5355 53.6126 49.532L53.617 49.5311L53.6405 49.5287L53.6807 49.5214L53.6824 49.521L53.7057 49.5161C53.7325 49.5108 53.7553 49.506 53.7785 49.5007L53.7827 49.4998L53.8036 49.4958L53.8567 49.482L53.8889 49.4725L53.9137 49.4661L53.9565 49.4544L53.9607 49.4531L53.9787 49.4478C54.0162 49.4364 54.0533 49.4229 54.0909 49.4097L54.1183 49.4007L54.1214 49.3992L54.1411 49.3928C54.1938 49.3729 54.2447 49.3527 54.2948 49.3307L54.3305 49.3144L54.3648 49.2985C54.3876 49.2881 54.4102 49.2778 54.4317 49.267L54.4497 49.2575L54.4745 49.2443L54.5129 49.2238L54.5156 49.2227L54.534 49.213C54.5816 49.1862 54.6143 49.1668 54.6455 49.1469L54.7895 49.0434C55.9196 48.119 57.0515 47.1923 58.184 46.2655L54.9989 39.9199L62.4657 33.7859Z" fill="#404041" fill-opacity="0.25"/>
<path d="M128.567 25.5844L128.558 25.609C128.511 25.7474 128.46 25.8855 128.406 26.0236L128.361 26.139C128.3 26.2879 128.237 26.4363 128.169 26.5848L128.159 26.6185L128.148 26.6315C128.082 26.7742 128.01 26.9161 127.938 27.0582L127.878 27.1716C127.798 27.3231 127.715 27.4747 127.627 27.6245C127.538 27.7762 127.446 27.9249 127.351 28.0729L127.279 28.1839C127.182 28.3315 127.083 28.4791 126.979 28.6247C126.823 28.843 126.652 29.0705 126.455 29.3207C126.316 29.4976 126.174 29.6722 126.028 29.8432L125.999 29.8769L125.978 29.9015C125.842 30.0599 125.704 30.2156 125.564 30.3683L125.444 30.4976L125.417 30.5249C125.3 30.6502 125.181 30.7742 125.06 30.8963L125.02 30.9368L124.917 31.0399C124.849 31.1073 124.78 31.1727 124.71 31.2385L124.641 31.3042L124.609 31.3346C124.516 31.4227 124.424 31.511 124.329 31.5971C124.255 31.6643 124.18 31.7304 124.104 31.7963L124.054 31.8408L124.019 31.8705C123.924 31.954 123.829 32.0377 123.732 32.1189C123.619 32.2141 123.503 32.3077 123.388 32.4002L123.317 32.4573C123.267 32.4987 123.216 32.5399 123.164 32.58C123.031 32.6844 122.895 32.7859 122.759 32.8874L122.684 32.9443C122.646 32.9727 122.608 33.0015 122.569 33.0297C122.372 33.1729 122.173 33.3134 121.971 33.4504L121.9 33.4976L121.842 33.5359C121.68 33.6443 121.517 33.7513 121.352 33.8557C121.303 33.8872 121.252 33.9183 121.202 33.9489L121.133 33.9921C120.994 34.0775 120.855 34.1623 120.714 34.2456C120.634 34.2936 120.552 34.341 120.47 34.3885C120.335 34.4661 120.199 34.543 120.062 34.6192C119.972 34.6681 119.883 34.7172 119.794 34.7656C119.653 34.8412 119.511 34.9152 119.368 34.9888L119.296 35.0258C119.235 35.0579 119.173 35.0896 119.111 35.1207C118.986 35.1835 118.86 35.2447 118.733 35.3057L118.693 35.3249L118.595 35.3727C118.526 35.4055 118.458 35.4388 118.39 35.4711C118.263 35.5304 118.134 35.5883 118.005 35.6458L117.943 35.6738L117.842 35.7196C117.781 35.7474 117.719 35.7753 117.656 35.8026C117.415 35.9077 117.172 36.0115 116.926 36.1112C116.56 36.2601 116.173 36.4108 115.708 36.5859C115.612 36.6218 115.517 36.6564 115.422 36.6916L115.34 36.7216C115.053 36.8267 114.766 36.9293 114.478 37.0284L114.425 37.0469C114.319 37.0837 114.213 37.1205 114.107 37.1562C113.755 37.2751 113.404 37.3892 113.052 37.4993L112.986 37.5205L112.904 37.5465L112.827 37.57L112.772 37.5866C112.51 37.6667 112.248 37.7443 111.986 37.82L111.773 37.8808L111.703 37.9007C111.478 37.9637 111.255 38.0253 111.03 38.0852L110.976 38.0998L110.766 38.1566C110.462 38.2359 110.159 38.3134 109.855 38.3868L109.714 38.42L109.607 38.4443C109.359 38.5037 109.11 38.5628 108.861 38.6183C108.784 38.6352 108.707 38.6513 108.63 38.6678L108.486 38.698L108.376 38.7218C108.207 38.7584 108.038 38.7949 107.868 38.8297C107.777 38.8478 107.686 38.8654 107.595 38.883L107.448 38.9117L107.306 38.9394C107.162 38.9674 107.018 38.9956 106.875 39.0222C106.78 39.0394 106.686 39.0557 106.592 39.0722L106.438 39.0996L106.321 39.12C106.179 39.1452 106.037 39.1703 105.895 39.1938C105.503 39.2593 105.11 39.3207 104.718 39.3782L104.572 39.3985L104.454 39.415C104.145 39.4588 103.836 39.5002 103.527 39.5394L103.204 39.5789L103.14 39.5868C102.859 39.6205 102.577 39.652 102.296 39.6822L102.226 39.6896L101.937 39.7205C101.545 39.7601 101.153 39.7974 100.762 39.83C100.444 39.8566 100.127 39.8795 99.8107 39.902C99.6838 39.9108 99.5565 39.9189 99.4296 39.9269L99.3546 39.9319C99.1509 39.9445 98.9474 39.9575 98.7446 39.9689C98.5908 39.9773 98.4371 39.9857 98.2837 39.9936C98.0818 40.0035 97.8805 40.0132 97.6788 40.022L97.2221 40.0408C97.0186 40.0485 96.816 40.0557 96.6136 40.0623C96.4637 40.0676 96.3134 40.0725 96.1633 40.0769C95.9574 40.0828 95.7517 40.0879 95.5463 40.0923L95.4359 40.0949L95.1133 40.1024C94.8968 40.1064 94.6813 40.1101 94.4658 40.1134L94.3154 40.1156L94.0641 40.1192C93.8293 40.1222 93.5953 40.1245 93.3611 40.1267L93.191 40.128L93.0205 40.1295C92.6754 40.1319 92.3304 40.1337 91.986 40.1346C87.3189 40.1465 82.185 40.1524 75.829 40.1524C72.599 40.1524 69.3695 40.1509 66.14 40.1496H65.9871H65.6535C62.5859 40.148 59.5191 40.1469 56.4509 40.1469H55.3665L58.3633 46.1183L58.4612 46.3134L60.1067 49.591H61.419C64.6491 49.591 67.8784 49.5923 71.1081 49.5938C74.3373 49.5954 77.567 49.5967 80.797 49.5967C87.1517 49.5967 92.2854 49.591 96.9527 49.5789C97.2967 49.578 97.6408 49.576 97.9852 49.5742L98.2097 49.5718L98.325 49.5707C98.564 49.5685 98.7949 49.5665 99.0264 49.5637L99.2677 49.5601L99.427 49.5577C99.6419 49.5542 99.857 49.5507 100.072 49.5469L100.394 49.5394L100.503 49.5368C100.708 49.5322 100.913 49.5269 101.118 49.5214L101.473 49.5104L101.567 49.5073C101.768 49.5007 101.969 49.4934 102.17 49.4857L102.629 49.4663C102.828 49.4579 103.027 49.4485 103.226 49.4381C103.381 49.4302 103.535 49.4222 103.689 49.4139C103.889 49.4026 104.09 49.3903 104.291 49.3773C104.443 49.3674 104.596 49.3577 104.749 49.3471L104.836 49.3416L104.94 49.3346L105.173 49.3245C107.079 49.2421 108.98 49.0689 110.87 48.8062L110.917 48.7989L110.943 48.7947C111.039 48.7786 111.137 48.7606 111.236 48.743L111.411 48.7117L111.535 48.6901C111.637 48.6722 111.739 48.6546 111.841 48.6359C111.996 48.6073 112.151 48.5769 112.307 48.5465L112.414 48.5253L112.561 48.4971C112.65 48.48 112.738 48.4626 112.827 48.4447C112.995 48.4106 113.163 48.3745 113.331 48.3383L113.44 48.3145L113.587 48.2835C113.662 48.2676 113.737 48.252 113.812 48.235C114.058 48.18 114.305 48.1218 114.552 48.0632L114.662 48.0377L114.797 48.006C115.105 47.9313 115.403 47.8548 115.7 47.7769L115.872 47.7311L115.963 47.7066C116.185 47.6474 116.408 47.5861 116.63 47.5233L116.909 47.4441C117.171 47.3685 117.432 47.291 117.693 47.2115L117.749 47.1945L117.819 47.1734L117.849 47.1641L117.909 47.1447L117.969 47.1253C118.317 47.0167 118.663 46.9037 119.011 46.7866L119.29 46.6905L119.381 46.6593C119.665 46.561 119.949 46.4593 120.233 46.3553L120.341 46.3172C120.382 46.3029 120.423 46.2881 120.464 46.2729L120.531 46.2467L120.598 46.2209C121.059 46.0476 121.443 45.898 121.805 45.7507C122.033 45.6575 122.26 45.5621 122.485 45.4643L122.486 45.4641L122.524 45.4469C122.585 45.4203 122.645 45.393 122.704 45.3659L122.807 45.3192L122.851 45.2998C122.984 45.2403 123.116 45.1808 123.247 45.1198C123.314 45.0883 123.38 45.0564 123.446 45.024L123.546 44.9756L123.663 44.92C123.733 44.8866 123.804 44.8529 123.873 44.8183L123.916 44.7963L123.958 44.7747C124.02 44.7436 124.081 44.7121 124.142 44.6802L124.21 44.6449C124.351 44.5727 124.49 44.4996 124.629 44.4253C124.717 44.378 124.804 44.3297 124.891 44.2813L124.978 44.2341C125.021 44.2112 125.064 44.1879 125.106 44.1645L125.211 44.1033L125.293 44.0546C125.374 44.0082 125.454 43.9619 125.534 43.9148C125.672 43.8333 125.808 43.7498 125.944 43.6654L126.008 43.6262C126.059 43.5947 126.11 43.5639 126.159 43.5319L126.202 43.5057L126.239 43.4826C126.365 43.4024 126.488 43.3196 126.612 43.2363L126.639 43.2187L126.703 43.1764L126.767 43.1348L127.466 42.637L127.539 42.5822C127.672 42.483 127.805 42.3839 127.935 42.2819C127.986 42.2421 128.037 42.2011 128.087 42.1604L128.154 42.1064L128.247 42.0324C128.3 41.9896 128.354 41.9474 128.406 41.904L128.447 41.8685L128.489 41.8315C128.589 41.748 128.686 41.6632 128.782 41.5782L128.805 41.5593L128.856 41.5137C128.929 41.45 129.002 41.3861 129.074 41.3209C129.167 41.2361 129.258 41.1491 129.35 41.0626L129.379 41.0344L129.464 40.9548C129.502 40.9198 129.54 40.8848 129.577 40.8487L129.613 40.813L129.648 40.7769L129.742 40.6826L129.788 40.6361C129.905 40.5172 130.022 40.3967 130.137 40.2742L130.172 40.2361L130.279 40.1209C130.416 39.9711 130.551 39.82 130.684 39.6654L130.711 39.6344L130.733 39.609C130.86 39.4597 130.985 39.3084 131.107 39.1548L131.123 39.133L131.149 39.0993C131.341 38.8557 131.508 38.6341 131.66 38.4205C131.76 38.28 131.856 38.1372 131.95 37.9945L132.019 37.8874C132.109 37.748 132.196 37.6077 132.279 37.467L132.282 37.4606L132.293 37.443C132.37 37.3104 132.45 37.1648 132.527 37.0185L132.584 36.9095C132.659 36.7632 132.732 36.6174 132.8 36.4703C132.868 36.3225 132.93 36.1756 132.99 36.0282L133.034 35.9178L133.053 35.8694L133.078 35.8064C133.114 35.7119 133.147 35.6176 133.179 35.5231L133.19 35.4916L133.199 35.4654C133.248 35.3181 133.292 35.1709 133.333 35.0245L133.354 34.9447L133.364 34.9057C133.393 34.7919 133.421 34.6778 133.445 34.5641L133.454 34.5244L133.47 34.4476L133.478 34.4121L133.484 34.3826C133.494 34.3319 133.501 34.2817 133.508 34.2308L133.52 34.1518L133.531 34.0861C133.537 34.0467 133.544 34.0079 133.549 33.9689C133.563 33.8623 133.572 33.7559 133.58 33.65L133.587 33.5839C133.59 33.5575 133.592 33.5313 133.594 33.5051C133.603 33.3526 133.605 33.217 133.604 33.0826L133.602 33.013L133.601 32.9689L133.599 32.9066C133.598 32.8654 133.598 32.8245 133.595 32.7839C133.594 32.7533 133.591 32.7231 133.587 32.6927L133.583 32.6381L133.58 32.6086L133.575 32.5474C133.562 32.4271 133.548 32.3068 133.527 32.1883L133.519 32.1491L133.513 32.1187L133.507 32.0874L133.284 31.296L133.276 31.2729L133.26 31.2326L133.248 31.2002L133.239 31.176C133.193 31.0634 133.143 30.9526 133.088 30.8438L128.777 21.798L128.941 22.6652C128.991 22.9295 129.013 23.1991 128.997 23.4676C128.997 23.4694 128.997 23.4707 128.997 23.4722C128.995 23.5046 128.991 23.5374 128.988 23.57L128.983 23.6267C128.973 23.7401 128.964 23.8535 128.949 23.9674C128.943 24.0115 128.936 24.0555 128.928 24.0998L128.918 24.1621C128.9 24.2778 128.885 24.3769 128.865 24.476L128.847 24.5604L128.839 24.5993C128.813 24.7196 128.784 24.8396 128.753 24.9604L128.744 24.9965L128.72 25.0855C128.678 25.2396 128.631 25.3945 128.58 25.5489L128.567 25.5844Z" fill="#404041" fill-opacity="0.25"/>
<path d="M21.4214 20.3403L20.8794 21.8736L32.8872 10.8818L33.0597 10.3952L33.1424 10.1599L28.3752 0.661255L22.5688 17.0927L21.4214 20.3403Z" fill="#404041" fill-opacity="0.25"/>
<path d="M39.4237 19.4697L39.4665 19.349L17.6556 39.3106C17.5976 39.3643 17.5403 39.4141 17.4829 39.4608L17.4472 39.4888L17.4294 39.5022L17.4282 39.5031L17.406 39.5198C16.9869 39.8419 16.5719 39.9789 16.0182 39.9789C14.5647 39.9736 13.119 39.9714 11.6739 39.969L10.8133 39.9674L9.75826 39.9652C9.2432 39.9637 8.72785 39.9621 8.21426 39.9621C7.1385 39.9621 6.06127 39.9665 4.98433 39.9709L3.79532 39.976L2.69292 39.9786C2.08129 39.9795 1.46996 39.9806 0.857161 39.985H0.856865C0.737465 39.985 0.630943 39.9797 0.530275 39.9696C0.529689 39.9692 0.529103 39.9692 0.528809 39.9692L5.29016 49.4573C5.31531 49.5073 5.42828 49.591 5.90237 49.591C8.18061 49.5753 10.5882 49.5683 13.263 49.5683C15.8605 49.5683 18.4569 49.5751 21.0678 49.5848C21.1319 49.5848 21.1948 49.5831 21.2548 49.5786C21.2908 49.5753 21.3195 49.5716 21.3482 49.5679L21.3716 49.5645L21.4091 49.5601L21.4398 49.5566H21.4407L21.4626 49.5522C21.4913 49.5469 21.5246 49.5408 21.5568 49.5331L21.5779 49.5269L21.5788 49.5267L21.5996 49.5212L21.6473 49.5079C21.6745 49.4993 21.7002 49.4905 21.726 49.4811L21.7272 49.4806L21.7608 49.467L21.7956 49.4529C21.8231 49.441 21.8474 49.4297 21.8717 49.4176L21.901 49.4022L21.9016 49.4018L21.9311 49.3864C21.9745 49.3621 22.0028 49.3452 22.0309 49.3273L22.0329 49.3258L22.061 49.3064L22.0926 49.2846L22.0939 49.2842L22.1134 49.2705C22.1439 49.2491 22.1589 49.2375 22.1738 49.2253L22.1993 49.2053L22.2001 49.2044L22.2188 49.1901L22.2467 49.1687L22.2486 49.167L22.2651 49.154C22.3064 49.1196 22.352 49.0793 22.3985 49.0361L32.5927 39.7062C32.3574 39.4192 32.5152 38.9767 32.6004 38.7379C34.3677 33.7921 36.142 28.7645 37.8583 23.9027L39.4237 19.4697Z" fill="#404041" fill-opacity="0.25"/>
<path d="M53.0774 21.9007L65.3628 10.9568L65.5638 10.4102L65.6688 10.1244L60.8985 0.619019L60.2782 2.30623L56.9096 11.4742L53.0774 21.9007Z" fill="#404041" fill-opacity="0.25"/>
<path d="M62.4657 33.7859C64.5409 32.084 66.6364 30.3976 68.6813 28.6729C69.2947 28.1569 69.8059 27.9544 70.5678 27.9544C73.8842 27.961 77.1999 27.9655 80.515 27.9677C83.5039 25.5166 86.4852 23.0712 89.4539 20.6355L88.0821 17.9025C88.0848 17.9078 88.0881 17.9125 88.0907 17.9175C87.2031 16.1639 87.3161 13.9486 88.5992 11.7163C89.432 10.2643 90.8986 8.82908 92.3518 7.5912C94.3427 5.89488 96.6299 4.61029 99.0502 3.67078L97.4216 0.426147L97.3659 0.480478L97.2585 0.584738L97.2263 0.615282L97.2013 0.638775L97.1782 0.660804C97.1466 0.69076 97.1152 0.720716 97.0843 0.748614L97.0415 0.786207L97.0167 0.80794L96.9967 0.825855C96.9647 0.854636 96.9322 0.883121 96.899 0.910436L94.9191 2.5351C80.2123 14.6027 65.0052 27.0804 50.026 39.3357C49.9766 39.376 49.9218 39.4152 49.8638 39.4531C49.7958 39.4978 49.7392 39.5307 49.6808 39.5624L49.6343 39.5875C49.5853 39.6126 49.5355 39.6368 49.4846 39.6602L49.4301 39.6853C49.3691 39.7137 49.3063 39.739 49.2422 39.7606L49.206 39.7734C49.1417 39.7958 49.0893 39.8133 49.0368 39.8291C49.014 39.8362 48.9912 39.8421 48.9681 39.8483C48.9157 39.8624 48.8724 39.874 48.8292 39.8837C48.802 39.8899 48.7741 39.8958 48.746 39.9011C48.7056 39.9091 48.6668 39.9155 48.6284 39.9214C48.5976 39.9258 48.5671 39.9293 48.537 39.9324C48.4809 39.9381 48.4258 39.943 48.3755 39.9434C45.8144 39.9639 43.217 39.965 40.7056 39.9659C38.3528 39.9668 35.9196 39.9681 33.5211 39.9851C33.4082 39.9851 33.3064 39.9809 33.2151 39.9718L37.9816 49.4694C37.9959 49.4981 38.0806 49.591 38.5687 49.591C40.9666 49.5743 43.4009 49.5729 45.7546 49.5721C48.2651 49.5712 50.8616 49.5701 53.4217 49.5496C53.4456 49.5492 53.4704 49.5483 53.4958 49.5463L53.5 49.5456L53.5404 49.541C53.563 49.5386 53.5872 49.5355 53.6126 49.532L53.617 49.5311L53.6405 49.5287L53.6807 49.5214L53.6824 49.521L53.7057 49.5161C53.7325 49.5108 53.7553 49.506 53.7785 49.5007L53.7827 49.4998L53.8031 49.4958L53.8565 49.482L53.8887 49.4725L53.9137 49.4661L53.9565 49.4544L53.9603 49.4531L53.9787 49.4478C54.0162 49.4364 54.0533 49.4229 54.0909 49.4097L54.1181 49.4007L54.1214 49.3992L54.1411 49.3928C54.1938 49.3729 54.2447 49.3527 54.2948 49.3307L54.3305 49.3144L54.3648 49.2985C54.3876 49.2881 54.4102 49.2778 54.4317 49.267L54.4497 49.2575L54.4745 49.2443L54.5129 49.2238L54.5156 49.2227L54.534 49.213C54.5816 49.1862 54.6141 49.1668 54.6455 49.1469L54.7895 49.0434C55.9196 48.119 57.0515 47.1923 58.1838 46.2655L54.9989 39.9199L62.4657 33.7859Z" fill="#404041" fill-opacity="0.25"/>
<path d="M161.701 0.43447L161.668 0.464719L161.621 0.509948C161.446 0.675001 161.295 0.817437 161.134 0.9493L161.021 1.04269L160.906 1.13667L159.326 2.43536L158.236 3.3308L157.64 3.81919L157.16 4.21302C156.421 4.81979 155.682 5.42595 154.942 6.03184C153.351 7.33521 151.46 8.88029 149.509 10.4565C149.464 10.4926 149.416 10.5276 149.364 10.5619L149.363 10.5631L149.348 10.5725C149.344 10.5751 149.34 10.5781 149.336 10.5804L149.335 10.581C149.303 10.6022 149.281 10.6142 149.26 10.6265L149.236 10.6401C148.803 10.8958 148.254 11.068 147.871 11.068C143.212 11.0771 138.43 11.0806 133.617 11.0817L125.989 11.0829C120.499 11.0832 115.033 11.0835 109.727 11.0894C109.653 11.0894 109.573 11.0929 109.491 11.0982L109.465 11.1L109.434 11.1023C109.334 11.1102 109.231 11.1223 109.127 11.139L109.056 11.1517C109.012 11.1599 108.971 11.1678 108.931 11.1772C108.895 11.1848 108.861 11.1931 108.829 11.2022L108.774 11.2171C108.725 11.2312 108.678 11.2471 108.632 11.2644C108.57 11.2894 108.527 11.3088 108.487 11.3302C108.446 11.3522 108.414 11.3728 108.385 11.3945L108.372 11.4042C108.299 11.4562 108.239 11.5029 108.182 11.5505L108.16 11.5702L108.159 11.571L108.142 11.5869C108.106 11.6186 108.071 11.6509 108.039 11.6841L108.005 11.722L107.977 11.7531L107.957 11.7746C107.942 11.7907 107.927 11.8072 107.913 11.8236L107.894 11.8459C107.87 11.8759 107.857 11.8956 107.844 11.9147L107.819 11.954L107.793 11.9904C107.782 12.0057 107.772 12.021 107.762 12.0365C107.739 12.075 107.722 12.1141 107.704 12.1528L107.681 12.2007L107.667 12.231C107.663 12.2421 107.656 12.2621 107.649 12.2821C107.64 12.3088 107.63 12.3425 107.622 12.376C107.618 12.3919 107.613 12.4075 107.608 12.4227C107.605 12.4386 107.602 12.4521 107.6 12.4656C107.597 12.4841 107.595 12.5017 107.593 12.5193C107.59 12.5493 107.587 12.5787 107.587 12.6072V12.6336C107.588 12.6821 107.591 12.7205 107.598 12.7575C107.607 12.8028 107.617 12.8365 107.628 12.8703C107.731 13.1393 107.962 13.3085 108.304 13.3772C109.43 13.6186 110.555 13.8568 111.68 14.0953C114.795 14.7555 118.016 15.4377 121.151 16.1643C123.487 16.7035 125.427 17.5704 126.917 18.7408C127.613 19.2876 128.144 19.9425 128.496 20.6891L130.948 20.6888C138.236 20.6885 145.773 20.6882 152.92 20.6741C152.945 20.6741 152.97 20.6729 152.996 20.6712C153.041 20.668 153.088 20.6621 153.136 20.6536C153.185 20.6456 153.235 20.6351 153.286 20.6227C153.337 20.6104 153.39 20.5957 153.442 20.5795C153.496 20.5628 153.549 20.5449 153.602 20.5249L153.627 20.5149L153.659 20.5017L153.701 20.485L153.756 20.4627L153.791 20.4465L153.822 20.4318L154.15 20.2521L154.182 20.2306L154.217 20.2069C154.236 20.1925 154.256 20.1775 154.275 20.1625C155.249 19.376 156.221 18.5866 157.191 17.7963C159.028 16.2994 160.841 14.8121 162.998 13.0398L164.331 11.944L165.897 10.6577L165.92 10.6386C165.942 10.6204 165.964 10.6013 165.985 10.5822L166.009 10.5619L166.037 10.5367L166.075 10.5041C166.112 10.4709 166.15 10.4354 166.188 10.4004L166.214 10.376L166.252 10.3411L166.36 10.2386L166.436 10.1669C166.471 10.1334 166.508 10.0988 166.547 10.063L161.71 0.425659L161.701 0.43447Z" fill="#404041" fill-opacity="0.25"/>
<path d="M128.567 25.5844L128.558 25.609C128.511 25.7474 128.46 25.8855 128.406 26.0236L128.36 26.139C128.3 26.2879 128.237 26.4363 128.169 26.5848L128.159 26.6185L128.148 26.6315C128.082 26.7742 128.01 26.9161 127.938 27.0582L127.878 27.1716C127.797 27.3231 127.715 27.4747 127.627 27.6245C127.538 27.7762 127.445 27.9249 127.351 28.0729L127.279 28.1839C127.182 28.3315 127.083 28.4791 126.979 28.6247C126.823 28.843 126.652 29.0705 126.454 29.3207C126.315 29.4976 126.174 29.6722 126.028 29.8432L125.999 29.8769L125.978 29.9015C125.842 30.0599 125.704 30.2156 125.564 30.3683L125.443 30.4976L125.417 30.5249C125.3 30.6502 125.181 30.7742 125.06 30.8963L125.019 30.9368L124.917 31.0399C124.849 31.1073 124.78 31.1727 124.71 31.2385L124.641 31.3042L124.609 31.3346C124.516 31.4227 124.424 31.511 124.329 31.5971C124.255 31.6643 124.18 31.7304 124.104 31.7963L124.054 31.8408L124.019 31.8705C123.924 31.954 123.829 32.0377 123.732 32.1189C123.619 32.2141 123.503 32.3077 123.388 32.4002L123.317 32.4573C123.267 32.4987 123.216 32.5399 123.164 32.58C123.031 32.6844 122.895 32.7859 122.759 32.8874L122.684 32.9443C122.646 32.9727 122.608 33.0015 122.569 33.0297C122.372 33.1729 122.173 33.3134 121.971 33.4504L121.9 33.4976L121.842 33.5359C121.68 33.6443 121.517 33.7513 121.352 33.8557C121.303 33.8872 121.252 33.9183 121.202 33.9489L121.133 33.9921C120.994 34.0775 120.855 34.1623 120.714 34.2456C120.634 34.2936 120.552 34.341 120.47 34.3885C120.335 34.4661 120.199 34.543 120.062 34.6192C119.972 34.6681 119.883 34.7172 119.794 34.7656C119.653 34.8412 119.511 34.9152 119.368 34.9888L119.296 35.0258C119.235 35.0579 119.173 35.0896 119.111 35.1207C118.986 35.1835 118.86 35.2447 118.733 35.3057L118.693 35.3249L118.595 35.3727C118.526 35.4055 118.458 35.4388 118.39 35.4711C118.263 35.5304 118.134 35.5883 118.005 35.6458L117.943 35.6738L117.842 35.7196C117.781 35.7474 117.719 35.7753 117.656 35.8029C117.415 35.9077 117.172 36.0115 116.926 36.1112C116.56 36.2601 116.173 36.4108 115.708 36.5859C115.612 36.6218 115.517 36.6564 115.422 36.6916L115.34 36.7216C115.053 36.8267 114.766 36.9293 114.478 37.0284L114.425 37.0469C114.319 37.0837 114.213 37.1205 114.107 37.1562C113.755 37.2751 113.404 37.3892 113.052 37.4993L112.986 37.5205L112.904 37.5465L112.827 37.57L112.772 37.5866C112.51 37.6667 112.248 37.7443 111.986 37.82L111.772 37.8808L111.703 37.9007C111.478 37.9637 111.255 38.0253 111.03 38.0852L110.976 38.0998L110.766 38.1566C110.462 38.2359 110.159 38.3134 109.855 38.3868L109.713 38.42L109.607 38.4443C109.359 38.5037 109.11 38.5628 108.861 38.6183C108.784 38.6352 108.707 38.6513 108.63 38.6678L108.486 38.698L108.376 38.7218C108.207 38.7584 108.038 38.7949 107.868 38.8297C107.777 38.8478 107.686 38.8659 107.595 38.883L107.448 38.9117L107.306 38.9394C107.162 38.9674 107.018 38.9956 106.875 39.0222C106.78 39.0394 106.686 39.0557 106.592 39.0722L106.438 39.0996L106.321 39.12C106.179 39.1452 106.037 39.1703 105.895 39.1938C105.503 39.2593 105.11 39.3207 104.718 39.3782L104.572 39.3985L104.454 39.415C104.145 39.4588 103.836 39.5002 103.527 39.5394L103.204 39.5789L103.14 39.5868C102.858 39.6205 102.577 39.652 102.296 39.6822L102.226 39.6896L101.937 39.7205C101.545 39.7601 101.153 39.7974 100.762 39.83C100.444 39.8566 100.127 39.8795 99.8107 39.902C99.6838 39.9108 99.5565 39.9189 99.4296 39.9269L99.3546 39.9319C99.1509 39.9445 98.9474 39.9575 98.7444 39.9689C98.5908 39.9773 98.4371 39.9857 98.2837 39.9936C98.0818 40.0035 97.8805 40.0132 97.6788 40.022L97.2221 40.0408C97.0186 40.0485 96.816 40.0557 96.6132 40.0623C96.4637 40.0676 96.3134 40.0725 96.1633 40.0769C95.9574 40.0828 95.7517 40.0879 95.5461 40.0923L95.4359 40.0949L95.1128 40.1024C94.8968 40.1064 94.6813 40.1101 94.4658 40.1134L94.3154 40.1156L94.0637 40.1192C93.8293 40.1222 93.5953 40.1245 93.3611 40.1267L93.1908 40.128L93.0207 40.1295C92.6754 40.1319 92.3304 40.1337 91.986 40.1346C87.3189 40.1465 82.185 40.1524 75.829 40.1524C72.5988 40.1524 69.3695 40.1509 66.14 40.1496H65.9871H65.6532C62.5859 40.148 59.5187 40.1469 56.4509 40.1469H55.3665L58.3633 46.1183L58.4614 46.3134L60.1067 49.591H61.419C64.6491 49.591 67.8784 49.5923 71.1081 49.5938C74.3373 49.5954 77.567 49.5967 80.797 49.5967C87.1517 49.5967 92.2854 49.591 96.9527 49.5789C97.2967 49.578 97.6408 49.576 97.9852 49.5742L98.2097 49.5718L98.3247 49.5707C98.564 49.5685 98.7949 49.5665 99.0262 49.5637L99.2677 49.5601L99.4268 49.5577C99.6419 49.5542 99.857 49.5507 100.072 49.5469L100.393 49.5394L100.503 49.5372C100.708 49.5322 100.913 49.5269 101.118 49.5214L101.473 49.5104L101.568 49.5073C101.768 49.5007 101.969 49.4934 102.17 49.4857L102.629 49.4663C102.828 49.4579 103.027 49.4485 103.226 49.4381C103.381 49.4302 103.535 49.4222 103.689 49.4139C103.889 49.4026 104.09 49.3903 104.291 49.3773C104.443 49.3674 104.596 49.3577 104.749 49.3471L104.836 49.3416L104.94 49.3346L105.173 49.3245C107.079 49.2421 108.98 49.0689 110.87 48.8062L110.917 48.7989L110.943 48.7947C111.039 48.7786 111.137 48.7606 111.236 48.743L111.411 48.7117L111.535 48.6901C111.637 48.6722 111.739 48.6546 111.841 48.6359C111.996 48.6073 112.151 48.5769 112.306 48.5465L112.414 48.5253L112.561 48.4971C112.65 48.48 112.738 48.4626 112.827 48.4447C112.995 48.4106 113.163 48.3745 113.331 48.3383L113.44 48.3145L113.587 48.2835C113.662 48.2676 113.737 48.252 113.812 48.235C114.058 48.18 114.305 48.1218 114.552 48.0632L114.661 48.0377L114.797 48.006C115.105 47.9313 115.403 47.8548 115.7 47.7769L115.872 47.7311L115.963 47.7066C116.185 47.6474 116.408 47.5861 116.63 47.5233L116.909 47.4441C117.171 47.3685 117.432 47.291 117.693 47.2115L117.749 47.1945L117.819 47.1734L117.849 47.1641L117.909 47.1447L117.969 47.1253C118.316 47.0167 118.663 46.9037 119.011 46.7866L119.29 46.6905L119.381 46.6593C119.665 46.561 119.949 46.4593 120.233 46.3553L120.341 46.3172C120.382 46.3029 120.423 46.2881 120.464 46.2729L120.531 46.2467L120.598 46.2209C121.059 46.0476 121.443 45.898 121.805 45.7507C122.033 45.6575 122.26 45.5621 122.485 45.4643L122.486 45.4641L122.524 45.4469C122.585 45.4203 122.645 45.393 122.704 45.3659L122.807 45.3192L122.851 45.2998C122.984 45.2403 123.116 45.1808 123.247 45.1198C123.314 45.0883 123.38 45.0564 123.446 45.024L123.546 44.9756L123.663 44.92C123.733 44.8866 123.804 44.8529 123.873 44.8183L123.916 44.7963L123.958 44.7747C124.02 44.7436 124.081 44.7121 124.142 44.6802L124.21 44.6449C124.351 44.5727 124.49 44.4996 124.629 44.4253C124.717 44.378 124.804 44.3297 124.891 44.2813L124.978 44.2341C125.021 44.2112 125.064 44.1879 125.106 44.1645L125.211 44.1033L125.293 44.0546C125.374 44.0082 125.454 43.9619 125.534 43.9148C125.672 43.8333 125.808 43.7498 125.944 43.6654L126.008 43.6262C126.059 43.5947 126.11 43.5639 126.159 43.5319L126.202 43.5057L126.239 43.4826C126.365 43.4024 126.488 43.3196 126.612 43.2368L126.639 43.2187L126.703 43.1764L126.767 43.1348L127.466 42.637L127.539 42.5822C127.672 42.483 127.805 42.3839 127.935 42.2819C127.986 42.2421 128.037 42.2011 128.087 42.1604L128.154 42.1064L128.247 42.0324C128.3 41.9896 128.354 41.9474 128.406 41.904L128.447 41.8685L128.489 41.8315C128.589 41.748 128.686 41.6632 128.782 41.5782L128.805 41.5593L128.856 41.5137C128.929 41.45 129.002 41.3861 129.074 41.3209C129.167 41.2361 129.258 41.1491 129.35 41.0626L129.379 41.0344L129.464 40.9548C129.502 40.9198 129.54 40.8848 129.577 40.8487L129.613 40.813L129.648 40.7769L129.742 40.6826L129.788 40.6361C129.905 40.5172 130.022 40.3967 130.137 40.2742L130.172 40.2361L130.279 40.1209C130.416 39.9711 130.551 39.82 130.684 39.6654L130.711 39.6344L130.733 39.609C130.86 39.4597 130.985 39.3084 131.107 39.1548L131.123 39.133L131.149 39.0993C131.341 38.8557 131.508 38.6341 131.66 38.4205C131.76 38.28 131.856 38.1372 131.95 37.9945L132.019 37.8874C132.109 37.748 132.196 37.6077 132.279 37.467L132.282 37.4606L132.293 37.443C132.37 37.3104 132.45 37.1648 132.527 37.0185L132.584 36.9095C132.659 36.7632 132.732 36.6174 132.8 36.4703C132.868 36.3225 132.93 36.1756 132.99 36.0282L133.034 35.9178L133.053 35.8694L133.078 35.8064C133.114 35.7119 133.146 35.6176 133.179 35.5231L133.19 35.4916L133.199 35.4654C133.248 35.3181 133.292 35.1709 133.333 35.0245L133.354 34.9447L133.364 34.9057C133.393 34.7919 133.421 34.6778 133.445 34.5641L133.454 34.5244L133.47 34.4476L133.478 34.4121L133.484 34.3826C133.494 34.3319 133.501 34.2817 133.508 34.2308L133.52 34.1518L133.531 34.0861C133.537 34.0467 133.544 34.0079 133.549 33.9689C133.563 33.8623 133.572 33.7559 133.58 33.65L133.587 33.5839C133.59 33.5575 133.592 33.5313 133.594 33.5051C133.603 33.3526 133.605 33.217 133.604 33.0826L133.602 33.013L133.601 32.9689L133.599 32.9066C133.598 32.8654 133.598 32.8245 133.595 32.7839C133.594 32.7533 133.591 32.7231 133.587 32.6927L133.583 32.6381L133.58 32.6086L133.575 32.5474C133.562 32.4271 133.548 32.3068 133.527 32.1883L133.519 32.1491L133.513 32.1187L133.507 32.0874L133.284 31.296L133.276 31.2729L133.26 31.2326L133.248 31.2002L133.239 31.176C133.193 31.0634 133.143 30.9526 133.088 30.8438L128.777 21.798L128.941 22.6652C128.991 22.9295 129.013 23.1991 128.997 23.4676C128.997 23.4694 128.997 23.4707 128.997 23.4722C128.995 23.5046 128.991 23.5374 128.988 23.57L128.983 23.6267C128.973 23.7401 128.964 23.8535 128.949 23.9674C128.943 24.0115 128.936 24.0555 128.928 24.0998L128.918 24.1621C128.9 24.2778 128.885 24.3769 128.865 24.476L128.847 24.5604L128.839 24.5993C128.813 24.7196 128.784 24.8396 128.753 24.9604L128.744 24.9965L128.72 25.0855C128.678 25.2396 128.631 25.3945 128.58 25.5489L128.567 25.5844Z" fill="#404041" fill-opacity="0.25"/>
<path d="M107.697 25.6809C107.815 25.9126 107.806 26.2097 107.672 26.5181C107.618 26.6428 107.546 26.7635 107.46 26.8772C107.546 26.7635 107.618 26.6428 107.672 26.5181C107.806 26.2097 107.815 25.9126 107.697 25.6809C107.671 25.6291 107.631 25.5749 107.576 25.5146C107.567 25.5047 107.558 25.4959 107.548 25.4871C107.558 25.4959 107.567 25.5047 107.576 25.5146C107.631 25.5749 107.671 25.6291 107.697 25.6809Z" fill="#404041" fill-opacity="0.25"/>
<path d="M106.194 27.7432C106.295 27.7018 106.362 27.6727 106.362 27.6727C106.513 27.6157 106.656 27.5465 106.79 27.4666C106.656 27.5465 106.513 27.6157 106.362 27.6727C106.362 27.6727 106.295 27.7018 106.194 27.7432Z" fill="#404041" fill-opacity="0.25"/>
<path d="M93.3862 27.9705L105.555 27.9652C105.664 27.9381 105.789 27.8965 105.908 27.8535C105.789 27.8965 105.664 27.9381 105.555 27.9652L93.3862 27.9705Z" fill="#404041" fill-opacity="0.25"/>
<path d="M89.9648 20.2912L89.9519 20.2827C89.9394 20.2745 89.9273 20.2657 89.9148 20.2574C89.9273 20.2657 89.9394 20.2745 89.9519 20.2827L89.9648 20.2912Z" fill="#404041" fill-opacity="0.25"/>
<path d="M93.2039 27.603L93.2387 27.6726H93.239L93.2039 27.603Z" fill="#404041" fill-opacity="0.25"/>
<path d="M89.6333 20.4883L89.7356 20.6918L91.4695 24.1469L89.7356 20.6918L89.6333 20.4883L89.2751 19.7743L89.6333 20.4883Z" fill="#404041" fill-opacity="0.25"/>
<path d="M89.7356 20.6918L91.4698 24.1469L93.2037 27.6024L93.2039 27.6031L93.239 27.6727H93.2388H93.2386L93.3863 27.9705L105.555 27.9652C105.664 27.9379 105.789 27.8965 105.908 27.8533C105.969 27.8313 106.028 27.8093 106.083 27.7881C106.123 27.7723 106.161 27.7571 106.194 27.7432C106.295 27.702 106.362 27.6727 106.362 27.6727C106.513 27.6161 106.656 27.5465 106.79 27.4665C107.058 27.3069 107.288 27.1051 107.46 26.8771C107.546 26.7632 107.618 26.6428 107.672 26.5179C107.806 26.2099 107.815 25.9126 107.698 25.6809C107.671 25.6293 107.631 25.5747 107.576 25.5143C107.567 25.5046 107.558 25.4958 107.549 25.487C107.544 25.4826 107.54 25.4778 107.535 25.4734C107.474 25.4163 107.417 25.3723 107.357 25.337C105.359 24.826 103.363 24.3597 101.433 23.9086C99.4232 23.4386 97.5249 22.995 95.6077 22.5018C93.719 22.0151 92.051 21.4066 90.65 20.6929L90.6463 20.6912C90.4768 20.6048 90.3012 20.5047 90.109 20.3854C90.1083 20.3852 90.1074 20.3846 90.107 20.384C90.067 20.359 90.0289 20.3338 89.9904 20.3085L89.9648 20.2912L89.9518 20.2827C89.9393 20.2744 89.9272 20.2656 89.9147 20.2574C89.8041 20.1837 89.6961 20.1073 89.5921 20.0283L89.5611 20.0051C89.5225 19.9757 89.4839 19.9467 89.4461 19.9164C89.3866 19.8686 89.3296 19.8216 89.2751 19.7743L89.6331 20.4882L89.7356 20.6918Z" fill="#404041" fill-opacity="0.25"/>
<path d="M166.436 10.1669L166.36 10.2386L166.252 10.3411L166.214 10.3757L166.188 10.4004C166.15 10.4354 166.112 10.4709 166.075 10.5038L166.037 10.5367L166.008 10.5619L165.985 10.5822C165.964 10.6013 165.942 10.6204 165.92 10.6386L165.897 10.6577L164.332 11.944L162.998 13.0398C160.841 14.8122 159.028 16.2991 157.191 17.7963C156.221 18.5863 155.249 19.3757 154.275 20.1625C154.256 20.1775 154.236 20.1925 154.217 20.2069L154.182 20.2307L154.15 20.2521L153.822 20.4318L153.791 20.4462L153.756 20.4627L153.701 20.485L153.66 20.5014L153.627 20.5149L153.602 20.5249C153.549 20.5446 153.495 20.5628 153.443 20.5796C153.39 20.5957 153.337 20.6104 153.286 20.6227C153.236 20.6351 153.186 20.6457 153.137 20.6536C153.088 20.6618 153.041 20.6677 152.996 20.6712C152.97 20.6727 152.945 20.6738 152.92 20.6738C145.774 20.6882 138.237 20.6885 130.948 20.6888L128.496 20.6891C128.144 19.9426 127.613 19.2876 126.917 18.7408C125.427 17.5704 123.487 16.7035 121.151 16.164C118.016 15.4377 114.795 14.7555 111.68 14.095C110.555 13.8565 109.431 13.6183 108.304 13.3772C107.963 13.3085 107.731 13.1393 107.629 12.8703C107.617 12.8365 107.607 12.8028 107.598 12.7575C107.591 12.7205 107.589 12.6821 107.587 12.6333V12.6072C107.587 12.5784 107.59 12.5493 107.593 12.5194C107.595 12.5017 107.597 12.4841 107.6 12.4656C107.602 12.4521 107.606 12.4383 107.608 12.4227C107.613 12.4072 107.618 12.3919 107.622 12.3757C107.631 12.3426 107.641 12.3088 107.649 12.2821C107.656 12.2621 107.663 12.2418 107.667 12.231L107.681 12.2007L107.704 12.1528C107.722 12.1138 107.74 12.075 107.762 12.0365C107.771 12.021 107.782 12.0057 107.793 11.9904L107.819 11.9537L107.844 11.9147C107.857 11.8956 107.87 11.8759 107.894 11.8459L107.913 11.8236C107.928 11.8072 107.942 11.7907 107.957 11.7746L107.977 11.7531L108.005 11.722L108.039 11.6841C108.072 11.6509 108.106 11.6186 108.142 11.5866L108.159 11.571L108.16 11.5699L108.182 11.5505C108.239 11.5029 108.298 11.4562 108.373 11.4039L108.385 11.3945C108.413 11.3728 108.447 11.3523 108.487 11.3299C108.527 11.3088 108.57 11.2894 108.632 11.2644C108.678 11.2471 108.726 11.2312 108.774 11.2171L108.829 11.2022C108.862 11.1931 108.895 11.1849 108.931 11.1772C108.971 11.1678 109.012 11.1599 109.056 11.1517L109.127 11.139C109.231 11.122 109.334 11.1103 109.434 11.1023L109.466 11.1L109.491 11.0982C109.574 11.0929 109.654 11.0894 109.728 11.0894C115.033 11.0835 120.499 11.0832 125.989 11.0829L133.617 11.0818C138.431 11.0806 143.213 11.0771 147.871 11.0677C148.254 11.0677 148.803 10.8956 149.236 10.6401L149.26 10.6263C149.281 10.6142 149.302 10.6019 149.335 10.581L149.336 10.5805C149.34 10.5778 149.344 10.5752 149.348 10.5725L149.363 10.5631L149.364 10.5619C149.415 10.5276 149.465 10.4923 149.509 10.4565C151.46 8.8803 153.351 7.33492 154.942 6.03155C155.682 5.42567 156.421 4.81979 157.16 4.21305L157.641 3.81922L158.236 3.3308L159.326 2.43536L160.907 1.13639L161.021 1.0427L161.134 0.949312C161.296 0.817447 161.446 0.675011 161.621 0.50996L161.669 0.464438L161.7 0.434486L161.71 0.425674L166.547 10.063C166.508 10.0988 166.472 10.1334 166.436 10.1669ZM128.72 25.0852L128.744 24.9967L128.753 24.9605C128.784 24.8398 128.813 24.7196 128.839 24.5995L128.847 24.5605L128.865 24.476C128.885 24.3766 128.9 24.2777 128.918 24.1623L128.929 24.1C128.936 24.0557 128.944 24.0112 128.949 23.9676C128.964 23.8535 128.973 23.7398 128.983 23.6268L128.988 23.5698C128.992 23.5372 128.995 23.5046 128.997 23.472C128.997 23.4707 128.997 23.4691 128.997 23.4676C129.013 23.1993 128.991 22.9297 128.941 22.6654L128.777 21.7981L133.089 30.8438C133.143 30.9528 133.193 31.0636 133.239 31.176L133.249 31.2004L133.26 31.2328L133.276 31.2729L133.284 31.2962L133.507 32.0874L133.513 32.1187L133.519 32.1491L133.527 32.1883C133.547 32.3068 133.563 32.4268 133.575 32.5475L133.58 32.6086L133.583 32.6381L133.588 32.6929C133.591 32.7229 133.594 32.7535 133.595 32.7837C133.598 32.8244 133.599 32.8656 133.599 32.9064L133.601 32.9687L133.602 33.013L133.605 33.0826C133.605 33.2171 133.603 33.3528 133.594 33.505C133.592 33.531 133.59 33.5575 133.587 33.5839L133.58 33.6497C133.572 33.7561 133.563 33.8621 133.549 33.9687C133.544 34.0077 133.537 34.0469 133.531 34.0861L133.52 34.1517L133.508 34.231C133.501 34.2817 133.494 34.3319 133.484 34.3828L133.478 34.4119L133.47 34.4473L133.454 34.5246L133.445 34.5643C133.421 34.6777 133.394 34.7916 133.364 34.9059L133.354 34.9449L133.333 35.0242C133.292 35.1707 133.249 35.3178 133.199 35.4654L133.19 35.4918L133.179 35.5229C133.146 35.6178 133.114 35.7121 133.079 35.8064L133.054 35.8691L133.034 35.9176L132.99 36.0279C132.93 36.1755 132.868 36.3227 132.8 36.4702C132.732 36.6174 132.659 36.7634 132.584 36.9094L132.527 37.0182C132.45 37.1645 132.37 37.3103 132.293 37.4429L132.282 37.4603L132.279 37.4671C132.196 37.6077 132.109 37.7482 132.019 37.8874L131.95 37.9942C131.856 38.1372 131.76 38.2797 131.66 38.4207C131.508 38.6339 131.341 38.8559 131.149 39.0991L131.123 39.1328L131.107 39.1548C130.985 39.3086 130.86 39.4597 130.733 39.609L130.711 39.6341L130.684 39.6656C130.551 39.8198 130.417 39.9713 130.279 40.1211L130.172 40.2359L130.137 40.2742C130.022 40.3967 129.906 40.5169 129.788 40.6363L129.742 40.6826L129.648 40.7768L129.613 40.8127L129.577 40.8486C129.541 40.8848 129.502 40.9196 129.465 40.9548L129.379 41.0345L129.35 41.0627C129.258 41.1493 129.167 41.2363 129.074 41.3211C129.002 41.3861 128.929 41.45 128.856 41.5138L128.805 41.559L128.782 41.5784C128.686 41.6632 128.589 41.7482 128.49 41.8315L128.447 41.8685L128.406 41.9042C128.354 41.9473 128.3 41.9898 128.247 42.0321L128.154 42.1061L128.087 42.1605C128.037 42.2013 127.986 42.2418 127.935 42.2821C127.805 42.3839 127.673 42.4832 127.539 42.5821L127.466 42.6372L126.767 43.1345L126.703 43.1766L126.639 43.2189L126.613 43.2368C126.489 43.3193 126.365 43.4024 126.24 43.4826L126.202 43.5059L126.16 43.5319C126.11 43.5636 126.059 43.5949 126.008 43.626L125.944 43.6656C125.808 43.7495 125.672 43.833 125.534 43.9149C125.454 43.9619 125.374 44.0083 125.294 44.0544L125.211 44.1033L125.106 44.1643C125.064 44.1879 125.021 44.211 124.979 44.2341L124.891 44.2815C124.804 44.3299 124.717 44.3782 124.629 44.4253C124.491 44.4997 124.35 44.5729 124.21 44.6451L124.142 44.6804C124.081 44.7121 124.02 44.7438 123.958 44.7746L123.916 44.7962L123.873 44.8182C123.803 44.8531 123.733 44.8865 123.663 44.92L123.546 44.9757L123.446 45.0242C123.38 45.0561 123.314 45.0885 123.248 45.1196C123.116 45.1808 122.984 45.2401 122.851 45.2997L122.807 45.3194L122.704 45.366C122.645 45.3931 122.585 45.4204 122.524 45.4469L122.486 45.4641L122.485 45.4645C122.26 45.5623 122.033 45.6575 121.805 45.7508C121.443 45.8982 121.059 46.0473 120.598 46.2207L120.531 46.2469L120.464 46.2729C120.423 46.2883 120.382 46.3026 120.341 46.3169L120.234 46.3553C119.949 46.4594 119.666 46.5608 119.381 46.6592L119.29 46.6905L119.011 46.7865C118.664 46.9035 118.316 47.0165 117.969 47.1253L117.909 47.1449L117.85 47.1641L117.819 47.1731L117.749 47.1945L117.693 47.2112C117.432 47.2912 117.17 47.3685 116.91 47.4438L116.63 47.5235C116.408 47.5863 116.185 47.6473 115.963 47.7068L115.873 47.731L115.7 47.7768C115.402 47.855 115.105 47.931 114.798 48.0057L114.662 48.0376L114.552 48.0632C114.305 48.122 114.059 48.1799 113.812 48.235C113.737 48.2517 113.662 48.2676 113.587 48.2834L113.44 48.3147L113.331 48.3381C113.163 48.3742 112.995 48.4103 112.827 48.4445C112.739 48.4627 112.65 48.4799 112.561 48.4971L112.414 48.5255L112.306 48.5464C112.151 48.5768 111.996 48.6072 111.841 48.6359C111.739 48.6544 111.637 48.6724 111.535 48.6901L111.412 48.7116L111.236 48.7431C111.137 48.7608 111.039 48.7784 110.943 48.7949L110.916 48.7989L110.87 48.8064C108.98 49.0689 107.079 49.2418 105.173 49.3246L104.939 49.3345L104.836 49.3414L104.749 49.3473C104.596 49.3579 104.443 49.3676 104.291 49.3773C104.09 49.3901 103.889 49.4024 103.689 49.4136C103.535 49.4224 103.381 49.4304 103.226 49.4381C103.027 49.4482 102.828 49.4579 102.63 49.4665L102.17 49.4856C101.969 49.4936 101.768 49.5006 101.568 49.5072L101.473 49.5103L101.118 49.5211C100.913 49.5271 100.708 49.5323 100.503 49.537L100.393 49.5396L100.072 49.5467C99.8569 49.5508 99.642 49.5544 99.4267 49.5575L99.2678 49.5599L99.0261 49.5636C98.7948 49.5667 98.5639 49.5687 98.3249 49.5704L98.2097 49.5716L97.9853 49.574C97.641 49.576 97.2966 49.5782 96.9527 49.579C92.2853 49.5909 87.1516 49.5967 80.7969 49.5967C77.567 49.5967 74.3377 49.5951 71.1082 49.594C67.8787 49.5925 64.6492 49.5909 61.4191 49.5909H60.1066L58.4615 46.3134L58.3636 46.1185L55.3666 40.1469H56.4511C59.5186 40.1469 62.5861 40.1478 65.6532 40.1493H65.9872H66.14C69.3695 40.1508 72.5989 40.1522 75.8293 40.1522C82.1849 40.1522 87.3189 40.1467 91.9862 40.1345C92.3303 40.1337 92.6754 40.1319 93.021 40.1297L93.1909 40.1279L93.3613 40.1264C93.5954 40.1244 93.8296 40.1222 94.0636 40.1194L94.3156 40.1156L94.4657 40.1132C94.6814 40.1103 94.8972 40.1064 95.1127 40.1024L95.4363 40.0949L95.5462 40.0923C95.7519 40.0876 95.9577 40.083 96.1634 40.0768C96.3135 40.0727 96.4637 40.0676 96.6131 40.0621C96.8164 40.0559 97.0187 40.0486 97.222 40.0407L97.6789 40.0222C97.8804 40.013 98.0819 40.0033 98.2836 39.9934C98.4373 39.9856 98.5909 39.9773 98.7443 39.9687C98.9476 39.9575 99.151 39.9447 99.3545 39.9317L99.4296 39.9271C99.5566 39.9187 99.6837 39.9108 99.811 39.9019C100.128 39.8795 100.444 39.8566 100.762 39.8297C101.153 39.7971 101.545 39.7599 101.937 39.7202L102.226 39.6896L102.296 39.6823C102.577 39.6522 102.859 39.6207 103.14 39.5865L103.204 39.579L103.527 39.5394C103.836 39.5 104.145 39.4588 104.455 39.4147L104.572 39.3986L104.718 39.3782C105.11 39.3209 105.503 39.2592 105.895 39.1936C106.037 39.1702 106.18 39.1449 106.322 39.12L106.438 39.0993L106.592 39.072C106.686 39.0559 106.78 39.0394 106.875 39.0222C107.018 38.9958 107.162 38.9676 107.306 38.9394L107.449 38.9114L107.595 38.8832C107.686 38.8656 107.777 38.848 107.868 38.8295C108.037 38.7951 108.207 38.7583 108.376 38.722L108.486 38.6982L108.63 38.6676C108.707 38.6515 108.784 38.6354 108.861 38.618C109.11 38.5627 109.359 38.5037 109.607 38.4445L109.713 38.42L109.855 38.3865C110.159 38.3132 110.462 38.2359 110.766 38.1564L110.976 38.1L111.031 38.0852C111.254 38.0253 111.479 37.9636 111.703 37.9006L111.772 37.8808L111.986 37.82C112.248 37.7442 112.51 37.6665 112.772 37.5865L112.827 37.5698L112.904 37.5467L112.986 37.5202L113.052 37.4993C113.404 37.3892 113.755 37.2751 114.107 37.1564C114.213 37.1205 114.319 37.0839 114.425 37.0471L114.479 37.0284C114.766 36.929 115.053 36.8268 115.34 36.7213L115.422 36.6918C115.517 36.6566 115.613 36.6218 115.708 36.5861C116.173 36.411 116.56 36.2601 116.925 36.1112C117.172 36.0112 117.415 35.9079 117.656 35.8031C117.718 35.7755 117.781 35.7475 117.842 35.7193L117.943 35.6738L118.006 35.6456C118.134 35.5881 118.263 35.5306 118.389 35.4711C118.459 35.4385 118.526 35.4057 118.595 35.3729L118.693 35.3249L118.733 35.3055C118.86 35.2445 118.986 35.1834 119.112 35.1205C119.173 35.0896 119.235 35.0577 119.296 35.026L119.368 34.989C119.511 34.9152 119.653 34.8409 119.794 34.7654C119.883 34.7169 119.973 34.668 120.061 34.6189C120.199 34.5429 120.335 34.4663 120.47 34.3883C120.552 34.3412 120.633 34.2938 120.715 34.2456C120.855 34.1625 120.994 34.0777 121.133 33.9923L121.202 33.9491C121.252 33.9185 121.302 33.887 121.352 33.8559C121.517 33.7511 121.68 33.6445 121.841 33.5361L121.9 33.4975L121.971 33.4506C122.173 33.3134 122.373 33.1729 122.57 33.0295C122.608 33.0013 122.646 32.9729 122.684 32.944L122.759 32.8876C122.895 32.7861 123.031 32.6841 123.165 32.5801C123.216 32.5396 123.267 32.4989 123.317 32.4575L123.388 32.4004C123.503 32.3077 123.618 32.2143 123.732 32.1191C123.829 32.0374 123.924 31.9539 124.019 31.8707L124.054 31.8407L124.105 31.7962C124.179 31.7301 124.255 31.6645 124.329 31.5969C124.424 31.5108 124.517 31.4224 124.609 31.3345L124.641 31.3042L124.711 31.2385C124.78 31.1729 124.849 31.107 124.917 31.0401L125.02 30.9368L125.06 30.8962C125.181 30.774 125.3 30.6504 125.418 30.5249L125.443 30.4973L125.564 30.3685C125.704 30.2154 125.842 30.0601 125.978 29.9017L125.999 29.8771L126.029 29.8434C126.174 29.6724 126.315 29.4975 126.455 29.3205C126.652 29.0707 126.824 28.8427 126.979 28.6244C127.083 28.479 127.182 28.3317 127.279 28.1837L127.351 28.0727C127.446 27.9246 127.538 27.776 127.627 27.6244C127.715 27.4744 127.798 27.3231 127.878 27.1716L127.937 27.0579C128.01 26.916 128.081 26.774 128.148 26.6315L128.159 26.6187L128.169 26.5848C128.237 26.4365 128.3 26.2876 128.361 26.1387L128.406 26.0235C128.46 25.8857 128.511 25.7473 128.558 25.6092L128.567 25.5845L128.58 25.5486C128.631 25.3942 128.678 25.2398 128.72 25.0852ZM54.7891 49.0436L54.6456 49.1467C54.6142 49.1667 54.5815 49.1863 54.5337 49.213L54.5157 49.2224L54.513 49.224L54.4746 49.2442L54.4498 49.2575L54.4318 49.2667C54.4099 49.2777 54.3875 49.2883 54.3649 49.2984L54.3306 49.3141L54.2949 49.3306C54.2448 49.3526 54.1939 49.3731 54.141 49.3925L54.1215 49.3989L54.118 49.4004L54.0907 49.4099C54.0534 49.4231 54.0163 49.4363 53.9788 49.4478L53.9601 49.453L53.9566 49.4542L53.9138 49.4658L53.8888 49.4724L53.8565 49.4821L53.8032 49.4958L53.7828 49.4997L53.7786 49.5006C53.7554 49.5061 53.7325 49.5105 53.7058 49.5158L53.6825 49.5209L53.6807 49.5211L53.6404 49.5284L53.6169 49.531L53.6127 49.5319C53.5872 49.5352 53.5631 49.5385 53.5405 49.5407L53.5001 49.5456L53.4957 49.546C53.4703 49.5482 53.4455 49.5491 53.4213 49.5493C50.8612 49.5698 48.265 49.5711 45.7543 49.572C43.4005 49.5729 40.9667 49.574 38.5684 49.5909C38.0807 49.5909 37.9958 49.498 37.9817 49.4693L33.2152 39.972C33.3065 39.9808 33.4083 39.9852 33.5209 39.9852C35.9197 39.9678 38.3524 39.9667 40.7053 39.9658C43.2168 39.9649 45.814 39.9636 48.3754 39.9431C48.4259 39.9429 48.4809 39.9381 48.5371 39.9323C48.567 39.929 48.5977 39.9257 48.6282 39.9211C48.6664 39.9152 48.7057 39.9088 48.7461 39.9011C48.7742 39.8956 48.8016 39.8901 48.8293 39.8834C48.8723 39.8742 48.9157 39.8623 48.9682 39.848C48.9912 39.8418 49.0141 39.8359 49.0369 39.8293C49.0894 39.8134 49.1414 39.7958 49.2061 39.7731L49.2423 39.7605C49.3064 39.7387 49.3692 39.7134 49.4302 39.685L49.4844 39.6601C49.5356 39.6365 49.5854 39.6125 49.6343 39.5872L49.6809 39.5623C49.739 39.5306 49.7959 39.498 49.8639 39.4531C49.9216 39.4152 49.9767 39.376 50.0261 39.3359C65.0048 27.0804 80.2122 14.6025 94.9187 2.53521L96.8991 0.910255C96.9323 0.883235 96.9643 0.854749 96.9968 0.825964L97.0168 0.80805L97.0416 0.786319L97.0844 0.748727C97.1153 0.720531 97.1465 0.690575 97.1783 0.660619L97.2013 0.638887L97.2264 0.615097L97.2584 0.584553L97.3655 0.480592L97.4217 0.426257L99.0501 3.67089C96.6302 4.6101 94.3426 5.89499 92.3521 7.59102C90.8986 8.8292 89.4321 10.2641 88.5991 11.7161C87.3162 13.9484 87.2032 16.1637 88.0906 17.9176C88.0879 17.9123 88.0849 17.9076 88.0822 17.9026L89.4536 20.6356C86.4853 23.0709 83.5038 25.5165 80.5149 27.9678C77.1998 27.9652 73.884 27.9608 70.5674 27.9544C69.806 27.9544 69.2948 28.1566 68.6814 28.6727C66.6364 30.3975 64.5408 32.0839 62.4658 33.7856L54.999 39.9196L58.1839 46.2656C57.0516 47.1925 55.9197 48.1187 54.7891 49.0436ZM32.6002 38.7379C32.515 38.9766 32.3576 39.4191 32.5929 39.7061L22.3986 49.0363C22.3518 49.0795 22.3062 49.1196 22.2651 49.1537L22.2484 49.1667L22.2465 49.1685L22.2186 49.1901L22.1999 49.2042L22.1991 49.205L22.1736 49.2253C22.1587 49.2374 22.1437 49.2491 22.1132 49.2707L22.0939 49.2841L22.0928 49.2848L22.061 49.3064L22.0331 49.3255L22.0311 49.3271C22.0026 49.3451 21.9743 49.3619 21.931 49.3863L21.9015 49.402L21.9009 49.4022L21.8719 49.4178C21.8476 49.4297 21.8233 49.4409 21.7955 49.453L21.7607 49.4671L21.7273 49.4806L21.7262 49.4812C21.7004 49.4905 21.6744 49.4993 21.6472 49.5079L21.5994 49.5209L21.579 49.5266L21.5778 49.5271L21.557 49.5332C21.5245 49.5407 21.4912 49.5467 21.4625 49.5522L21.4405 49.5566H21.4397L21.4092 49.5601L21.3718 49.5645L21.3484 49.5678C21.3194 49.5713 21.2907 49.5755 21.2547 49.5786C21.1947 49.5828 21.1318 49.5848 21.068 49.5848C18.4567 49.5751 15.8607 49.5685 13.2632 49.5685C10.5881 49.5685 8.18078 49.5755 5.90225 49.5909C5.42817 49.5909 5.31549 49.5072 5.29033 49.4575L0.528697 39.9693C0.528989 39.9693 0.529558 39.9694 0.530144 39.9696C0.631106 39.9799 0.737346 39.9852 0.856745 39.9852H0.85703C1.46983 39.9808 2.08147 39.9795 2.69309 39.9784L3.79521 39.976L4.9845 39.9711C6.06114 39.9663 7.13837 39.9623 8.21414 39.9623C8.72802 39.9623 9.24309 39.9636 9.75813 39.9649L10.8134 39.9676L11.6738 39.9689C13.1192 39.9713 14.5645 39.9738 16.0181 39.979C16.5718 39.979 16.9868 39.8416 17.4058 39.52L17.4281 39.5033L17.4292 39.5024L17.4474 39.4885L17.4831 39.461C17.5402 39.4138 17.5975 39.3643 17.6558 39.3105L39.4663 19.349L39.4235 19.4697L37.8586 23.9026C36.1418 28.7645 34.3675 33.7923 32.6002 38.7379ZM0.726514 39.0376C2.02176 34.9508 3.31877 30.7967 4.57363 26.7786C5.15043 24.9315 5.72752 23.0843 6.3058 21.2374C7.95515 15.976 9.60919 10.7144 11.2632 5.45298L12.4877 1.55724C12.5672 1.30702 12.6577 1.05651 12.763 0.766934C12.7645 0.762821 12.7659 0.759004 12.7671 0.754894H27.3929L24.8583 7.92759L19.7338 22.4288L18.8416 24.9548L20.6762 23.2751L20.8146 23.1486L32.6072 12.3534L44.5899 1.38515C45.1424 0.867379 45.539 0.700857 46.2194 0.700559C48.1375 0.719061 50.1499 0.726991 52.7442 0.726991C53.9022 0.726991 55.0604 0.725817 56.2188 0.723762C57.3762 0.722586 58.5335 0.720828 59.6902 0.720828H59.9073L58.4365 4.72287C56.2557 10.6583 54.0912 16.5484 51.9253 22.4394L51.003 24.9491L52.8636 23.2914L52.9962 23.1733L65.0658 12.4219L77.5395 1.31025C78.0481 0.851222 78.4139 0.703793 79.0426 0.703793C82.6636 0.721119 86.2658 0.723469 88.9997 0.723469L93.2048 0.722L95.7159 0.721123L94.7045 1.55137C82.6706 11.4254 70.3053 21.5716 57.9997 31.6495C57.7772 31.8315 57.5546 32.0136 57.3325 32.1958C54.7046 34.3475 52.0789 36.4973 49.4614 38.6392C49.2129 38.842 48.6721 39.0434 48.3688 39.0456C45.8122 39.0663 43.2192 39.0674 40.7112 39.0682C38.3829 39.0691 35.9767 39.07 33.6054 39.0865C33.5769 39.0868 33.5479 39.0868 33.5192 39.0868C33.4851 39.0868 33.4548 39.0865 33.427 39.0857C33.432 39.0711 33.4369 39.0566 33.4426 39.0407C35.2083 34.0989 36.9817 29.0753 38.6963 24.2174L40.2668 19.7699L40.3978 19.399L40.4276 19.3144L40.6118 18.794L41.5042 16.2682L39.5313 18.0741L26.3104 30.1742L24.8223 31.5361L17.0494 38.65C16.6933 38.9801 16.4524 39.0812 16.0208 39.0812C13.4086 39.0711 10.8122 39.0641 8.21386 39.0641C5.53409 39.0641 3.12534 39.0716 0.854993 39.0868C0.799977 39.0868 0.752861 39.0859 0.712476 39.0834C0.716865 39.0693 0.721246 39.0539 0.726514 39.0376ZM28.3751 0.661207L33.1423 10.1599L33.0593 10.3951L32.887 10.8821L20.8795 21.8735L21.4215 20.3402L22.5689 17.0926L28.3751 0.661207ZM60.8983 0.618916L65.669 10.1243L65.5638 10.4104L65.3628 10.9567L53.0776 21.9006L56.9093 11.4741L60.2784 2.30613L60.8983 0.618916ZM93.1249 27.9705C92.8492 27.9705 92.5733 27.9707 92.297 27.9707C91.6128 27.9711 90.9285 27.9716 90.2444 27.9716C87.1154 27.9716 83.9862 27.9705 80.8566 27.968C83.774 25.5775 86.7166 23.166 89.5558 20.8389L93.1249 27.9705ZM89.2751 19.7743C89.3298 19.8216 89.3866 19.8686 89.4461 19.9164C89.4838 19.9467 89.5227 19.9757 89.5613 20.0051L89.5921 20.0283C89.6959 20.1073 89.8043 20.1834 89.9149 20.2574C89.9274 20.2656 89.9395 20.2744 89.952 20.2827L89.9645 20.2912L89.9906 20.3085C90.0286 20.3338 90.067 20.359 90.1067 20.384C90.1076 20.3845 90.1085 20.3849 90.1092 20.3854C90.3012 20.5047 90.4768 20.6048 90.6465 20.6909L90.65 20.6929C92.0509 21.4066 93.7192 22.0151 95.6079 22.5017C97.5249 22.9949 99.4234 23.4383 101.433 23.9086C103.363 24.3597 105.359 24.826 107.356 25.337C107.417 25.3722 107.475 25.4163 107.535 25.4733C107.539 25.4777 107.544 25.4826 107.548 25.487C107.558 25.4958 107.567 25.5046 107.576 25.5143C107.632 25.5746 107.671 25.6293 107.698 25.6808C107.815 25.9125 107.806 26.2094 107.672 26.5178C107.618 26.6427 107.547 26.7632 107.46 26.8771C107.288 27.105 107.058 27.3068 106.79 27.4665C106.656 27.5464 106.513 27.616 106.362 27.6727C106.362 27.6727 106.295 27.702 106.194 27.7431C106.16 27.757 106.123 27.7722 106.083 27.7881C106.028 27.8092 105.968 27.8312 105.908 27.8533C105.789 27.8964 105.664 27.9379 105.555 27.9652L93.3863 27.9705L93.2383 27.6727H93.2388L93.2039 27.6031L93.2037 27.6024L91.4697 24.1469L89.7354 20.6917L89.6333 20.4882L89.2751 19.7743ZM99.3519 4.27149C99.4225 4.24417 99.4923 4.21598 99.5637 4.18926C100.418 3.86884 101.306 3.58514 102.228 3.33933C108.501 1.67824 114.803 0.829198 120.958 0.814806L159.994 0.726114L158.767 1.73375C155.558 4.37133 152.239 7.09851 148.949 9.75635C148.689 9.96516 148.156 10.1699 147.87 10.1699C140.738 10.184 133.215 10.1845 125.939 10.1851C120.466 10.1851 115.016 10.1854 109.727 10.1913C109.432 10.1913 108.431 10.2274 107.838 10.6844C106.985 11.2847 106.559 12.1552 106.725 12.9599C106.858 13.6031 107.357 14.0759 108.054 14.2383C108.077 14.2436 108.097 14.2512 108.12 14.2559C109.246 14.4973 110.374 14.7361 111.501 14.9752C114.61 15.6339 117.826 16.3153 120.95 17.0389C123.157 17.549 124.98 18.3596 126.365 19.4477C126.922 19.8847 127.324 20.3819 127.602 20.9164C128.759 23.1354 127.737 26.0182 126.252 28.1019C124.058 31.1768 120.897 33.5244 116.589 35.279C111.747 37.2491 106.546 38.4453 100.688 38.9352C97.6638 39.1874 94.7174 39.2293 91.9838 39.2367C87.289 39.2486 82.1557 39.2542 75.8293 39.2542C72.9132 39.2542 69.9983 39.2533 67.0829 39.2517H66.7488C66.5462 39.2517 66.3434 39.2517 66.1404 39.2515C63.0509 39.2504 59.9608 39.2489 56.8707 39.2486L58.0379 38.2896C59.7029 36.9218 61.296 35.6127 62.8888 34.3053C63.482 33.8189 64.0773 33.3332 64.6721 32.848C66.1347 31.655 67.6474 30.4209 69.1109 29.187C69.61 28.7669 69.9774 28.6251 70.5661 28.6251C73.4677 28.631 76.4976 28.635 79.6977 28.6381C79.811 28.6381 79.9249 28.6381 80.0386 28.6383C83.2536 28.6409 86.6402 28.6425 90.2444 28.6425C91.3433 28.6425 92.4425 28.6412 93.5417 28.6409C97.7619 28.6401 101.982 28.6385 106.203 28.6359H106.295L106.384 28.6108C106.842 28.4812 107.258 28.2632 107.606 27.9872C107.73 27.8892 107.845 27.7843 107.951 27.6727C108.198 27.4103 108.391 27.1149 108.515 26.803C108.586 26.6235 108.642 26.4403 108.663 26.2524C108.744 25.5308 108.408 24.8887 107.763 24.5354L107.689 24.4953L107.608 24.4744C105.591 23.9583 103.582 23.4885 101.638 23.0341C99.6323 22.5652 97.7378 22.1227 95.83 21.6318C94.0043 21.1616 92.3977 20.576 91.0547 19.8923C90.9838 19.8562 90.9153 19.8186 90.8466 19.7807C90.777 19.7423 90.7086 19.702 90.6412 19.6615C89.5036 18.9737 88.7253 18.0086 88.3805 16.8456C87.9444 15.3757 88.2205 13.7179 89.1783 12.0509C89.8403 10.8973 91.0196 9.606 92.7844 8.10232C94.6457 6.51671 96.8471 5.23477 99.3519 4.27149ZM161.777 0.0529825H160.95L120.956 0.144024C114.865 0.157828 108.52 0.979563 102.058 2.69058C101.113 2.94257 100.179 3.24213 99.2625 3.58926L97.4865 0.0500484C94.6294 0.0500484 91.8051 0.0526935 88.9997 0.0526935C85.6683 0.0526935 82.3633 0.0491678 79.0456 0.0330151C78.2535 0.0330151 77.723 0.242409 77.0927 0.81187L65.5557 11.0885V11.0888L65.5544 11.0897L65.518 11.122C65.6422 10.8016 65.8147 10.384 65.9152 10.1105L60.8662 0.0500484H60.866H59.6902C57.376 0.0500484 55.0593 0.0562158 52.7442 0.0562158C50.5836 0.0562158 48.4245 0.050929 46.2211 0.0297852C45.3643 0.0297852 44.8052 0.265903 44.1336 0.894687L33.0813 11.0113C33.184 10.7223 33.2858 10.4339 33.3881 10.1443L28.3391 0.0838228L28.3387 0.0841151H12.2977C12.128 0.565169 11.9755 0.959297 11.8508 1.35431C9.78885 7.91466 7.72485 14.4756 5.66842 21.0362C3.81042 26.9678 1.96997 32.9015 0.0894255 38.8341C-0.0103665 39.1504 -0.0337753 39.3711 0.0557742 39.5187C0.0513845 39.5114 0.0428957 39.5068 0.0390914 39.4989L5.0881 49.5592C5.17941 49.7412 5.4267 49.818 5.90225 49.818H5.90458C8.36047 49.8015 10.8122 49.7953 13.2632 49.7953C15.8604 49.7953 18.4561 49.8022 21.0671 49.8121C21.1376 49.8121 21.2052 49.8099 21.2711 49.805C21.2731 49.8048 21.2749 49.8041 21.2772 49.8041C21.32 49.8013 21.3601 49.7951 21.4007 49.7898C21.4262 49.7865 21.4531 49.7848 21.4777 49.7808C21.4792 49.7804 21.4809 49.7799 21.4824 49.7795C21.4877 49.7786 21.4932 49.7775 21.4985 49.7766C21.5359 49.7696 21.5731 49.7625 21.6094 49.7537C21.6261 49.7495 21.6422 49.7447 21.6586 49.7405C21.6682 49.7376 21.6776 49.7352 21.687 49.7323C21.6911 49.731 21.6945 49.7299 21.6986 49.729C21.7039 49.7279 21.7092 49.7266 21.7145 49.7249C21.7449 49.7156 21.775 49.705 21.8046 49.6938C21.818 49.6892 21.8312 49.6832 21.8447 49.6782C21.8511 49.6753 21.8579 49.6727 21.8643 49.67C21.8728 49.6665 21.881 49.6636 21.8892 49.6601C21.9173 49.6478 21.9451 49.6348 21.9725 49.6209C21.9881 49.6134 22.0035 49.6048 22.0191 49.5962C22.0252 49.5931 22.032 49.5898 22.0382 49.5861C22.0448 49.5826 22.0513 49.5793 22.0584 49.5757C22.0895 49.5575 22.1207 49.5387 22.1523 49.5191C22.1637 49.5114 22.1747 49.5033 22.1861 49.4958C22.198 49.4879 22.2094 49.4799 22.221 49.4718C22.2348 49.4623 22.2482 49.4539 22.262 49.4438C22.2875 49.4253 22.313 49.4041 22.3384 49.3845C22.3551 49.3713 22.372 49.3588 22.3887 49.3451C22.3946 49.3403 22.3999 49.3368 22.4056 49.3323C22.4537 49.292 22.5026 49.2491 22.552 49.2028L32.86 39.7689L37.7796 49.5716C37.8643 49.7407 38.1002 49.818 38.5684 49.818C43.5279 49.7828 48.4625 49.8165 53.4235 49.7766C53.4525 49.7764 53.4825 49.7751 53.5135 49.7729C53.5293 49.7715 53.5464 49.7685 53.5624 49.7669C53.5894 49.7643 53.6162 49.7608 53.6443 49.7566C53.6597 49.7544 53.6739 49.7537 53.6891 49.7513C53.7097 49.7478 53.7308 49.7425 53.7512 49.7385C53.7769 49.7334 53.8023 49.7284 53.8291 49.7222C53.8416 49.7193 53.8537 49.7176 53.8664 49.7147C53.8936 49.7079 53.9213 49.6993 53.9487 49.6918C53.9731 49.685 53.9968 49.679 54.0214 49.6718C54.0297 49.6689 54.0381 49.6674 54.046 49.6649C54.0866 49.6524 54.1269 49.6381 54.1673 49.6233C54.1829 49.618 54.1983 49.6134 54.2136 49.6075L54.2215 49.605C54.2769 49.5843 54.3315 49.5623 54.3851 49.5387C54.3901 49.537 54.3947 49.5343 54.3993 49.5323C54.4132 49.5262 54.4261 49.5202 54.4395 49.5138C54.4702 49.4997 54.5018 49.4856 54.5317 49.4709C54.5481 49.4623 54.5633 49.4539 54.5789 49.446C54.5931 49.4381 54.6074 49.431 54.6214 49.4231C54.6337 49.4165 54.6467 49.4103 54.659 49.4033C54.6965 49.3821 54.7327 49.3605 54.7678 49.3379C54.7681 49.3376 56.0727 48.2693 58.282 46.4603L59.967 49.818H61.4191C67.8792 49.818 74.3368 49.824 80.7969 49.824C86.1802 49.824 91.565 49.8198 96.9533 49.8059C97.2975 49.805 97.6418 49.8033 97.9869 49.8013C98.1001 49.8004 98.2136 49.7989 98.3273 49.7978C98.5608 49.7958 98.7948 49.7936 99.029 49.7907C99.1627 49.7892 99.2965 49.7865 99.4302 49.7848C99.6455 49.7812 99.8606 49.7777 100.076 49.774C100.22 49.7707 100.364 49.7671 100.508 49.7643C100.714 49.7592 100.919 49.7539 101.125 49.7484C101.275 49.744 101.425 49.739 101.575 49.7341C101.776 49.7275 101.977 49.7202 102.179 49.7125C102.332 49.7064 102.486 49.7002 102.639 49.6936C102.839 49.6848 103.038 49.6753 103.238 49.6654C103.392 49.6575 103.547 49.6491 103.702 49.6407C103.902 49.6293 104.104 49.6169 104.305 49.6039C104.458 49.5942 104.611 49.5843 104.765 49.5738C104.828 49.5696 104.892 49.5658 104.956 49.561L105.571 49.5308C107.225 49.4491 108.874 49.3 110.516 49.0823L110.893 49.0323C110.898 49.0315 110.902 49.0312 110.907 49.0304C110.931 49.0262 110.955 49.0227 110.979 49.0191C111.136 48.9925 111.293 48.9634 111.451 48.9354C111.595 48.9103 111.738 48.8857 111.882 48.8594C112.074 48.824 112.266 48.7861 112.457 48.7484C112.596 48.7213 112.734 48.6956 112.872 48.6674C113.077 48.6257 113.282 48.5808 113.487 48.5368C113.612 48.5097 113.736 48.4843 113.861 48.4568C114.109 48.4015 114.356 48.3431 114.604 48.2841C114.686 48.2645 114.769 48.2464 114.851 48.2266C114.854 48.2257 114.857 48.2249 114.861 48.224C115.16 48.1513 115.459 48.0753 115.757 47.9967C115.846 47.9738 115.933 47.9495 116.021 47.9264C116.245 47.8665 116.468 47.805 116.691 47.7423C116.785 47.7158 116.878 47.6892 116.972 47.6623C117.234 47.5865 117.497 47.5088 117.759 47.4284C117.802 47.4156 117.843 47.4037 117.886 47.3905C117.896 47.3872 117.906 47.3843 117.916 47.381C117.956 47.3687 117.997 47.3546 118.036 47.342C118.386 47.2328 118.734 47.1194 119.083 47.0019C119.207 46.9599 119.331 46.9167 119.455 46.8738C119.741 46.7751 120.026 46.6733 120.311 46.5687C120.389 46.5403 120.466 46.5147 120.544 46.4859C120.588 46.4691 120.633 46.4504 120.678 46.4337C121.082 46.2815 121.486 46.1255 121.89 45.961C122.12 45.8674 122.349 45.7713 122.574 45.6729C122.588 45.6671 122.601 45.661 122.615 45.6548C122.711 45.6134 122.805 45.5693 122.9 45.5271C123.048 45.4603 123.197 45.394 123.343 45.3255C123.444 45.2782 123.544 45.2288 123.644 45.1804C123.754 45.1279 123.865 45.076 123.974 45.0216C124.003 45.0075 124.031 44.9925 124.059 44.9777C124.145 44.935 124.229 44.8909 124.314 44.8471C124.455 44.774 124.596 44.7006 124.736 44.6257C124.825 44.5775 124.913 44.529 125.001 44.4804C125.073 44.4409 125.146 44.4024 125.217 44.3623C125.28 44.3262 125.343 44.2883 125.407 44.2515C125.487 44.2048 125.568 44.1581 125.649 44.1105C125.788 44.0277 125.926 43.9438 126.063 43.8586C126.135 43.8138 126.208 43.7696 126.28 43.724C126.307 43.7072 126.334 43.6912 126.361 43.6744C126.497 43.5872 126.631 43.4973 126.765 43.4077C126.807 43.379 126.851 43.3517 126.893 43.3231L127.674 42.7645C127.809 42.6645 127.943 42.5641 128.074 42.461C128.149 42.4024 128.222 42.3425 128.296 42.2834C128.38 42.2154 128.467 42.1484 128.55 42.079C128.587 42.0482 128.622 42.0156 128.659 41.9854C128.716 41.9403 128.785 41.8797 128.839 41.8312C128.967 41.7167 129.099 41.6048 129.226 41.4894C129.33 41.3942 129.433 41.2971 129.535 41.1997C129.601 41.1363 129.67 41.0755 129.735 41.0112C129.76 40.9874 129.783 40.9627 129.807 40.9387C129.859 40.887 129.91 40.8345 129.962 40.7828C130.058 40.6859 130.154 40.589 130.247 40.4892C130.313 40.4169 130.38 40.3467 130.446 40.2746C130.585 40.1231 130.722 39.9698 130.856 39.8136C130.872 39.794 130.889 39.7757 130.905 39.7564C131.034 39.605 131.16 39.4522 131.284 39.2964C131.299 39.2779 131.312 39.2583 131.326 39.2401C131.504 39.0154 131.677 38.7872 131.844 38.5528C131.946 38.4094 132.044 38.2645 132.139 38.1194C132.163 38.083 132.186 38.0469 132.209 38.0103C132.303 37.8649 132.394 37.7187 132.48 37.5716C132.48 37.5711 132.481 37.5704 132.481 37.5702C132.567 37.4224 132.648 37.2738 132.727 37.1249C132.747 37.0883 132.766 37.0513 132.786 37.0138C132.862 36.8649 132.936 36.7156 133.006 36.5654C133.006 36.5652 133.006 36.5649 133.006 36.5643C133.075 36.4147 133.139 36.2641 133.2 36.1134C133.215 36.076 133.23 36.0383 133.245 36.0006C133.26 35.9627 133.276 35.9249 133.29 35.887C133.326 35.7901 133.36 35.6931 133.393 35.5967C133.4 35.5766 133.407 35.557 133.414 35.537C133.464 35.3863 133.509 35.2356 133.551 35.085C133.562 35.0445 133.572 35.0039 133.583 34.9634C133.614 34.8462 133.641 34.7288 133.666 34.6121C133.675 34.572 133.684 34.5317 133.692 34.4918C133.697 34.4698 133.702 34.4473 133.706 34.4251C133.722 34.3458 133.731 34.2665 133.744 34.1872C133.754 34.1244 133.765 34.0612 133.774 33.9984C133.788 33.8879 133.797 33.7782 133.806 33.6685C133.81 33.6187 133.817 33.5685 133.82 33.5187C133.82 33.5134 133.821 33.5077 133.822 33.5024C133.829 33.3605 133.832 33.2205 133.831 33.0806C133.83 33.0409 133.828 33.0015 133.827 32.9623C133.825 32.8984 133.825 32.8337 133.822 32.7698C133.818 32.7193 133.813 32.6693 133.808 32.6187C133.806 32.587 133.803 32.5555 133.8 32.524C133.787 32.3984 133.771 32.2729 133.75 32.1493C133.747 32.1337 133.743 32.1194 133.741 32.1035L133.732 32.0561L133.496 31.2156C133.489 31.1962 133.482 31.1768 133.474 31.157C133.465 31.1352 133.458 31.1121 133.448 31.0901C133.401 30.972 133.348 30.8561 133.291 30.7416L128.673 20.9161C136.912 20.9155 144.939 20.917 152.92 20.9012C152.95 20.9012 152.981 20.8997 153.012 20.8976C153.064 20.8938 153.118 20.8871 153.175 20.8777C153.228 20.8686 153.283 20.8571 153.339 20.8436C153.395 20.8301 153.452 20.8142 153.509 20.7963C153.566 20.7787 153.624 20.759 153.681 20.7379C153.701 20.7302 153.721 20.7214 153.741 20.7138C153.746 20.7117 153.751 20.7094 153.757 20.7073C153.787 20.6953 153.817 20.6841 153.846 20.6712C153.876 20.6586 153.904 20.6439 153.932 20.6312C153.938 20.6286 153.943 20.6263 153.948 20.6236L154.348 20.3916C154.372 20.3746 154.395 20.3572 154.416 20.3399C155.391 19.5525 156.363 18.7631 157.334 17.9725C159.274 16.3907 161.209 14.8036 163.141 13.2154C164.108 12.4216 165.074 11.6274 166.04 10.8333C166.049 10.8268 166.057 10.8204 166.064 10.8136C166.096 10.7878 166.127 10.7599 166.158 10.7329C166.18 10.7129 166.203 10.6935 166.226 10.673C166.264 10.6395 166.303 10.6028 166.342 10.5666C166.363 10.5467 166.384 10.5276 166.406 10.5067C166.464 10.4524 166.526 10.394 166.591 10.3323C166.663 10.2647 166.74 10.1922 166.826 10.1135L161.777 0.0529825Z" fill="#404041" fill-opacity="0.25"/>
<path d="M90.6503 20.6932L90.6462 20.691L90.6503 20.6932Z" fill="#404041" fill-opacity="0.25"/>
<path d="M90.1069 20.3841C90.0672 20.3591 90.0287 20.3339 89.991 20.3086L89.9651 20.2913L89.9908 20.3086C90.0287 20.3339 90.0672 20.3591 90.1069 20.3841Z" fill="#404041" fill-opacity="0.25"/>
<path d="M106.083 27.7881C106.028 27.8092 105.969 27.8313 105.908 27.8535C105.969 27.8313 106.028 27.8092 106.083 27.7881Z" fill="#404041" fill-opacity="0.25"/>
<path d="M90.6464 20.691C90.477 20.6046 90.3009 20.5045 90.1091 20.3852C90.1084 20.3849 90.1076 20.3846 90.1067 20.384C90.1076 20.3846 90.1084 20.3849 90.1091 20.3852C90.3009 20.5045 90.477 20.6046 90.6464 20.691Z" fill="#404041" fill-opacity="0.25"/>
<path d="M107.535 25.4731C107.54 25.4779 107.544 25.4826 107.549 25.487C107.544 25.4826 107.54 25.4779 107.535 25.4731C107.475 25.4165 107.417 25.3722 107.357 25.337C105.359 24.8259 103.363 24.3594 101.433 23.9083C103.363 24.3594 105.359 24.8259 107.357 25.337C107.417 25.3722 107.474 25.4165 107.535 25.4731Z" fill="#404041" fill-opacity="0.25"/>
<path d="M89.5613 20.0051C89.5227 19.9758 89.4837 19.9467 89.4459 19.9165C89.3866 19.8686 89.3298 19.8216 89.2751 19.7743C89.3298 19.8216 89.3866 19.8686 89.4459 19.9165C89.4837 19.9467 89.5227 19.9758 89.5613 20.0051Z" fill="#404041" fill-opacity="0.25"/>
</g>
<defs>
<clipPath id="clip0">
<rect width="322.642" height="50" fill="white"/>
</clipPath>
</defs>
</svg>
