<svg width="91" height="28" viewBox="0 0 91 28" fill="none" xmlns="http://www.w3.org/2000/svg">
<path d="M28.7891 11.8869L35.4526 5.95075L35.5616 5.65447L35.6186 5.49932L33.0311 0.34375L32.6948 1.25889L30.8676 6.23144L28.7891 11.8869Z" fill="white"/>
<path d="M11.6189 11.0405L11.325 11.8722L17.8379 5.91031L17.9312 5.64636L17.9764 5.51875L15.3906 0.366699L12.2412 9.27906L11.6189 11.0405Z" fill="white"/>
<path d="M87.7059 0.243548L87.6886 0.259955L87.6626 0.284487C87.5679 0.374012 87.4863 0.451269 87.3989 0.522791L87.3372 0.573448L87.2753 0.624421L86.4178 1.32882L85.8267 1.81451L85.5039 2.07942L85.2432 2.29303C84.8425 2.62213 84.4415 2.95091 84.0402 3.27954C83.1769 3.98649 82.1517 4.82454 81.0934 5.67947C81.0691 5.69906 81.0426 5.71802 81.0145 5.73666L81.014 5.73729L81.0063 5.7424C81.0036 5.74383 81.0015 5.74542 80.9994 5.7467L80.9991 5.74701H80.9989C80.9813 5.75848 80.9697 5.76501 80.9583 5.7717L80.9454 5.77903C80.7102 5.91778 80.4126 6.01112 80.205 6.01112C77.6782 6.01606 75.0841 6.01797 72.4737 6.01861L68.3359 6.01925C65.3583 6.0194 62.3935 6.01957 59.5158 6.02275C59.4759 6.02275 59.4325 6.02466 59.3878 6.02752L59.374 6.02848L59.3565 6.02976C59.3027 6.03406 59.2468 6.04059 59.1903 6.04967L59.1515 6.05652C59.1278 6.06098 59.1056 6.06528 59.0837 6.07038C59.0646 6.07452 59.0463 6.07898 59.0283 6.08408L58.9988 6.09204C58.9725 6.09969 58.9464 6.10829 58.9216 6.11769C58.8882 6.13123 58.8649 6.14174 58.8434 6.15338C58.8211 6.16532 58.8034 6.17647 58.7877 6.18826L58.7812 6.19352C58.7408 6.22171 58.7083 6.24704 58.6777 6.27285L58.6659 6.28351L58.6653 6.28399L58.6559 6.29259C58.6364 6.3098 58.6175 6.32732 58.5997 6.34532L58.5815 6.36587L58.5664 6.38276L58.5558 6.39438C58.5477 6.40314 58.5396 6.41207 58.532 6.42099L58.5213 6.43309C58.5083 6.44934 58.5015 6.46001 58.4946 6.47037L58.4807 6.49172L58.4668 6.51147C58.4608 6.51974 58.455 6.52819 58.4499 6.53647C58.4377 6.55734 58.4282 6.57852 58.4184 6.59955L58.4061 6.62552L58.3982 6.64193C58.3959 6.64798 58.3921 6.65881 58.3884 6.66964C58.3839 6.68414 58.3784 6.70246 58.3739 6.72062C58.3716 6.72922 58.3693 6.73766 58.3665 6.74595C58.365 6.75455 58.3632 6.76188 58.362 6.7692C58.3603 6.77924 58.3593 6.78879 58.3583 6.79835C58.3565 6.8146 58.3553 6.83054 58.355 6.84598V6.86032C58.3556 6.8866 58.3572 6.90748 58.3607 6.92755C58.3658 6.95207 58.3711 6.97039 58.3774 6.98872C58.4331 7.13462 58.5588 7.22638 58.744 7.26365C59.3546 7.39459 59.9646 7.52378 60.5749 7.65313C62.2645 8.01122 64.0118 8.38142 65.7118 8.77535C66.9789 9.06782 68.0312 9.53822 68.8394 10.1729C69.217 10.4695 69.5048 10.8247 69.6963 11.2296L71.0258 11.2295C74.9792 11.2293 79.0672 11.2291 82.9434 11.2215C82.9569 11.2215 82.9705 11.2209 82.9846 11.2199C83.0088 11.2181 83.0344 11.2149 83.0608 11.2103C83.0875 11.206 83.1145 11.2003 83.142 11.1936C83.1696 11.1869 83.1982 11.179 83.2269 11.1702C83.2554 11.1611 83.2845 11.1514 83.3134 11.1406L83.327 11.1351L83.3445 11.128L83.3669 11.1189L83.397 11.1068L83.416 11.098L83.4327 11.0901L83.6107 10.9926L83.6279 10.981L83.6469 10.9681C83.6573 10.9602 83.6682 10.9521 83.6783 10.944C84.2065 10.5174 84.7336 10.0892 85.2598 9.66056C86.2564 8.84864 87.2397 8.04197 88.4097 7.08062L89.1329 6.48629L89.9821 5.78858L89.9948 5.77824C90.0065 5.76836 90.0183 5.758 90.0301 5.74765L90.0426 5.73666L90.0583 5.72296L90.0786 5.70528C90.0986 5.68727 90.1192 5.668 90.1397 5.64904L90.154 5.63583L90.1745 5.61687L90.2334 5.56128L90.2745 5.5224C90.2936 5.50424 90.3136 5.48545 90.3345 5.46601L87.711 0.23877L87.7059 0.243548Z" fill="white"/>
<path d="M21.3832 10.5684L21.4063 10.5029L9.5763 21.3301C9.54488 21.3592 9.5136 21.3862 9.48249 21.4115L9.46329 21.4267L9.4536 21.434L9.45297 21.4345L9.44074 21.4436C9.2136 21.6182 8.98836 21.6925 8.68806 21.6925C7.89964 21.6897 7.11567 21.6885 6.3317 21.6872L5.86488 21.6863L5.29282 21.6851C5.01345 21.6843 4.73392 21.6835 4.4552 21.6835C3.8717 21.6835 3.28758 21.6858 2.70345 21.6882L2.05836 21.691L1.46059 21.6924C1.12884 21.6929 0.797099 21.6935 0.464718 21.6959H0.464558C0.399796 21.6959 0.342177 21.693 0.287415 21.6875C0.287098 21.6873 0.286939 21.6873 0.286621 21.6873L2.86932 26.8336C2.88297 26.8607 2.94408 26.9061 3.20139 26.9061C4.4371 26.8976 5.74297 26.8938 7.19377 26.8938C8.60265 26.8938 10.0107 26.8975 11.4271 26.9028C11.462 26.9028 11.4958 26.9018 11.5285 26.8994C11.5481 26.8976 11.5636 26.8956 11.579 26.8936L11.5919 26.8918L11.6122 26.8895L11.6287 26.8875H11.6293L11.6411 26.8851C11.6568 26.8822 11.6747 26.8789 11.6923 26.8747L11.7036 26.8714L11.7042 26.8712L11.7155 26.8683L11.7414 26.8611C11.7561 26.8564 11.7701 26.8516 11.7841 26.8465L11.7847 26.8463L11.803 26.8389L11.8217 26.8312C11.8368 26.8248 11.85 26.8187 11.863 26.8121L11.879 26.8037L11.8792 26.8035L11.8952 26.7951C11.9189 26.782 11.9341 26.7728 11.9495 26.7631L11.9506 26.7623L11.9658 26.7518L11.9829 26.7399L11.9837 26.7397L11.9941 26.7323C12.0108 26.7207 12.0189 26.7144 12.027 26.7078L12.0406 26.6969L12.0413 26.6965L12.0514 26.6887L12.0665 26.6771L12.0675 26.6761L12.0765 26.6691C12.0989 26.6505 12.1237 26.6286 12.1489 26.6052L17.6781 21.5446C17.5506 21.389 17.6362 21.1489 17.6823 21.0194C18.6408 18.3371 19.6033 15.6099 20.5341 12.9728L21.3832 10.5684Z" fill="white"/>
<path d="M33.8811 18.3335C35.0067 17.4104 36.1432 16.4957 37.2524 15.5601C37.5851 15.2803 37.8624 15.1706 38.2756 15.1706C40.0744 15.174 41.8728 15.1764 43.671 15.1777C45.2923 13.8482 46.9092 12.5218 48.5194 11.2008L47.7754 9.71839C47.7768 9.72126 47.7786 9.72381 47.78 9.72651C47.2987 8.77537 47.36 7.5738 48.0557 6.36302C48.5076 5.57546 49.3032 4.79699 50.0915 4.12557C51.1711 3.20548 52.4118 2.50873 53.7244 1.99914L52.8411 0.239258L52.8109 0.268726L52.7525 0.325278L52.7351 0.341845L52.7216 0.354588L52.7091 0.366535C52.6919 0.382783 52.6749 0.39903 52.6581 0.414323L52.6351 0.434554L52.6215 0.446341L52.6106 0.456058C52.5932 0.47167 52.5756 0.48712 52.5576 0.501935L51.4837 1.38315C43.5068 7.92856 35.2585 14.6965 27.1338 21.3437C27.1071 21.3655 27.0773 21.3869 27.0459 21.4074C27.009 21.4317 26.9782 21.4495 26.9466 21.4667L26.9213 21.4802C26.8949 21.4939 26.8678 21.5069 26.8401 21.5197L26.8109 21.5332C26.7775 21.5487 26.7435 21.5624 26.7087 21.5742L26.6892 21.581C26.6542 21.5933 26.6259 21.6027 26.5975 21.6113C26.5849 21.6152 26.5725 21.6183 26.56 21.6216C26.5316 21.6293 26.508 21.6357 26.4847 21.641C26.4699 21.6443 26.4547 21.6474 26.4396 21.6503C26.4178 21.6546 26.3966 21.6582 26.3757 21.6613C26.3591 21.6637 26.3425 21.6656 26.3262 21.6674C26.2957 21.6704 26.2659 21.6731 26.2386 21.6732C24.8494 21.6845 23.4406 21.6851 22.0785 21.6855C20.8023 21.686 19.4825 21.6866 18.1816 21.6959C18.1204 21.6959 18.0651 21.6937 18.0156 21.6888L20.601 26.8401C20.6087 26.8558 20.6547 26.9061 20.9194 26.9061C22.2201 26.897 23.5404 26.8964 24.8168 26.8959C26.1787 26.8954 27.5871 26.8948 28.9756 26.8836C28.9886 26.8835 29.0021 26.883 29.0159 26.8819L29.0181 26.8816L29.04 26.8791C29.0523 26.8777 29.0656 26.8759 29.0792 26.874L29.0815 26.8736L29.0943 26.8724L29.1162 26.8683L29.1171 26.8682L29.1297 26.8654C29.1442 26.8626 29.1566 26.8601 29.1694 26.8572L29.1715 26.8567L29.1828 26.8547L29.2116 26.847L29.2291 26.8419L29.2425 26.8384L29.2657 26.832L29.2678 26.8314L29.2778 26.8285C29.2981 26.8223 29.3182 26.815 29.3386 26.8078L29.3534 26.8028L29.3553 26.8021L29.3659 26.7985C29.3944 26.7879 29.4221 26.7769 29.4492 26.765L29.4686 26.756L29.4872 26.7474C29.4996 26.7419 29.5118 26.7363 29.5235 26.7304L29.5334 26.7253L29.5468 26.7181L29.5676 26.707L29.569 26.7063L29.5787 26.701C29.6048 26.6866 29.6224 26.6761 29.6396 26.6652L29.7175 26.6092C30.3305 26.1077 30.9444 25.6051 31.5587 25.1024L29.8313 21.6606L33.8811 18.3335Z" fill="white"/>
<path d="M11.6189 11.0405L11.325 11.8722L17.8379 5.91031L17.9312 5.64636L17.9764 5.51875L15.3906 0.366699L12.2412 9.27906L11.6189 11.0405Z" fill="white"/>
<path d="M21.3832 10.5684L21.4063 10.5029L9.5763 21.3301C9.54488 21.3592 9.5136 21.3862 9.48265 21.4115L9.46329 21.4267L9.45345 21.434L9.45297 21.4345L9.44074 21.4436C9.2136 21.6182 8.98836 21.6925 8.68806 21.6925C7.89964 21.6897 7.11567 21.6885 6.3317 21.6872L5.86488 21.6863L5.29282 21.6851C5.01345 21.6843 4.73392 21.6835 4.4552 21.6835C3.8717 21.6835 3.28758 21.6858 2.70345 21.6882L2.05836 21.691L1.46059 21.6924C1.12884 21.6929 0.797099 21.6935 0.464718 21.6958H0.464558C0.399796 21.6958 0.342177 21.693 0.287415 21.6875C0.287098 21.6873 0.286939 21.6873 0.286621 21.6873L2.86932 26.8336C2.88297 26.8607 2.94408 26.9061 3.20139 26.9061C4.4371 26.8976 5.74297 26.8938 7.19377 26.8938C8.60265 26.8938 10.0107 26.8975 11.4271 26.9028C11.4619 26.9028 11.4958 26.9018 11.5285 26.8994C11.5481 26.8976 11.5634 26.8956 11.5792 26.8936L11.5919 26.8918L11.6122 26.8894L11.6288 26.8875H11.6293L11.6411 26.8851C11.6568 26.8822 11.6747 26.8789 11.6923 26.8747L11.7036 26.8714L11.7042 26.8712L11.7155 26.8683L11.7412 26.8611C11.7562 26.8564 11.7701 26.8516 11.7841 26.8465L11.7846 26.8463L11.803 26.8389L11.8217 26.8312C11.8368 26.8248 11.85 26.8187 11.863 26.8121L11.879 26.8037L11.8792 26.8035L11.8952 26.7951C11.9189 26.782 11.9341 26.7728 11.9495 26.7631L11.9506 26.7623L11.9658 26.7518L11.9829 26.7399L11.9837 26.7397L11.9941 26.7323C12.0108 26.7207 12.0189 26.7144 12.027 26.7078L12.0406 26.6969L12.0413 26.6965L12.0513 26.6887L12.0665 26.6771L12.0675 26.6761L12.0765 26.6691C12.0986 26.6505 12.1237 26.6286 12.1489 26.6052L17.6781 21.5446C17.5506 21.389 17.6362 21.1489 17.6823 21.0194C18.6408 18.3368 19.6033 15.6099 20.5342 12.9728L21.3832 10.5684Z" fill="white"/>
<path d="M28.7891 11.8869L35.4526 5.95092L35.5616 5.65446L35.6186 5.49947L33.0311 0.34375L32.6948 1.25889L30.8676 6.23159L28.7891 11.8869Z" fill="white"/>
<path d="M87.7059 0.243548L87.6886 0.259955L87.6626 0.284487C87.5679 0.374012 87.4863 0.451269 87.3989 0.522791L87.3372 0.573448L87.2753 0.624421L86.4178 1.32882L85.8265 1.81451L85.5039 2.07942L85.2432 2.29303C84.8425 2.62213 84.4415 2.95091 84.0403 3.27954C83.177 3.98649 82.1516 4.82454 81.0934 5.67947C81.0691 5.69906 81.0426 5.71802 81.0145 5.73666L81.014 5.73729L81.0063 5.7424C81.0036 5.74383 81.0015 5.74542 80.9994 5.7467L80.9991 5.74701H80.9989C80.9811 5.75848 80.9697 5.76501 80.9582 5.7717L80.9454 5.77903C80.7102 5.91778 80.4125 6.01112 80.205 6.01112C77.6782 6.01606 75.0841 6.01797 72.4737 6.01861L68.336 6.01925C65.3583 6.0194 62.3935 6.01957 59.5158 6.02275C59.4759 6.02275 59.4325 6.02466 59.3878 6.02752L59.3739 6.02848L59.3565 6.02976C59.3027 6.03406 59.2468 6.04059 59.1903 6.04967L59.1515 6.05652C59.1278 6.06098 59.1058 6.06528 59.0837 6.07038C59.0646 6.07452 59.0464 6.07898 59.0283 6.08392L58.9988 6.09204C58.9725 6.09969 58.9464 6.10829 58.9216 6.11769C58.8882 6.13123 58.8649 6.14174 58.8434 6.15338C58.8211 6.16532 58.8034 6.17647 58.7877 6.18826L58.7812 6.19352C58.7407 6.22171 58.7083 6.24704 58.6777 6.27285L58.6659 6.28351L58.6651 6.28399L58.6561 6.29259C58.6364 6.3098 58.6177 6.32732 58.5999 6.34532L58.5815 6.36587L58.5664 6.38276L58.5558 6.39438C58.5477 6.40314 58.5396 6.41207 58.532 6.42099L58.5213 6.43309C58.5082 6.44934 58.5015 6.46001 58.4945 6.47037L58.4807 6.49172L58.4668 6.51147C58.4608 6.51974 58.455 6.52804 58.4501 6.53647C58.4377 6.55734 58.428 6.57852 58.4184 6.59955L58.4061 6.62552L58.3982 6.64193C58.3959 6.64798 58.3922 6.65881 58.3884 6.66964C58.3839 6.68414 58.3784 6.70246 58.3739 6.72062C58.3716 6.72922 58.3693 6.73766 58.3665 6.74595C58.365 6.75455 58.3631 6.76188 58.362 6.7692C58.3603 6.77924 58.3594 6.78879 58.3582 6.79835C58.3565 6.8146 58.3551 6.83054 58.355 6.84598V6.86032C58.3556 6.8866 58.3572 6.90748 58.3607 6.92755C58.3658 6.95207 58.3711 6.97039 58.3774 6.98872C58.4331 7.13462 58.5588 7.22638 58.744 7.26365C59.3549 7.39459 59.9649 7.52378 60.5749 7.65313C62.2645 8.01122 64.0118 8.38127 65.7118 8.77535C66.9789 9.06782 68.0312 9.53806 68.8394 10.1729C69.217 10.4695 69.505 10.8247 69.6963 11.2296L71.0258 11.2295C74.9792 11.2293 79.0672 11.2291 82.9434 11.2215C82.9569 11.2215 82.9705 11.2209 82.9846 11.2199C83.0088 11.2181 83.0345 11.2149 83.0608 11.2103C83.0875 11.206 83.1145 11.2003 83.142 11.1936C83.1696 11.1869 83.1982 11.179 83.2269 11.1702C83.2556 11.1611 83.2845 11.1514 83.3134 11.1406L83.327 11.1351L83.3445 11.128L83.3669 11.1189L83.397 11.1068L83.416 11.098L83.4327 11.0901L83.6107 10.9926L83.6279 10.981L83.6469 10.9681C83.6573 10.9602 83.6682 10.9521 83.6783 10.944C84.2065 10.5174 84.7336 10.0892 85.2598 9.66056C86.2564 8.84864 87.2397 8.04197 88.4097 7.08062L89.1329 6.48629L89.9821 5.78858L89.9948 5.77824C90.0065 5.76836 90.0183 5.758 90.0301 5.74765L90.0426 5.73666L90.0583 5.72296L90.0786 5.70528C90.0986 5.68727 90.1192 5.668 90.1397 5.64904L90.1541 5.63583L90.1745 5.61687L90.2332 5.56128L90.2745 5.5224C90.2936 5.50424 90.3136 5.48545 90.3345 5.46601L87.711 0.23877L87.7059 0.243548Z" fill="white"/>
<path d="M33.8811 18.3335C35.0067 17.4104 36.1432 16.4957 37.2524 15.5601C37.5849 15.2803 37.8624 15.1706 38.2756 15.1706C40.0744 15.174 41.8728 15.1764 43.671 15.1777C45.2923 13.8482 46.9092 12.5218 48.5194 11.2008L47.7754 9.71839C47.7768 9.72126 47.7786 9.72381 47.78 9.72651C47.2987 8.77537 47.36 7.5738 48.0559 6.36302C48.5075 5.57546 49.3032 4.79699 50.0915 4.12557C51.1711 3.20548 52.4118 2.50873 53.7244 1.99914L52.8411 0.239258L52.8109 0.268726L52.7525 0.325278L52.7351 0.341845L52.7216 0.354588L52.7091 0.366535C52.6919 0.382783 52.6749 0.399032 52.6581 0.414164L52.6351 0.434554L52.6215 0.446341L52.6106 0.456058C52.5932 0.47167 52.5756 0.48712 52.5576 0.501935L51.4837 1.38315C43.5068 7.92856 35.2585 14.6965 27.1338 21.3437C27.1071 21.3655 27.0773 21.3869 27.0459 21.4074C27.009 21.4317 26.9782 21.4495 26.9466 21.4667L26.9213 21.4802C26.8949 21.4939 26.8678 21.5069 26.8401 21.5197L26.8109 21.5332C26.7775 21.5487 26.7435 21.5624 26.7087 21.5742L26.6892 21.581C26.6542 21.5933 26.6259 21.6027 26.5975 21.6113C26.5849 21.6152 26.5725 21.6183 26.56 21.6216C26.5316 21.6293 26.508 21.6357 26.4848 21.641C26.4699 21.6443 26.4548 21.6474 26.4396 21.6503C26.4178 21.6546 26.3966 21.6582 26.3757 21.6613C26.3591 21.6637 26.3425 21.6656 26.3262 21.6674C26.2957 21.6704 26.2659 21.6731 26.2386 21.6732C24.8494 21.6845 23.4406 21.6851 22.0785 21.6855C20.8023 21.686 19.4825 21.6866 18.1816 21.6957C18.1205 21.6957 18.0651 21.6937 18.0156 21.6888L20.601 26.8401C20.6087 26.8558 20.6547 26.9061 20.9194 26.9061C22.2201 26.897 23.5404 26.8964 24.8168 26.8959C26.1787 26.8954 27.5871 26.8948 28.9756 26.8836C28.9886 26.8835 29.0021 26.883 29.0159 26.8819L29.0181 26.8816L29.04 26.8791C29.0523 26.8777 29.0656 26.8759 29.0792 26.874L29.0815 26.8736L29.0943 26.8724L29.1161 26.8683L29.1171 26.8682L29.1297 26.8654C29.1442 26.8626 29.1566 26.8601 29.1694 26.8572L29.1715 26.8567L29.1828 26.8544L29.2116 26.847L29.2291 26.8419L29.2425 26.8384L29.2657 26.832L29.2678 26.8314L29.2778 26.8285C29.2981 26.8223 29.3182 26.815 29.3386 26.8078L29.3534 26.8028L29.3553 26.8021L29.3659 26.7985C29.3944 26.7879 29.4221 26.7769 29.4492 26.765L29.4686 26.756L29.4872 26.7474C29.4996 26.7419 29.5118 26.7363 29.5235 26.7304L29.5334 26.7253L29.5468 26.7181L29.5676 26.707L29.569 26.7063L29.5787 26.701C29.6048 26.6866 29.6224 26.6761 29.6396 26.6652L29.7175 26.6092C30.3305 26.1077 30.9444 25.6051 31.5587 25.1024L29.8313 21.6606L33.8811 18.3335Z" fill="white"/>
<path d="M69.7346 13.8848L69.7298 13.8982C69.7042 13.9732 69.6766 14.0481 69.6474 14.123L69.6224 14.1856C69.5896 14.2664 69.5557 14.3469 69.5189 14.4274L69.5131 14.4457L69.5071 14.4528C69.4712 14.5302 69.4327 14.6071 69.3929 14.6842L69.3608 14.7457C69.3172 14.8279 69.2723 14.9101 69.2247 14.9913C69.1766 15.0736 69.1262 15.1543 69.0747 15.2346L69.0358 15.2948C68.9833 15.3748 68.9295 15.4549 68.8731 15.5338C68.7889 15.6522 68.6956 15.7757 68.5886 15.9114C68.5133 16.0073 68.4366 16.1021 68.3577 16.1948L68.3418 16.213L68.3301 16.2264C68.2565 16.3123 68.1815 16.3968 68.1053 16.4796L68.0403 16.5497L68.0262 16.5645C67.9624 16.6325 67.8977 16.6998 67.8322 16.766L67.8104 16.7879L67.7547 16.8438C67.7179 16.8804 67.6804 16.9159 67.6427 16.9516L67.6052 16.9872L67.5879 17.0037C67.5376 17.0515 67.4871 17.0994 67.4358 17.1461C67.3957 17.1825 67.3547 17.2184 67.3139 17.2541L67.2865 17.2782L67.2677 17.2944C67.2161 17.3397 67.1646 17.385 67.1118 17.4291C67.0504 17.4807 66.988 17.5315 66.9253 17.5817L66.8871 17.6126C66.8596 17.6351 66.832 17.6574 66.8042 17.6792C66.7318 17.7358 66.6581 17.7909 66.5842 17.846L66.5434 17.8768C66.5229 17.8922 66.5023 17.9079 66.4814 17.9231C66.3747 18.0008 66.2665 18.077 66.1567 18.1513L66.1184 18.1769L66.0866 18.1977C65.9989 18.2565 65.9105 18.3145 65.8212 18.3712C65.7942 18.3882 65.767 18.4051 65.7398 18.4217L65.7022 18.4451C65.6271 18.4915 65.5515 18.5375 65.4753 18.5826C65.4314 18.6087 65.3871 18.6344 65.3427 18.6602C65.2693 18.7022 65.1955 18.7439 65.1212 18.7852C65.0728 18.8118 65.0246 18.8384 64.9758 18.8647C64.8996 18.9057 64.8224 18.9458 64.7448 18.9857L64.7058 19.0058C64.6727 19.0232 64.6395 19.0404 64.6058 19.0573C64.538 19.0913 64.4693 19.1245 64.4005 19.1576L64.3789 19.168L64.3255 19.194C64.2885 19.2118 64.2517 19.2298 64.2142 19.2474C64.1455 19.2795 64.0758 19.3109 64.006 19.3421L63.972 19.3573L63.9174 19.3821C63.8839 19.3972 63.8504 19.4123 63.8162 19.4272C63.6857 19.4842 63.5537 19.5404 63.4203 19.5945C63.2218 19.6753 63.012 19.757 62.7599 19.852C62.708 19.8715 62.6562 19.8902 62.6046 19.9093L62.5603 19.9256C62.4046 19.9826 62.2486 20.0383 62.0929 20.092L62.0639 20.1021C62.0062 20.122 61.9489 20.142 61.8914 20.1613C61.7005 20.2258 61.5099 20.2877 61.3191 20.3474L61.2836 20.3589L61.2386 20.373L61.1972 20.3858L61.1676 20.3948C61.0255 20.4382 60.8833 20.4803 60.741 20.5214L60.6252 20.5544L60.5876 20.5651C60.4658 20.5993 60.3443 20.6327 60.2228 20.6652L60.1931 20.6731L60.079 20.7039C59.9143 20.747 59.7498 20.789 59.5852 20.8288L59.5084 20.8468L59.4508 20.86C59.316 20.8922 59.181 20.9243 59.046 20.9544C59.0042 20.9636 58.9624 20.9723 58.9209 20.9812L58.8424 20.9976L58.7831 21.0105C58.6912 21.0303 58.5995 21.0502 58.5076 21.0691C58.458 21.0788 58.4086 21.0884 58.3593 21.098L58.2798 21.1135L58.2024 21.1285C58.1246 21.1437 58.0466 21.159 57.9686 21.1735C57.9174 21.1828 57.8662 21.1916 57.8153 21.2006L57.7315 21.2154L57.6686 21.2265C57.5915 21.2401 57.5143 21.2538 57.4374 21.2665C57.2246 21.302 57.0115 21.3354 56.7986 21.3665L56.7196 21.3775L56.6558 21.3865C56.4881 21.4103 56.3204 21.4327 56.1528 21.454L55.9776 21.4754L55.9431 21.4797C55.7903 21.498 55.6376 21.515 55.4851 21.5314L55.4474 21.5355L55.2904 21.5522C55.0779 21.5737 54.8653 21.5939 54.6529 21.6116C54.4809 21.626 54.309 21.6385 54.1372 21.6506C54.0681 21.6554 53.9993 21.6598 53.9304 21.6641L53.8898 21.6669C53.7791 21.6737 53.669 21.6807 53.5589 21.687C53.4755 21.6915 53.3922 21.696 53.3089 21.7003C53.1995 21.7057 53.0901 21.711 52.9809 21.7157L52.7329 21.7259C52.6228 21.7301 52.5128 21.734 52.4029 21.7376C52.3217 21.7405 52.2403 21.7431 52.1589 21.7455C52.0471 21.7487 51.9356 21.7515 51.8241 21.7539L51.7643 21.7553L51.5891 21.7594C51.4718 21.7615 51.3548 21.7635 51.238 21.7653L51.1565 21.7665L51.0201 21.7684C50.8929 21.7701 50.766 21.7713 50.6389 21.7725L50.5466 21.7732L50.4542 21.7741C50.267 21.7754 50.0798 21.7763 49.8931 21.7768C47.3615 21.7832 44.577 21.7865 41.1296 21.7865C39.3776 21.7865 37.626 21.7856 35.8742 21.7849H35.7914H35.6103C33.9466 21.7841 32.2829 21.7835 30.619 21.7835H30.0308L31.6562 25.0223L31.7093 25.1282L32.6017 26.9059H33.3136C35.0655 26.9059 36.8172 26.9066 38.5689 26.9075C40.3205 26.9083 42.0722 26.909 43.8242 26.909C47.2709 26.909 50.0553 26.9059 52.587 26.8993C52.7734 26.8989 52.9601 26.8978 53.1471 26.8968L53.2689 26.8955L53.3312 26.8949C53.461 26.8937 53.5862 26.8927 53.7117 26.8911L53.8424 26.8892L53.929 26.8879C54.0456 26.886 54.1622 26.8841 54.2789 26.882L54.4533 26.878L54.5128 26.8765C54.6237 26.874 54.7351 26.8712 54.8465 26.8682L55.0386 26.8622L55.0901 26.8605C55.1989 26.8569 55.3079 26.853 55.417 26.8488L55.6661 26.8383C55.7737 26.8338 55.8817 26.8286 55.9896 26.823C56.0734 26.8187 56.157 26.8144 56.2408 26.8099C56.3493 26.8038 56.4581 26.7971 56.5671 26.79C56.6499 26.7847 56.7327 26.7794 56.8155 26.7737L56.8627 26.7707L56.9191 26.7669L57.0457 26.7614C58.0795 26.7167 59.1105 26.6228 60.1358 26.4802L60.1609 26.4763L60.1752 26.474C60.2274 26.4653 60.2808 26.4555 60.3342 26.446L60.4293 26.429L60.4962 26.4173C60.5517 26.4076 60.607 26.398 60.6623 26.3879C60.7465 26.3724 60.8305 26.3559 60.9148 26.3394L60.9732 26.3279L61.0529 26.3126C61.101 26.3033 61.1491 26.2939 61.1972 26.2842C61.2884 26.2657 61.3795 26.2461 61.4705 26.2265L61.5296 26.2136L61.6093 26.1967C61.6499 26.1881 61.6908 26.1797 61.7315 26.1705C61.8652 26.1406 61.999 26.109 62.1327 26.0773L62.1922 26.0634L62.266 26.0462C62.4328 26.0057 62.5942 25.9643 62.7555 25.922L62.849 25.8971L62.8981 25.8838C63.0186 25.8517 63.1393 25.8185 63.2598 25.7844L63.4115 25.7414C63.5532 25.7005 63.6947 25.6584 63.8365 25.6153L63.8667 25.6061L63.9047 25.5946L63.9212 25.5896L63.9536 25.5791L63.986 25.5686C64.1747 25.5097 64.3629 25.4484 64.5514 25.3848L64.7028 25.3327L64.7522 25.3158C64.9062 25.2625 65.0604 25.2073 65.2143 25.1509L65.2727 25.1302C65.2948 25.1225 65.3172 25.1145 65.3396 25.1062L65.376 25.092L65.4123 25.078C65.6623 24.984 65.8703 24.9029 66.0666 24.8229C66.1905 24.7724 66.3136 24.7207 66.4353 24.6676L66.4361 24.6675L66.4567 24.6582C66.4901 24.6437 66.5223 24.6289 66.5547 24.6142L66.6103 24.5889L66.6341 24.5784C66.7061 24.5461 66.778 24.5139 66.849 24.4808C66.8852 24.4637 66.921 24.4464 66.957 24.4288L67.0112 24.4025L67.0746 24.3724C67.1127 24.3543 67.1509 24.336 67.1885 24.3172L67.2118 24.3053L67.2343 24.2936C67.268 24.2767 67.3012 24.2596 67.3342 24.2423L67.3713 24.2232C67.4476 24.184 67.5234 24.1444 67.5985 24.1041C67.6462 24.0784 67.6936 24.0522 67.7409 24.026L67.7881 24.0004C67.8114 23.988 67.8342 23.9753 67.857 23.9626L67.9141 23.9294L67.959 23.903C68.0024 23.8778 68.046 23.8527 68.0891 23.8272C68.1641 23.783 68.2381 23.7377 68.3118 23.6919L68.3466 23.6706C68.3741 23.6536 68.4015 23.6368 68.4286 23.6195L68.4517 23.6053L68.4718 23.5928C68.5401 23.5493 68.6071 23.5043 68.6742 23.4592L68.6889 23.4496L68.7234 23.4267L68.758 23.4041L69.1376 23.1341L69.1771 23.1044C69.2493 23.0506 69.3212 22.9968 69.3917 22.9415C69.4196 22.9199 69.4467 22.8977 69.4741 22.8756L69.5104 22.8463L69.5608 22.8062C69.5898 22.783 69.6189 22.76 69.6471 22.7365L69.6693 22.7173L69.6924 22.6972C69.7465 22.6519 69.7989 22.6059 69.8514 22.5598L69.8634 22.5495L69.8914 22.5248C69.9309 22.4903 69.9705 22.4556 70.0093 22.4203C70.0599 22.3743 70.1095 22.3271 70.159 22.2801L70.1748 22.2648L70.2214 22.2217C70.2418 22.2027 70.2624 22.1837 70.2823 22.1641L70.3017 22.1448L70.3209 22.1252L70.3718 22.074L70.3966 22.0488C70.4605 21.9843 70.5237 21.919 70.586 21.8525L70.6052 21.8319L70.6633 21.7694C70.7377 21.6882 70.8109 21.6062 70.8827 21.5223L70.8974 21.5055L70.9093 21.4917C70.9781 21.4107 71.0458 21.3287 71.1122 21.2454L71.1209 21.2336L71.1348 21.2153C71.2389 21.0832 71.3295 20.963 71.412 20.8471C71.4665 20.7709 71.5185 20.6934 71.5693 20.616L71.607 20.558C71.6553 20.4823 71.7028 20.4062 71.7477 20.3299L71.7493 20.3264L71.7555 20.3169C71.7974 20.2449 71.8405 20.166 71.8824 20.0866L71.9134 20.0275C71.9542 19.9482 71.9937 19.8691 72.0304 19.7893C72.0676 19.7091 72.1012 19.6294 72.1336 19.5495L72.1574 19.4896L72.168 19.4634L72.1815 19.4292C72.2008 19.3779 72.2184 19.3268 72.236 19.2756L72.242 19.2585L72.2471 19.2443C72.2737 19.1643 72.2976 19.0845 72.3195 19.0051L72.3309 18.9618L72.3365 18.9407C72.3524 18.8789 72.3671 18.817 72.3803 18.7554L72.3851 18.7339L72.3939 18.6922L72.398 18.6729L72.4014 18.6569C72.4066 18.6295 72.4105 18.6022 72.4147 18.5746L72.421 18.5317L72.427 18.4961C72.4304 18.4747 72.4341 18.4537 72.4367 18.4326C72.4442 18.3747 72.4491 18.317 72.4538 18.2596L72.4572 18.2237C72.4589 18.2094 72.4603 18.1952 72.461 18.181C72.4661 18.0983 72.4672 18.0247 72.4666 17.9518L72.4657 17.9141L72.4648 17.8902L72.4641 17.8564C72.4636 17.834 72.4633 17.8118 72.4618 17.7898C72.4609 17.7732 72.4593 17.7568 72.4577 17.7404L72.4551 17.7107L72.4536 17.6947L72.4508 17.6615C72.4439 17.5963 72.4358 17.531 72.4247 17.4668L72.4204 17.4455L72.4172 17.429L72.4137 17.4121L72.2932 16.9828L72.2884 16.9702L72.2801 16.9484L72.2736 16.9308L72.2686 16.9177C72.2439 16.8566 72.2166 16.7965 72.187 16.7375L69.8485 11.8311L69.9374 12.3014C69.9646 12.4448 69.9762 12.591 69.9679 12.7367C69.9677 12.7376 69.9677 12.7384 69.9677 12.7392C69.9665 12.7567 69.9647 12.7746 69.9629 12.7922L69.9599 12.8229C69.9551 12.8845 69.9498 12.946 69.9417 13.0078C69.9385 13.0317 69.9346 13.0555 69.9305 13.0796L69.9251 13.1134C69.9152 13.1761 69.9067 13.2299 69.8961 13.2836L69.8865 13.3294L69.8818 13.3505C69.8679 13.4158 69.8523 13.4809 69.8353 13.5463L69.8303 13.5659L69.8176 13.6142C69.7943 13.6978 69.7693 13.7818 69.7414 13.8656L69.7346 13.8848Z" fill="white"/>
<path d="M11.6189 11.0405L11.325 11.8722L17.8379 5.91031L17.9312 5.64636L17.9764 5.51875L15.3906 0.366699L12.2412 9.27906L11.6189 11.0405Z" fill="white"/>
<path d="M21.3832 10.5684L21.4063 10.5029L9.5763 21.3301C9.54472 21.3592 9.5136 21.3862 9.48249 21.4115L9.46329 21.4267L9.45345 21.434L9.45297 21.4345L9.44074 21.4436C9.21345 21.6182 8.98836 21.6925 8.68806 21.6925C7.89964 21.6897 7.11567 21.6885 6.3317 21.6872L5.86488 21.6863L5.29282 21.6851C5.01345 21.6843 4.73392 21.6835 4.4552 21.6835C3.8717 21.6835 3.28758 21.6858 2.70329 21.6882L2.05836 21.691L1.46059 21.6924C1.12884 21.6929 0.797099 21.6935 0.464718 21.6959H0.464558C0.399796 21.6959 0.342177 21.693 0.287415 21.6875C0.287098 21.6873 0.286939 21.6873 0.286621 21.6873L2.86932 26.8336C2.88297 26.8607 2.94408 26.9061 3.20139 26.9061C4.4371 26.8976 5.74297 26.8938 7.19377 26.8938C8.60265 26.8938 10.0107 26.8975 11.4271 26.9028C11.4619 26.9028 11.4958 26.9018 11.5285 26.8994C11.5481 26.8976 11.5634 26.8956 11.579 26.8936L11.5919 26.8918L11.6122 26.8894L11.6287 26.8875H11.6293L11.6411 26.8851C11.6566 26.8822 11.6747 26.8789 11.6923 26.8747L11.7036 26.8714L11.7042 26.8712L11.7155 26.8683L11.7412 26.8611C11.7562 26.8564 11.7701 26.8516 11.7839 26.8465L11.7847 26.8463L11.803 26.8389L11.8217 26.8312C11.8368 26.8248 11.85 26.8187 11.863 26.8121L11.879 26.8037L11.8792 26.8035L11.8952 26.7951C11.9189 26.782 11.9342 26.7728 11.9494 26.7631L11.9506 26.7623L11.9658 26.7518L11.9829 26.7399L11.9837 26.7397L11.9941 26.7323C12.0108 26.7207 12.0187 26.7144 12.0267 26.7078L12.0406 26.6969L12.0413 26.6965L12.0513 26.6887L12.0665 26.6771L12.0675 26.6761L12.0765 26.6691C12.0986 26.6505 12.1237 26.6286 12.1489 26.6052L17.6781 21.5446C17.5506 21.389 17.6362 21.1489 17.6823 21.0194C18.6408 18.3368 19.6033 15.6099 20.5342 12.9728L21.3832 10.5684Z" fill="white"/>
<path d="M28.7891 11.8869L35.4526 5.95092L35.5616 5.65446L35.6186 5.49947L33.0311 0.34375L32.6948 1.25889L30.8674 6.23159L28.7891 11.8869Z" fill="white"/>
<path d="M33.8811 18.3335C35.0067 17.4104 36.1432 16.4957 37.2524 15.5601C37.5851 15.2803 37.8624 15.1706 38.2756 15.1706C40.0743 15.174 41.8728 15.1764 43.6709 15.1777C45.2923 13.8482 46.9092 12.5218 48.5194 11.2008L47.7754 9.71839C47.7768 9.72126 47.7786 9.72381 47.78 9.72651C47.2987 8.77537 47.3599 7.5738 48.0557 6.36302C48.5075 5.57546 49.3032 4.79699 50.0915 4.12557C51.1711 3.20548 52.4118 2.50873 53.7244 1.99914L52.8411 0.239258L52.8109 0.268726L52.7525 0.325278L52.7351 0.341845L52.7216 0.354588L52.7091 0.366535C52.6919 0.382783 52.6749 0.399032 52.6581 0.414164L52.6351 0.434554L52.6215 0.446341L52.6106 0.456058C52.5932 0.47167 52.5756 0.48712 52.5576 0.501935L51.4837 1.38315C43.5068 7.92856 35.2585 14.6965 27.1338 21.3437C27.1071 21.3655 27.0773 21.3869 27.0459 21.4074C27.009 21.4317 26.9782 21.4495 26.9466 21.4667L26.9213 21.4802C26.8949 21.4939 26.8678 21.5069 26.8401 21.5197L26.8106 21.5332C26.7775 21.5487 26.7435 21.5624 26.7087 21.5742L26.6891 21.581C26.6542 21.5933 26.6259 21.6027 26.5975 21.6113C26.5849 21.6152 26.5725 21.6183 26.56 21.6216C26.5318 21.6293 26.508 21.6357 26.4847 21.641C26.4699 21.6443 26.4548 21.6474 26.4396 21.6503C26.4176 21.6546 26.3966 21.6582 26.3757 21.6613C26.3591 21.6637 26.3425 21.6656 26.3262 21.6674C26.2957 21.6704 26.2659 21.6731 26.2386 21.6732C24.8494 21.6845 23.4406 21.6851 22.0785 21.6855C20.8021 21.686 19.4825 21.6866 18.1816 21.6959C18.1204 21.6959 18.0651 21.6937 18.0156 21.6888L20.601 26.8401C20.6087 26.8558 20.6547 26.9061 20.9194 26.9061C22.2201 26.897 23.5401 26.8964 24.8168 26.8959C26.1787 26.8954 27.5871 26.8948 28.9756 26.8836C28.9886 26.8835 29.0021 26.883 29.0159 26.8819L29.0181 26.8816L29.04 26.8791C29.0523 26.8777 29.0656 26.8759 29.0792 26.874L29.0816 26.8736L29.0943 26.8724L29.1161 26.8683L29.1171 26.8682L29.1297 26.8654C29.1442 26.8626 29.1566 26.8601 29.1694 26.8572L29.1715 26.8567L29.1828 26.8544L29.2116 26.847L29.2291 26.8419L29.2425 26.8384L29.2657 26.832L29.2678 26.8314L29.2778 26.8285C29.298 26.8223 29.3182 26.815 29.3386 26.8078L29.3534 26.8028L29.3553 26.8021L29.3659 26.7985C29.3944 26.7879 29.4221 26.7769 29.4492 26.765L29.4686 26.756L29.4872 26.7474C29.4994 26.7419 29.5118 26.7363 29.5235 26.7304L29.5332 26.7253L29.5468 26.7181L29.5676 26.707L29.569 26.7063L29.5787 26.701C29.6048 26.6866 29.6224 26.6761 29.6396 26.6652L29.7175 26.6092C30.3305 26.1077 30.9444 25.6051 31.5587 25.1024L29.8313 21.6606L33.8811 18.3335Z" fill="white"/>
<path d="M87.7059 0.243548L87.6886 0.259955L87.6626 0.284487C87.5679 0.374012 87.4863 0.451269 87.3988 0.522791L87.3372 0.573448L87.2753 0.624421L86.4178 1.32882L85.8265 1.81451L85.5036 2.07942L85.2432 2.29303C84.8425 2.62213 84.4415 2.95091 84.0402 3.27954C83.1769 3.98649 82.1516 4.82454 81.0932 5.67947C81.0691 5.69906 81.0426 5.71802 81.0145 5.73666L81.014 5.73729L81.0063 5.7424C81.0036 5.74383 81.0015 5.74542 80.9994 5.7467L80.9991 5.74701H80.9989C80.9811 5.75848 80.9697 5.76501 80.9582 5.7717L80.9453 5.77903C80.7102 5.91778 80.4125 6.01112 80.205 6.01112C77.6782 6.01606 75.0841 6.01797 72.4737 6.01861L68.3359 6.01925C65.3583 6.0194 62.3935 6.01957 59.5158 6.02275C59.4758 6.02275 59.4325 6.02466 59.3878 6.02752L59.3739 6.02848L59.3565 6.02976C59.3027 6.03406 59.2468 6.04059 59.1903 6.04967L59.1515 6.05652C59.1278 6.06098 59.1056 6.06528 59.0837 6.07038C59.0646 6.07452 59.0463 6.07898 59.0283 6.08392L58.9988 6.09204C58.9725 6.09969 58.9464 6.10829 58.9216 6.11769C58.8882 6.13123 58.8649 6.14174 58.8434 6.15338C58.8211 6.16532 58.8032 6.17647 58.7877 6.18826L58.7812 6.19352C58.7407 6.22171 58.7083 6.24704 58.6777 6.27285L58.6659 6.28351L58.6651 6.28399L58.6559 6.29259C58.6364 6.3098 58.6175 6.32732 58.5999 6.34532L58.5815 6.36587L58.5664 6.38276L58.5558 6.39438C58.5477 6.40314 58.5396 6.41207 58.532 6.42099L58.5213 6.43309C58.5082 6.44934 58.5015 6.46001 58.4945 6.47037L58.4806 6.49172L58.4668 6.51147C58.4608 6.51974 58.455 6.52804 58.4501 6.53647C58.4377 6.55734 58.428 6.57852 58.4183 6.59955L58.4061 6.62552L58.3982 6.64193C58.3959 6.64798 58.3921 6.65881 58.3884 6.66964C58.3839 6.68414 58.3784 6.70246 58.3739 6.72062C58.3716 6.72922 58.3693 6.73766 58.3665 6.74595C58.365 6.75455 58.3631 6.76188 58.362 6.7692C58.3603 6.77924 58.3594 6.78879 58.3582 6.79835C58.3565 6.8146 58.3551 6.83054 58.355 6.84598V6.86032C58.3556 6.8866 58.3572 6.90748 58.3607 6.92755C58.3658 6.95207 58.3711 6.97039 58.3774 6.98872C58.4331 7.13462 58.5588 7.22638 58.7439 7.26365C59.3549 7.39459 59.9646 7.52378 60.5749 7.65313C62.2645 8.01122 64.0118 8.38127 65.7118 8.77535C66.9788 9.06782 68.0312 9.53806 68.8394 10.1729C69.217 10.4695 69.5049 10.8247 69.696 11.2296L71.0258 11.2295C74.9792 11.2293 79.0672 11.2291 82.9434 11.2215C82.9569 11.2215 82.9705 11.2209 82.9846 11.2199C83.0088 11.2181 83.0344 11.2149 83.0608 11.2103C83.0875 11.206 83.1145 11.2003 83.142 11.1936C83.1696 11.1869 83.1982 11.179 83.2269 11.1702C83.2556 11.1611 83.2845 11.1514 83.3134 11.1406L83.3269 11.1351L83.3445 11.128L83.3669 11.1189L83.3969 11.1068L83.416 11.098L83.4327 11.0901L83.6107 10.9926L83.6279 10.981L83.6469 10.9681C83.6573 10.9602 83.6679 10.9521 83.6782 10.944C84.2065 10.5174 84.7336 10.0892 85.2598 9.66056C86.2564 8.84864 87.2397 8.04197 88.4097 7.08062L89.1329 6.48629L89.9821 5.78858L89.9948 5.77824C90.0065 5.76836 90.0183 5.758 90.0301 5.74765L90.0426 5.73666L90.0582 5.72296L90.0786 5.70528C90.0986 5.68727 90.1192 5.668 90.1397 5.64904L90.154 5.63583L90.1745 5.61687L90.2332 5.56128L90.2745 5.5224C90.2936 5.50424 90.3136 5.48545 90.3345 5.46601L87.711 0.23877L87.7059 0.243548Z" fill="white"/>
<path d="M69.7346 13.8848L69.7298 13.8982C69.7041 13.9732 69.6766 14.0481 69.6472 14.123L69.6224 14.1856C69.5896 14.2664 69.5557 14.3469 69.5189 14.4274L69.5131 14.4457L69.5071 14.4528C69.471 14.5302 69.4324 14.6071 69.3929 14.6842L69.3608 14.7457C69.3172 14.8279 69.2722 14.9101 69.2247 14.9913C69.1765 15.0736 69.1262 15.1543 69.0747 15.2346L69.0358 15.2948C68.9833 15.3748 68.9295 15.4549 68.8731 15.5338C68.7886 15.6522 68.6956 15.7757 68.5886 15.9114C68.5133 16.0073 68.4366 16.1021 68.3577 16.1948L68.3417 16.213L68.3301 16.2264C68.2562 16.3123 68.1815 16.3968 68.1053 16.4796L68.0403 16.5497L68.0261 16.5645C67.9624 16.6325 67.8977 16.6998 67.832 16.766L67.8104 16.7879L67.7547 16.8438C67.7179 16.8804 67.6804 16.9159 67.6427 16.9516L67.6052 16.9872L67.5879 17.0037C67.5374 17.0515 67.4871 17.0994 67.4358 17.1461C67.3957 17.1825 67.3547 17.2184 67.3139 17.2541L67.2865 17.2782L67.2677 17.2944C67.2161 17.3397 67.1646 17.385 67.1118 17.4291C67.0504 17.4807 66.988 17.5315 66.9253 17.5817L66.8871 17.6126C66.8596 17.6351 66.832 17.6574 66.8042 17.6792C66.7318 17.7358 66.658 17.7909 66.5842 17.846L66.5434 17.8768C66.5229 17.8922 66.5023 17.9079 66.4814 17.9231C66.3747 18.0008 66.2665 18.077 66.1566 18.1513L66.1184 18.1769L66.0866 18.1977C65.9989 18.2565 65.9105 18.3145 65.8212 18.3712C65.7942 18.3882 65.767 18.4051 65.7398 18.4217L65.702 18.4451C65.627 18.4915 65.5515 18.5375 65.4753 18.5826C65.4314 18.6087 65.3871 18.6344 65.3427 18.6602C65.2693 18.7022 65.1955 18.7439 65.1212 18.7852C65.0728 18.8118 65.0246 18.8384 64.9758 18.8647C64.8996 18.9057 64.8223 18.9458 64.7448 18.9857L64.7058 19.0058C64.6727 19.0232 64.6393 19.0404 64.6058 19.0573C64.5379 19.0913 64.4693 19.1245 64.4005 19.1576L64.3789 19.168L64.3255 19.194C64.2885 19.2118 64.2515 19.2298 64.2142 19.2474C64.1453 19.2795 64.0757 19.3109 64.006 19.3421L63.9718 19.3573L63.9174 19.3821C63.8839 19.3972 63.8503 19.4124 63.8162 19.4273C63.6857 19.4842 63.5537 19.5404 63.4203 19.5945C63.2218 19.6753 63.012 19.757 62.7599 19.852C62.708 19.8715 62.6562 19.8902 62.6046 19.9093L62.5603 19.9256C62.4046 19.9826 62.2486 20.0383 62.0929 20.092L62.0639 20.1021C62.0062 20.122 61.9489 20.142 61.8914 20.1613C61.7005 20.2258 61.5099 20.2877 61.3191 20.3474L61.2836 20.3589L61.2386 20.373L61.1972 20.3858L61.1676 20.3948C61.0255 20.4382 60.8833 20.4803 60.741 20.5214L60.6252 20.5544L60.5874 20.5651C60.4658 20.5993 60.3442 20.6327 60.2228 20.6652L60.1931 20.6731L60.079 20.7039C59.9143 20.747 59.7498 20.789 59.5852 20.8288L59.5084 20.8468L59.4508 20.86C59.3158 20.8922 59.1809 20.9243 59.046 20.9544C59.0042 20.9636 58.9624 20.9723 58.9209 20.9812L58.8424 20.9976L58.7831 21.0105C58.6912 21.0303 58.5993 21.0502 58.5076 21.0691C58.458 21.0788 58.4086 21.0886 58.3591 21.098L58.2798 21.1135L58.2024 21.1285C58.1246 21.1437 58.0466 21.159 57.9686 21.1735C57.9174 21.1828 57.8662 21.1916 57.8153 21.2006L57.7315 21.2154L57.6685 21.2265C57.5915 21.2401 57.5143 21.2538 57.4374 21.2665C57.2246 21.302 57.0115 21.3354 56.7986 21.3665L56.7196 21.3775L56.656 21.3865C56.4881 21.4103 56.3204 21.4327 56.1528 21.454L55.9776 21.4754L55.9431 21.4797C55.7903 21.498 55.6376 21.515 55.4851 21.5314L55.4474 21.5355L55.2905 21.5522C55.0779 21.5737 54.8653 21.5939 54.6529 21.6116C54.4808 21.626 54.309 21.6385 54.1372 21.6506C54.0681 21.6554 53.9993 21.6598 53.9304 21.6641L53.8898 21.6669C53.7791 21.6737 53.669 21.6807 53.5589 21.687C53.4755 21.6915 53.392 21.696 53.3089 21.7003C53.1995 21.7057 53.0901 21.711 52.9809 21.7157L52.7329 21.7259C52.6228 21.7301 52.5128 21.734 52.4029 21.7376C52.3217 21.7405 52.2403 21.7431 52.1586 21.7455C52.0471 21.7487 51.9356 21.7515 51.8241 21.7539L51.7643 21.7553L51.5891 21.7594C51.472 21.7615 51.3548 21.7635 51.238 21.7653L51.1565 21.7665L51.0201 21.7684C50.8929 21.7701 50.766 21.7713 50.6389 21.7725L50.5466 21.7732L50.4542 21.7741C50.267 21.7754 50.0798 21.7763 49.8931 21.7768C47.3615 21.7832 44.577 21.7865 41.1296 21.7865C39.3776 21.7865 37.6258 21.7856 35.8742 21.7849H35.7914H35.6103C33.9466 21.7841 32.2829 21.7835 30.619 21.7835H30.0308L31.6562 25.0223L31.7093 25.1282L32.6017 26.9059H33.3134C35.0655 26.9059 36.8172 26.9066 38.5689 26.9075C40.3205 26.9083 42.0722 26.909 43.8242 26.909C47.2709 26.909 50.0553 26.9059 52.587 26.8993C52.7734 26.8989 52.9601 26.8978 53.1471 26.8968L53.2689 26.8955L53.3312 26.8949C53.461 26.8937 53.5861 26.8927 53.7117 26.8911L53.8424 26.8892L53.929 26.8879C54.0456 26.886 54.1622 26.8841 54.2786 26.882L54.4533 26.878L54.5128 26.8768C54.6237 26.874 54.7351 26.8712 54.8465 26.8682L55.0386 26.8622L55.0901 26.8605C55.1989 26.8569 55.3079 26.853 55.417 26.8488L55.6661 26.8383C55.7737 26.8338 55.8817 26.8286 55.9896 26.823C56.0734 26.8187 56.157 26.8144 56.2408 26.8099C56.3493 26.8038 56.4581 26.7971 56.5671 26.79C56.6499 26.7847 56.7327 26.7794 56.8155 26.7737L56.8627 26.7707L56.919 26.7669L57.0455 26.7614C58.0795 26.7167 59.1105 26.6228 60.1358 26.4802L60.1609 26.4763L60.1752 26.474C60.2274 26.4653 60.2808 26.4555 60.3342 26.446L60.4293 26.429L60.4962 26.4173C60.5515 26.4076 60.607 26.398 60.6623 26.3879C60.7465 26.3724 60.8305 26.3559 60.9148 26.3394L60.9732 26.3279L61.0529 26.3126C61.101 26.3033 61.1491 26.2939 61.1972 26.2842C61.2884 26.2657 61.3795 26.2461 61.4705 26.2265L61.5296 26.2136L61.6091 26.1967C61.6499 26.1881 61.6908 26.1797 61.7315 26.1705C61.8651 26.1406 61.999 26.109 62.1327 26.0773L62.1922 26.0634L62.266 26.0462C62.4328 26.0057 62.5941 25.9643 62.7555 25.922L62.849 25.8971L62.8981 25.8838C63.0186 25.8517 63.1391 25.8185 63.2598 25.7844L63.4115 25.7414C63.5529 25.7005 63.6947 25.6584 63.8365 25.6153L63.8667 25.6061L63.9047 25.5946L63.9212 25.5896L63.9536 25.5791L63.986 25.5686C64.1747 25.5097 64.3629 25.4484 64.5512 25.3848L64.7028 25.3327L64.7522 25.3158C64.9062 25.2625 65.0603 25.2073 65.2143 25.1509L65.2727 25.1302C65.2948 25.1225 65.3172 25.1145 65.3395 25.1062L65.376 25.092L65.4122 25.078C65.6623 24.984 65.8703 24.9029 66.0666 24.8229C66.1905 24.7724 66.3136 24.7207 66.4353 24.6676L66.436 24.6675L66.4566 24.6582C66.4899 24.6437 66.5223 24.6289 66.5546 24.6142L66.6103 24.5889L66.6341 24.5784C66.7061 24.5461 66.778 24.5139 66.849 24.4808C66.8852 24.4637 66.921 24.4464 66.957 24.4288L67.0112 24.4025L67.0743 24.3724C67.1127 24.3543 67.1509 24.336 67.1885 24.3172L67.2117 24.3053L67.2343 24.2936C67.268 24.2767 67.3012 24.2596 67.3342 24.2423L67.3713 24.2232C67.4476 24.184 67.5234 24.1444 67.5985 24.1041C67.6461 24.0784 67.6936 24.0522 67.7409 24.026L67.7881 24.0004C67.8112 23.988 67.8342 23.9753 67.857 23.9626L67.9141 23.9294L67.9589 23.903C68.0024 23.8778 68.046 23.8527 68.0891 23.8272C68.1641 23.783 68.238 23.7377 68.3118 23.6919L68.3465 23.6706C68.3741 23.6536 68.4015 23.6368 68.4286 23.6195L68.4517 23.6053L68.4718 23.5928C68.5401 23.5493 68.6071 23.5043 68.6742 23.4594L68.6889 23.4496L68.7234 23.4267L68.758 23.4041L69.1374 23.1341L69.1771 23.1044C69.2491 23.0506 69.3212 22.9968 69.3917 22.9415C69.4195 22.9199 69.4467 22.8977 69.4739 22.8756L69.5104 22.8463L69.5608 22.8062C69.5898 22.783 69.6186 22.76 69.6471 22.7365L69.6693 22.7173L69.6924 22.6972C69.7465 22.6519 69.7989 22.6059 69.8514 22.5598L69.8634 22.5495L69.8914 22.5248C69.9309 22.4903 69.9704 22.4556 70.0093 22.4203C70.0599 22.3743 70.1095 22.3271 70.159 22.2801L70.1748 22.2648L70.2212 22.2217C70.2418 22.2027 70.2623 22.1837 70.2823 22.1641L70.3015 22.1448L70.3209 22.1252L70.3718 22.074L70.3966 22.0488C70.4605 21.9843 70.5236 21.919 70.5858 21.8525L70.6052 21.8319L70.6633 21.7694C70.7377 21.6882 70.8109 21.6062 70.8827 21.5223L70.8974 21.5055L70.9093 21.4917C70.9781 21.4107 71.0458 21.3287 71.1122 21.2454L71.1209 21.2336L71.1348 21.2153C71.2389 21.0832 71.3295 20.963 71.412 20.8471C71.4665 20.7709 71.5185 20.6934 71.5693 20.616L71.6067 20.558C71.6553 20.4823 71.7027 20.4062 71.7477 20.3299L71.7491 20.3264L71.7555 20.3169C71.7974 20.2449 71.8405 20.166 71.8824 20.0866L71.9134 20.0275C71.9542 19.9482 71.9937 19.8691 72.0304 19.7893C72.0674 19.7091 72.1012 19.6294 72.1336 19.5495L72.1574 19.4896L72.1679 19.4634L72.1815 19.4292C72.2008 19.3779 72.2184 19.3268 72.236 19.2756L72.242 19.2585L72.2471 19.2443C72.2737 19.1643 72.2974 19.0845 72.3195 19.0051L72.3308 18.9618L72.3363 18.9407C72.3524 18.8789 72.3671 18.817 72.3803 18.7554L72.3851 18.7339L72.3939 18.6922L72.398 18.6729L72.4014 18.6569C72.4066 18.6295 72.4105 18.6022 72.4147 18.5746L72.421 18.5317L72.4267 18.4961C72.4304 18.4747 72.4339 18.4537 72.4366 18.4326C72.4442 18.3747 72.4491 18.317 72.4538 18.2596L72.4572 18.2237C72.4589 18.2094 72.4601 18.1952 72.461 18.181C72.4661 18.0983 72.4672 18.0247 72.4666 17.9518L72.4657 17.9141L72.4648 17.8902L72.4641 17.8564C72.4636 17.834 72.4633 17.8118 72.4618 17.7898C72.4609 17.7732 72.4593 17.7568 72.4577 17.7404L72.4551 17.7107L72.4536 17.6947L72.4508 17.6615C72.4439 17.5963 72.4358 17.531 72.4247 17.4668L72.4204 17.4455L72.4172 17.429L72.4137 17.4121L72.2932 16.9828L72.2884 16.9702L72.2801 16.9484L72.2736 16.9308L72.2686 16.9177C72.2439 16.8566 72.2166 16.7965 72.187 16.7375L69.8485 11.8311L69.9374 12.3014C69.9646 12.4448 69.9762 12.591 69.9677 12.7367C69.9677 12.7376 69.9676 12.7384 69.9676 12.7392C69.9665 12.7567 69.9647 12.7746 69.9628 12.7922L69.9599 12.8229C69.9548 12.8845 69.9496 12.946 69.9417 13.0078C69.9385 13.0317 69.9346 13.0555 69.9305 13.0796L69.9251 13.1134C69.9152 13.1761 69.9067 13.2299 69.8961 13.2836L69.8865 13.3294L69.8818 13.3505C69.8679 13.4158 69.8523 13.4809 69.8353 13.5463L69.8303 13.5659L69.8174 13.6142C69.7943 13.6978 69.7693 13.7818 69.7414 13.8656L69.7346 13.8848Z" fill="white"/>
<path d="M58.4148 13.9372C58.4789 14.0628 58.4739 14.224 58.4013 14.3913C58.3717 14.4588 58.3328 14.5242 58.2861 14.5859C58.3328 14.5242 58.3717 14.4588 58.4013 14.3913C58.4739 14.224 58.4789 14.0628 58.4148 13.9372C58.4008 13.9091 58.379 13.8796 58.3489 13.847C58.3441 13.8416 58.339 13.8368 58.3341 13.832C58.339 13.8368 58.3441 13.8416 58.3489 13.847C58.379 13.8796 58.4008 13.9091 58.4148 13.9372Z" fill="white"/>
<path d="M57.5994 15.0558C57.6542 15.0334 57.6906 15.0176 57.6906 15.0176C57.772 14.9866 57.85 14.9491 57.9227 14.9058C57.85 14.9491 57.772 14.9866 57.6906 15.0176C57.6906 15.0176 57.6542 15.0334 57.5994 15.0558Z" fill="white"/>
<path d="M50.6523 15.179L57.2526 15.1762C57.3117 15.1616 57.3795 15.1389 57.4438 15.1157C57.3795 15.1389 57.3119 15.1616 57.2527 15.1762L50.6523 15.179Z" fill="white"/>
<path d="M48.7964 11.0139L48.7895 11.0093C48.7826 11.0049 48.7762 11.0001 48.7693 10.9956C48.7762 11.0001 48.7826 11.0049 48.7895 11.0093L48.7964 11.0139Z" fill="white"/>
<path d="M50.5535 14.9797L50.5725 15.0175L50.5535 14.9797Z" fill="white"/>
<path d="M48.6169 11.1209L48.6725 11.2313L49.613 13.1053L48.6725 11.2313L48.6169 11.1209L48.4226 10.7336L48.6169 11.1209Z" fill="white"/>
<path d="M48.6722 11.231L49.6127 13.1051L50.5533 14.9794L50.5536 14.9797L50.5724 15.0175H50.5723L50.6524 15.179L57.2527 15.1761C57.3119 15.1613 57.3795 15.1389 57.4438 15.1155C57.477 15.1035 57.5094 15.0916 57.5389 15.0801C57.5607 15.0715 57.5812 15.0631 57.5994 15.0557C57.6543 15.0334 57.6907 15.0175 57.6907 15.0175C57.7721 14.9867 57.8499 14.9489 57.9226 14.9057C58.068 14.8189 58.1927 14.7095 58.2861 14.586C58.3327 14.5241 58.3714 14.4588 58.4012 14.3911C58.4738 14.224 58.4788 14.0628 58.4148 13.9371C58.4007 13.909 58.3789 13.8794 58.3488 13.8468C58.344 13.8415 58.3389 13.8368 58.334 13.832C58.3317 13.8296 58.329 13.8268 58.3265 13.8245C58.2937 13.7936 58.2627 13.7697 58.2299 13.7506C57.1461 13.4734 56.0638 13.2204 55.017 12.9757C53.9269 12.7209 52.8971 12.4802 51.8574 12.2128C50.8328 11.9488 49.9281 11.6187 49.1683 11.2317L49.1662 11.2307C49.0743 11.1839 48.9789 11.1296 48.8748 11.0649C48.8745 11.0647 48.874 11.0644 48.8737 11.0641C48.8519 11.0505 48.8313 11.0369 48.8105 11.0232L48.7965 11.0137L48.7895 11.0091C48.7827 11.0047 48.7762 10.9999 48.7694 10.9954C48.7094 10.9554 48.6509 10.914 48.5945 10.8712L48.5776 10.8586C48.5567 10.8427 48.5356 10.8269 48.5152 10.8105C48.4831 10.7845 48.4521 10.759 48.4226 10.7334L48.6169 11.1206L48.6722 11.231Z" fill="white"/>
<path d="M90.2744 5.52253L90.2332 5.56141L90.1744 5.617L90.1539 5.63579L90.1396 5.64917C90.1192 5.66813 90.0987 5.6874 90.0787 5.70525L90.0582 5.72309L90.0425 5.73679L90.03 5.74778C90.0185 5.75813 90.0067 5.76849 89.9948 5.77837L89.982 5.78871L89.133 6.48642L88.4096 7.08075C87.2396 8.0421 86.2563 8.8486 85.26 9.66069C84.7337 10.0892 84.2065 10.5174 83.6782 10.9441C83.668 10.9522 83.6573 10.9604 83.6468 10.9682L83.628 10.9811L83.6106 10.9927L83.4327 11.0902L83.4161 11.098L83.3968 11.1069L83.3668 11.119L83.3444 11.1279L83.3268 11.1353L83.3133 11.1407C83.2844 11.1514 83.2556 11.1612 83.2268 11.1703C83.1981 11.1791 83.1696 11.187 83.1419 11.1937C83.1144 11.2004 83.0875 11.2062 83.0608 11.2105C83.0344 11.2149 83.0087 11.2181 82.9846 11.22C82.9705 11.2208 82.9568 11.2215 82.9433 11.2215C79.0673 11.2293 74.9792 11.2294 71.0257 11.2296L69.6961 11.2297C69.5049 10.8248 69.217 10.4696 68.8394 10.173C68.0311 9.53819 66.9789 9.06795 65.7118 8.77533C64.0118 8.3814 62.2646 8.01135 60.5748 7.6531C59.9648 7.52375 59.3548 7.39457 58.7438 7.26378C58.5587 7.22651 58.433 7.13475 58.3775 6.98884C58.371 6.97052 58.3657 6.9522 58.3608 6.92768C58.3571 6.90761 58.3557 6.88673 58.3551 6.86029V6.84611C58.3552 6.8305 58.3565 6.81473 58.3582 6.79848C58.3594 6.78892 58.3604 6.77937 58.3619 6.76933C58.363 6.76201 58.3649 6.75452 58.3665 6.74608C58.3692 6.73763 58.3715 6.72934 58.3738 6.72059C58.3786 6.70258 58.3839 6.68427 58.3885 6.66977C58.3923 6.65894 58.3958 6.64795 58.3982 6.64206L58.4061 6.62565L58.4185 6.59968C58.4281 6.5785 58.4376 6.55747 58.45 6.5366C58.4549 6.52817 58.461 6.51987 58.4668 6.5116L58.4806 6.49168L58.4946 6.4705C58.5014 6.46014 58.5082 6.44947 58.5213 6.43322L58.5319 6.42112C58.5395 6.4122 58.5476 6.40327 58.5557 6.39451L58.5663 6.38289L58.5814 6.366L58.5999 6.34545C58.6176 6.32745 58.6363 6.30993 58.6561 6.29257L58.6652 6.28412L58.6658 6.28349L58.6776 6.27298C58.7085 6.24717 58.7406 6.22184 58.7811 6.19348L58.7876 6.18838C58.8032 6.1766 58.8211 6.16545 58.8433 6.15334C58.8649 6.14187 58.8882 6.13136 58.9218 6.11782C58.9465 6.10842 58.9725 6.09981 58.9987 6.09217L59.0282 6.08404C59.0463 6.07911 59.0646 6.07465 59.0837 6.07051C59.1057 6.06541 59.1277 6.06111 59.1515 6.05665L59.1904 6.0498C59.2467 6.04056 59.3027 6.03419 59.3565 6.02989L59.3739 6.02861L59.3877 6.02765C59.4324 6.02479 59.4758 6.02288 59.5158 6.02288C62.3937 6.0197 65.3585 6.01953 68.3361 6.01937L72.4737 6.01874C75.0842 6.0181 77.6781 6.01619 80.2049 6.0111C80.4125 6.0111 80.7101 5.91774 80.9454 5.77915L80.9582 5.77168C80.9696 5.76514 80.9813 5.75845 80.9989 5.74714H80.9991L80.9994 5.74683C81.0015 5.74539 81.0038 5.74395 81.0062 5.74253L81.0139 5.73742L81.0146 5.73679C81.0425 5.71815 81.0691 5.69904 81.0933 5.6796C82.1518 4.82467 83.177 3.98646 84.0404 3.27951C84.4414 2.95089 84.8425 2.62226 85.2432 2.29316L85.5038 2.07955L85.8267 1.81463L86.4177 1.32895L87.2752 0.62439L87.3371 0.573574L87.3989 0.522919C87.4862 0.451396 87.568 0.374138 87.6625 0.284615L87.6886 0.259925L87.7058 0.243678L87.7111 0.238898L90.3344 5.46614C90.3137 5.48558 90.2937 5.50437 90.2744 5.52253ZM69.8175 13.6142L69.8301 13.5662L69.8352 13.5466C69.8523 13.4811 69.8677 13.4159 69.8818 13.3508L69.8863 13.3296L69.8961 13.2837C69.9068 13.2298 69.9151 13.1762 69.9249 13.1136L69.9305 13.0798C69.9344 13.0558 69.9384 13.0316 69.9415 13.008C69.9496 12.9461 69.9548 12.8845 69.9599 12.8232L69.9629 12.7922C69.9646 12.7745 69.9665 12.7569 69.9675 12.7392C69.9675 12.7385 69.9676 12.7376 69.9676 12.7368C69.9763 12.5913 69.9644 12.445 69.9373 12.3017L69.8484 11.8312L72.1868 16.7376C72.2166 16.7968 72.2438 16.8569 72.2686 16.9178L72.2735 16.9311L72.28 16.9486L72.2882 16.9704L72.293 16.983L72.4137 17.4122L72.4171 17.4291L72.4205 17.4456L72.4246 17.4669C72.4357 17.5312 72.4438 17.5963 72.4506 17.6617L72.4537 17.6948L72.4549 17.7108L72.4576 17.7406C72.4592 17.7568 72.4608 17.7734 72.4618 17.7898C72.4632 17.8119 72.4637 17.8343 72.4639 17.8564L72.4648 17.8902L72.4656 17.9142L72.4667 17.9519C72.4671 18.0249 72.4661 18.0985 72.461 18.1811C72.4601 18.1952 72.4587 18.2095 72.4571 18.2238L72.4537 18.2596C72.4491 18.3173 72.4442 18.3747 72.4367 18.4326C72.4338 18.4537 72.4305 18.475 72.4268 18.4962L72.421 18.5318L72.4146 18.5749C72.4106 18.6023 72.4067 18.6296 72.4013 18.6572L72.398 18.6729L72.3938 18.6922L72.3849 18.7341L72.3801 18.7556C72.367 18.8171 72.3524 18.8789 72.3362 18.9409L72.3308 18.9621L72.3194 19.0051C72.2975 19.0845 72.2737 19.1643 72.247 19.2444L72.2419 19.2587L72.2358 19.2755C72.2185 19.327 72.2006 19.3782 72.1814 19.4293L72.1677 19.4634L72.1573 19.4896L72.1335 19.5495C72.1011 19.6295 72.0673 19.7093 72.0304 19.7894C71.9938 19.8692 71.9543 19.9484 71.9133 20.0276L71.8824 20.0866C71.8405 20.166 71.7973 20.2451 71.7556 20.317L71.7492 20.3264L71.7476 20.3301C71.7027 20.4063 71.6552 20.4826 71.6068 20.5581L71.5692 20.616C71.5185 20.6935 71.4663 20.7708 71.412 20.8473C71.3294 20.963 71.2387 21.0834 71.1348 21.2153L71.1208 21.2336L71.112 21.2455C71.0457 21.3289 70.9781 21.4109 70.9094 21.4919L70.8973 21.5055L70.8825 21.5226C70.8108 21.6062 70.7376 21.6884 70.6632 21.7696L70.6051 21.8319L70.5857 21.8527C70.5235 21.9191 70.4605 21.9843 70.3965 22.0491L70.3718 22.0742L70.3208 22.1253L70.3014 22.1448L70.2823 22.1642C70.2623 22.1838 70.2418 22.2027 70.2213 22.2218L70.1748 22.2651L70.1589 22.2804C70.1094 22.3273 70.0599 22.3745 70.0092 22.4205C69.9704 22.4557 69.9308 22.4904 69.8913 22.525L69.8633 22.5495L69.8513 22.56C69.7987 22.606 69.7463 22.6522 69.6924 22.6973L69.6694 22.7174L69.647 22.7367C69.6186 22.7602 69.5896 22.7832 69.5606 22.8062L69.5104 22.8463L69.4739 22.8758C69.4467 22.8979 69.4194 22.9199 69.3915 22.9417C69.3211 22.9969 69.2492 23.0508 69.177 23.1045L69.1373 23.1343L68.758 23.4041L68.7233 23.4269L68.6887 23.4499L68.6742 23.4595C68.6071 23.5043 68.54 23.5494 68.4719 23.5929L68.4515 23.6055L68.4286 23.6196C68.4014 23.6368 68.3739 23.6538 68.3465 23.6706L68.3118 23.6921C68.238 23.7377 68.1639 23.7829 68.0891 23.8274C68.0458 23.8528 68.0024 23.878 67.9589 23.903L67.9139 23.9295L67.857 23.9626C67.8342 23.9754 67.8111 23.988 67.7881 24.0005L67.7408 24.0262C67.6935 24.0525 67.6461 24.0786 67.5985 24.1042C67.5233 24.1446 67.4475 24.1842 67.3711 24.2234L67.3343 24.2425C67.3011 24.2598 67.2681 24.277 67.2343 24.2937L67.2118 24.3054L67.1885 24.3173C67.1508 24.3362 67.1125 24.3544 67.0743 24.3725L67.0111 24.4028L66.9568 24.429C66.921 24.4464 66.8851 24.4639 66.8489 24.4808C66.778 24.514 66.7061 24.5461 66.6339 24.5785L66.6104 24.5891L66.5544 24.6145C66.5223 24.6292 66.4899 24.644 66.4565 24.6583L66.4358 24.6676L66.4352 24.6679C66.3135 24.7209 66.1905 24.7725 66.0665 24.8232C65.8701 24.9031 65.6623 24.984 65.412 25.078L65.3758 25.0922L65.3394 25.1063C65.3173 25.1147 65.2948 25.1224 65.2725 25.1302L65.2143 25.151C65.0601 25.2075 64.9062 25.2625 64.752 25.3159L64.7027 25.3328L64.5511 25.3849C64.3629 25.4484 64.1746 25.5097 63.9858 25.5687L63.9534 25.5793L63.9213 25.5897L63.9046 25.5946L63.8667 25.6062L63.8363 25.6153C63.6946 25.6586 63.5529 25.7006 63.4114 25.7414L63.2596 25.7847C63.139 25.8187 63.0187 25.8518 62.8981 25.8841L62.8489 25.8972L62.7554 25.9221C62.5939 25.9645 62.4327 26.0057 62.2658 26.0462L62.1923 26.0635L62.1327 26.0774C61.9989 26.1093 61.8651 26.1407 61.7314 26.1706C61.6906 26.1796 61.6499 26.1883 61.609 26.1969L61.5295 26.2138L61.4705 26.2265C61.3794 26.2461 61.2882 26.2657 61.1971 26.2842C61.1491 26.2941 61.101 26.3034 61.0529 26.3127L60.973 26.3282L60.9148 26.3395C60.8305 26.356 60.7465 26.3725 60.6623 26.388C60.6068 26.398 60.5515 26.4078 60.4962 26.4174L60.4292 26.4291L60.3342 26.4462C60.2808 26.4557 60.2273 26.4653 60.1752 26.4743L60.1608 26.4764L60.1357 26.4805C59.1105 26.6229 58.0794 26.7167 57.0454 26.7616L56.9189 26.767L56.8625 26.7707L56.8154 26.7739C56.7325 26.7796 56.6499 26.7849 56.5671 26.7901C56.4581 26.7971 56.3492 26.8038 56.2406 26.8099C56.157 26.8146 56.0733 26.8189 55.9895 26.8231C55.8815 26.8286 55.7737 26.8339 55.6661 26.8385L55.4168 26.8489C55.3077 26.8532 55.1987 26.857 55.09 26.8606L55.0386 26.8623L54.8463 26.8682C54.7349 26.8714 54.6237 26.8743 54.5127 26.8768L54.4532 26.8782L54.2787 26.882C54.162 26.8843 54.0456 26.8862 53.9289 26.8879L53.8425 26.8892L53.7115 26.8912C53.5861 26.8929 53.461 26.894 53.3311 26.8949L53.2687 26.8955L53.147 26.8968C52.96 26.8979 52.7733 26.8991 52.5868 26.8996C50.0552 26.906 47.2708 26.9091 43.8242 26.9091C42.072 26.9091 40.3205 26.9083 38.5687 26.9077C36.8171 26.9069 35.0656 26.906 33.3135 26.906H32.6015L31.7094 25.1283L31.6563 25.0226L30.0306 21.7836H30.6189C32.2829 21.7836 33.9465 21.7841 35.6101 21.7849H35.7913H35.8742C37.6257 21.7857 39.3775 21.7865 41.1295 21.7865C44.5768 21.7865 47.3614 21.7835 49.893 21.7769C50.0796 21.7764 50.2668 21.7755 50.4542 21.7743L50.5465 21.7733L50.6387 21.7725C50.7658 21.7714 50.8929 21.7702 51.02 21.7687L51.1565 21.7666L51.238 21.7653C51.3548 21.7638 51.4719 21.7616 51.589 21.7595L51.7643 21.7554L51.8239 21.754C51.9356 21.7515 52.047 21.749 52.1587 21.7456C52.2401 21.7433 52.3215 21.7406 52.4029 21.7376C52.5127 21.7343 52.6227 21.7303 52.7329 21.726L52.9808 21.716C53.09 21.711 53.1994 21.7057 53.3087 21.7003C53.392 21.6961 53.4754 21.6916 53.5587 21.6869C53.6689 21.6809 53.7792 21.6739 53.8896 21.6669L53.9304 21.6644C53.9992 21.6598 54.0681 21.6555 54.1371 21.6507C54.3089 21.6386 54.4808 21.6261 54.6529 21.6116C54.8652 21.5939 55.0777 21.5737 55.2905 21.5522L55.4473 21.5356L55.4849 21.5316C55.6376 21.5153 55.7904 21.4982 55.943 21.4797L55.9775 21.4756L56.1527 21.4541C56.3204 21.4327 56.4881 21.4104 56.6558 21.3865L56.7195 21.3778L56.7987 21.3666C57.0114 21.3356 57.2244 21.3021 57.4373 21.2665C57.5143 21.2539 57.5914 21.2401 57.6686 21.2266L57.7314 21.2154L57.8152 21.2006C57.8663 21.1919 57.9173 21.1829 57.9686 21.1736C58.0465 21.1592 58.1244 21.144 58.2024 21.1287L58.2799 21.1135L58.3592 21.0982C58.4086 21.0886 58.4581 21.0791 58.5075 21.069C58.5992 21.0504 58.6911 21.0305 58.783 21.0107L58.8424 20.9978L58.9208 20.9812C58.9624 20.9725 59.0042 20.9638 59.0458 20.9544C59.1808 20.9244 59.3157 20.8923 59.4508 20.8602L59.5082 20.8469L59.5851 20.8288C59.7496 20.789 59.9143 20.7471 60.079 20.7039L60.193 20.6734L60.2227 20.6654C60.3442 20.6329 60.4657 20.5994 60.5873 20.5652L60.6251 20.5545L60.741 20.5215C60.8832 20.4804 61.0254 20.4382 61.1675 20.3949L61.1971 20.3858L61.2386 20.3732L61.2835 20.3589L61.319 20.3476C61.5099 20.2878 61.7005 20.2259 61.8913 20.1615C61.9487 20.1421 62.0063 20.1222 62.0638 20.1023L62.093 20.0921C62.2487 20.0382 62.4044 19.9828 62.5601 19.9256L62.6044 19.9096C62.6562 19.8905 62.708 19.8716 62.7599 19.8522C63.0119 19.7573 63.2218 19.6754 63.4201 19.5947C63.5537 19.5404 63.6856 19.4844 63.8162 19.4275C63.8501 19.4126 63.8838 19.3974 63.9173 19.3821L63.9718 19.3574L64.0058 19.3421C64.0756 19.3109 64.1452 19.2797 64.2142 19.2475C64.2514 19.2298 64.2886 19.212 64.3254 19.1942L64.3787 19.1681L64.4005 19.1576C64.4692 19.1245 64.5377 19.0914 64.6058 19.0573C64.6394 19.0406 64.6725 19.0232 64.7057 19.006L64.7448 18.986C64.8223 18.9459 64.8995 18.9057 64.9757 18.8647C65.0244 18.8384 65.0727 18.8119 65.1211 18.7852C65.1954 18.744 65.2692 18.7024 65.3425 18.6602C65.387 18.6346 65.4313 18.6089 65.4752 18.5827C65.5514 18.5377 65.6268 18.4917 65.7019 18.4453L65.7396 18.4219C65.767 18.4053 65.7942 18.3882 65.8211 18.3714C65.9105 18.3145 65.9987 18.2567 66.0865 18.1979L66.1182 18.177L66.1567 18.1516C66.2665 18.0771 66.3746 18.0009 66.4814 17.9231C66.5023 17.9078 66.5229 17.8924 66.5433 17.8768L66.5842 17.8462C66.658 17.7911 66.7318 17.7358 66.8042 17.6794C66.832 17.6574 66.8595 17.6353 66.887 17.6129L66.9252 17.5819C66.988 17.5316 67.0504 17.481 67.1118 17.4294C67.1644 17.385 67.2161 17.3398 67.2677 17.2946L67.2863 17.2784L67.3139 17.2542C67.3546 17.2184 67.3956 17.1828 67.4357 17.1461C67.487 17.0994 67.5373 17.0515 67.5877 17.0038L67.6051 16.9873L67.6425 16.9517C67.6804 16.9161 67.7177 16.8804 67.7546 16.8441L67.8104 16.788L67.8319 16.7661C67.8976 16.6998 67.9624 16.6327 68.0261 16.5646L68.0401 16.5497L68.1052 16.4798C68.1814 16.3968 68.2563 16.3126 68.33 16.2267L68.3415 16.2133L68.3576 16.195C68.4365 16.1023 68.5132 16.0074 68.5886 15.9114C68.6956 15.7759 68.7886 15.6522 68.873 15.5338C68.9294 15.455 68.9832 15.3751 69.0357 15.2948L69.0746 15.2346C69.1262 15.1543 69.1765 15.0736 69.2246 14.9914C69.2723 14.9101 69.3171 14.828 69.3606 14.7458L69.3929 14.6842C69.4324 14.6072 69.471 14.5302 69.507 14.4529L69.5132 14.4459L69.5187 14.4275C69.5556 14.3471 69.5896 14.2664 69.6224 14.1856L69.6471 14.1231C69.6766 14.0483 69.7039 13.9733 69.7296 13.8984L69.7344 13.885L69.7413 13.8656C69.7692 13.7818 69.7943 13.6981 69.8175 13.6142ZM29.7176 26.6091L29.6395 26.6651C29.6225 26.6759 29.6048 26.6866 29.5789 26.701L29.569 26.7062L29.5676 26.707L29.547 26.718L29.5333 26.7252L29.5237 26.7302C29.5118 26.7361 29.4995 26.7419 29.4873 26.7474L29.4686 26.7559L29.4494 26.7648C29.422 26.7768 29.3946 26.7879 29.3661 26.7984L29.3552 26.8019L29.3535 26.8027L29.3386 26.8078C29.3185 26.815 29.2981 26.8222 29.278 26.8284L29.268 26.8312L29.2658 26.8318L29.2427 26.8382L29.2292 26.8418L29.2115 26.847L29.1829 26.8544L29.1714 26.8566L29.1695 26.857C29.1567 26.86 29.1443 26.8624 29.1299 26.8653L29.1171 26.868L29.1162 26.8682L29.0944 26.8721L29.0815 26.8735L29.0794 26.874C29.0656 26.8758 29.0523 26.8776 29.0401 26.8788L29.0182 26.8814L29.0158 26.8817C29.002 26.8829 28.9887 26.8833 28.9756 26.8835C27.587 26.8946 26.1787 26.8953 24.817 26.8958C23.5404 26.8962 22.2201 26.8968 20.9194 26.906C20.6548 26.906 20.6089 26.8556 20.6011 26.8401L18.0157 21.6887C18.0652 21.6935 18.1205 21.6959 18.1818 21.6959C19.4825 21.6865 20.8023 21.6859 22.0785 21.6854C23.4408 21.6849 24.8495 21.6842 26.2386 21.6731C26.2661 21.673 26.2958 21.6703 26.3263 21.6672C26.3425 21.6654 26.3592 21.6637 26.3757 21.6611C26.3965 21.6579 26.4177 21.6545 26.4396 21.6503C26.4549 21.6473 26.4699 21.6443 26.4848 21.6407C26.5081 21.6357 26.5318 21.6292 26.5601 21.6215C26.5725 21.6181 26.5851 21.6149 26.5975 21.6113C26.6258 21.6027 26.6543 21.5932 26.6892 21.5809L26.7089 21.574C26.7435 21.5622 26.7776 21.5485 26.8108 21.5331L26.8401 21.5196C26.868 21.5068 26.8949 21.4938 26.9213 21.48L26.9467 21.4665C26.9782 21.4493 27.0089 21.4316 27.0461 21.4073C27.0775 21.3867 27.107 21.3655 27.1339 21.3437C35.2586 14.6964 43.5068 7.92835 51.4837 1.38311L52.5577 0.501734C52.5757 0.487079 52.5932 0.471628 52.6106 0.456016L52.6215 0.4463L52.6352 0.434512L52.6582 0.414121C52.6751 0.398829 52.692 0.382581 52.709 0.366332L52.7215 0.354545L52.7351 0.341642L52.7527 0.325075L52.8108 0.268686L52.8411 0.239216L53.7244 1.9991C52.4118 2.50852 51.1711 3.20544 50.0914 4.12537C49.3032 4.79695 48.5076 5.57525 48.0558 6.36282C47.36 7.57361 47.2987 8.77517 47.78 9.72647C47.7786 9.7236 47.777 9.72106 47.7756 9.71835L48.5194 11.2007C46.9094 12.5216 45.2924 13.8481 43.671 15.1777C41.8729 15.1763 40.0744 15.1739 38.2756 15.1704C37.8625 15.1704 37.5852 15.2801 37.2525 15.56C36.1433 16.4956 35.0067 17.4102 33.8813 18.3333L29.8313 21.6603L31.5587 25.1024C30.9444 25.6051 30.3306 26.1075 29.7176 26.6091ZM17.6823 21.0193C17.6361 21.1489 17.5506 21.3889 17.6781 21.5445L12.1489 26.6052C12.1237 26.6286 12.0987 26.6504 12.0765 26.6689L12.0675 26.6759L12.0665 26.6769L12.0513 26.6886L12.0411 26.6962L12.0406 26.6967L12.0268 26.7077C12.0187 26.7143 12.0106 26.7206 11.9942 26.7323L11.9837 26.7396L11.983 26.74L11.9658 26.7517L11.9506 26.7621L11.9494 26.7629C11.9343 26.7727 11.9189 26.7818 11.8952 26.795L11.8792 26.8035L11.8789 26.8036L11.863 26.8121C11.85 26.8186 11.8368 26.8247 11.8217 26.8312L11.8029 26.8389L11.7848 26.8462L11.784 26.8465C11.7702 26.8516 11.756 26.8563 11.7413 26.861L11.7156 26.868L11.7043 26.8711L11.7037 26.8714L11.6924 26.8747C11.6748 26.8788 11.6567 26.882 11.6411 26.885L11.6294 26.8874H11.6287L11.6122 26.8893L11.5919 26.8917L11.579 26.8935C11.5635 26.8954 11.5479 26.8977 11.5286 26.8993C11.4959 26.9016 11.4619 26.9027 11.4271 26.9027C10.0108 26.8974 8.6027 26.8938 7.19381 26.8938C5.74301 26.8938 4.43714 26.8977 3.20143 26.906C2.94413 26.906 2.88302 26.8606 2.86937 26.8336L0.286676 21.6873C0.286993 21.6873 0.287143 21.6873 0.287461 21.6874C0.342223 21.693 0.399845 21.6959 0.464607 21.6959H0.464763C0.796984 21.6935 1.1289 21.6928 1.46064 21.6922L2.05842 21.6909L2.70333 21.6883C3.28746 21.6856 3.87175 21.6835 4.45524 21.6835C4.73398 21.6835 5.0135 21.6842 5.29287 21.6849L5.86492 21.6864L6.33175 21.6871C7.11573 21.6884 7.89969 21.6897 8.6881 21.6926C8.98842 21.6926 9.2135 21.618 9.4408 21.4436L9.45302 21.4345L9.4535 21.434L9.46335 21.4265L9.48255 21.4116C9.51365 21.386 9.54476 21.3591 9.57636 21.33L21.4062 10.5029L21.3832 10.5683L20.5343 12.9727C19.6033 15.6098 18.6408 18.3369 17.6823 21.0193ZM0.393971 21.1819C1.09651 18.9653 1.80017 16.7121 2.48064 14.5327C2.7935 13.5308 3.10636 12.5289 3.42017 11.5271C4.31476 8.67338 5.21191 5.81946 6.10905 2.9657L6.77318 0.852659C6.8162 0.716941 6.8654 0.581062 6.92255 0.423997C6.92333 0.421768 6.92413 0.419696 6.92476 0.417467H14.8577L13.483 4.30792L10.7037 12.1734L10.2195 13.5435L11.2146 12.6324L11.2897 12.5638L17.6861 6.70848L24.1854 0.759314C24.4851 0.478478 24.7 0.388157 25.0692 0.387997C26.1095 0.398032 27.2011 0.402332 28.6082 0.402332C29.2363 0.402332 29.8646 0.401696 30.4929 0.400581C31.1206 0.399943 31.7485 0.398989 32.3758 0.398989H32.4935L31.6958 2.56969C30.5129 5.78904 29.3389 8.98384 28.1643 12.1791L27.6638 13.5404L28.6732 12.6412L28.7451 12.5772L35.2914 6.7456L42.0571 0.718692C42.333 0.469715 42.5314 0.389751 42.8724 0.389751C44.8365 0.399148 46.7904 0.400422 48.273 0.400422L50.5539 0.399625L51.9158 0.399149L51.3675 0.849473C44.8404 6.20512 38.1333 11.7084 31.4587 17.1747C31.3381 17.2733 31.2175 17.3721 31.097 17.4709C29.6718 18.6381 28.2475 19.8041 26.8277 20.9658C26.6929 21.0759 26.3994 21.1851 26.2351 21.1862C24.8485 21.1975 23.4419 21.1981 22.0814 21.1986C20.8187 21.199 19.5137 21.1995 18.2276 21.2085C18.2119 21.2086 18.1962 21.2086 18.1805 21.2086C18.1623 21.2086 18.1457 21.2085 18.1306 21.208C18.1332 21.2001 18.1361 21.1922 18.139 21.1836C19.097 18.5032 20.0587 15.7784 20.9887 13.1435L21.8405 10.7311L21.9115 10.53L21.928 10.4841L22.0275 10.2018L22.5118 8.83187L21.4415 9.81138L14.2705 16.3744L13.4633 17.1131L9.24747 20.9717C9.05429 21.1508 8.92366 21.2056 8.68954 21.2056C7.2727 21.2001 5.86445 21.1963 4.45508 21.1963C3.0016 21.1963 1.69508 21.2003 0.463658 21.2086C0.433658 21.2086 0.408262 21.2081 0.386357 21.2068C0.388579 21.1991 0.391114 21.1908 0.393971 21.1819ZM15.3905 0.366651L17.9762 5.51871L17.9313 5.6463L17.838 5.91042L11.3249 11.8722L11.6189 11.0405L12.2413 9.27902L15.3905 0.366651ZM33.031 0.343712L35.6185 5.49944L35.5616 5.65458L35.4527 5.95088L28.789 11.8868L30.8675 6.23156L32.6948 1.25886L33.031 0.343712ZM50.5108 15.1791C50.361 15.1791 50.2113 15.1793 50.0615 15.1793C49.6905 15.1795 49.3194 15.1797 48.9482 15.1797C47.2511 15.1797 45.5538 15.1791 43.8563 15.1778C45.4387 13.8812 47.0348 12.5732 48.5748 11.311L50.5108 15.1791ZM48.4225 10.7335C48.4523 10.7592 48.483 10.7847 48.5152 10.8106C48.5356 10.827 48.5567 10.8428 48.5777 10.8587L48.5944 10.8713C48.651 10.9142 48.7095 10.9554 48.7695 10.9956C48.7762 11 48.7829 11.0048 48.7895 11.0093L48.7965 11.0139L48.8106 11.0233C48.8313 11.037 48.852 11.0507 48.8737 11.0642C48.8742 11.0645 48.8744 11.0647 48.8749 11.065C48.9789 11.1297 49.0743 11.184 49.1663 11.2307L49.1682 11.2318C49.9281 11.6189 50.833 11.949 51.8575 12.2129C52.8971 12.4804 53.9268 12.7209 55.017 12.976C56.0639 13.2206 57.1462 13.4736 58.2299 13.7507C58.2627 13.7699 58.2938 13.7937 58.3267 13.8247C58.3292 13.8271 58.3315 13.8297 58.3339 13.8321C58.339 13.8369 58.3439 13.8417 58.3487 13.8469C58.3789 13.8796 58.4006 13.9093 58.4148 13.9372C58.4787 14.0629 58.4738 14.224 58.4011 14.3912C58.3715 14.459 58.3329 14.5243 58.2862 14.5861C58.1929 14.7097 58.068 14.8192 57.9227 14.9058C57.85 14.9492 57.772 14.9869 57.6906 15.0176C57.6906 15.0176 57.6543 15.0335 57.5994 15.0558C57.5811 15.0634 57.5606 15.0716 57.5389 15.0802C57.5094 15.0917 57.4768 15.1036 57.4438 15.1156C57.3795 15.139 57.3118 15.1615 57.2525 15.1763L50.6524 15.1791L50.5723 15.0176H50.5724L50.5535 14.9799L50.5533 14.9795L49.6129 13.1052L48.6723 11.2312L48.6168 11.1208L48.4225 10.7335ZM53.888 2.32486C53.9263 2.31004 53.9644 2.29475 54.003 2.28026C54.4663 2.10647 54.9482 1.95259 55.4485 1.81926C58.8508 0.918288 62.2687 0.457769 65.6071 0.449964L86.78 0.401857L86.1149 0.948395C84.3742 2.37902 82.5742 3.85823 80.7895 5.29984C80.6489 5.4131 80.3594 5.52413 80.2043 5.52413C76.3357 5.53177 72.2552 5.53209 68.3092 5.53241C65.3405 5.53241 62.3844 5.53257 59.5157 5.53576C59.3554 5.53576 58.8125 5.55535 58.4906 5.8032C58.0282 6.12881 57.7973 6.60096 57.8875 7.03742C57.9596 7.38628 58.2301 7.64275 58.6085 7.73083C58.6206 7.7337 58.6318 7.73784 58.6442 7.74039C59.2549 7.87133 59.8663 8.00083 60.478 8.13051C62.1643 8.4878 63.9082 8.85737 65.6029 9.24987C66.8001 9.52656 67.7886 9.96621 68.5401 10.5564C68.8419 10.7934 69.0599 11.0631 69.211 11.353C69.8386 12.5566 69.2842 14.1203 68.4785 15.2505C67.2886 16.9183 65.5743 18.1916 63.2377 19.1433C60.6114 20.2118 57.79 20.8607 54.6127 21.1264C52.9725 21.2632 51.3744 21.2859 49.8915 21.2899C47.3452 21.2964 44.561 21.2994 41.1295 21.2994C39.548 21.2994 37.9668 21.2989 36.3856 21.2981H36.2044C36.0944 21.2981 35.9844 21.2981 35.8743 21.298C34.1986 21.2974 32.5227 21.2965 30.8463 21.2964L31.4794 20.7762C32.3827 20.0343 33.2467 19.3243 34.1106 18.6151C34.4324 18.3513 34.7552 18.0879 35.078 17.8247C35.8713 17.1776 36.6916 16.5082 37.4854 15.839C37.7562 15.6111 37.9556 15.5342 38.2748 15.5342C39.8486 15.5374 41.492 15.5396 43.2277 15.5412C43.2894 15.5412 43.351 15.5412 43.4127 15.5414C45.1563 15.5428 46.9933 15.5436 48.9482 15.5436C49.5443 15.5436 50.1406 15.5429 50.7367 15.5428C53.0257 15.5423 55.3146 15.5415 57.6039 15.5401H57.6539L57.702 15.5264C57.9508 15.4562 58.1763 15.3379 58.3651 15.1882C58.4324 15.135 58.4949 15.0782 58.552 15.0176C58.6862 14.8753 58.7913 14.7151 58.8582 14.5459C58.8968 14.4486 58.9271 14.3492 58.9386 14.2473C58.9827 13.8559 58.8001 13.5076 58.4501 13.316L58.4101 13.2942L58.3661 13.2829C57.2723 13.003 56.1824 12.7481 55.1281 12.5017C54.0404 12.2473 53.0127 12.0073 51.978 11.7411C50.9876 11.486 50.1161 11.1684 49.3877 10.7976C49.3494 10.778 49.312 10.7576 49.2751 10.737C49.237 10.7162 49.2 10.6944 49.1635 10.6724C48.5465 10.2993 48.1244 9.77585 47.9373 9.14504C47.7008 8.34778 47.8505 7.44857 48.37 6.5444C48.729 5.9187 49.3687 5.21829 50.3262 4.4027C51.3356 3.54266 52.5296 2.84734 53.888 2.32486ZM87.7471 0.0367521H87.2987L65.6062 0.086133C62.3025 0.09362 58.8608 0.539328 55.3558 1.46738C54.8437 1.60406 54.3368 1.76654 53.8396 1.95482L52.8763 0.0351606C51.3267 0.0351606 49.7948 0.0365952 48.273 0.0365952C46.4662 0.0365952 44.6737 0.034683 42.8742 0.0259217C42.4443 0.0259217 42.1567 0.139497 41.8148 0.44837L35.5571 6.0224V6.02255L35.5565 6.02304L35.5367 6.04056C35.6042 5.86678 35.6976 5.64026 35.7523 5.49195L33.0135 0.0351606H32.3758C31.1205 0.0351606 29.8639 0.0385058 28.6082 0.0385058C27.4363 0.0385058 26.2652 0.0356383 25.0701 0.0241699C24.6054 0.0241699 24.3023 0.15224 23.938 0.49329L17.9433 5.98051C17.9989 5.82377 18.0542 5.66733 18.1095 5.51027L15.371 0.0534797V0.0536384H6.67017C6.57811 0.314562 6.4954 0.528336 6.42779 0.742586C5.30921 4.30091 4.18985 7.85955 3.07445 11.418C2.06668 14.6353 1.06842 17.8537 0.0484157 21.0716C-0.00555261 21.2431 -0.0182457 21.3628 0.0300082 21.4429C0.0277859 21.4389 0.023178 21.4364 0.0211145 21.4321L2.75969 26.8888C2.80905 26.9875 2.94333 27.0292 3.20143 27.0292H3.20255C4.53461 27.0202 5.86444 27.0169 7.19381 27.0169C8.60255 27.0169 10.0103 27.0206 11.4267 27.026C11.4649 27.026 11.5016 27.0248 11.5373 27.0222C11.5383 27.022 11.5394 27.0217 11.5406 27.0217C11.5638 27.0201 11.5856 27.0168 11.6076 27.0139C11.6214 27.0121 11.636 27.0112 11.6494 27.009C11.6502 27.0088 11.651 27.0085 11.6518 27.0083C11.6549 27.0078 11.6578 27.0072 11.6606 27.0067C11.681 27.0029 11.7011 26.9991 11.7208 26.9943C11.7297 26.9921 11.7386 26.9894 11.7475 26.9872C11.7525 26.9856 11.7578 26.9843 11.7629 26.9827C11.7649 26.982 11.7671 26.9814 11.7692 26.9809C11.7721 26.9803 11.7749 26.9796 11.7778 26.9787C11.7943 26.9736 11.8106 26.9679 11.8267 26.9618C11.834 26.9593 11.8413 26.9561 11.8484 26.9533C11.8519 26.9518 11.8556 26.9504 11.859 26.9489C11.8637 26.947 11.8681 26.9455 11.8725 26.9435C11.8878 26.9369 11.9027 26.9298 11.9177 26.9223C11.9262 26.9182 11.9346 26.9136 11.943 26.9089C11.9463 26.9072 11.95 26.9054 11.9535 26.9034C11.957 26.9015 11.9606 26.8997 11.9642 26.8978C11.9813 26.8879 11.9981 26.8777 12.0152 26.8671C12.0213 26.8629 12.0275 26.8585 12.0337 26.8544C12.04 26.8501 12.0463 26.8458 12.0525 26.8414C12.06 26.8363 12.0673 26.8317 12.0748 26.8262C12.0885 26.8162 12.1024 26.8047 12.1162 26.7941C12.1252 26.7869 12.1344 26.7801 12.1437 26.7727C12.1467 26.7701 12.1495 26.7682 12.1527 26.7658C12.1787 26.7439 12.2052 26.7206 12.232 26.6955L17.823 21.5786L20.4914 26.8955C20.5375 26.9873 20.6654 27.0292 20.9194 27.0292C23.6094 27.0101 26.2858 27.0284 28.9767 27.0067C28.9924 27.0066 29.0087 27.0059 29.0256 27.0047C29.0339 27.004 29.0433 27.0023 29.0519 27.0015C29.0667 27.0001 29.0814 26.9981 29.0965 26.9959C29.1048 26.9947 29.1125 26.9943 29.1208 26.993C29.1318 26.9911 29.1433 26.9882 29.1544 26.9861C29.1685 26.9833 29.1824 26.9806 29.1965 26.9772C29.2035 26.9757 29.21 26.9747 29.217 26.9732C29.2318 26.9695 29.2467 26.9648 29.2615 26.9607C29.2748 26.957 29.2876 26.9538 29.301 26.9499C29.3054 26.9483 29.3099 26.9475 29.3144 26.9462C29.3363 26.9394 29.3582 26.9316 29.3801 26.9236C29.3886 26.9207 29.397 26.9182 29.4052 26.915C29.4067 26.9145 29.4081 26.9142 29.4095 26.9137C29.4395 26.9024 29.4692 26.8905 29.4985 26.8777C29.501 26.8768 29.5035 26.8753 29.5062 26.8743C29.5135 26.8709 29.5205 26.8677 29.5276 26.8642C29.5446 26.8566 29.5615 26.8489 29.578 26.8409C29.5867 26.8363 29.5948 26.8317 29.6033 26.8274C29.6113 26.8231 29.6189 26.8193 29.6265 26.815C29.6332 26.8114 29.6401 26.8081 29.6467 26.8042C29.6671 26.7928 29.6868 26.7811 29.7057 26.7688C29.7061 26.7686 30.4137 26.1892 31.6118 25.208L32.5258 27.0292H33.3135C36.8175 27.0292 40.32 27.0324 43.8242 27.0324C46.7438 27.0324 49.6648 27.0302 52.5871 27.0226C52.7738 27.0222 52.9606 27.0212 53.1477 27.0201C53.2092 27.0196 53.2708 27.0188 53.3324 27.0182C53.459 27.0171 53.5861 27.0159 53.7132 27.0144C53.7856 27.0136 53.8582 27.0121 53.9308 27.0112C54.0475 27.0093 54.1642 27.0073 54.2811 27.0053C54.359 27.0035 54.4373 27.0016 54.5154 27.0001C54.6268 26.9973 54.7382 26.9944 54.8496 26.9915C54.9311 26.9891 55.0125 26.9863 55.0939 26.9837C55.2032 26.9801 55.3123 26.9762 55.4215 26.972C55.5048 26.9686 55.5881 26.9653 55.6713 26.9617C55.7794 26.9569 55.8876 26.9518 55.9957 26.9464C56.0796 26.9421 56.1635 26.9376 56.2475 26.933C56.3565 26.9268 56.4656 26.9201 56.5748 26.9131C56.6577 26.9078 56.7408 26.9024 56.8239 26.8967C56.8586 26.8944 56.8932 26.8924 56.928 26.8898L57.2613 26.8734C58.1582 26.8291 59.053 26.7482 59.9435 26.6302L60.1481 26.6031C60.1506 26.6026 60.1532 26.6025 60.1557 26.602C60.1686 26.5997 60.1815 26.5978 60.1944 26.5959C60.2796 26.5814 60.3651 26.5657 60.4505 26.5505C60.5286 26.5369 60.6065 26.5235 60.6844 26.5093C60.7885 26.49 60.8925 26.4695 60.9965 26.4491C61.0715 26.4344 61.1467 26.4204 61.2215 26.4051C61.3327 26.3825 61.4439 26.3581 61.5552 26.3342C61.6229 26.3195 61.6904 26.3058 61.758 26.2909C61.8923 26.2609 62.0267 26.2292 62.1609 26.1972C62.2056 26.1866 62.2501 26.1768 62.2948 26.166C62.2965 26.1656 62.2982 26.1651 62.3 26.1646C62.4623 26.1252 62.6244 26.084 62.7865 26.0413C62.8342 26.0289 62.8819 26.0157 62.9296 26.0032C63.0508 25.9707 63.1719 25.9374 63.293 25.9033C63.3437 25.889 63.3944 25.8745 63.4452 25.8599C63.5876 25.8188 63.73 25.7767 63.8723 25.7331C63.8952 25.7261 63.918 25.7197 63.9408 25.7125C63.9463 25.7107 63.9519 25.7092 63.9573 25.7074C63.979 25.7007 64.001 25.693 64.0227 25.6862C64.2119 25.627 64.4011 25.5654 64.5904 25.5018C64.6576 25.479 64.7249 25.4555 64.792 25.4322C64.9468 25.3787 65.1018 25.3235 65.2566 25.2668C65.2985 25.2514 65.3406 25.2375 65.3825 25.2219C65.4067 25.2128 65.4309 25.2026 65.4552 25.1935C65.6744 25.111 65.8937 25.0264 66.1125 24.9372C66.2376 24.8864 66.3614 24.8343 66.4842 24.7809C66.4914 24.7778 66.4986 24.7744 66.5058 24.7711C66.558 24.7486 66.6089 24.7247 66.6604 24.7018C66.7408 24.6656 66.8214 24.6296 66.9008 24.5925C66.9557 24.5668 67.0096 24.54 67.0642 24.5137C67.1237 24.4853 67.1842 24.4571 67.2429 24.4276C67.2586 24.42 67.2738 24.4118 67.2892 24.4038C67.3357 24.3807 67.3813 24.3568 67.4273 24.333C67.5042 24.2933 67.5806 24.2535 67.6563 24.2129C67.7046 24.1868 67.7524 24.1605 67.8001 24.1341C67.8391 24.1127 67.8786 24.0918 67.9171 24.07C67.9519 24.0504 67.9856 24.0299 68.02 24.0099C68.0639 23.9846 68.108 23.9593 68.1514 23.9335C68.2271 23.8886 68.3019 23.843 68.3763 23.7968C68.4156 23.7726 68.4551 23.7485 68.4942 23.7238C68.5086 23.7147 68.5233 23.706 68.5376 23.6969C68.6115 23.6496 68.6842 23.6009 68.7567 23.5522C68.7799 23.5367 68.8035 23.5219 68.8265 23.5064L69.2501 23.2034C69.3232 23.1492 69.3957 23.0947 69.4671 23.0388C69.5076 23.007 69.5471 22.9745 69.5871 22.9425C69.6332 22.9056 69.68 22.8692 69.7254 22.8316C69.7452 22.8149 69.7639 22.7972 69.7844 22.7808C69.8151 22.7563 69.8527 22.7235 69.8819 22.6972C69.9514 22.6351 70.0229 22.5744 70.0918 22.5118C70.1485 22.4602 70.2038 22.4075 70.2592 22.3547C70.2952 22.3203 70.3324 22.2873 70.368 22.2524C70.3811 22.2395 70.3938 22.2261 70.407 22.2131C70.4352 22.185 70.4629 22.1566 70.491 22.1285C70.5432 22.0759 70.5952 22.0234 70.6454 21.9693C70.6814 21.9301 70.718 21.892 70.7534 21.8529C70.8289 21.7707 70.903 21.6875 70.9756 21.6028C70.9846 21.5922 70.9938 21.5823 71.0027 21.5718C71.0724 21.4897 71.141 21.4068 71.208 21.3223C71.2158 21.3123 71.2232 21.3017 71.231 21.2917C71.3271 21.1699 71.4213 21.0461 71.5118 20.919C71.5671 20.8412 71.62 20.7626 71.6718 20.6839C71.6846 20.6642 71.6973 20.6446 71.71 20.6247C71.7606 20.5459 71.81 20.4666 71.8567 20.3867C71.8568 20.3865 71.857 20.3862 71.8571 20.386C71.9039 20.3059 71.9481 20.2252 71.9908 20.1445C72.0014 20.1246 72.0119 20.1046 72.0224 20.0842C72.0639 20.0035 72.1044 19.9225 72.1419 19.841C72.1419 19.8409 72.142 19.8408 72.1423 19.8404C72.1796 19.7593 72.2142 19.6776 72.2473 19.5958C72.2554 19.5755 72.2635 19.5551 72.2715 19.5347C72.2796 19.5141 72.2885 19.4936 72.2962 19.473C72.3161 19.4205 72.3342 19.3679 72.352 19.3156C72.3557 19.3047 72.3599 19.2941 72.3635 19.2832C72.3908 19.2015 72.4152 19.1198 72.4377 19.038C72.4438 19.0161 72.4492 18.9941 72.4549 18.9721C72.4715 18.9085 72.4867 18.8449 72.5001 18.7815C72.5049 18.7598 72.5099 18.7379 72.5142 18.7163C72.5165 18.7044 72.5196 18.6922 72.5219 18.6801C72.53 18.6371 72.5356 18.5941 72.5423 18.5511C72.5476 18.517 72.5539 18.4827 72.5585 18.4487C72.5662 18.3887 72.5711 18.3292 72.5761 18.2697C72.5785 18.2427 72.5819 18.2155 72.5835 18.1885C72.5837 18.1856 72.5842 18.1825 72.5843 18.1796C72.5887 18.1027 72.59 18.0267 72.5892 17.9509C72.5892 17.9294 72.5881 17.908 72.5875 17.8867C72.5865 17.8521 72.5863 17.8169 72.5843 17.7823C72.5827 17.7549 72.5795 17.7278 72.5771 17.7003C72.5757 17.6831 72.5746 17.666 72.5727 17.649C72.5657 17.5809 72.5571 17.5128 72.5456 17.4457C72.5442 17.4373 72.542 17.4295 72.5408 17.4209C72.5392 17.4123 72.5376 17.4037 72.5361 17.3952L72.4077 16.9393C72.4039 16.9288 72.4 16.9183 72.3961 16.9075C72.3911 16.8957 72.3871 16.8831 72.382 16.8712C72.3562 16.8072 72.3276 16.7443 72.2965 16.6822L69.7919 11.3529C74.2606 11.3526 78.6144 11.3534 82.9437 11.3448C82.9595 11.3448 82.9762 11.344 82.9932 11.3428C83.0213 11.3408 83.0509 11.3371 83.0813 11.332C83.1104 11.3271 83.1404 11.3209 83.1708 11.3135C83.2011 11.3062 83.2319 11.2976 83.2632 11.2879C83.2939 11.2783 83.3252 11.2676 83.3562 11.2562C83.367 11.252 83.3777 11.2473 83.3886 11.2431C83.3914 11.242 83.3943 11.2407 83.3971 11.2396C83.4133 11.2331 83.4296 11.227 83.4457 11.22C83.4618 11.2132 83.4767 11.2052 83.4925 11.1984C83.4954 11.1969 83.4982 11.1957 83.5011 11.1942L83.7182 11.0684C83.7309 11.0591 83.7432 11.0497 83.7549 11.0403C84.2835 10.6133 84.811 10.1851 85.3373 9.75627C86.39 8.8983 87.439 8.03748 88.4875 7.17601C89.0118 6.74544 89.5357 6.31471 90.0599 5.88398C90.0644 5.88047 90.0686 5.87697 90.0729 5.8733C90.09 5.85928 90.1067 5.84415 90.1235 5.8295C90.1357 5.81866 90.1482 5.80815 90.1606 5.797C90.181 5.77884 90.2023 5.75893 90.2233 5.73934C90.2349 5.7285 90.2463 5.71815 90.2582 5.70684C90.2899 5.67737 90.3232 5.64567 90.3585 5.61222C90.3975 5.57558 90.4394 5.53624 90.4857 5.49355L87.7471 0.0367521Z" fill="white"/>
<path d="M49.1684 11.2319L49.1663 11.2307L49.1684 11.2319Z" fill="white"/>
<path d="M48.8737 11.0643C48.852 11.0507 48.8313 11.037 48.8106 11.0233L48.7966 11.0139L48.8106 11.0233C48.8313 11.037 48.852 11.0507 48.8737 11.0643Z" fill="white"/>
<path d="M57.539 15.0801C57.5094 15.0915 57.4771 15.1035 57.4438 15.1156C57.4769 15.1035 57.5094 15.0915 57.539 15.0801Z" fill="white"/>
<path d="M49.6128 13.1052L50.5533 14.9795L50.5534 14.9798L50.5533 14.9795L49.6128 13.1052Z" fill="white"/>
<path d="M49.1663 11.2307C49.0744 11.1838 48.9789 11.1295 48.875 11.0648C48.8745 11.0647 48.874 11.0645 48.8735 11.0642C48.874 11.0645 48.8745 11.0647 48.8748 11.0648C48.9789 11.1295 49.0741 11.1838 49.1663 11.2307Z" fill="white"/>
<path d="M58.3266 13.8245C58.3291 13.8271 58.3315 13.8297 58.334 13.8321C58.3315 13.8297 58.3291 13.8271 58.3266 13.8245C58.2938 13.7938 58.2628 13.7697 58.2299 13.7506C57.1461 13.4734 56.0639 13.2205 55.0171 12.9758C56.0639 13.2205 57.1461 13.4734 58.2299 13.7506C58.2628 13.7697 58.2938 13.7938 58.3266 13.8245Z" fill="white"/>
<path d="M48.5778 10.8586C48.5569 10.8427 48.5357 10.8269 48.5155 10.8105C48.4831 10.7845 48.4522 10.759 48.4226 10.7334C48.4522 10.759 48.4831 10.7845 48.5152 10.8105C48.5357 10.8269 48.5569 10.8427 48.5778 10.8586Z" fill="white"/>
</svg>
