<svg width="60" height="61" viewBox="0 0 60 61" fill="none" xmlns="http://www.w3.org/2000/svg">
<path d="M57.5038 56.4462C56.121 56.4462 55.0077 55.3212 55.0077 53.9501V7.69623C55.0077 6.31342 56.1327 5.20013 57.5038 5.20013C58.8749 5.20013 59.9999 6.31342 59.9999 7.69623V53.9501C59.9999 55.3212 58.8749 56.4462 57.5038 56.4462Z" fill="#F2CC50"/>
<path d="M2.49609 41.4462C1.125 41.4462 0 40.3212 0 38.9384V22.6962C0 21.3134 1.125 20.2001 2.49609 20.2001C3.86719 20.2001 4.99219 21.3251 4.99219 22.6962V38.9501C5.00391 40.3212 3.87891 41.4462 2.49609 41.4462Z" fill="#F2CC50"/>
<path d="M14.5312 60.7001C14.0273 60.7001 13.5116 60.5712 13.0429 60.29C11.6484 59.4697 11.1913 57.665 12.0116 56.2822L44.4726 1.4384C45.2929 0.0438642 47.0976 -0.413167 48.4804 0.407145C49.8749 1.22746 50.332 3.03215 49.5116 4.41496L17.0507 59.2587C16.4999 60.1845 15.5273 60.7001 14.5312 60.7001Z" fill="#F2CC50"/>
<path d="M59.2499 7.43837C58.7811 7.0868 58.1718 6.98133 57.5975 7.13368L52.4647 8.62196L30.035 46.5321L57.6093 54.5009C57.785 54.5477 57.9491 54.5712 58.1249 54.5712C58.5233 54.5712 58.9218 54.4423 59.2499 54.1962C59.7186 53.8446 59.9999 53.2821 59.9999 52.6962V8.93837C59.9999 8.35243 59.7186 7.80165 59.2499 7.43837Z" fill="#F2CC50"/>
<path d="M31.1133 14.7862L1.34766 23.3878C0.550781 23.6221 0 24.3604 0 25.1924V36.4424C0 37.2745 0.550781 38.0128 1.35938 38.2471L9.57422 40.6143C9.44531 41.2823 9.38672 41.9737 9.38672 42.6885C9.38672 44.8682 10.0078 46.9073 11.0977 48.6417L14.4023 43.0635L14.9063 42.1612L14.9414 42.1729L31.1133 14.7862Z" fill="#F2CC50"/>
</svg>
