<svg width="60" height="61" viewBox="0 0 60 61" fill="none" xmlns="http://www.w3.org/2000/svg">
<path d="M57.5039 56.4462C56.1211 56.4462 55.0078 55.3212 55.0078 53.9501V7.69617C55.0078 6.31335 56.1328 5.20007 57.5039 5.20007C58.875 5.20007 60 6.31335 60 7.69617V53.9501C60 55.3212 58.875 56.4462 57.5039 56.4462Z" fill="#00B9F2"/>
<path d="M2.49609 41.4462C1.125 41.4462 0 40.3212 0 38.9384V22.6962C0 21.3134 1.125 20.2001 2.49609 20.2001C3.86719 20.2001 4.99219 21.3251 4.99219 22.6962V38.9501C5.00391 40.3212 3.87891 41.4462 2.49609 41.4462Z" fill="#00B9F2"/>
<path d="M14.5312 60.7001C14.0273 60.7001 13.5116 60.5712 13.0429 60.29C11.6484 59.4697 11.1913 57.665 12.0116 56.2822L44.4726 1.4384C45.2929 0.0438642 47.0976 -0.413167 48.4804 0.407145C49.8749 1.22746 50.332 3.03215 49.5116 4.41496L17.0507 59.2587C16.4999 60.1845 15.5273 60.7001 14.5312 60.7001Z" fill="#00B9F2"/>
<path d="M59.2498 7.43843C58.781 7.08686 58.1716 6.9814 57.5974 7.13374L52.4646 8.62202L30.0349 46.5322L57.6091 54.5009C57.7849 54.5478 57.949 54.5712 58.1248 54.5712C58.5232 54.5712 58.9216 54.4423 59.2498 54.1962C59.7185 53.8447 59.9998 53.2822 59.9998 52.6962V8.93843C59.9998 8.35249 59.7185 7.80171 59.2498 7.43843Z" fill="#00B9F2"/>
<path d="M31.1133 14.7861L1.34766 23.3877C0.550781 23.6221 0 24.3604 0 25.1924V36.4424C0 37.2744 0.550781 38.0127 1.35938 38.2471L9.57422 40.6143C9.44531 41.2822 9.38672 41.9736 9.38672 42.6885C9.38672 44.8682 10.0078 46.9072 11.0977 48.6416L14.4023 43.0635L14.9063 42.1611L14.9414 42.1729L31.1133 14.7861Z" fill="#00B9F2"/>
</svg>
