<svg width="60" height="52" viewBox="0 0 60 52" fill="none" xmlns="http://www.w3.org/2000/svg">
<path fill-rule="evenodd" clip-rule="evenodd" d="M57.5 51.2498C56.12 51.2498 55 50.1298 55 48.7498V48.5499L31.0788 41.6393C29.4196 45.8948 25.3239 48.7497 20.6247 48.7497C14.4222 48.7497 9.37476 43.7022 9.37476 37.4997C9.37476 36.7849 9.43775 36.0904 9.56321 35.4237L4.97585 34.0985C4.8061 35.3137 3.76172 36.2499 2.49999 36.2499C1.12 36.2499 0 35.1299 0 33.7499V31.25V20V17.5C0 16.12 1.12 15 2.49999 15C3.76173 15 4.80612 15.9363 4.97585 17.1515L55 2.70006V2.49999C55 1.12 56.12 0 57.5 0C58.88 0 60 1.12 60 2.49999V48.7498C60 50.1298 58.88 51.2498 57.5 51.2498ZM26.2326 40.2393L14.4087 36.8235C14.3862 37.042 14.3747 37.2676 14.3747 37.4997C14.3747 40.9447 17.1797 43.7497 20.6247 43.7497C23.0262 43.7497 25.2081 42.3322 26.2326 40.2393Z" fill="#3E3E3F"/>
</svg>
