<svg width="60" height="52" viewBox="0 0 60 52" fill="none" xmlns="http://www.w3.org/2000/svg">
<path fill-rule="evenodd" clip-rule="evenodd" d="M57.5 51.2499C56.12 51.2499 55 50.1299 55 48.7499V48.5498L31.0791 41.6394C29.4199 45.8949 25.3242 48.7498 20.625 48.7498C14.4225 48.7498 9.375 43.7024 9.375 37.4999C9.375 36.7849 9.438 36.0904 9.56347 35.4237L4.97587 34.0984C4.80616 35.3137 3.76176 36.25 2.5 36.25C1.12 36.25 0 35.13 0 33.75V31.2499V19.9999V17.5C0 16.12 1.12 15 2.5 15C3.7617 15 4.80607 15.9362 4.97585 17.1514L55 2.69997V2.5C55 1.12 56.12 0 57.5 0C58.88 0 60 1.12 60 2.5V48.7499C60 50.1299 58.88 51.2499 57.5 51.2499ZM26.2329 40.2393L14.409 36.8236C14.3864 37.0421 14.375 37.2677 14.375 37.4999C14.375 40.9449 17.18 43.7498 20.625 43.7498C23.0265 43.7498 25.2084 42.3323 26.2329 40.2393Z" fill="#F2CC50" fill-opacity="0.5"/>
</svg>
