<svg width="1386" height="1087" viewBox="0 0 1386 1087" fill="none" xmlns="http://www.w3.org/2000/svg">
<path d="M608.783 541.669L529.795 406.353C505.96 365.521 447.603 363.739 421.321 403.041L279.59 614.991C250.363 658.698 283.387 717.048 335.903 714.491L593.784 701.936C641.674 699.605 670.089 647.382 646.035 605.905L608.783 541.669Z" stroke="#F2CC50"/>
<path d="M782.646 576.627L824.782 594.924C833.846 598.86 834.535 611.451 825.954 616.351L768.409 649.218C758.994 654.595 747.841 645.719 750.967 635.337L766.377 584.174C768.448 577.296 776.057 573.766 782.646 576.627Z" stroke="#F2CC50"/>
<path d="M681.685 436.92L662.218 467.804C658.715 473.362 650.378 472.562 647.995 466.441L628.815 417.167C626.188 410.417 633.167 403.929 639.708 407.041L678.354 425.43C682.682 427.489 684.24 432.865 681.685 436.92Z" stroke="#3E3E3F" stroke-opacity="0.5"/>
<path d="M543.261 730.2L507.715 700.47C500.248 694.225 502.933 682.156 512.343 679.665L578.353 662.192C588.95 659.386 597.451 671.089 591.507 680.299L561.042 727.502C557.131 733.563 548.794 734.828 543.261 730.2Z" stroke="#3E3E3F" stroke-opacity="0.5"/>
<path d="M328.005 351.691L332.93 361.222C333.302 361.943 332.707 362.784 331.904 362.672L316.245 360.488C315.341 360.362 315.065 359.189 315.818 358.673L326.551 351.325C327.047 350.985 327.729 351.157 328.005 351.691Z" stroke="#D25F33" stroke-opacity="0.5"/>
<path d="M516.782 657.243L527.436 666.533C529.271 668.133 528.536 671.138 526.169 671.71L505.941 676.6C503.278 677.244 501.216 674.275 502.749 672.005L512.324 657.826C513.333 656.331 515.423 656.058 516.782 657.243Z" stroke="#3E3E3F" stroke-opacity="0.5"/>
<path d="M258.252 263.863L306.177 264.931C318.484 265.205 325.239 279.369 317.707 289.105L275.191 344.061C266.877 354.807 249.702 349.848 248.396 336.324L242.987 280.301C242.124 271.355 249.267 263.663 258.252 263.863Z" stroke="#3E3E3F" stroke-opacity="0.5"/>
<path d="M833.045 566.599L836.481 580.175C837.284 583.344 834.152 586.085 831.117 584.87L812.164 577.279C808.791 575.928 808.821 571.142 812.212 569.834L827.727 563.848C829.966 562.985 832.456 564.273 833.045 566.599Z" stroke="#F2CC50"/>
<path d="M1014.64 517.607L818.867 645.432C758.602 684.78 760.671 773.746 822.699 810.25L1153.78 1005.09C1222.49 1045.53 1307.94 990.403 1299.42 911.128L1258.18 527.429C1250.45 455.529 1169.59 417.062 1108.93 456.425L1014.64 517.607Z" stroke="#F2CC50"/>
<path d="M147.649 519.305L232.633 501.309C259.422 495.637 270.982 463.84 254.09 442.288L167.008 331.178C148.253 307.248 110.242 314.897 102.203 344.218L64.5285 481.628C57.2137 508.307 80.694 533.284 107.774 527.63L147.649 519.305Z" stroke="#F2CC50"/>
<path d="M382.676 615.695L398.603 528.309C403.385 502.071 378.971 479.924 353.321 487.232L213.074 527.193C184.621 535.3 177.551 572.362 201.022 590.374L317.562 679.809C338.89 696.176 369.982 684.24 374.877 657.805L382.676 615.695Z" stroke="#D25F33"/>
<path d="M641.203 750.328L651.717 743.775C655.433 741.458 655.496 736.07 651.835 733.667L636.046 723.304C631.93 720.602 626.492 723.733 626.763 728.649L627.835 748.169C628.085 752.717 633.113 755.339 636.985 752.94L641.203 750.328Z" stroke="#D25F33" stroke-opacity="0.5"/>
<path d="M314.707 382.885L321.698 400.004C323.61 404.689 329.709 405.859 333.219 402.215L353.163 381.513C357.144 377.381 354.736 370.477 349.048 369.718L319.041 365.714C313.718 365.003 309.611 370.303 311.627 375.28L314.707 382.885Z" stroke="#D25F33" stroke-opacity="0.5"/>
<path d="M628.28 442.885L600.244 369.599C591.805 347.538 563.191 341.91 547.025 359.132L459.808 452.047C441.817 471.213 453.328 502.693 479.439 505.733L607.805 520.677C631.64 523.451 649.936 499.978 641.426 477.542L628.28 442.885Z" stroke="#3E3E3F" stroke-opacity="0.5"/>
<path d="M259.946 150.604L231.911 77.3189C223.472 55.2575 194.858 49.6296 178.692 66.8516L91.4743 159.766C73.4835 178.932 84.9949 210.413 111.105 213.453L239.472 228.396C263.306 231.171 281.602 207.698 273.092 185.262L259.946 150.604Z" stroke="#3E3E3F" stroke-opacity="0.5"/>
</svg>
