<svg width="1267" height="595" viewBox="0 0 1267 595" fill="none" xmlns="http://www.w3.org/2000/svg">
<path d="M547.496 292.153L458.128 205.413C424.731 172.999 368.925 186.74 354.398 230.955L293.387 416.642C277.231 465.812 323.973 512.408 373.093 496.097L560.938 433.722C605.731 418.848 618.865 361.817 585.09 328.849L547.496 292.153Z" fill="#F2CC50" fill-opacity="0.5"/>
<path d="M698.865 278.779L738.444 284.169C746.542 285.272 749.97 295.097 744.314 300.997L704.018 343.035C697.731 349.594 686.663 345.048 686.8 335.964L687.517 288.537C687.607 282.539 692.921 277.97 698.865 278.779Z" fill="#F2CC50"/>
<path d="M583.385 186.727L574.944 217.328C573.423 222.844 566.287 224.304 562.721 219.829L533.884 183.635C529.921 178.661 534.108 171.407 540.397 172.35L577.676 177.943C581.828 178.566 584.502 182.679 583.385 186.727Z" fill="#3E3E3F"/>
<path d="M535.67 463.76L501.811 449.06C492.882 445.184 492.041 432.848 500.362 427.796L546.854 399.565C556.224 393.876 567.688 402.694 564.594 413.21L551.961 456.141C549.924 463.061 542.287 466.633 535.67 463.76Z" fill="#3E3E3F"/>
<path d="M269.697 200.439L275.394 206.735C275.938 207.337 275.577 208.302 274.772 208.399L262.349 209.896C261.442 210.006 260.875 208.942 261.472 208.25L268.198 200.456C268.591 200.001 269.293 199.993 269.697 200.439Z" fill="#D25F33" fill-opacity="0.5"/>
<path d="M497.979 409.162L507.769 413.285C510.02 414.233 510.255 417.329 508.174 418.607L494.899 426.754C492.569 428.184 489.697 426.007 490.444 423.378L493.929 411.107C494.421 409.374 496.319 408.462 497.979 409.162Z" fill="#3E3E3F"/>
<path d="M191.943 144.089L231.391 133.778C241.713 131.08 250.711 141.278 246.748 151.183L224.799 206.055C220.426 216.988 204.933 216.939 200.628 205.978L183.13 161.418C180.283 154.168 184.407 146.058 191.943 144.089Z" fill="#3E3E3F" fill-opacity="0.5"/>
<path d="M738.244 258.547L745.131 270.304C746.371 272.42 744.686 275.048 742.246 274.806L722.479 272.843C719.767 272.574 718.79 269.12 720.96 267.47L733.839 257.676C735.272 256.587 737.334 256.995 738.244 258.547Z" fill="#F2CC50"/>
<path d="M876.525 176.667L744.35 328.434C703.036 375.873 725.777 450.195 786.563 466.392L1103 550.713C1170.49 568.698 1229.66 502.122 1203.88 437.207L1081.89 130.025C1058.44 70.9609 980.828 57.586 938.955 105.392L876.525 176.667Z" fill="#F2CC50"/>
<path d="M160.597 382.699L227.403 347.092C248.302 335.953 250.28 306.759 231.075 292.902L131.193 220.838C109.869 205.452 80.1196 220.925 80.4727 247.218L82.1422 371.516C82.4635 395.439 107.966 410.561 129.111 399.367L160.597 382.699Z" fill="#F2CC50"/>
<path d="M378.021 405.55L370.509 329.649C368.174 306.057 341.891 293.107 321.761 305.629L215.972 371.441C193.642 385.332 196.672 418.734 221.137 428.381L337.893 474.423C360.124 483.189 383.772 465.38 381.485 441.592L378.021 405.55Z" fill="#D25F33"/>
<path d="M622.812 456.561L631.401 447.059C632.87 445.434 632.159 442.835 630.069 442.183L609.407 435.738C607.057 435.005 604.873 437.258 605.679 439.584L613.008 460.75C613.753 462.902 616.531 463.472 618.063 461.786L622.812 456.561Z" fill="#D25F33" fill-opacity="0.5"/>
<path d="M265.527 228.975L274.385 240.668C277.44 244.701 283.634 244.26 286.087 239.835L296.643 220.79C299.425 215.771 295.319 209.722 289.628 210.454L266.881 213.381C261.556 214.066 258.953 220.245 262.183 224.535L265.527 228.975Z" fill="#D25F33" fill-opacity="0.5"/>
<path d="M540.334 204.19L499.976 151.168C487.458 134.722 462.047 137.042 452.713 155.483L404.065 251.601C393.678 272.123 411.094 295.721 433.766 291.845L541.452 273.432C562.147 269.894 571.73 245.68 559.06 228.937L540.334 204.19Z" fill="#3E3E3F"/>
</svg>
