<svg width="76" height="76" viewBox="0 0 76 76" fill="none" xmlns="http://www.w3.org/2000/svg">
<g filter="url(#filter0_d)">
<path d="M73.047 35.5242C73.047 55.1427 57.1431 71.0466 37.5246 71.0466C17.9061 71.0466 2.00223 55.1427 2.00223 35.5242C2.00223 15.9057 17.9061 0.00183105 37.5246 0.00183105C57.1431 0.00183105 73.047 15.9057 73.047 35.5242ZM5.55447 35.5242C5.55447 53.1808 19.868 67.4944 37.5246 67.4944C55.1812 67.4944 69.4948 53.1808 69.4948 35.5242C69.4948 17.8676 55.1812 3.55407 37.5246 3.55407C19.868 3.55407 5.55447 17.8676 5.55447 35.5242Z" fill="url(#paint0_linear)"/>
<path d="M73.0471 35.5247C73.0471 41.1305 71.7204 46.6568 69.1754 51.6516C66.6304 56.6464 62.9395 60.9679 58.4043 64.2629C53.8691 67.5579 48.6185 69.7328 43.0817 70.6098C37.5449 71.4867 31.8792 71.0408 26.5477 69.3085C21.2163 67.5762 16.3705 64.6067 12.4066 60.6428C8.44274 56.679 5.47325 51.8332 3.74097 46.5018C2.00868 41.1703 1.56278 35.5046 2.43972 29.9678C3.31666 24.431 5.49154 19.1804 8.78655 14.6452L14.5342 18.8211C11.8982 22.4493 10.1583 26.6498 9.45672 31.0792C8.75517 35.5086 9.11189 40.0412 10.4977 44.3064C11.8836 48.5715 14.2591 52.4481 17.4303 55.6192C20.6014 58.7903 24.478 61.1659 28.7431 62.5518C33.0083 63.9376 37.5409 64.2943 41.9703 63.5928C46.3997 62.8912 50.6002 61.1513 54.2284 58.5153C57.8565 55.8793 60.8093 52.422 62.8453 48.4262C64.8813 44.4304 65.9426 40.0094 65.9426 35.5247H73.0471Z" fill="url(#paint1_linear)"/>
</g>
<defs>
<filter id="filter0_d" x="0" y="0" width="76" height="76" filterUnits="userSpaceOnUse" color-interpolation-filters="sRGB">
<feFlood flood-opacity="0" result="BackgroundImageFix"/>
<feColorMatrix in="SourceAlpha" type="matrix" values="0 0 0 0 0 0 0 0 0 0 0 0 0 0 0 0 0 0 127 0" result="hardAlpha"/>
<feOffset dy="2"/>
<feGaussianBlur stdDeviation="1"/>
<feColorMatrix type="matrix" values="0 0 0 0 0 0 0 0 0 0 0 0 0 0 0 0 0 0 0.2 0"/>
<feBlend mode="normal" in2="BackgroundImageFix" result="effect1_dropShadow"/>
<feBlend mode="normal" in="SourceGraphic" in2="effect1_dropShadow" result="shape"/>
</filter>
<linearGradient id="paint0_linear" x1="73.047" y1="0.00183105" x2="2.00223" y2="0.00183105" gradientUnits="userSpaceOnUse">
<stop stop-color="#D8D8D8"/>
<stop offset="1" stop-color="#F1F1F1"/>
</linearGradient>
<linearGradient id="paint1_linear" x1="2.00238" y1="71.0471" x2="2.00238" y2="0.00238037" gradientUnits="userSpaceOnUse">
<stop stop-color="#0A7BB3"/>
<stop offset="1" stop-color="#1EC7F4"/>
</linearGradient>
</defs>
</svg>
